  0
SECTION
  2
ENTITIES
  0
POLYLINE
  8
2
  62
0
  66
1
  0
VERTEX
  8
2
  62
0
  10
    3.000000
  20
    31.300000
  30
    0.000000
  0
VERTEX
  8
2
  62
0
  10
    2.700000
  20
    30.000000
  30
    0.000000
  0
VERTEX
  8
2
  62
0
  10
    1.400000
  20
    30.200000
  30
    0.000000
  0
VERTEX
  8
2
  62
0
  10
    1.600000
  20
    30.700000
  30
    0.000000
  0
VERTEX
  8
2
  62
0
  10
    2.400000
  20
    30.400000
  30
    0.000000
  0
VERTEX
  8
2
  62
0
  10
    3.000000
  20
    31.300000
  30
    0.000000
  0
SEQEND
  0
POLYLINE
  8
2
  62
0
  66
1
  0
VERTEX
  8
2
  62
0
  10
    6.600000
  20
    31.000000
  30
    0.000000
  0
VERTEX
  8
2
  62
0
  10
    6.700000
  20
    29.900000
  30
    0.000000
  0
VERTEX
  8
2
  62
0
  10
    5.100000
  20
    28.900000
  30
    0.000000
  0
VERTEX
  8
2
  62
0
  10
    5.600000
  20
    31.000000
  30
    0.000000
  0
VERTEX
  8
2
  62
0
  10
    6.600000
  20
    31.000000
  30
    0.000000
  0
SEQEND
  0
POLYLINE
  8
2
  62
0
  66
1
  0
VERTEX
  8
2
  62
0
  10
    9.000000
  20
    35.400000
  30
    0.000000
  0
VERTEX
  8
2
  62
0
  10
    9.300000
  20
    34.900000
  30
    0.000000
  0
VERTEX
  8
2
  62
0
  10
    8.600000
  20
    33.700000
  30
    0.000000
  0
VERTEX
  8
2
  62
0
  10
    7.300000
  20
    33.300000
  30
    0.000000
  0
VERTEX
  8
2
  62
0
  10
    7.200000
  20
    35.400000
  30
    0.000000
  0
VERTEX
  8
2
  62
0
  10
    9.000000
  20
    35.400000
  30
    0.000000
  0
SEQEND
  0
POLYLINE
  8
2
  62
0
  66
1
  0
VERTEX
  8
2
  62
0
  10
    9.100000
  20
    15.900000
  30
    0.000000
  0
VERTEX
  8
2
  62
0
  10
    11.600000
  20
    15.600000
  30
    0.000000
  0
VERTEX
  8
2
  62
0
  10
    12.200000
  20
    14.500000
  30
    0.000000
  0
VERTEX
  8
2
  62
0
  10
    9.600000
  20
    14.700000
  30
    0.000000
  0
VERTEX
  8
2
  62
0
  10
    9.100000
  20
    15.900000
  30
    0.000000
  0
SEQEND
  0
POLYLINE
  8
2
  62
0
  66
1
  0
VERTEX
  8
2
  62
0
  10
    13.400000
  20
    38.200000
  30
    0.000000
  0
VERTEX
  8
2
  62
0
  10
    12.700000
  20
    36.700000
  30
    0.000000
  0
VERTEX
  8
2
  62
0
  10
    11.300000
  20
    36.800000
  30
    0.000000
  0
VERTEX
  8
2
  62
0
  10
    12.300000
  20
    37.900000
  30
    0.000000
  0
VERTEX
  8
2
  62
0
  10
    13.400000
  20
    38.200000
  30
    0.000000
  0
SEQEND
  0
POLYLINE
  8
2
  62
0
  66
1
  0
VERTEX
  8
2
  62
0
  10
    16.300000
  20
    42.300000
  30
    0.000000
  0
VERTEX
  8
2
  62
0
  10
    16.500000
  20
    40.600000
  30
    0.000000
  0
VERTEX
  8
2
  62
0
  10
    14.800000
  20
    40.000000
  30
    0.000000
  0
VERTEX
  8
2
  62
0
  10
    15.500000
  20
    42.000000
  30
    0.000000
  0
VERTEX
  8
2
  62
0
  10
    16.300000
  20
    42.300000
  30
    0.000000
  0
SEQEND
  0
POLYLINE
  8
2
  62
0
  66
1
  0
VERTEX
  8
2
  62
0
  10
    17.900000
  20
    60.000000
  30
    0.000000
  0
VERTEX
  8
2
  62
0
  10
    20.800000
  20
    60.000000
  30
    0.000000
  0
VERTEX
  8
2
  62
0
  10
    21.900000
  20
    58.700000
  30
    0.000000
  0
VERTEX
  8
2
  62
0
  10
    22.000000
  20
    57.800000
  30
    0.000000
  0
VERTEX
  8
2
  62
0
  10
    19.900000
  20
    56.300000
  30
    0.000000
  0
VERTEX
  8
2
  62
0
  10
    18.400000
  20
    56.500000
  30
    0.000000
  0
VERTEX
  8
2
  62
0
  10
    17.800000
  20
    57.500000
  30
    0.000000
  0
VERTEX
  8
2
  62
0
  10
    17.900000
  20
    60.000000
  30
    0.000000
  0
SEQEND
  0
POLYLINE
  8
2
  62
0
  66
1
  0
VERTEX
  8
2
  62
0
  10
    20.900000
  20
    9.100000
  30
    0.000000
  0
VERTEX
  8
2
  62
0
  10
    20.000000
  20
    7.000000
  30
    0.000000
  0
VERTEX
  8
2
  62
0
  10
    18.600000
  20
    6.200000
  30
    0.000000
  0
VERTEX
  8
2
  62
0
  10
    19.800000
  20
    8.700000
  30
    0.000000
  0
VERTEX
  8
2
  62
0
  10
    20.900000
  20
    9.100000
  30
    0.000000
  0
SEQEND
  0
POLYLINE
  8
2
  62
0
  66
1
  0
VERTEX
  8
2
  62
0
  10
    21.500000
  20
    54.300000
  30
    0.000000
  0
VERTEX
  8
2
  62
0
  10
    21.300000
  20
    52.900000
  30
    0.000000
  0
VERTEX
  8
2
  62
0
  10
    20.500000
  20
    52.600000
  30
    0.000000
  0
VERTEX
  8
2
  62
0
  10
    20.500000
  20
    53.900000
  30
    0.000000
  0
VERTEX
  8
2
  62
0
  10
    21.500000
  20
    54.300000
  30
    0.000000
  0
SEQEND
  0
POLYLINE
  8
2
  62
0
  66
1
  0
VERTEX
  8
2
  62
0
  10
    21.300000
  20
    41.000000
  30
    0.000000
  0
VERTEX
  8
2
  62
0
  10
    21.900000
  20
    40.800000
  30
    0.000000
  0
VERTEX
  8
2
  62
0
  10
    22.100000
  20
    39.400000
  30
    0.000000
  0
VERTEX
  8
2
  62
0
  10
    21.100000
  20
    40.000000
  30
    0.000000
  0
VERTEX
  8
2
  62
0
  10
    21.300000
  20
    41.000000
  30
    0.000000
  0
SEQEND
  0
POLYLINE
  8
2
  62
0
  66
1
  0
VERTEX
  8
2
  62
0
  10
    24.800000
  20
    51.700000
  30
    0.000000
  0
VERTEX
  8
2
  62
0
  10
    25.800000
  20
    51.300000
  30
    0.000000
  0
VERTEX
  8
2
  62
0
  10
    27.000000
  20
    49.400000
  30
    0.000000
  0
VERTEX
  8
2
  62
0
  10
    27.100000
  20
    48.600000
  30
    0.000000
  0
VERTEX
  8
2
  62
0
  10
    26.400000
  20
    47.700000
  30
    0.000000
  0
VERTEX
  8
2
  62
0
  10
    24.500000
  20
    50.100000
  30
    0.000000
  0
VERTEX
  8
2
  62
0
  10
    24.800000
  20
    51.700000
  30
    0.000000
  0
SEQEND
  0
POLYLINE
  8
2
  62
0
  66
1
  0
VERTEX
  8
2
  62
0
  10
    27.200000
  20
    51.100000
  30
    0.000000
  0
VERTEX
  8
2
  62
0
  10
    28.200000
  20
    51.200000
  30
    0.000000
  0
VERTEX
  8
2
  62
0
  10
    28.200000
  20
    49.800000
  30
    0.000000
  0
VERTEX
  8
2
  62
0
  10
    27.000000
  20
    50.200000
  30
    0.000000
  0
VERTEX
  8
2
  62
0
  10
    27.200000
  20
    51.100000
  30
    0.000000
  0
SEQEND
  0
POLYLINE
  8
2
  62
0
  66
1
  0
VERTEX
  8
2
  62
0
  10
    27.400000
  20
    24.200000
  30
    0.000000
  0
VERTEX
  8
2
  62
0
  10
    28.400000
  20
    24.300000
  30
    0.000000
  0
VERTEX
  8
2
  62
0
  10
    30.300000
  20
    22.900000
  30
    0.000000
  0
VERTEX
  8
2
  62
0
  10
    30.800000
  20
    21.400000
  30
    0.000000
  0
VERTEX
  8
2
  62
0
  10
    29.200000
  20
    21.500000
  30
    0.000000
  0
VERTEX
  8
2
  62
0
  10
    27.400000
  20
    24.200000
  30
    0.000000
  0
SEQEND
  0
POLYLINE
  8
2
  62
0
  66
1
  0
VERTEX
  8
2
  62
0
  10
    32.000000
  20
    29.300000
  30
    0.000000
  0
VERTEX
  8
2
  62
0
  10
    31.500000
  20
    28.300000
  30
    0.000000
  0
VERTEX
  8
2
  62
0
  10
    30.300000
  20
    27.800000
  30
    0.000000
  0
VERTEX
  8
2
  62
0
  10
    29.000000
  20
    28.000000
  30
    0.000000
  0
VERTEX
  8
2
  62
0
  10
    28.200000
  20
    28.800000
  30
    0.000000
  0
VERTEX
  8
2
  62
0
  10
    29.200000
  20
    29.800000
  30
    0.000000
  0
VERTEX
  8
2
  62
0
  10
    31.200000
  20
    29.900000
  30
    0.000000
  0
VERTEX
  8
2
  62
0
  10
    32.000000
  20
    29.300000
  30
    0.000000
  0
SEQEND
  0
POLYLINE
  8
2
  62
0
  66
1
  0
VERTEX
  8
2
  62
0
  10
    35.500000
  20
    60.000000
  30
    0.000000
  0
VERTEX
  8
2
  62
0
  10
    35.000000
  20
    59.000000
  30
    0.000000
  0
VERTEX
  8
2
  62
0
  10
    33.400000
  20
    58.300000
  30
    0.000000
  0
VERTEX
  8
2
  62
0
  10
    32.000000
  20
    56.800000
  30
    0.000000
  0
VERTEX
  8
2
  62
0
  10
    31.200000
  20
    53.700000
  30
    0.000000
  0
VERTEX
  8
2
  62
0
  10
    29.400000
  20
    53.300000
  30
    0.000000
  0
VERTEX
  8
2
  62
0
  10
    29.000000
  20
    54.200000
  30
    0.000000
  0
VERTEX
  8
2
  62
0
  10
    29.900000
  20
    56.700000
  30
    0.000000
  0
VERTEX
  8
2
  62
0
  10
    28.500000
  20
    59.000000
  30
    0.000000
  0
VERTEX
  8
2
  62
0
  10
    31.100000
  20
    59.300000
  30
    0.000000
  0
VERTEX
  8
2
  62
0
  10
    31.600000
  20
    60.000000
  30
    0.000000
  0
VERTEX
  8
2
  62
0
  10
    35.500000
  20
    60.000000
  30
    0.000000
  0
SEQEND
  0
POLYLINE
  8
2
  62
0
  66
1
  0
VERTEX
  8
2
  62
0
  10
    39.800000
  20
    6.400000
  30
    0.000000
  0
VERTEX
  8
2
  62
0
  10
    39.000000
  20
    4.500000
  30
    0.000000
  0
VERTEX
  8
2
  62
0
  10
    37.300000
  20
    4.600000
  30
    0.000000
  0
VERTEX
  8
2
  62
0
  10
    37.900000
  20
    6.100000
  30
    0.000000
  0
VERTEX
  8
2
  62
0
  10
    39.800000
  20
    6.400000
  30
    0.000000
  0
SEQEND
  0
POLYLINE
  8
2
  62
0
  66
1
  0
VERTEX
  8
2
  62
0
  10
    40.500000
  20
    41.300000
  30
    0.000000
  0
VERTEX
  8
2
  62
0
  10
    41.600000
  20
    41.300000
  30
    0.000000
  0
VERTEX
  8
2
  62
0
  10
    42.000000
  20
    40.600000
  30
    0.000000
  0
VERTEX
  8
2
  62
0
  10
    41.600000
  20
    38.700000
  30
    0.000000
  0
VERTEX
  8
2
  62
0
  10
    41.000000
  20
    38.600000
  30
    0.000000
  0
VERTEX
  8
2
  62
0
  10
    40.100000
  20
    39.700000
  30
    0.000000
  0
VERTEX
  8
2
  62
0
  10
    40.500000
  20
    41.300000
  30
    0.000000
  0
SEQEND
  0
POLYLINE
  8
2
  62
0
  66
1
  0
VERTEX
  8
2
  62
0
  10
    40.900000
  20
    20.300000
  30
    0.000000
  0
VERTEX
  8
2
  62
0
  10
    41.600000
  20
    19.900000
  30
    0.000000
  0
VERTEX
  8
2
  62
0
  10
    42.000000
  20
    18.500000
  30
    0.000000
  0
VERTEX
  8
2
  62
0
  10
    41.400000
  20
    17.000000
  30
    0.000000
  0
VERTEX
  8
2
  62
0
  10
    40.000000
  20
    18.600000
  30
    0.000000
  0
VERTEX
  8
2
  62
0
  10
    40.900000
  20
    20.300000
  30
    0.000000
  0
SEQEND
  0
POLYLINE
  8
2
  62
0
  66
1
  0
VERTEX
  8
2
  62
0
  10
    40.900000
  20
    12.700000
  30
    0.000000
  0
VERTEX
  8
2
  62
0
  10
    41.700000
  20
    11.600000
  30
    0.000000
  0
VERTEX
  8
2
  62
0
  10
    41.700000
  20
    9.900000
  30
    0.000000
  0
VERTEX
  8
2
  62
0
  10
    41.200000
  20
    9.400000
  30
    0.000000
  0
VERTEX
  8
2
  62
0
  10
    40.700000
  20
    9.700000
  30
    0.000000
  0
VERTEX
  8
2
  62
0
  10
    40.900000
  20
    12.700000
  30
    0.000000
  0
SEQEND
  0
POLYLINE
  8
2
  62
0
  66
1
  0
VERTEX
  8
2
  62
0
  10
    51.300000
  20
    31.900000
  30
    0.000000
  0
VERTEX
  8
2
  62
0
  10
    50.200000
  20
    29.800000
  30
    0.000000
  0
VERTEX
  8
2
  62
0
  10
    48.500000
  20
    30.000000
  30
    0.000000
  0
VERTEX
  8
2
  62
0
  10
    49.800000
  20
    31.600000
  30
    0.000000
  0
VERTEX
  8
2
  62
0
  10
    51.300000
  20
    31.900000
  30
    0.000000
  0
SEQEND
  0
POLYLINE
  8
2
  62
0
  66
1
  0
VERTEX
  8
2
  62
0
  10
    50.400000
  20
    16.400000
  30
    0.000000
  0
VERTEX
  8
2
  62
0
  10
    51.800000
  20
    15.900000
  30
    0.000000
  0
VERTEX
  8
2
  62
0
  10
    51.800000
  20
    14.300000
  30
    0.000000
  0
VERTEX
  8
2
  62
0
  10
    50.700000
  20
    14.700000
  30
    0.000000
  0
VERTEX
  8
2
  62
0
  10
    50.400000
  20
    16.400000
  30
    0.000000
  0
SEQEND
  0
POLYLINE
  8
2
  62
0
  66
1
  0
VERTEX
  8
2
  62
0
  10
    58.200000
  20
    50.100000
  30
    0.000000
  0
VERTEX
  8
2
  62
0
  10
    59.300000
  20
    49.300000
  30
    0.000000
  0
VERTEX
  8
2
  62
0
  10
    59.200000
  20
    46.200000
  30
    0.000000
  0
VERTEX
  8
2
  62
0
  10
    58.400000
  20
    45.300000
  30
    0.000000
  0
VERTEX
  8
2
  62
0
  10
    57.600000
  20
    45.300000
  30
    0.000000
  0
VERTEX
  8
2
  62
0
  10
    57.000000
  20
    45.800000
  30
    0.000000
  0
VERTEX
  8
2
  62
0
  10
    57.000000
  20
    48.500000
  30
    0.000000
  0
VERTEX
  8
2
  62
0
  10
    58.200000
  20
    50.100000
  30
    0.000000
  0
SEQEND
  0
POLYLINE
  8
2
  62
0
  66
1
  0
VERTEX
  8
2
  62
0
  10
    62.700000
  20
    20.500000
  30
    0.000000
  0
VERTEX
  8
2
  62
0
  10
    62.300000
  20
    19.200000
  30
    0.000000
  0
VERTEX
  8
2
  62
0
  10
    61.000000
  20
    19.100000
  30
    0.000000
  0
VERTEX
  8
2
  62
0
  10
    61.300000
  20
    20.000000
  30
    0.000000
  0
VERTEX
  8
2
  62
0
  10
    62.700000
  20
    20.500000
  30
    0.000000
  0
SEQEND
  0
POLYLINE
  8
2
  62
0
  66
1
  0
VERTEX
  8
2
  62
0
  10
    62.900000
  20
    53.400000
  30
    0.000000
  0
VERTEX
  8
2
  62
0
  10
    62.900000
  20
    52.400000
  30
    0.000000
  0
VERTEX
  8
2
  62
0
  10
    61.500000
  20
    51.500000
  30
    0.000000
  0
VERTEX
  8
2
  62
0
  10
    62.100000
  20
    53.300000
  30
    0.000000
  0
VERTEX
  8
2
  62
0
  10
    62.900000
  20
    53.400000
  30
    0.000000
  0
SEQEND
  0
POLYLINE
  8
2
  62
0
  66
1
  0
VERTEX
  8
2
  62
0
  10
    63.900000
  20
    30.200000
  30
    0.000000
  0
VERTEX
  8
2
  62
0
  10
    64.700000
  20
    29.900000
  30
    0.000000
  0
VERTEX
  8
2
  62
0
  10
    64.500000
  20
    28.700000
  30
    0.000000
  0
VERTEX
  8
2
  62
0
  10
    63.600000
  20
    29.200000
  30
    0.000000
  0
VERTEX
  8
2
  62
0
  10
    63.900000
  20
    30.200000
  30
    0.000000
  0
SEQEND
  0
POLYLINE
  8
2
  62
0
  66
1
  0
VERTEX
  8
2
  62
0
  10
    71.800000
  20
    23.900000
  30
    0.000000
  0
VERTEX
  8
2
  62
0
  10
    72.600000
  20
    23.500000
  30
    0.000000
  0
VERTEX
  8
2
  62
0
  10
    72.500000
  20
    21.900000
  30
    0.000000
  0
VERTEX
  8
2
  62
0
  10
    71.700000
  20
    22.600000
  30
    0.000000
  0
VERTEX
  8
2
  62
0
  10
    71.800000
  20
    23.900000
  30
    0.000000
  0
SEQEND
  0
POLYLINE
  8
2
  62
0
  66
1
  0
VERTEX
  8
2
  62
0
  10
    78.600000
  20
    24.800000
  30
    0.000000
  0
VERTEX
  8
2
  62
0
  10
    79.100000
  20
    23.400000
  30
    0.000000
  0
VERTEX
  8
2
  62
0
  10
    78.400000
  20
    22.700000
  30
    0.000000
  0
VERTEX
  8
2
  62
0
  10
    77.400000
  20
    22.700000
  30
    0.000000
  0
VERTEX
  8
2
  62
0
  10
    77.000000
  20
    24.000000
  30
    0.000000
  0
VERTEX
  8
2
  62
0
  10
    78.600000
  20
    24.800000
  30
    0.000000
  0
SEQEND
  0
POLYLINE
  8
2
  62
0
  66
1
  0
VERTEX
  8
2
  62
0
  10
    78.800000
  20
    17.500000
  30
    0.000000
  0
VERTEX
  8
2
  62
0
  10
    79.200000
  20
    15.800000
  30
    0.000000
  0
VERTEX
  8
2
  62
0
  10
    78.500000
  20
    14.200000
  30
    0.000000
  0
VERTEX
  8
2
  62
0
  10
    77.600000
  20
    14.100000
  30
    0.000000
  0
VERTEX
  8
2
  62
0
  10
    77.300000
  20
    16.500000
  30
    0.000000
  0
VERTEX
  8
2
  62
0
  10
    78.800000
  20
    17.500000
  30
    0.000000
  0
SEQEND
  0
POLYLINE
  8
2
  62
0
  66
1
  0
VERTEX
  8
2
  62
0
  10
    78.200000
  20
    19.900000
  30
    0.000000
  0
VERTEX
  8
2
  62
0
  10
    80.000000
  20
    19.900000
  30
    0.000000
  0
VERTEX
  8
2
  62
0
  10
    80.000000
  20
    18.600000
  30
    0.000000
  0
VERTEX
  8
2
  62
0
  10
    78.800000
  20
    18.800000
  30
    0.000000
  0
VERTEX
  8
2
  62
0
  10
    78.200000
  20
    19.900000
  30
    0.000000
  0
SEQEND
  0
POLYLINE
  8
2
  62
0
  66
1
  0
VERTEX
  8
2
  62
0
  10
    80.000000
  20
    13.900000
  30
    0.000000
  0
VERTEX
  8
2
  62
0
  10
    80.000000
  20
    12.200000
  30
    0.000000
  0
VERTEX
  8
2
  62
0
  10
    78.400000
  20
    11.800000
  30
    0.000000
  0
VERTEX
  8
2
  62
0
  10
    78.300000
  20
    13.100000
  30
    0.000000
  0
VERTEX
  8
2
  62
0
  10
    80.000000
  20
    13.900000
  30
    0.000000
  0
SEQEND
  0
POLYLINE
  8
2
  62
0
  66
1
  0
VERTEX
  8
2
  62
0
  10
    15.000000
  20
    59.100000
  30
    0.000000
  0
VERTEX
  8
2
  62
0
  10
    16.400000
  20
    56.800000
  30
    0.000000
  0
VERTEX
  8
2
  62
0
  10
    16.900000
  20
    54.500000
  30
    0.000000
  0
VERTEX
  8
2
  62
0
  10
    16.800000
  20
    53.200000
  30
    0.000000
  0
VERTEX
  8
2
  62
0
  10
    15.400000
  20
    51.600000
  30
    0.000000
  0
VERTEX
  8
2
  62
0
  10
    12.300000
  20
    50.100000
  30
    0.000000
  0
VERTEX
  8
2
  62
0
  10
    8.400000
  20
    48.900000
  30
    0.000000
  0
VERTEX
  8
2
  62
0
  10
    3.900000
  20
    48.400000
  30
    0.000000
  0
VERTEX
  8
2
  62
0
  10
    0.000000
  20
    46.700000
  30
    0.000000
  0
VERTEX
  8
2
  62
0
  10
    0.000000
  20
    60.000000
  30
    0.000000
  0
VERTEX
  8
2
  62
0
  10
    13.600000
  20
    60.000000
  30
    0.000000
  0
VERTEX
  8
2
  62
0
  10
    15.000000
  20
    59.100000
  30
    0.000000
  0
SEQEND
  0
POLYLINE
  8
2
  62
0
  66
1
  0
VERTEX
  8
2
  62
0
  10
    0.000000
  20
    44.300000
  30
    0.000000
  0
VERTEX
  8
2
  62
0
  10
    1.600000
  20
    39.900000
  30
    0.000000
  0
VERTEX
  8
2
  62
0
  10
    4.800000
  20
    36.600000
  30
    0.000000
  0
VERTEX
  8
2
  62
0
  10
    4.400000
  20
    34.800000
  30
    0.000000
  0
VERTEX
  8
2
  62
0
  10
    0.000000
  20
    30.700000
  30
    0.000000
  0
VERTEX
  8
2
  62
0
  10
    0.000000
  20
    44.300000
  30
    0.000000
  0
SEQEND
  0
POLYLINE
  8
2
  62
0
  66
1
  0
VERTEX
  8
2
  62
0
  10
    0.000000
  20
    21.800000
  30
    0.000000
  0
VERTEX
  8
2
  62
0
  10
    2.600000
  20
    19.600000
  30
    0.000000
  0
VERTEX
  8
2
  62
0
  10
    2.200000
  20
    18.000000
  30
    0.000000
  0
VERTEX
  8
2
  62
0
  10
    1.000000
  20
    18.300000
  30
    0.000000
  0
VERTEX
  8
2
  62
0
  10
    0.000000
  20
    19.300000
  30
    0.000000
  0
VERTEX
  8
2
  62
0
  10
    0.000000
  20
    21.800000
  30
    0.000000
  0
SEQEND
  0
POLYLINE
  8
2
  62
0
  66
1
  0
VERTEX
  8
2
  62
0
  10
    0.000000
  20
    17.000000
  30
    0.000000
  0
VERTEX
  8
2
  62
0
  10
    1.300000
  20
    16.600000
  30
    0.000000
  0
VERTEX
  8
2
  62
0
  10
    2.300000
  20
    14.600000
  30
    0.000000
  0
VERTEX
  8
2
  62
0
  10
    2.600000
  20
    10.200000
  30
    0.000000
  0
VERTEX
  8
2
  62
0
  10
    2.200000
  20
    9.300000
  30
    0.000000
  0
VERTEX
  8
2
  62
0
  10
    0.000000
  20
    9.800000
  30
    0.000000
  0
VERTEX
  8
2
  62
0
  10
    0.000000
  20
    17.000000
  30
    0.000000
  0
SEQEND
  0
POLYLINE
  8
2
  62
0
  66
1
  0
VERTEX
  8
2
  62
0
  10
    0.000000
  20
    6.000000
  30
    0.000000
  0
VERTEX
  8
2
  62
0
  10
    2.100000
  20
    6.000000
  30
    0.000000
  0
VERTEX
  8
2
  62
0
  10
    6.600000
  20
    4.000000
  30
    0.000000
  0
VERTEX
  8
2
  62
0
  10
    7.100000
  20
    2.300000
  30
    0.000000
  0
VERTEX
  8
2
  62
0
  10
    5.200000
  20
    2.200000
  30
    0.000000
  0
VERTEX
  8
2
  62
0
  10
    0.500000
  20
    3.600000
  30
    0.000000
  0
VERTEX
  8
2
  62
0
  10
    0.000000
  20
    3.900000
  30
    0.000000
  0
VERTEX
  8
2
  62
0
  10
    0.000000
  20
    6.000000
  30
    0.000000
  0
SEQEND
  0
POLYLINE
  8
2
  62
0
  66
1
  0
VERTEX
  8
2
  62
0
  10
    0.000000
  20
    2.600000
  30
    0.000000
  0
VERTEX
  8
2
  62
0
  10
    8.100000
  20
    0.800000
  30
    0.000000
  0
VERTEX
  8
2
  62
0
  10
    9.200000
  20
    0.000000
  30
    0.000000
  0
VERTEX
  8
2
  62
0
  10
    0.000000
  20
    0.000000
  30
    0.000000
  0
VERTEX
  8
2
  62
0
  10
    0.000000
  20
    2.600000
  30
    0.000000
  0
SEQEND
  0
POLYLINE
  8
2
  62
0
  66
1
  0
VERTEX
  8
2
  62
0
  10
    0.400000
  20
    24.500000
  30
    0.000000
  0
VERTEX
  8
2
  62
0
  10
    2.000000
  20
    24.800000
  30
    0.000000
  0
VERTEX
  8
2
  62
0
  10
    3.200000
  20
    24.300000
  30
    0.000000
  0
VERTEX
  8
2
  62
0
  10
    4.200000
  20
    22.800000
  30
    0.000000
  0
VERTEX
  8
2
  62
0
  10
    1.600000
  20
    22.300000
  30
    0.000000
  0
VERTEX
  8
2
  62
0
  10
    0.800000
  20
    22.900000
  30
    0.000000
  0
VERTEX
  8
2
  62
0
  10
    0.400000
  20
    24.500000
  30
    0.000000
  0
SEQEND
  0
POLYLINE
  8
2
  62
0
  66
1
  0
VERTEX
  8
2
  62
0
  10
    0.600000
  20
    28.600000
  30
    0.000000
  0
VERTEX
  8
2
  62
0
  10
    1.300000
  20
    29.200000
  30
    0.000000
  0
VERTEX
  8
2
  62
0
  10
    3.200000
  20
    29.200000
  30
    0.000000
  0
VERTEX
  8
2
  62
0
  10
    6.600000
  20
    26.000000
  30
    0.000000
  0
VERTEX
  8
2
  62
0
  10
    6.600000
  20
    24.100000
  30
    0.000000
  0
VERTEX
  8
2
  62
0
  10
    5.100000
  20
    23.700000
  30
    0.000000
  0
VERTEX
  8
2
  62
0
  10
    1.200000
  20
    26.200000
  30
    0.000000
  0
VERTEX
  8
2
  62
0
  10
    0.500000
  20
    27.300000
  30
    0.000000
  0
VERTEX
  8
2
  62
0
  10
    0.600000
  20
    28.600000
  30
    0.000000
  0
SEQEND
  0
POLYLINE
  8
2
  62
0
  66
1
  0
VERTEX
  8
2
  62
0
  10
    0.900000
  20
    45.600000
  30
    0.000000
  0
VERTEX
  8
2
  62
0
  10
    2.400000
  20
    47.200000
  30
    0.000000
  0
VERTEX
  8
2
  62
0
  10
    3.700000
  20
    47.700000
  30
    0.000000
  0
VERTEX
  8
2
  62
0
  10
    8.400000
  20
    47.900000
  30
    0.000000
  0
VERTEX
  8
2
  62
0
  10
    13.300000
  20
    45.000000
  30
    0.000000
  0
VERTEX
  8
2
  62
0
  10
    14.000000
  20
    43.700000
  30
    0.000000
  0
VERTEX
  8
2
  62
0
  10
    13.900000
  20
    41.900000
  30
    0.000000
  0
VERTEX
  8
2
  62
0
  10
    11.700000
  20
    39.900000
  30
    0.000000
  0
VERTEX
  8
2
  62
0
  10
    10.800000
  20
    38.200000
  30
    0.000000
  0
VERTEX
  8
2
  62
0
  10
    8.300000
  20
    37.000000
  30
    0.000000
  0
VERTEX
  8
2
  62
0
  10
    6.300000
  20
    36.900000
  30
    0.000000
  0
VERTEX
  8
2
  62
0
  10
    2.400000
  20
    40.100000
  30
    0.000000
  0
VERTEX
  8
2
  62
0
  10
    0.900000
  20
    43.800000
  30
    0.000000
  0
VERTEX
  8
2
  62
0
  10
    0.900000
  20
    45.600000
  30
    0.000000
  0
SEQEND
  0
POLYLINE
  8
2
  62
0
  66
1
  0
VERTEX
  8
2
  62
0
  10
    3.300000
  20
    16.500000
  30
    0.000000
  0
VERTEX
  8
2
  62
0
  10
    4.900000
  20
    16.800000
  30
    0.000000
  0
VERTEX
  8
2
  62
0
  10
    7.000000
  20
    15.500000
  30
    0.000000
  0
VERTEX
  8
2
  62
0
  10
    7.400000
  20
    14.800000
  30
    0.000000
  0
VERTEX
  8
2
  62
0
  10
    7.100000
  20
    13.600000
  30
    0.000000
  0
VERTEX
  8
2
  62
0
  10
    5.500000
  20
    13.200000
  30
    0.000000
  0
VERTEX
  8
2
  62
0
  10
    3.600000
  20
    14.300000
  30
    0.000000
  0
VERTEX
  8
2
  62
0
  10
    3.000000
  20
    15.800000
  30
    0.000000
  0
VERTEX
  8
2
  62
0
  10
    3.300000
  20
    16.500000
  30
    0.000000
  0
SEQEND
  0
POLYLINE
  8
2
  62
0
  66
1
  0
VERTEX
  8
2
  62
0
  10
    3.600000
  20
    12.300000
  30
    0.000000
  0
VERTEX
  8
2
  62
0
  10
    4.300000
  20
    13.000000
  30
    0.000000
  0
VERTEX
  8
2
  62
0
  10
    5.100000
  20
    12.900000
  30
    0.000000
  0
VERTEX
  8
2
  62
0
  10
    9.400000
  20
    10.200000
  30
    0.000000
  0
VERTEX
  8
2
  62
0
  10
    14.500000
  20
    8.500000
  30
    0.000000
  0
VERTEX
  8
2
  62
0
  10
    17.800000
  20
    6.000000
  30
    0.000000
  0
VERTEX
  8
2
  62
0
  10
    18.400000
  20
    5.100000
  30
    0.000000
  0
VERTEX
  8
2
  62
0
  10
    18.200000
  20
    4.100000
  30
    0.000000
  0
VERTEX
  8
2
  62
0
  10
    17.000000
  20
    3.700000
  30
    0.000000
  0
VERTEX
  8
2
  62
0
  10
    14.600000
  20
    4.500000
  30
    0.000000
  0
VERTEX
  8
2
  62
0
  10
    8.500000
  20
    4.500000
  30
    0.000000
  0
VERTEX
  8
2
  62
0
  10
    4.400000
  20
    6.000000
  30
    0.000000
  0
VERTEX
  8
2
  62
0
  10
    3.500000
  20
    7.400000
  30
    0.000000
  0
VERTEX
  8
2
  62
0
  10
    3.600000
  20
    12.300000
  30
    0.000000
  0
SEQEND
  0
POLYLINE
  8
2
  62
0
  66
1
  0
VERTEX
  8
2
  62
0
  10
    3.600000
  20
    21.200000
  30
    0.000000
  0
VERTEX
  8
2
  62
0
  10
    5.600000
  20
    21.500000
  30
    0.000000
  0
VERTEX
  8
2
  62
0
  10
    7.600000
  20
    20.600000
  30
    0.000000
  0
VERTEX
  8
2
  62
0
  10
    9.000000
  20
    18.800000
  30
    0.000000
  0
VERTEX
  8
2
  62
0
  10
    8.800000
  20
    17.000000
  30
    0.000000
  0
VERTEX
  8
2
  62
0
  10
    7.900000
  20
    16.500000
  30
    0.000000
  0
VERTEX
  8
2
  62
0
  10
    6.400000
  20
    16.800000
  30
    0.000000
  0
VERTEX
  8
2
  62
0
  10
    3.800000
  20
    19.800000
  30
    0.000000
  0
VERTEX
  8
2
  62
0
  10
    3.600000
  20
    21.200000
  30
    0.000000
  0
SEQEND
  0
POLYLINE
  8
2
  62
0
  66
1
  0
VERTEX
  8
2
  62
0
  10
    17.400000
  20
    38.000000
  30
    0.000000
  0
VERTEX
  8
2
  62
0
  10
    19.000000
  20
    36.200000
  30
    0.000000
  0
VERTEX
  8
2
  62
0
  10
    23.400000
  20
    33.200000
  30
    0.000000
  0
VERTEX
  8
2
  62
0
  10
    27.000000
  20
    27.900000
  30
    0.000000
  0
VERTEX
  8
2
  62
0
  10
    27.000000
  20
    25.700000
  30
    0.000000
  0
VERTEX
  8
2
  62
0
  10
    25.800000
  20
    23.900000
  30
    0.000000
  0
VERTEX
  8
2
  62
0
  10
    21.600000
  20
    21.000000
  30
    0.000000
  0
VERTEX
  8
2
  62
0
  10
    19.500000
  20
    18.800000
  30
    0.000000
  0
VERTEX
  8
2
  62
0
  10
    18.400000
  20
    16.000000
  30
    0.000000
  0
VERTEX
  8
2
  62
0
  10
    16.300000
  20
    14.800000
  30
    0.000000
  0
VERTEX
  8
2
  62
0
  10
    14.300000
  20
    14.800000
  30
    0.000000
  0
VERTEX
  8
2
  62
0
  10
    10.500000
  20
    17.100000
  30
    0.000000
  0
VERTEX
  8
2
  62
0
  10
    8.500000
  20
    21.500000
  30
    0.000000
  0
VERTEX
  8
2
  62
0
  10
    7.600000
  20
    31.300000
  30
    0.000000
  0
VERTEX
  8
2
  62
0
  10
    8.700000
  20
    32.900000
  30
    0.000000
  0
VERTEX
  8
2
  62
0
  10
    12.600000
  20
    36.000000
  30
    0.000000
  0
VERTEX
  8
2
  62
0
  10
    16.000000
  20
    38.000000
  30
    0.000000
  0
VERTEX
  8
2
  62
0
  10
    17.400000
  20
    38.000000
  30
    0.000000
  0
SEQEND
  0
POLYLINE
  8
2
  62
0
  66
1
  0
VERTEX
  8
2
  62
0
  10
    8.800000
  20
    3.400000
  30
    0.000000
  0
VERTEX
  8
2
  62
0
  10
    9.800000
  20
    3.900000
  30
    0.000000
  0
VERTEX
  8
2
  62
0
  10
    11.000000
  20
    3.600000
  30
    0.000000
  0
VERTEX
  8
2
  62
0
  10
    13.800000
  20
    1.600000
  30
    0.000000
  0
VERTEX
  8
2
  62
0
  10
    14.000000
  20
    0.000000
  30
    0.000000
  0
VERTEX
  8
2
  62
0
  10
    10.800000
  20
    0.000000
  30
    0.000000
  0
VERTEX
  8
2
  62
0
  10
    9.000000
  20
    1.700000
  30
    0.000000
  0
VERTEX
  8
2
  62
0
  10
    8.800000
  20
    3.400000
  30
    0.000000
  0
SEQEND
  0
POLYLINE
  8
2
  62
0
  66
1
  0
VERTEX
  8
2
  62
0
  10
    9.200000
  20
    13.500000
  30
    0.000000
  0
VERTEX
  8
2
  62
0
  10
    12.600000
  20
    13.400000
  30
    0.000000
  0
VERTEX
  8
2
  62
0
  10
    13.400000
  20
    11.800000
  30
    0.000000
  0
VERTEX
  8
2
  62
0
  10
    12.500000
  20
    11.200000
  30
    0.000000
  0
VERTEX
  8
2
  62
0
  10
    9.800000
  20
    11.400000
  30
    0.000000
  0
VERTEX
  8
2
  62
0
  10
    9.200000
  20
    12.100000
  30
    0.000000
  0
VERTEX
  8
2
  62
0
  10
    9.200000
  20
    13.500000
  30
    0.000000
  0
SEQEND
  0
POLYLINE
  8
2
  62
0
  66
1
  0
VERTEX
  8
2
  62
0
  10
    15.400000
  20
    49.800000
  30
    0.000000
  0
VERTEX
  8
2
  62
0
  10
    17.000000
  20
    49.700000
  30
    0.000000
  0
VERTEX
  8
2
  62
0
  10
    17.800000
  20
    48.500000
  30
    0.000000
  0
VERTEX
  8
2
  62
0
  10
    17.400000
  20
    44.700000
  30
    0.000000
  0
VERTEX
  8
2
  62
0
  10
    16.500000
  20
    43.500000
  30
    0.000000
  0
VERTEX
  8
2
  62
0
  10
    15.000000
  20
    43.800000
  30
    0.000000
  0
VERTEX
  8
2
  62
0
  10
    13.800000
  20
    46.200000
  30
    0.000000
  0
VERTEX
  8
2
  62
0
  10
    13.800000
  20
    48.200000
  30
    0.000000
  0
VERTEX
  8
2
  62
0
  10
    15.400000
  20
    49.800000
  30
    0.000000
  0
SEQEND
  0
POLYLINE
  8
2
  62
0
  66
1
  0
VERTEX
  8
2
  62
0
  10
    20.000000
  20
    12.600000
  30
    0.000000
  0
VERTEX
  8
2
  62
0
  10
    19.900000
  20
    10.500000
  30
    0.000000
  0
VERTEX
  8
2
  62
0
  10
    18.500000
  20
    9.100000
  30
    0.000000
  0
VERTEX
  8
2
  62
0
  10
    16.100000
  20
    9.200000
  30
    0.000000
  0
VERTEX
  8
2
  62
0
  10
    14.300000
  20
    10.200000
  30
    0.000000
  0
VERTEX
  8
2
  62
0
  10
    14.600000
  20
    11.200000
  30
    0.000000
  0
VERTEX
  8
2
  62
0
  10
    17.500000
  20
    13.100000
  30
    0.000000
  0
VERTEX
  8
2
  62
0
  10
    19.200000
  20
    13.300000
  30
    0.000000
  0
VERTEX
  8
2
  62
0
  10
    20.000000
  20
    12.600000
  30
    0.000000
  0
SEQEND
  0
POLYLINE
  8
2
  62
0
  66
1
  0
VERTEX
  8
2
  62
0
  10
    18.600000
  20
    52.200000
  30
    0.000000
  0
VERTEX
  8
2
  62
0
  10
    20.300000
  20
    52.200000
  30
    0.000000
  0
VERTEX
  8
2
  62
0
  10
    23.000000
  20
    50.300000
  30
    0.000000
  0
VERTEX
  8
2
  62
0
  10
    25.800000
  20
    45.600000
  30
    0.000000
  0
VERTEX
  8
2
  62
0
  10
    26.100000
  20
    41.300000
  30
    0.000000
  0
VERTEX
  8
2
  62
0
  10
    25.300000
  20
    38.600000
  30
    0.000000
  0
VERTEX
  8
2
  62
0
  10
    24.400000
  20
    37.500000
  30
    0.000000
  0
VERTEX
  8
2
  62
0
  10
    23.900000
  20
    37.500000
  30
    0.000000
  0
VERTEX
  8
2
  62
0
  10
    23.200000
  20
    38.700000
  30
    0.000000
  0
VERTEX
  8
2
  62
0
  10
    22.800000
  20
    41.200000
  30
    0.000000
  0
VERTEX
  8
2
  62
0
  10
    20.000000
  20
    44.000000
  30
    0.000000
  0
VERTEX
  8
2
  62
0
  10
    19.700000
  20
    47.400000
  30
    0.000000
  0
VERTEX
  8
2
  62
0
  10
    17.500000
  20
    50.400000
  30
    0.000000
  0
VERTEX
  8
2
  62
0
  10
    17.600000
  20
    51.700000
  30
    0.000000
  0
VERTEX
  8
2
  62
0
  10
    18.600000
  20
    52.200000
  30
    0.000000
  0
SEQEND
  0
POLYLINE
  8
2
  62
0
  66
1
  0
VERTEX
  8
2
  62
0
  10
    17.900000
  20
    41.800000
  30
    0.000000
  0
VERTEX
  8
2
  62
0
  10
    19.200000
  20
    42.100000
  30
    0.000000
  0
VERTEX
  8
2
  62
0
  10
    19.900000
  20
    41.400000
  30
    0.000000
  0
VERTEX
  8
2
  62
0
  10
    21.000000
  20
    39.200000
  30
    0.000000
  0
VERTEX
  8
2
  62
0
  10
    23.700000
  20
    36.100000
  30
    0.000000
  0
VERTEX
  8
2
  62
0
  10
    23.600000
  20
    35.000000
  30
    0.000000
  0
VERTEX
  8
2
  62
0
  10
    21.000000
  20
    35.700000
  30
    0.000000
  0
VERTEX
  8
2
  62
0
  10
    19.200000
  20
    37.400000
  30
    0.000000
  0
VERTEX
  8
2
  62
0
  10
    17.400000
  20
    40.000000
  30
    0.000000
  0
VERTEX
  8
2
  62
0
  10
    17.900000
  20
    41.800000
  30
    0.000000
  0
SEQEND
  0
POLYLINE
  8
2
  62
0
  66
1
  0
VERTEX
  8
2
  62
0
  10
    19.600000
  20
    1.700000
  30
    0.000000
  0
VERTEX
  8
2
  62
0
  10
    20.400000
  20
    2.800000
  30
    0.000000
  0
VERTEX
  8
2
  62
0
  10
    24.900000
  20
    2.100000
  30
    0.000000
  0
VERTEX
  8
2
  62
0
  10
    26.800000
  20
    2.900000
  30
    0.000000
  0
VERTEX
  8
2
  62
0
  10
    27.900000
  20
    1.800000
  30
    0.000000
  0
VERTEX
  8
2
  62
0
  10
    28.500000
  20
    0.000000
  30
    0.000000
  0
VERTEX
  8
2
  62
0
  10
    19.800000
  20
    0.000000
  30
    0.000000
  0
VERTEX
  8
2
  62
0
  10
    19.600000
  20
    1.700000
  30
    0.000000
  0
SEQEND
  0
POLYLINE
  8
2
  62
0
  66
1
  0
VERTEX
  8
2
  62
0
  10
    20.300000
  20
    16.800000
  30
    0.000000
  0
VERTEX
  8
2
  62
0
  10
    22.400000
  20
    16.800000
  30
    0.000000
  0
VERTEX
  8
2
  62
0
  10
    23.500000
  20
    15.900000
  30
    0.000000
  0
VERTEX
  8
2
  62
0
  10
    23.700000
  20
    14.700000
  30
    0.000000
  0
VERTEX
  8
2
  62
0
  10
    22.400000
  20
    13.100000
  30
    0.000000
  0
VERTEX
  8
2
  62
0
  10
    20.800000
  20
    13.600000
  30
    0.000000
  0
VERTEX
  8
2
  62
0
  10
    19.900000
  20
    15.800000
  30
    0.000000
  0
VERTEX
  8
2
  62
0
  10
    20.300000
  20
    16.800000
  30
    0.000000
  0
SEQEND
  0
POLYLINE
  8
2
  62
0
  66
1
  0
VERTEX
  8
2
  62
0
  10
    39.900000
  20
    11.500000
  30
    0.000000
  0
VERTEX
  8
2
  62
0
  10
    40.100000
  20
    9.700000
  30
    0.000000
  0
VERTEX
  8
2
  62
0
  10
    39.300000
  20
    8.000000
  30
    0.000000
  0
VERTEX
  8
2
  62
0
  10
    37.100000
  20
    6.400000
  30
    0.000000
  0
VERTEX
  8
2
  62
0
  10
    33.000000
  20
    4.600000
  30
    0.000000
  0
VERTEX
  8
2
  62
0
  10
    23.300000
  20
    3.600000
  30
    0.000000
  0
VERTEX
  8
2
  62
0
  10
    21.600000
  20
    3.900000
  30
    0.000000
  0
VERTEX
  8
2
  62
0
  10
    20.900000
  20
    4.600000
  30
    0.000000
  0
VERTEX
  8
2
  62
0
  10
    22.000000
  20
    10.400000
  30
    0.000000
  0
VERTEX
  8
2
  62
0
  10
    24.200000
  20
    13.800000
  30
    0.000000
  0
VERTEX
  8
2
  62
0
  10
    26.400000
  20
    13.900000
  30
    0.000000
  0
VERTEX
  8
2
  62
0
  10
    32.400000
  20
    11.400000
  30
    0.000000
  0
VERTEX
  8
2
  62
0
  10
    35.300000
  20
    11.300000
  30
    0.000000
  0
VERTEX
  8
2
  62
0
  10
    38.400000
  20
    12.300000
  30
    0.000000
  0
VERTEX
  8
2
  62
0
  10
    39.900000
  20
    11.500000
  30
    0.000000
  0
SEQEND
  0
POLYLINE
  8
2
  62
0
  66
1
  0
VERTEX
  8
2
  62
0
  10
    25.100000
  20
    22.500000
  30
    0.000000
  0
VERTEX
  8
2
  62
0
  10
    26.800000
  20
    22.500000
  30
    0.000000
  0
VERTEX
  8
2
  62
0
  10
    28.200000
  20
    21.100000
  30
    0.000000
  0
VERTEX
  8
2
  62
0
  10
    29.000000
  20
    17.100000
  30
    0.000000
  0
VERTEX
  8
2
  62
0
  10
    28.600000
  20
    14.900000
  30
    0.000000
  0
VERTEX
  8
2
  62
0
  10
    27.100000
  20
    14.700000
  30
    0.000000
  0
VERTEX
  8
2
  62
0
  10
    25.500000
  20
    15.300000
  30
    0.000000
  0
VERTEX
  8
2
  62
0
  10
    23.000000
  20
    17.500000
  30
    0.000000
  0
VERTEX
  8
2
  62
0
  10
    22.400000
  20
    18.700000
  30
    0.000000
  0
VERTEX
  8
2
  62
0
  10
    22.600000
  20
    20.300000
  30
    0.000000
  0
VERTEX
  8
2
  62
0
  10
    25.100000
  20
    22.500000
  30
    0.000000
  0
SEQEND
  0
POLYLINE
  8
2
  62
0
  66
1
  0
VERTEX
  8
2
  62
0
  10
    24.800000
  20
    59.300000
  30
    0.000000
  0
VERTEX
  8
2
  62
0
  10
    27.500000
  20
    58.400000
  30
    0.000000
  0
VERTEX
  8
2
  62
0
  10
    28.800000
  20
    56.600000
  30
    0.000000
  0
VERTEX
  8
2
  62
0
  10
    28.600000
  20
    55.100000
  30
    0.000000
  0
VERTEX
  8
2
  62
0
  10
    27.200000
  20
    52.800000
  30
    0.000000
  0
VERTEX
  8
2
  62
0
  10
    25.200000
  20
    52.800000
  30
    0.000000
  0
VERTEX
  8
2
  62
0
  10
    23.900000
  20
    54.200000
  30
    0.000000
  0
VERTEX
  8
2
  62
0
  10
    23.800000
  20
    57.800000
  30
    0.000000
  0
VERTEX
  8
2
  62
0
  10
    24.800000
  20
    59.300000
  30
    0.000000
  0
SEQEND
  0
POLYLINE
  8
2
  62
0
  66
1
  0
VERTEX
  8
2
  62
0
  10
    39.500000
  20
    37.800000
  30
    0.000000
  0
VERTEX
  8
2
  62
0
  10
    39.400000
  20
    36.400000
  30
    0.000000
  0
VERTEX
  8
2
  62
0
  10
    38.400000
  20
    35.200000
  30
    0.000000
  0
VERTEX
  8
2
  62
0
  10
    35.400000
  20
    34.000000
  30
    0.000000
  0
VERTEX
  8
2
  62
0
  10
    32.400000
  20
    31.700000
  30
    0.000000
  0
VERTEX
  8
2
  62
0
  10
    28.000000
  20
    30.700000
  30
    0.000000
  0
VERTEX
  8
2
  62
0
  10
    26.200000
  20
    30.900000
  30
    0.000000
  0
VERTEX
  8
2
  62
0
  10
    25.500000
  20
    31.600000
  30
    0.000000
  0
VERTEX
  8
2
  62
0
  10
    25.100000
  20
    35.200000
  30
    0.000000
  0
VERTEX
  8
2
  62
0
  10
    27.000000
  20
    38.400000
  30
    0.000000
  0
VERTEX
  8
2
  62
0
  10
    27.700000
  20
    44.500000
  30
    0.000000
  0
VERTEX
  8
2
  62
0
  10
    29.200000
  20
    44.700000
  30
    0.000000
  0
VERTEX
  8
2
  62
0
  10
    32.100000
  20
    43.600000
  30
    0.000000
  0
VERTEX
  8
2
  62
0
  10
    36.400000
  20
    41.100000
  30
    0.000000
  0
VERTEX
  8
2
  62
0
  10
    39.500000
  20
    37.800000
  30
    0.000000
  0
SEQEND
  0
POLYLINE
  8
2
  62
0
  66
1
  0
VERTEX
  8
2
  62
0
  10
    29.400000
  20
    52.000000
  30
    0.000000
  0
VERTEX
  8
2
  62
0
  10
    31.200000
  20
    52.200000
  30
    0.000000
  0
VERTEX
  8
2
  62
0
  10
    35.500000
  20
    50.400000
  30
    0.000000
  0
VERTEX
  8
2
  62
0
  10
    38.500000
  20
    48.100000
  30
    0.000000
  0
VERTEX
  8
2
  62
0
  10
    39.900000
  20
    46.100000
  30
    0.000000
  0
VERTEX
  8
2
  62
0
  10
    39.700000
  20
    42.800000
  30
    0.000000
  0
VERTEX
  8
2
  62
0
  10
    38.400000
  20
    41.900000
  30
    0.000000
  0
VERTEX
  8
2
  62
0
  10
    37.000000
  20
    41.900000
  30
    0.000000
  0
VERTEX
  8
2
  62
0
  10
    30.500000
  20
    45.400000
  30
    0.000000
  0
VERTEX
  8
2
  62
0
  10
    29.100000
  20
    47.000000
  30
    0.000000
  0
VERTEX
  8
2
  62
0
  10
    29.400000
  20
    52.000000
  30
    0.000000
  0
SEQEND
  0
POLYLINE
  8
2
  62
0
  66
1
  0
VERTEX
  8
2
  62
0
  10
    30.000000
  20
    16.600000
  30
    0.000000
  0
VERTEX
  8
2
  62
0
  10
    30.700000
  20
    16.600000
  30
    0.000000
  0
VERTEX
  8
2
  62
0
  10
    34.200000
  20
    12.500000
  30
    0.000000
  0
VERTEX
  8
2
  62
0
  10
    32.500000
  20
    12.200000
  30
    0.000000
  0
VERTEX
  8
2
  62
0
  10
    29.900000
  20
    13.100000
  30
    0.000000
  0
VERTEX
  8
2
  62
0
  10
    29.500000
  20
    15.200000
  30
    0.000000
  0
VERTEX
  8
2
  62
0
  10
    30.000000
  20
    16.600000
  30
    0.000000
  0
SEQEND
  0
POLYLINE
  8
2
  62
0
  66
1
  0
VERTEX
  8
2
  62
0
  10
    30.500000
  20
    26.000000
  30
    0.000000
  0
VERTEX
  8
2
  62
0
  10
    33.200000
  20
    28.400000
  30
    0.000000
  0
VERTEX
  8
2
  62
0
  10
    34.400000
  20
    31.400000
  30
    0.000000
  0
VERTEX
  8
2
  62
0
  10
    36.000000
  20
    31.300000
  30
    0.000000
  0
VERTEX
  8
2
  62
0
  10
    43.200000
  20
    26.800000
  30
    0.000000
  0
VERTEX
  8
2
  62
0
  10
    44.700000
  20
    24.700000
  30
    0.000000
  0
VERTEX
  8
2
  62
0
  10
    44.700000
  20
    23.200000
  30
    0.000000
  0
VERTEX
  8
2
  62
0
  10
    43.700000
  20
    22.200000
  30
    0.000000
  0
VERTEX
  8
2
  62
0
  10
    41.600000
  20
    21.900000
  30
    0.000000
  0
VERTEX
  8
2
  62
0
  10
    34.700000
  20
    22.300000
  30
    0.000000
  0
VERTEX
  8
2
  62
0
  10
    31.400000
  20
    24.000000
  30
    0.000000
  0
VERTEX
  8
2
  62
0
  10
    30.500000
  20
    26.000000
  30
    0.000000
  0
SEQEND
  0
POLYLINE
  8
2
  62
0
  66
1
  0
VERTEX
  8
2
  62
0
  10
    31.600000
  20
    20.900000
  30
    0.000000
  0
VERTEX
  8
2
  62
0
  10
    32.500000
  20
    20.800000
  30
    0.000000
  0
VERTEX
  8
2
  62
0
  10
    33.500000
  20
    18.400000
  30
    0.000000
  0
VERTEX
  8
2
  62
0
  10
    33.100000
  20
    16.500000
  30
    0.000000
  0
VERTEX
  8
2
  62
0
  10
    32.300000
  20
    16.500000
  30
    0.000000
  0
VERTEX
  8
2
  62
0
  10
    31.100000
  20
    17.700000
  30
    0.000000
  0
VERTEX
  8
2
  62
0
  10
    30.900000
  20
    19.900000
  30
    0.000000
  0
VERTEX
  8
2
  62
0
  10
    31.600000
  20
    20.900000
  30
    0.000000
  0
SEQEND
  0
POLYLINE
  8
2
  62
0
  66
1
  0
VERTEX
  8
2
  62
0
  10
    33.600000
  20
    57.500000
  30
    0.000000
  0
VERTEX
  8
2
  62
0
  10
    35.200000
  20
    58.300000
  30
    0.000000
  0
VERTEX
  8
2
  62
0
  10
    36.400000
  20
    58.100000
  30
    0.000000
  0
VERTEX
  8
2
  62
0
  10
    36.900000
  20
    57.300000
  30
    0.000000
  0
VERTEX
  8
2
  62
0
  10
    40.000000
  20
    56.300000
  30
    0.000000
  0
VERTEX
  8
2
  62
0
  10
    46.400000
  20
    52.800000
  30
    0.000000
  0
VERTEX
  8
2
  62
0
  10
    53.600000
  20
    50.300000
  30
    0.000000
  0
VERTEX
  8
2
  62
0
  10
    55.300000
  20
    48.200000
  30
    0.000000
  0
VERTEX
  8
2
  62
0
  10
    54.300000
  20
    43.300000
  30
    0.000000
  0
VERTEX
  8
2
  62
0
  10
    52.000000
  20
    41.000000
  30
    0.000000
  0
VERTEX
  8
2
  62
0
  10
    49.400000
  20
    40.500000
  30
    0.000000
  0
VERTEX
  8
2
  62
0
  10
    43.500000
  20
    42.500000
  30
    0.000000
  0
VERTEX
  8
2
  62
0
  10
    41.600000
  20
    44.900000
  30
    0.000000
  0
VERTEX
  8
2
  62
0
  10
    40.800000
  20
    47.000000
  30
    0.000000
  0
VERTEX
  8
2
  62
0
  10
    38.100000
  20
    50.000000
  30
    0.000000
  0
VERTEX
  8
2
  62
0
  10
    33.200000
  20
    53.600000
  30
    0.000000
  0
VERTEX
  8
2
  62
0
  10
    33.000000
  20
    56.300000
  30
    0.000000
  0
VERTEX
  8
2
  62
0
  10
    33.600000
  20
    57.500000
  30
    0.000000
  0
SEQEND
  0
POLYLINE
  8
2
  62
0
  66
1
  0
VERTEX
  8
2
  62
0
  10
    33.900000
  20
    21.300000
  30
    0.000000
  0
VERTEX
  8
2
  62
0
  10
    35.600000
  20
    21.200000
  30
    0.000000
  0
VERTEX
  8
2
  62
0
  10
    38.700000
  20
    19.600000
  30
    0.000000
  0
VERTEX
  8
2
  62
0
  10
    39.200000
  20
    18.800000
  30
    0.000000
  0
VERTEX
  8
2
  62
0
  10
    38.900000
  20
    17.400000
  30
    0.000000
  0
VERTEX
  8
2
  62
0
  10
    36.300000
  20
    17.000000
  30
    0.000000
  0
VERTEX
  8
2
  62
0
  10
    35.000000
  20
    17.600000
  30
    0.000000
  0
VERTEX
  8
2
  62
0
  10
    33.600000
  20
    20.000000
  30
    0.000000
  0
VERTEX
  8
2
  62
0
  10
    33.900000
  20
    21.300000
  30
    0.000000
  0
SEQEND
  0
POLYLINE
  8
2
  62
0
  66
1
  0
VERTEX
  8
2
  62
0
  10
    33.900000
  20
    4.400000
  30
    0.000000
  0
VERTEX
  8
2
  62
0
  10
    35.100000
  20
    4.700000
  30
    0.000000
  0
VERTEX
  8
2
  62
0
  10
    37.100000
  20
    2.900000
  30
    0.000000
  0
VERTEX
  8
2
  62
0
  10
    36.800000
  20
    0.900000
  30
    0.000000
  0
VERTEX
  8
2
  62
0
  10
    35.500000
  20
    0.600000
  30
    0.000000
  0
VERTEX
  8
2
  62
0
  10
    34.100000
  20
    1.500000
  30
    0.000000
  0
VERTEX
  8
2
  62
0
  10
    33.600000
  20
    2.600000
  30
    0.000000
  0
VERTEX
  8
2
  62
0
  10
    33.900000
  20
    4.400000
  30
    0.000000
  0
SEQEND
  0
POLYLINE
  8
2
  62
0
  66
1
  0
VERTEX
  8
2
  62
0
  10
    33.900000
  20
    15.700000
  30
    0.000000
  0
VERTEX
  8
2
  62
0
  10
    35.400000
  20
    16.300000
  30
    0.000000
  0
VERTEX
  8
2
  62
0
  10
    38.800000
  20
    16.000000
  30
    0.000000
  0
VERTEX
  8
2
  62
0
  10
    40.100000
  20
    15.000000
  30
    0.000000
  0
VERTEX
  8
2
  62
0
  10
    40.100000
  20
    14.000000
  30
    0.000000
  0
VERTEX
  8
2
  62
0
  10
    39.100000
  20
    13.000000
  30
    0.000000
  0
VERTEX
  8
2
  62
0
  10
    35.800000
  20
    13.000000
  30
    0.000000
  0
VERTEX
  8
2
  62
0
  10
    34.100000
  20
    14.200000
  30
    0.000000
  0
VERTEX
  8
2
  62
0
  10
    33.900000
  20
    15.700000
  30
    0.000000
  0
SEQEND
  0
POLYLINE
  8
2
  62
0
  66
1
  0
VERTEX
  8
2
  62
0
  10
    37.400000
  20
    60.000000
  30
    0.000000
  0
VERTEX
  8
2
  62
0
  10
    40.100000
  20
    60.000000
  30
    0.000000
  0
VERTEX
  8
2
  62
0
  10
    45.400000
  20
    56.500000
  30
    0.000000
  0
VERTEX
  8
2
  62
0
  10
    49.700000
  20
    54.900000
  30
    0.000000
  0
VERTEX
  8
2
  62
0
  10
    51.200000
  20
    53.800000
  30
    0.000000
  0
VERTEX
  8
2
  62
0
  10
    55.900000
  20
    52.700000
  30
    0.000000
  0
VERTEX
  8
2
  62
0
  10
    56.400000
  20
    51.600000
  30
    0.000000
  0
VERTEX
  8
2
  62
0
  10
    55.800000
  20
    51.100000
  30
    0.000000
  0
VERTEX
  8
2
  62
0
  10
    53.500000
  20
    51.100000
  30
    0.000000
  0
VERTEX
  8
2
  62
0
  10
    45.900000
  20
    53.900000
  30
    0.000000
  0
VERTEX
  8
2
  62
0
  10
    41.200000
  20
    56.500000
  30
    0.000000
  0
VERTEX
  8
2
  62
0
  10
    39.200000
  20
    58.700000
  30
    0.000000
  0
VERTEX
  8
2
  62
0
  10
    37.600000
  20
    59.300000
  30
    0.000000
  0
VERTEX
  8
2
  62
0
  10
    37.400000
  20
    60.000000
  30
    0.000000
  0
SEQEND
  0
POLYLINE
  8
2
  62
0
  66
1
  0
VERTEX
  8
2
  62
0
  10
    49.700000
  20
    35.000000
  30
    0.000000
  0
VERTEX
  8
2
  62
0
  10
    48.700000
  20
    32.000000
  30
    0.000000
  0
VERTEX
  8
2
  62
0
  10
    46.400000
  20
    30.300000
  30
    0.000000
  0
VERTEX
  8
2
  62
0
  10
    41.700000
  20
    30.000000
  30
    0.000000
  0
VERTEX
  8
2
  62
0
  10
    39.800000
  20
    30.700000
  30
    0.000000
  0
VERTEX
  8
2
  62
0
  10
    38.800000
  20
    31.900000
  30
    0.000000
  0
VERTEX
  8
2
  62
0
  10
    39.000000
  20
    34.500000
  30
    0.000000
  0
VERTEX
  8
2
  62
0
  10
    40.300000
  20
    36.000000
  30
    0.000000
  0
VERTEX
  8
2
  62
0
  10
    45.900000
  20
    36.500000
  30
    0.000000
  0
VERTEX
  8
2
  62
0
  10
    49.700000
  20
    35.000000
  30
    0.000000
  0
SEQEND
  0
POLYLINE
  8
2
  62
0
  66
1
  0
VERTEX
  8
2
  62
0
  10
    47.600000
  20
    11.500000
  30
    0.000000
  0
VERTEX
  8
2
  62
0
  10
    48.100000
  20
    9.300000
  30
    0.000000
  0
VERTEX
  8
2
  62
0
  10
    47.000000
  20
    5.100000
  30
    0.000000
  0
VERTEX
  8
2
  62
0
  10
    43.500000
  20
    2.700000
  30
    0.000000
  0
VERTEX
  8
2
  62
0
  10
    41.600000
  20
    0.500000
  30
    0.000000
  0
VERTEX
  8
2
  62
0
  10
    40.100000
  20
    0.700000
  30
    0.000000
  0
VERTEX
  8
2
  62
0
  10
    39.400000
  20
    3.000000
  30
    0.000000
  0
VERTEX
  8
2
  62
0
  10
    42.200000
  20
    8.000000
  30
    0.000000
  0
VERTEX
  8
2
  62
0
  10
    42.400000
  20
    9.400000
  30
    0.000000
  0
VERTEX
  8
2
  62
0
  10
    44.600000
  20
    11.500000
  30
    0.000000
  0
VERTEX
  8
2
  62
0
  10
    47.600000
  20
    11.500000
  30
    0.000000
  0
SEQEND
  0
POLYLINE
  8
2
  62
0
  66
1
  0
VERTEX
  8
2
  62
0
  10
    41.300000
  20
    14.000000
  30
    0.000000
  0
VERTEX
  8
2
  62
0
  10
    42.600000
  20
    15.600000
  30
    0.000000
  0
VERTEX
  8
2
  62
0
  10
    44.600000
  20
    15.600000
  30
    0.000000
  0
VERTEX
  8
2
  62
0
  10
    45.800000
  20
    14.900000
  30
    0.000000
  0
VERTEX
  8
2
  62
0
  10
    46.200000
  20
    13.200000
  30
    0.000000
  0
VERTEX
  8
2
  62
0
  10
    44.700000
  20
    12.100000
  30
    0.000000
  0
VERTEX
  8
2
  62
0
  10
    42.800000
  20
    12.000000
  30
    0.000000
  0
VERTEX
  8
2
  62
0
  10
    41.400000
  20
    13.100000
  30
    0.000000
  0
VERTEX
  8
2
  62
0
  10
    41.300000
  20
    14.000000
  30
    0.000000
  0
SEQEND
  0
POLYLINE
  8
2
  62
0
  66
1
  0
VERTEX
  8
2
  62
0
  10
    41.700000
  20
    60.000000
  30
    0.000000
  0
VERTEX
  8
2
  62
0
  10
    71.600000
  20
    60.000000
  30
    0.000000
  0
VERTEX
  8
2
  62
0
  10
    68.800000
  20
    56.200000
  30
    0.000000
  0
VERTEX
  8
2
  62
0
  10
    65.100000
  20
    54.100000
  30
    0.000000
  0
VERTEX
  8
2
  62
0
  10
    55.500000
  20
    53.400000
  30
    0.000000
  0
VERTEX
  8
2
  62
0
  10
    41.700000
  20
    60.000000
  30
    0.000000
  0
SEQEND
  0
POLYLINE
  8
2
  62
0
  66
1
  0
VERTEX
  8
2
  62
0
  10
    49.900000
  20
    4.500000
  30
    0.000000
  0
VERTEX
  8
2
  62
0
  10
    49.700000
  20
    2.400000
  30
    0.000000
  0
VERTEX
  8
2
  62
0
  10
    47.900000
  20
    0.000000
  30
    0.000000
  0
VERTEX
  8
2
  62
0
  10
    42.600000
  20
    0.000000
  30
    0.000000
  0
VERTEX
  8
2
  62
0
  10
    43.000000
  20
    0.900000
  30
    0.000000
  0
VERTEX
  8
2
  62
0
  10
    48.000000
  20
    4.900000
  30
    0.000000
  0
VERTEX
  8
2
  62
0
  10
    49.400000
  20
    5.100000
  30
    0.000000
  0
VERTEX
  8
2
  62
0
  10
    49.900000
  20
    4.500000
  30
    0.000000
  0
SEQEND
  0
POLYLINE
  8
2
  62
0
  66
1
  0
VERTEX
  8
2
  62
0
  10
    47.500000
  20
    39.600000
  30
    0.000000
  0
VERTEX
  8
2
  62
0
  10
    47.400000
  20
    38.100000
  30
    0.000000
  0
VERTEX
  8
2
  62
0
  10
    46.800000
  20
    37.500000
  30
    0.000000
  0
VERTEX
  8
2
  62
0
  10
    44.500000
  20
    37.200000
  30
    0.000000
  0
VERTEX
  8
2
  62
0
  10
    43.200000
  20
    38.000000
  30
    0.000000
  0
VERTEX
  8
2
  62
0
  10
    43.200000
  20
    39.100000
  30
    0.000000
  0
VERTEX
  8
2
  62
0
  10
    45.200000
  20
    40.600000
  30
    0.000000
  0
VERTEX
  8
2
  62
0
  10
    47.500000
  20
    39.600000
  30
    0.000000
  0
SEQEND
  0
POLYLINE
  8
2
  62
0
  66
1
  0
VERTEX
  8
2
  62
0
  10
    44.500000
  20
    29.300000
  30
    0.000000
  0
VERTEX
  8
2
  62
0
  10
    46.200000
  20
    29.200000
  30
    0.000000
  0
VERTEX
  8
2
  62
0
  10
    47.400000
  20
    27.700000
  30
    0.000000
  0
VERTEX
  8
2
  62
0
  10
    47.000000
  20
    24.000000
  30
    0.000000
  0
VERTEX
  8
2
  62
0
  10
    45.800000
  20
    24.400000
  30
    0.000000
  0
VERTEX
  8
2
  62
0
  10
    44.400000
  20
    26.600000
  30
    0.000000
  0
VERTEX
  8
2
  62
0
  10
    43.900000
  20
    28.800000
  30
    0.000000
  0
VERTEX
  8
2
  62
0
  10
    44.500000
  20
    29.300000
  30
    0.000000
  0
SEQEND
  0
POLYLINE
  8
2
  62
0
  66
1
  0
VERTEX
  8
2
  62
0
  10
    45.400000
  20
    22.000000
  30
    0.000000
  0
VERTEX
  8
2
  62
0
  10
    46.900000
  20
    21.900000
  30
    0.000000
  0
VERTEX
  8
2
  62
0
  10
    49.600000
  20
    18.300000
  30
    0.000000
  0
VERTEX
  8
2
  62
0
  10
    49.000000
  20
    15.800000
  30
    0.000000
  0
VERTEX
  8
2
  62
0
  10
    48.300000
  20
    15.200000
  30
    0.000000
  0
VERTEX
  8
2
  62
0
  10
    46.300000
  20
    15.600000
  30
    0.000000
  0
VERTEX
  8
2
  62
0
  10
    45.100000
  20
    16.800000
  30
    0.000000
  0
VERTEX
  8
2
  62
0
  10
    44.700000
  20
    21.000000
  30
    0.000000
  0
VERTEX
  8
2
  62
0
  10
    45.400000
  20
    22.000000
  30
    0.000000
  0
SEQEND
  0
POLYLINE
  8
2
  62
0
  66
1
  0
VERTEX
  8
2
  62
0
  10
    48.900000
  20
    28.800000
  30
    0.000000
  0
VERTEX
  8
2
  62
0
  10
    50.900000
  20
    28.800000
  30
    0.000000
  0
VERTEX
  8
2
  62
0
  10
    52.600000
  20
    27.500000
  30
    0.000000
  0
VERTEX
  8
2
  62
0
  10
    59.600000
  20
    20.500000
  30
    0.000000
  0
VERTEX
  8
2
  62
0
  10
    60.000000
  20
    13.500000
  30
    0.000000
  0
VERTEX
  8
2
  62
0
  10
    59.200000
  20
    12.200000
  30
    0.000000
  0
VERTEX
  8
2
  62
0
  10
    55.700000
  20
    12.200000
  30
    0.000000
  0
VERTEX
  8
2
  62
0
  10
    53.400000
  20
    13.600000
  30
    0.000000
  0
VERTEX
  8
2
  62
0
  10
    52.400000
  20
    17.000000
  30
    0.000000
  0
VERTEX
  8
2
  62
0
  10
    50.700000
  20
    18.400000
  30
    0.000000
  0
VERTEX
  8
2
  62
0
  10
    49.100000
  20
    20.800000
  30
    0.000000
  0
VERTEX
  8
2
  62
0
  10
    47.900000
  20
    24.500000
  30
    0.000000
  0
VERTEX
  8
2
  62
0
  10
    47.900000
  20
    27.100000
  30
    0.000000
  0
VERTEX
  8
2
  62
0
  10
    48.900000
  20
    28.800000
  30
    0.000000
  0
SEQEND
  0
POLYLINE
  8
2
  62
0
  66
1
  0
VERTEX
  8
2
  62
0
  10
    58.100000
  20
    7.600000
  30
    0.000000
  0
VERTEX
  8
2
  62
0
  10
    58.000000
  20
    6.400000
  30
    0.000000
  0
VERTEX
  8
2
  62
0
  10
    56.400000
  20
    5.800000
  30
    0.000000
  0
VERTEX
  8
2
  62
0
  10
    49.300000
  20
    5.800000
  30
    0.000000
  0
VERTEX
  8
2
  62
0
  10
    48.200000
  20
    6.700000
  30
    0.000000
  0
VERTEX
  8
2
  62
0
  10
    50.300000
  20
    12.200000
  30
    0.000000
  0
VERTEX
  8
2
  62
0
  10
    54.900000
  20
    11.200000
  30
    0.000000
  0
VERTEX
  8
2
  62
0
  10
    58.100000
  20
    7.600000
  30
    0.000000
  0
SEQEND
  0
POLYLINE
  8
2
  62
0
  66
1
  0
VERTEX
  8
2
  62
0
  10
    53.700000
  20
    38.400000
  30
    0.000000
  0
VERTEX
  8
2
  62
0
  10
    52.000000
  20
    36.900000
  30
    0.000000
  0
VERTEX
  8
2
  62
0
  10
    49.900000
  20
    37.100000
  30
    0.000000
  0
VERTEX
  8
2
  62
0
  10
    48.800000
  20
    38.100000
  30
    0.000000
  0
VERTEX
  8
2
  62
0
  10
    49.200000
  20
    39.400000
  30
    0.000000
  0
VERTEX
  8
2
  62
0
  10
    50.700000
  20
    39.900000
  30
    0.000000
  0
VERTEX
  8
2
  62
0
  10
    53.000000
  20
    39.400000
  30
    0.000000
  0
VERTEX
  8
2
  62
0
  10
    53.700000
  20
    38.400000
  30
    0.000000
  0
SEQEND
  0
POLYLINE
  8
2
  62
0
  66
1
  0
VERTEX
  8
2
  62
0
  10
    66.900000
  20
    3.300000
  30
    0.000000
  0
VERTEX
  8
2
  62
0
  10
    66.400000
  20
    1.800000
  30
    0.000000
  0
VERTEX
  8
2
  62
0
  10
    63.500000
  20
    0.000000
  30
    0.000000
  0
VERTEX
  8
2
  62
0
  10
    49.000000
  20
    0.000000
  30
    0.000000
  0
VERTEX
  8
2
  62
0
  10
    51.600000
  20
    4.300000
  30
    0.000000
  0
VERTEX
  8
2
  62
0
  10
    53.400000
  20
    5.300000
  30
    0.000000
  0
VERTEX
  8
2
  62
0
  10
    56.600000
  20
    5.300000
  30
    0.000000
  0
VERTEX
  8
2
  62
0
  10
    58.300000
  20
    4.700000
  30
    0.000000
  0
VERTEX
  8
2
  62
0
  10
    63.600000
  20
    5.100000
  30
    0.000000
  0
VERTEX
  8
2
  62
0
  10
    66.100000
  20
    4.300000
  30
    0.000000
  0
VERTEX
  8
2
  62
0
  10
    66.900000
  20
    3.300000
  30
    0.000000
  0
SEQEND
  0
POLYLINE
  8
2
  62
0
  66
1
  0
VERTEX
  8
2
  62
0
  10
    54.400000
  20
    37.200000
  30
    0.000000
  0
VERTEX
  8
2
  62
0
  10
    57.100000
  20
    36.700000
  30
    0.000000
  0
VERTEX
  8
2
  62
0
  10
    59.000000
  20
    34.800000
  30
    0.000000
  0
VERTEX
  8
2
  62
0
  10
    59.800000
  20
    32.800000
  30
    0.000000
  0
VERTEX
  8
2
  62
0
  10
    62.100000
  20
    30.100000
  30
    0.000000
  0
VERTEX
  8
2
  62
0
  10
    62.000000
  20
    28.300000
  30
    0.000000
  0
VERTEX
  8
2
  62
0
  10
    59.000000
  20
    25.700000
  30
    0.000000
  0
VERTEX
  8
2
  62
0
  10
    58.200000
  20
    23.900000
  30
    0.000000
  0
VERTEX
  8
2
  62
0
  10
    52.400000
  20
    29.200000
  30
    0.000000
  0
VERTEX
  8
2
  62
0
  10
    52.000000
  20
    34.900000
  30
    0.000000
  0
VERTEX
  8
2
  62
0
  10
    53.000000
  20
    36.500000
  30
    0.000000
  0
VERTEX
  8
2
  62
0
  10
    54.400000
  20
    37.200000
  30
    0.000000
  0
SEQEND
  0
POLYLINE
  8
2
  62
0
  66
1
  0
VERTEX
  8
2
  62
0
  10
    58.500000
  20
    43.700000
  30
    0.000000
  0
VERTEX
  8
2
  62
0
  10
    58.400000
  20
    42.600000
  30
    0.000000
  0
VERTEX
  8
2
  62
0
  10
    56.600000
  20
    40.500000
  30
    0.000000
  0
VERTEX
  8
2
  62
0
  10
    55.300000
  20
    40.300000
  30
    0.000000
  0
VERTEX
  8
2
  62
0
  10
    54.800000
  20
    40.800000
  30
    0.000000
  0
VERTEX
  8
2
  62
0
  10
    54.800000
  20
    42.200000
  30
    0.000000
  0
VERTEX
  8
2
  62
0
  10
    55.800000
  20
    43.600000
  30
    0.000000
  0
VERTEX
  8
2
  62
0
  10
    56.800000
  20
    44.200000
  30
    0.000000
  0
VERTEX
  8
2
  62
0
  10
    58.500000
  20
    43.700000
  30
    0.000000
  0
SEQEND
  0
POLYLINE
  8
2
  62
0
  66
1
  0
VERTEX
  8
2
  62
0
  10
    60.000000
  20
    42.600000
  30
    0.000000
  0
VERTEX
  8
2
  62
0
  10
    62.900000
  20
    42.100000
  30
    0.000000
  0
VERTEX
  8
2
  62
0
  10
    68.400000
  20
    37.600000
  30
    0.000000
  0
VERTEX
  8
2
  62
0
  10
    74.200000
  20
    29.500000
  30
    0.000000
  0
VERTEX
  8
2
  62
0
  10
    74.600000
  20
    27.800000
  30
    0.000000
  0
VERTEX
  8
2
  62
0
  10
    74.300000
  20
    25.100000
  30
    0.000000
  0
VERTEX
  8
2
  62
0
  10
    72.800000
  20
    24.800000
  30
    0.000000
  0
VERTEX
  8
2
  62
0
  10
    67.100000
  20
    28.200000
  30
    0.000000
  0
VERTEX
  8
2
  62
0
  10
    61.600000
  20
    32.800000
  30
    0.000000
  0
VERTEX
  8
2
  62
0
  10
    58.800000
  20
    36.000000
  30
    0.000000
  0
VERTEX
  8
2
  62
0
  10
    58.000000
  20
    37.500000
  30
    0.000000
  0
VERTEX
  8
2
  62
0
  10
    57.900000
  20
    39.100000
  30
    0.000000
  0
VERTEX
  8
2
  62
0
  10
    60.000000
  20
    42.600000
  30
    0.000000
  0
SEQEND
  0
POLYLINE
  8
2
  62
0
  66
1
  0
VERTEX
  8
2
  62
0
  10
    66.400000
  20
    12.900000
  30
    0.000000
  0
VERTEX
  8
2
  62
0
  10
    66.800000
  20
    7.900000
  30
    0.000000
  0
VERTEX
  8
2
  62
0
  10
    66.300000
  20
    6.500000
  30
    0.000000
  0
VERTEX
  8
2
  62
0
  10
    64.600000
  20
    5.600000
  30
    0.000000
  0
VERTEX
  8
2
  62
0
  10
    59.800000
  20
    5.900000
  30
    0.000000
  0
VERTEX
  8
2
  62
0
  10
    58.500000
  20
    8.500000
  30
    0.000000
  0
VERTEX
  8
2
  62
0
  10
    58.800000
  20
    10.400000
  30
    0.000000
  0
VERTEX
  8
2
  62
0
  10
    59.700000
  20
    11.600000
  30
    0.000000
  0
VERTEX
  8
2
  62
0
  10
    62.600000
  20
    13.500000
  30
    0.000000
  0
VERTEX
  8
2
  62
0
  10
    66.400000
  20
    12.900000
  30
    0.000000
  0
SEQEND
  0
POLYLINE
  8
2
  62
0
  66
1
  0
VERTEX
  8
2
  62
0
  10
    64.400000
  20
    27.700000
  30
    0.000000
  0
VERTEX
  8
2
  62
0
  10
    64.200000
  20
    22.100000
  30
    0.000000
  0
VERTEX
  8
2
  62
0
  10
    63.300000
  20
    21.400000
  30
    0.000000
  0
VERTEX
  8
2
  62
0
  10
    61.600000
  20
    21.300000
  30
    0.000000
  0
VERTEX
  8
2
  62
0
  10
    59.800000
  20
    22.200000
  30
    0.000000
  0
VERTEX
  8
2
  62
0
  10
    59.900000
  20
    25.300000
  30
    0.000000
  0
VERTEX
  8
2
  62
0
  10
    62.900000
  20
    27.600000
  30
    0.000000
  0
VERTEX
  8
2
  62
0
  10
    64.400000
  20
    27.700000
  30
    0.000000
  0
SEQEND
  0
POLYLINE
  8
2
  62
0
  66
1
  0
VERTEX
  8
2
  62
0
  10
    63.800000
  20
    17.800000
  30
    0.000000
  0
VERTEX
  8
2
  62
0
  10
    64.000000
  20
    16.200000
  30
    0.000000
  0
VERTEX
  8
2
  62
0
  10
    63.300000
  20
    15.500000
  30
    0.000000
  0
VERTEX
  8
2
  62
0
  10
    61.900000
  20
    15.200000
  30
    0.000000
  0
VERTEX
  8
2
  62
0
  10
    60.800000
  20
    16.100000
  30
    0.000000
  0
VERTEX
  8
2
  62
0
  10
    61.800000
  20
    18.000000
  30
    0.000000
  0
VERTEX
  8
2
  62
0
  10
    63.800000
  20
    17.800000
  30
    0.000000
  0
SEQEND
  0
POLYLINE
  8
2
  62
0
  66
1
  0
VERTEX
  8
2
  62
0
  10
    68.100000
  20
    53.900000
  30
    0.000000
  0
VERTEX
  8
2
  62
0
  10
    69.500000
  20
    52.500000
  30
    0.000000
  0
VERTEX
  8
2
  62
0
  10
    70.800000
  20
    48.300000
  30
    0.000000
  0
VERTEX
  8
2
  62
0
  10
    70.800000
  20
    45.000000
  30
    0.000000
  0
VERTEX
  8
2
  62
0
  10
    69.800000
  20
    44.000000
  30
    0.000000
  0
VERTEX
  8
2
  62
0
  10
    67.400000
  20
    43.600000
  30
    0.000000
  0
VERTEX
  8
2
  62
0
  10
    66.400000
  20
    42.200000
  30
    0.000000
  0
VERTEX
  8
2
  62
0
  10
    64.600000
  20
    42.300000
  30
    0.000000
  0
VERTEX
  8
2
  62
0
  10
    62.000000
  20
    44.500000
  30
    0.000000
  0
VERTEX
  8
2
  62
0
  10
    61.900000
  20
    46.800000
  30
    0.000000
  0
VERTEX
  8
2
  62
0
  10
    64.500000
  20
    52.500000
  30
    0.000000
  0
VERTEX
  8
2
  62
0
  10
    66.100000
  20
    53.600000
  30
    0.000000
  0
VERTEX
  8
2
  62
0
  10
    68.100000
  20
    53.900000
  30
    0.000000
  0
SEQEND
  0
POLYLINE
  8
2
  62
0
  66
1
  0
VERTEX
  8
2
  62
0
  10
    70.900000
  20
    21.500000
  30
    0.000000
  0
VERTEX
  8
2
  62
0
  10
    70.600000
  20
    18.300000
  30
    0.000000
  0
VERTEX
  8
2
  62
0
  10
    67.000000
  20
    17.200000
  30
    0.000000
  0
VERTEX
  8
2
  62
0
  10
    65.300000
  20
    17.200000
  30
    0.000000
  0
VERTEX
  8
2
  62
0
  10
    64.500000
  20
    17.900000
  30
    0.000000
  0
VERTEX
  8
2
  62
0
  10
    64.400000
  20
    21.400000
  30
    0.000000
  0
VERTEX
  8
2
  62
0
  10
    65.900000
  20
    23.200000
  30
    0.000000
  0
VERTEX
  8
2
  62
0
  10
    67.500000
  20
    23.300000
  30
    0.000000
  0
VERTEX
  8
2
  62
0
  10
    70.900000
  20
    21.500000
  30
    0.000000
  0
SEQEND
  0
POLYLINE
  8
2
  62
0
  66
1
  0
VERTEX
  8
2
  62
0
  10
    66.500000
  20
    27.000000
  30
    0.000000
  0
VERTEX
  8
2
  62
0
  10
    68.000000
  20
    27.200000
  30
    0.000000
  0
VERTEX
  8
2
  62
0
  10
    68.800000
  20
    26.700000
  30
    0.000000
  0
VERTEX
  8
2
  62
0
  10
    69.400000
  20
    26.000000
  30
    0.000000
  0
VERTEX
  8
2
  62
0
  10
    69.400000
  20
    24.600000
  30
    0.000000
  0
VERTEX
  8
2
  62
0
  10
    67.400000
  20
    24.400000
  30
    0.000000
  0
VERTEX
  8
2
  62
0
  10
    66.400000
  20
    25.500000
  30
    0.000000
  0
VERTEX
  8
2
  62
0
  10
    66.500000
  20
    27.000000
  30
    0.000000
  0
SEQEND
  0
POLYLINE
  8
2
  62
0
  66
1
  0
VERTEX
  8
2
  62
0
  10
    66.700000
  20
    16.400000
  30
    0.000000
  0
VERTEX
  8
2
  62
0
  10
    69.400000
  20
    17.500000
  30
    0.000000
  0
VERTEX
  8
2
  62
0
  10
    74.200000
  20
    16.800000
  30
    0.000000
  0
VERTEX
  8
2
  62
0
  10
    75.300000
  20
    15.700000
  30
    0.000000
  0
VERTEX
  8
2
  62
0
  10
    76.500000
  20
    11.000000
  30
    0.000000
  0
VERTEX
  8
2
  62
0
  10
    70.000000
  20
    7.000000
  30
    0.000000
  0
VERTEX
  8
2
  62
0
  10
    69.100000
  20
    7.100000
  30
    0.000000
  0
VERTEX
  8
2
  62
0
  10
    66.500000
  20
    13.800000
  30
    0.000000
  0
VERTEX
  8
2
  62
0
  10
    66.700000
  20
    16.400000
  30
    0.000000
  0
SEQEND
  0
POLYLINE
  8
2
  62
0
  66
1
  0
VERTEX
  8
2
  62
0
  10
    80.000000
  20
    11.200000
  30
    0.000000
  0
VERTEX
  8
2
  62
0
  10
    80.000000
  20
    0.000000
  30
    0.000000
  0
VERTEX
  8
2
  62
0
  10
    67.700000
  20
    0.000000
  30
    0.000000
  0
VERTEX
  8
2
  62
0
  10
    69.200000
  20
    3.400000
  30
    0.000000
  0
VERTEX
  8
2
  62
0
  10
    73.400000
  20
    8.200000
  30
    0.000000
  0
VERTEX
  8
2
  62
0
  10
    77.800000
  20
    10.600000
  30
    0.000000
  0
VERTEX
  8
2
  62
0
  10
    80.000000
  20
    11.200000
  30
    0.000000
  0
SEQEND
  0
POLYLINE
  8
2
  62
0
  66
1
  0
VERTEX
  8
2
  62
0
  10
    72.200000
  20
    58.900000
  30
    0.000000
  0
VERTEX
  8
2
  62
0
  10
    73.600000
  20
    58.900000
  30
    0.000000
  0
VERTEX
  8
2
  62
0
  10
    74.100000
  20
    58.400000
  30
    0.000000
  0
VERTEX
  8
2
  62
0
  10
    75.400000
  20
    54.100000
  30
    0.000000
  0
VERTEX
  8
2
  62
0
  10
    77.100000
  20
    51.100000
  30
    0.000000
  0
VERTEX
  8
2
  62
0
  10
    76.500000
  20
    46.100000
  30
    0.000000
  0
VERTEX
  8
2
  62
0
  10
    75.400000
  20
    45.200000
  30
    0.000000
  0
VERTEX
  8
2
  62
0
  10
    73.700000
  20
    45.200000
  30
    0.000000
  0
VERTEX
  8
2
  62
0
  10
    72.900000
  20
    45.800000
  30
    0.000000
  0
VERTEX
  8
2
  62
0
  10
    70.800000
  20
    52.800000
  30
    0.000000
  0
VERTEX
  8
2
  62
0
  10
    69.600000
  20
    54.600000
  30
    0.000000
  0
VERTEX
  8
2
  62
0
  10
    69.800000
  20
    56.000000
  30
    0.000000
  0
VERTEX
  8
2
  62
0
  10
    72.200000
  20
    58.900000
  30
    0.000000
  0
SEQEND
  0
POLYLINE
  8
2
  62
0
  66
1
  0
VERTEX
  8
2
  62
0
  10
    70.000000
  20
    39.500000
  30
    0.000000
  0
VERTEX
  8
2
  62
0
  10
    71.800000
  20
    39.500000
  30
    0.000000
  0
VERTEX
  8
2
  62
0
  10
    73.700000
  20
    37.700000
  30
    0.000000
  0
VERTEX
  8
2
  62
0
  10
    74.800000
  20
    35.600000
  30
    0.000000
  0
VERTEX
  8
2
  62
0
  10
    76.800000
  20
    33.500000
  30
    0.000000
  0
VERTEX
  8
2
  62
0
  10
    76.600000
  20
    32.100000
  30
    0.000000
  0
VERTEX
  8
2
  62
0
  10
    75.000000
  20
    32.000000
  30
    0.000000
  0
VERTEX
  8
2
  62
0
  10
    74.000000
  20
    32.800000
  30
    0.000000
  0
VERTEX
  8
2
  62
0
  10
    70.000000
  20
    38.100000
  30
    0.000000
  0
VERTEX
  8
2
  62
0
  10
    70.000000
  20
    39.500000
  30
    0.000000
  0
SEQEND
  0
POLYLINE
  8
2
  62
0
  66
1
  0
VERTEX
  8
2
  62
0
  10
    73.200000
  20
    43.200000
  30
    0.000000
  0
VERTEX
  8
2
  62
0
  10
    77.300000
  20
    44.800000
  30
    0.000000
  0
VERTEX
  8
2
  62
0
  10
    78.800000
  20
    44.200000
  30
    0.000000
  0
VERTEX
  8
2
  62
0
  10
    80.000000
  20
    37.400000
  30
    0.000000
  0
VERTEX
  8
2
  62
0
  10
    80.000000
  20
    33.600000
  30
    0.000000
  0
VERTEX
  8
2
  62
0
  10
    77.600000
  20
    34.000000
  30
    0.000000
  0
VERTEX
  8
2
  62
0
  10
    74.300000
  20
    38.600000
  30
    0.000000
  0
VERTEX
  8
2
  62
0
  10
    72.000000
  20
    40.500000
  30
    0.000000
  0
VERTEX
  8
2
  62
0
  10
    71.900000
  20
    41.800000
  30
    0.000000
  0
VERTEX
  8
2
  62
0
  10
    73.200000
  20
    43.200000
  30
    0.000000
  0
SEQEND
  0
POLYLINE
  8
2
  62
0
  66
1
  0
VERTEX
  8
2
  62
0
  10
    76.800000
  20
    21.500000
  30
    0.000000
  0
VERTEX
  8
2
  62
0
  10
    77.600000
  20
    19.800000
  30
    0.000000
  0
VERTEX
  8
2
  62
0
  10
    77.200000
  20
    18.400000
  30
    0.000000
  0
VERTEX
  8
2
  62
0
  10
    76.400000
  20
    17.400000
  30
    0.000000
  0
VERTEX
  8
2
  62
0
  10
    74.400000
  20
    17.700000
  30
    0.000000
  0
VERTEX
  8
2
  62
0
  10
    73.900000
  20
    18.400000
  30
    0.000000
  0
VERTEX
  8
2
  62
0
  10
    74.100000
  20
    20.400000
  30
    0.000000
  0
VERTEX
  8
2
  62
0
  10
    75.500000
  20
    21.600000
  30
    0.000000
  0
VERTEX
  8
2
  62
0
  10
    76.800000
  20
    21.500000
  30
    0.000000
  0
SEQEND
  0
POLYLINE
  8
2
  62
0
  66
1
  0
VERTEX
  8
2
  62
0
  10
    75.700000
  20
    60.000000
  30
    0.000000
  0
VERTEX
  8
2
  62
0
  10
    80.000000
  20
    60.000000
  30
    0.000000
  0
VERTEX
  8
2
  62
0
  10
    80.000000
  20
    51.800000
  30
    0.000000
  0
VERTEX
  8
2
  62
0
  10
    78.600000
  20
    52.000000
  30
    0.000000
  0
VERTEX
  8
2
  62
0
  10
    77.700000
  20
    52.800000
  30
    0.000000
  0
VERTEX
  8
2
  62
0
  10
    75.600000
  20
    57.600000
  30
    0.000000
  0
VERTEX
  8
2
  62
0
  10
    75.700000
  20
    60.000000
  30
    0.000000
  0
SEQEND
  0
POLYLINE
  8
2
  62
0
  66
1
  0
VERTEX
  8
2
  62
0
  10
    78.500000
  20
    32.100000
  30
    0.000000
  0
VERTEX
  8
2
  62
0
  10
    80.000000
  20
    32.100000
  30
    0.000000
  0
VERTEX
  8
2
  62
0
  10
    80.000000
  20
    25.900000
  30
    0.000000
  0
VERTEX
  8
2
  62
0
  10
    78.700000
  20
    26.300000
  30
    0.000000
  0
VERTEX
  8
2
  62
0
  10
    77.400000
  20
    28.800000
  30
    0.000000
  0
VERTEX
  8
2
  62
0
  10
    77.300000
  20
    30.700000
  30
    0.000000
  0
VERTEX
  8
2
  62
0
  10
    78.500000
  20
    32.100000
  30
    0.000000
  0
SEQEND
  0
POLYLINE
  8
2
  62
0
  66
1
  0
VERTEX
  8
2
  62
0
  10
    0.000000
  20
    0.000000
  30
    0.000000
  0
VERTEX
  8
2
  62
0
  10
    0.000000
  20
    60.000000
  30
    0.000000
  0
VERTEX
  8
2
  62
0
  10
    80.000000
  20
    60.000000
  30
    0.000000
  0
VERTEX
  8
2
  62
0
  10
    80.000000
  20
    0.000000
  30
    0.000000
  0
VERTEX
  8
2
  62
0
  10
    0.000000
  20
    0.000000
  30
    0.000000
  0
SEQEND
  0
ENDSEC
  0
EOF
