  0
SECTION
  2
ENTITIES
  0
POLYLINE
  8
2
  62
0
  66
1
  0
VERTEX
  8
2
  62
0
  10
    0.000000
  20
    28.900000
  30
    0.000000
  0
VERTEX
  8
2
  62
0
  10
    0.500000
  20
    29.000000
  30
    0.000000
  0
VERTEX
  8
2
  62
0
  10
    1.200000
  20
    28.600000
  30
    0.000000
  0
VERTEX
  8
2
  62
0
  10
    2.600000
  20
    28.600000
  30
    0.000000
  0
VERTEX
  8
2
  62
0
  10
    4.200000
  20
    29.800000
  30
    0.000000
  0
VERTEX
  8
2
  62
0
  10
    4.400000
  20
    30.500000
  30
    0.000000
  0
VERTEX
  8
2
  62
0
  10
    5.100000
  20
    31.100000
  30
    0.000000
  0
VERTEX
  8
2
  62
0
  10
    5.000000
  20
    32.600000
  30
    0.000000
  0
VERTEX
  8
2
  62
0
  10
    5.300000
  20
    33.100000
  30
    0.000000
  0
VERTEX
  8
2
  62
0
  10
    4.300000
  20
    35.000000
  30
    0.000000
  0
VERTEX
  8
2
  62
0
  10
    0.000000
  20
    35.000000
  30
    0.000000
  0
VERTEX
  8
2
  62
0
  10
    0.000000
  20
    28.900000
  30
    0.000000
  0
SEQEND
  0
POLYLINE
  8
2
  62
0
  66
1
  0
VERTEX
  8
2
  62
0
  10
    0.000000
  20
    24.100000
  30
    0.000000
  0
VERTEX
  8
2
  62
0
  10
    0.000000
  20
    20.500000
  30
    0.000000
  0
VERTEX
  8
2
  62
0
  10
    0.300000
  20
    20.500000
  30
    0.000000
  0
VERTEX
  8
2
  62
0
  10
    1.200000
  20
    21.000000
  30
    0.000000
  0
VERTEX
  8
2
  62
0
  10
    1.600000
  20
    22.000000
  30
    0.000000
  0
VERTEX
  8
2
  62
0
  10
    1.200000
  20
    22.400000
  30
    0.000000
  0
VERTEX
  8
2
  62
0
  10
    1.100000
  20
    22.900000
  30
    0.000000
  0
VERTEX
  8
2
  62
0
  10
    0.600000
  20
    23.300000
  30
    0.000000
  0
VERTEX
  8
2
  62
0
  10
    0.600000
  20
    23.800000
  30
    0.000000
  0
VERTEX
  8
2
  62
0
  10
    0.000000
  20
    24.100000
  30
    0.000000
  0
SEQEND
  0
POLYLINE
  8
2
  62
0
  66
1
  0
VERTEX
  8
2
  62
0
  10
    0.000000
  20
    19.200000
  30
    0.000000
  0
VERTEX
  8
2
  62
0
  10
    0.000000
  20
    17.800000
  30
    0.000000
  0
VERTEX
  8
2
  62
0
  10
    0.600000
  20
    16.900000
  30
    0.000000
  0
VERTEX
  8
2
  62
0
  10
    1.000000
  20
    16.900000
  30
    0.000000
  0
VERTEX
  8
2
  62
0
  10
    1.200000
  20
    17.500000
  30
    0.000000
  0
VERTEX
  8
2
  62
0
  10
    1.700000
  20
    17.800000
  30
    0.000000
  0
VERTEX
  8
2
  62
0
  10
    1.700000
  20
    18.200000
  30
    0.000000
  0
VERTEX
  8
2
  62
0
  10
    1.500000
  20
    18.500000
  30
    0.000000
  0
VERTEX
  8
2
  62
0
  10
    0.800000
  20
    18.600000
  30
    0.000000
  0
VERTEX
  8
2
  62
0
  10
    0.700000
  20
    18.900000
  30
    0.000000
  0
VERTEX
  8
2
  62
0
  10
    0.000000
  20
    19.200000
  30
    0.000000
  0
SEQEND
  0
POLYLINE
  8
2
  62
0
  66
1
  0
VERTEX
  8
2
  62
0
  10
    0.000000
  20
    7.200000
  30
    0.000000
  0
VERTEX
  8
2
  62
0
  10
    0.000000
  20
    4.500000
  30
    0.000000
  0
VERTEX
  8
2
  62
0
  10
    0.300000
  20
    4.400000
  30
    0.000000
  0
VERTEX
  8
2
  62
0
  10
    1.500000
  20
    2.000000
  30
    0.000000
  0
VERTEX
  8
2
  62
0
  10
    2.200000
  20
    1.200000
  30
    0.000000
  0
VERTEX
  8
2
  62
0
  10
    3.100000
  20
    1.300000
  30
    0.000000
  0
VERTEX
  8
2
  62
0
  10
    3.900000
  20
    1.900000
  30
    0.000000
  0
VERTEX
  8
2
  62
0
  10
    5.500000
  20
    2.500000
  30
    0.000000
  0
VERTEX
  8
2
  62
0
  10
    6.400000
  20
    2.300000
  30
    0.000000
  0
VERTEX
  8
2
  62
0
  10
    6.700000
  20
    2.500000
  30
    0.000000
  0
VERTEX
  8
2
  62
0
  10
    6.700000
  20
    4.300000
  30
    0.000000
  0
VERTEX
  8
2
  62
0
  10
    5.300000
  20
    5.700000
  30
    0.000000
  0
VERTEX
  8
2
  62
0
  10
    4.300000
  20
    7.800000
  30
    0.000000
  0
VERTEX
  8
2
  62
0
  10
    3.100000
  20
    9.100000
  30
    0.000000
  0
VERTEX
  8
2
  62
0
  10
    2.600000
  20
    8.700000
  30
    0.000000
  0
VERTEX
  8
2
  62
0
  10
    1.200000
  20
    8.400000
  30
    0.000000
  0
VERTEX
  8
2
  62
0
  10
    0.600000
  20
    7.500000
  30
    0.000000
  0
VERTEX
  8
2
  62
0
  10
    0.000000
  20
    7.200000
  30
    0.000000
  0
SEQEND
  0
POLYLINE
  8
2
  62
0
  66
1
  0
VERTEX
  8
2
  62
0
  10
    0.000000
  20
    1.100000
  30
    0.000000
  0
VERTEX
  8
2
  62
0
  10
    0.000000
  20
    0.000000
  30
    0.000000
  0
VERTEX
  8
2
  62
0
  10
    1.700000
  20
    0.000000
  30
    0.000000
  0
VERTEX
  8
2
  62
0
  10
    0.800000
  20
    1.000000
  30
    0.000000
  0
VERTEX
  8
2
  62
0
  10
    0.000000
  20
    1.100000
  30
    0.000000
  0
SEQEND
  0
POLYLINE
  8
2
  62
0
  66
1
  0
VERTEX
  8
2
  62
0
  10
    2.500000
  20
    23.900000
  30
    0.000000
  0
VERTEX
  8
2
  62
0
  10
    2.600000
  20
    24.800000
  30
    0.000000
  0
VERTEX
  8
2
  62
0
  10
    2.400000
  20
    25.100000
  30
    0.000000
  0
VERTEX
  8
2
  62
0
  10
    1.600000
  20
    25.300000
  30
    0.000000
  0
VERTEX
  8
2
  62
0
  10
    0.900000
  20
    26.200000
  30
    0.000000
  0
VERTEX
  8
2
  62
0
  10
    0.400000
  20
    26.200000
  30
    0.000000
  0
VERTEX
  8
2
  62
0
  10
    0.200000
  20
    25.000000
  30
    0.000000
  0
VERTEX
  8
2
  62
0
  10
    0.700000
  20
    24.100000
  30
    0.000000
  0
VERTEX
  8
2
  62
0
  10
    2.500000
  20
    23.900000
  30
    0.000000
  0
SEQEND
  0
POLYLINE
  8
2
  62
0
  66
1
  0
VERTEX
  8
2
  62
0
  10
    2.600000
  20
    9.000000
  30
    0.000000
  0
VERTEX
  8
2
  62
0
  10
    2.600000
  20
    9.700000
  30
    0.000000
  0
VERTEX
  8
2
  62
0
  10
    2.000000
  20
    10.300000
  30
    0.000000
  0
VERTEX
  8
2
  62
0
  10
    1.900000
  20
    10.900000
  30
    0.000000
  0
VERTEX
  8
2
  62
0
  10
    0.900000
  20
    11.800000
  30
    0.000000
  0
VERTEX
  8
2
  62
0
  10
    0.600000
  20
    11.800000
  30
    0.000000
  0
VERTEX
  8
2
  62
0
  10
    0.600000
  20
    10.600000
  30
    0.000000
  0
VERTEX
  8
2
  62
0
  10
    1.100000
  20
    9.400000
  30
    0.000000
  0
VERTEX
  8
2
  62
0
  10
    2.600000
  20
    9.000000
  30
    0.000000
  0
SEQEND
  0
POLYLINE
  8
2
  62
0
  66
1
  0
VERTEX
  8
2
  62
0
  10
    0.700000
  20
    26.800000
  30
    0.000000
  0
VERTEX
  8
2
  62
0
  10
    1.100000
  20
    26.900000
  30
    0.000000
  0
VERTEX
  8
2
  62
0
  10
    1.300000
  20
    28.000000
  30
    0.000000
  0
VERTEX
  8
2
  62
0
  10
    0.700000
  20
    28.000000
  30
    0.000000
  0
VERTEX
  8
2
  62
0
  10
    0.700000
  20
    26.800000
  30
    0.000000
  0
SEQEND
  0
POLYLINE
  8
2
  62
0
  66
1
  0
VERTEX
  8
2
  62
0
  10
    0.800000
  20
    15.100000
  30
    0.000000
  0
VERTEX
  8
2
  62
0
  10
    0.900000
  20
    12.700000
  30
    0.000000
  0
VERTEX
  8
2
  62
0
  10
    1.400000
  20
    12.700000
  30
    0.000000
  0
VERTEX
  8
2
  62
0
  10
    1.400000
  20
    12.900000
  30
    0.000000
  0
VERTEX
  8
2
  62
0
  10
    1.700000
  20
    12.900000
  30
    0.000000
  0
VERTEX
  8
2
  62
0
  10
    2.000000
  20
    13.700000
  30
    0.000000
  0
VERTEX
  8
2
  62
0
  10
    1.900000
  20
    14.600000
  30
    0.000000
  0
VERTEX
  8
2
  62
0
  10
    1.500000
  20
    15.000000
  30
    0.000000
  0
VERTEX
  8
2
  62
0
  10
    0.800000
  20
    15.100000
  30
    0.000000
  0
SEQEND
  0
POLYLINE
  8
2
  62
0
  66
1
  0
VERTEX
  8
2
  62
0
  10
    1.500000
  20
    16.300000
  30
    0.000000
  0
VERTEX
  8
2
  62
0
  10
    1.500000
  20
    15.800000
  30
    0.000000
  0
VERTEX
  8
2
  62
0
  10
    1.800000
  20
    15.300000
  30
    0.000000
  0
VERTEX
  8
2
  62
0
  10
    2.400000
  20
    14.700000
  30
    0.000000
  0
VERTEX
  8
2
  62
0
  10
    3.000000
  20
    14.600000
  30
    0.000000
  0
VERTEX
  8
2
  62
0
  10
    3.600000
  20
    15.500000
  30
    0.000000
  0
VERTEX
  8
2
  62
0
  10
    3.600000
  20
    16.100000
  30
    0.000000
  0
VERTEX
  8
2
  62
0
  10
    2.800000
  20
    16.500000
  30
    0.000000
  0
VERTEX
  8
2
  62
0
  10
    1.500000
  20
    16.300000
  30
    0.000000
  0
SEQEND
  0
POLYLINE
  8
2
  62
0
  66
1
  0
VERTEX
  8
2
  62
0
  10
    3.500000
  20
    26.100000
  30
    0.000000
  0
VERTEX
  8
2
  62
0
  10
    3.700000
  20
    26.300000
  30
    0.000000
  0
VERTEX
  8
2
  62
0
  10
    3.700000
  20
    26.900000
  30
    0.000000
  0
VERTEX
  8
2
  62
0
  10
    2.700000
  20
    27.800000
  30
    0.000000
  0
VERTEX
  8
2
  62
0
  10
    2.100000
  20
    28.000000
  30
    0.000000
  0
VERTEX
  8
2
  62
0
  10
    1.800000
  20
    26.700000
  30
    0.000000
  0
VERTEX
  8
2
  62
0
  10
    2.400000
  20
    26.200000
  30
    0.000000
  0
VERTEX
  8
2
  62
0
  10
    3.500000
  20
    26.100000
  30
    0.000000
  0
SEQEND
  0
POLYLINE
  8
2
  62
0
  66
1
  0
VERTEX
  8
2
  62
0
  10
    2.100000
  20
    19.500000
  30
    0.000000
  0
VERTEX
  8
2
  62
0
  10
    2.400000
  20
    19.500000
  30
    0.000000
  0
VERTEX
  8
2
  62
0
  10
    2.700000
  20
    20.300000
  30
    0.000000
  0
VERTEX
  8
2
  62
0
  10
    3.100000
  20
    20.400000
  30
    0.000000
  0
VERTEX
  8
2
  62
0
  10
    2.900000
  20
    20.800000
  30
    0.000000
  0
VERTEX
  8
2
  62
0
  10
    2.600000
  20
    20.900000
  30
    0.000000
  0
VERTEX
  8
2
  62
0
  10
    2.300000
  20
    20.700000
  30
    0.000000
  0
VERTEX
  8
2
  62
0
  10
    2.000000
  20
    20.200000
  30
    0.000000
  0
VERTEX
  8
2
  62
0
  10
    2.100000
  20
    19.500000
  30
    0.000000
  0
SEQEND
  0
POLYLINE
  8
2
  62
0
  66
1
  0
VERTEX
  8
2
  62
0
  10
    2.200000
  20
    13.600000
  30
    0.000000
  0
VERTEX
  8
2
  62
0
  10
    2.700000
  20
    12.100000
  30
    0.000000
  0
VERTEX
  8
2
  62
0
  10
    2.600000
  20
    11.700000
  30
    0.000000
  0
VERTEX
  8
2
  62
0
  10
    4.100000
  20
    12.000000
  30
    0.000000
  0
VERTEX
  8
2
  62
0
  10
    3.900000
  20
    12.600000
  30
    0.000000
  0
VERTEX
  8
2
  62
0
  10
    3.100000
  20
    13.600000
  30
    0.000000
  0
VERTEX
  8
2
  62
0
  10
    2.200000
  20
    13.600000
  30
    0.000000
  0
SEQEND
  0
POLYLINE
  8
2
  62
0
  66
1
  0
VERTEX
  8
2
  62
0
  10
    2.600000
  20
    0.000000
  30
    0.000000
  0
VERTEX
  8
2
  62
0
  10
    4.900000
  20
    0.000000
  30
    0.000000
  0
VERTEX
  8
2
  62
0
  10
    5.300000
  20
    0.700000
  30
    0.000000
  0
VERTEX
  8
2
  62
0
  10
    5.900000
  20
    1.000000
  30
    0.000000
  0
VERTEX
  8
2
  62
0
  10
    5.800000
  20
    1.700000
  30
    0.000000
  0
VERTEX
  8
2
  62
0
  10
    5.500000
  20
    1.700000
  30
    0.000000
  0
VERTEX
  8
2
  62
0
  10
    5.300000
  20
    1.300000
  30
    0.000000
  0
VERTEX
  8
2
  62
0
  10
    3.500000
  20
    0.800000
  30
    0.000000
  0
VERTEX
  8
2
  62
0
  10
    3.100000
  20
    0.200000
  30
    0.000000
  0
VERTEX
  8
2
  62
0
  10
    2.600000
  20
    0.000000
  30
    0.000000
  0
SEQEND
  0
POLYLINE
  8
2
  62
0
  66
1
  0
VERTEX
  8
2
  62
0
  10
    5.100000
  20
    16.200000
  30
    0.000000
  0
VERTEX
  8
2
  62
0
  10
    6.300000
  20
    16.900000
  30
    0.000000
  0
VERTEX
  8
2
  62
0
  10
    7.200000
  20
    17.900000
  30
    0.000000
  0
VERTEX
  8
2
  62
0
  10
    7.600000
  20
    18.700000
  30
    0.000000
  0
VERTEX
  8
2
  62
0
  10
    7.600000
  20
    19.600000
  30
    0.000000
  0
VERTEX
  8
2
  62
0
  10
    7.000000
  20
    20.500000
  30
    0.000000
  0
VERTEX
  8
2
  62
0
  10
    4.800000
  20
    21.900000
  30
    0.000000
  0
VERTEX
  8
2
  62
0
  10
    3.000000
  20
    23.400000
  30
    0.000000
  0
VERTEX
  8
2
  62
0
  10
    3.100000
  20
    20.500000
  30
    0.000000
  0
VERTEX
  8
2
  62
0
  10
    3.700000
  20
    18.900000
  30
    0.000000
  0
VERTEX
  8
2
  62
0
  10
    3.600000
  20
    17.900000
  30
    0.000000
  0
VERTEX
  8
2
  62
0
  10
    4.400000
  20
    16.700000
  30
    0.000000
  0
VERTEX
  8
2
  62
0
  10
    5.100000
  20
    16.200000
  30
    0.000000
  0
SEQEND
  0
POLYLINE
  8
2
  62
0
  66
1
  0
VERTEX
  8
2
  62
0
  10
    3.300000
  20
    28.700000
  30
    0.000000
  0
VERTEX
  8
2
  62
0
  10
    3.300000
  20
    28.200000
  30
    0.000000
  0
VERTEX
  8
2
  62
0
  10
    3.900000
  20
    27.100000
  30
    0.000000
  0
VERTEX
  8
2
  62
0
  10
    4.700000
  20
    26.800000
  30
    0.000000
  0
VERTEX
  8
2
  62
0
  10
    4.200000
  20
    28.600000
  30
    0.000000
  0
VERTEX
  8
2
  62
0
  10
    3.300000
  20
    28.700000
  30
    0.000000
  0
SEQEND
  0
POLYLINE
  8
2
  62
0
  66
1
  0
VERTEX
  8
2
  62
0
  10
    3.600000
  20
    24.300000
  30
    0.000000
  0
VERTEX
  8
2
  62
0
  10
    4.400000
  20
    24.200000
  30
    0.000000
  0
VERTEX
  8
2
  62
0
  10
    4.800000
  20
    24.900000
  30
    0.000000
  0
VERTEX
  8
2
  62
0
  10
    4.800000
  20
    25.400000
  30
    0.000000
  0
VERTEX
  8
2
  62
0
  10
    3.700000
  20
    25.000000
  30
    0.000000
  0
VERTEX
  8
2
  62
0
  10
    3.600000
  20
    24.300000
  30
    0.000000
  0
SEQEND
  0
POLYLINE
  8
2
  62
0
  66
1
  0
VERTEX
  8
2
  62
0
  10
    3.900000
  20
    14.700000
  30
    0.000000
  0
VERTEX
  8
2
  62
0
  10
    3.900000
  20
    14.200000
  30
    0.000000
  0
VERTEX
  8
2
  62
0
  10
    4.900000
  20
    13.600000
  30
    0.000000
  0
VERTEX
  8
2
  62
0
  10
    5.800000
  20
    13.400000
  30
    0.000000
  0
VERTEX
  8
2
  62
0
  10
    7.200000
  20
    13.500000
  30
    0.000000
  0
VERTEX
  8
2
  62
0
  10
    7.200000
  20
    14.300000
  30
    0.000000
  0
VERTEX
  8
2
  62
0
  10
    6.600000
  20
    14.500000
  30
    0.000000
  0
VERTEX
  8
2
  62
0
  10
    6.600000
  20
    14.900000
  30
    0.000000
  0
VERTEX
  8
2
  62
0
  10
    4.400000
  20
    14.900000
  30
    0.000000
  0
VERTEX
  8
2
  62
0
  10
    3.900000
  20
    14.700000
  30
    0.000000
  0
SEQEND
  0
POLYLINE
  8
2
  62
0
  66
1
  0
VERTEX
  8
2
  62
0
  10
    4.300000
  20
    23.900000
  30
    0.000000
  0
VERTEX
  8
2
  62
0
  10
    4.500000
  20
    22.800000
  30
    0.000000
  0
VERTEX
  8
2
  62
0
  10
    5.700000
  20
    21.900000
  30
    0.000000
  0
VERTEX
  8
2
  62
0
  10
    6.500000
  20
    22.000000
  30
    0.000000
  0
VERTEX
  8
2
  62
0
  10
    6.600000
  20
    22.900000
  30
    0.000000
  0
VERTEX
  8
2
  62
0
  10
    6.200000
  20
    23.800000
  30
    0.000000
  0
VERTEX
  8
2
  62
0
  10
    5.400000
  20
    24.000000
  30
    0.000000
  0
VERTEX
  8
2
  62
0
  10
    4.300000
  20
    23.900000
  30
    0.000000
  0
SEQEND
  0
POLYLINE
  8
2
  62
0
  66
1
  0
VERTEX
  8
2
  62
0
  10
    4.400000
  20
    11.300000
  30
    0.000000
  0
VERTEX
  8
2
  62
0
  10
    4.400000
  20
    10.700000
  30
    0.000000
  0
VERTEX
  8
2
  62
0
  10
    4.700000
  20
    10.300000
  30
    0.000000
  0
VERTEX
  8
2
  62
0
  10
    5.000000
  20
    9.000000
  30
    0.000000
  0
VERTEX
  8
2
  62
0
  10
    5.400000
  20
    8.200000
  30
    0.000000
  0
VERTEX
  8
2
  62
0
  10
    5.800000
  20
    8.200000
  30
    0.000000
  0
VERTEX
  8
2
  62
0
  10
    5.800000
  20
    8.400000
  30
    0.000000
  0
VERTEX
  8
2
  62
0
  10
    6.200000
  20
    8.500000
  30
    0.000000
  0
VERTEX
  8
2
  62
0
  10
    6.200000
  20
    9.300000
  30
    0.000000
  0
VERTEX
  8
2
  62
0
  10
    4.900000
  20
    11.100000
  30
    0.000000
  0
VERTEX
  8
2
  62
0
  10
    4.400000
  20
    11.300000
  30
    0.000000
  0
SEQEND
  0
POLYLINE
  8
2
  62
0
  66
1
  0
VERTEX
  8
2
  62
0
  10
    5.600000
  20
    11.000000
  30
    0.000000
  0
VERTEX
  8
2
  62
0
  10
    5.600000
  20
    11.400000
  30
    0.000000
  0
VERTEX
  8
2
  62
0
  10
    5.400000
  20
    11.400000
  30
    0.000000
  0
VERTEX
  8
2
  62
0
  10
    5.300000
  20
    11.800000
  30
    0.000000
  0
VERTEX
  8
2
  62
0
  10
    5.400000
  20
    12.900000
  30
    0.000000
  0
VERTEX
  8
2
  62
0
  10
    5.000000
  20
    12.900000
  30
    0.000000
  0
VERTEX
  8
2
  62
0
  10
    4.700000
  20
    12.600000
  30
    0.000000
  0
VERTEX
  8
2
  62
0
  10
    4.700000
  20
    11.700000
  30
    0.000000
  0
VERTEX
  8
2
  62
0
  10
    5.100000
  20
    11.100000
  30
    0.000000
  0
VERTEX
  8
2
  62
0
  10
    5.600000
  20
    11.000000
  30
    0.000000
  0
SEQEND
  0
POLYLINE
  8
2
  62
0
  66
1
  0
VERTEX
  8
2
  62
0
  10
    5.100000
  20
    26.000000
  30
    0.000000
  0
VERTEX
  8
2
  62
0
  10
    5.400000
  20
    26.000000
  30
    0.000000
  0
VERTEX
  8
2
  62
0
  10
    5.600000
  20
    26.500000
  30
    0.000000
  0
VERTEX
  8
2
  62
0
  10
    5.900000
  20
    28.600000
  30
    0.000000
  0
VERTEX
  8
2
  62
0
  10
    7.100000
  20
    29.600000
  30
    0.000000
  0
VERTEX
  8
2
  62
0
  10
    7.300000
  20
    30.100000
  30
    0.000000
  0
VERTEX
  8
2
  62
0
  10
    8.000000
  20
    30.400000
  30
    0.000000
  0
VERTEX
  8
2
  62
0
  10
    8.000000
  20
    30.700000
  30
    0.000000
  0
VERTEX
  8
2
  62
0
  10
    6.800000
  20
    30.900000
  30
    0.000000
  0
VERTEX
  8
2
  62
0
  10
    6.300000
  20
    30.300000
  30
    0.000000
  0
VERTEX
  8
2
  62
0
  10
    5.000000
  20
    29.900000
  30
    0.000000
  0
VERTEX
  8
2
  62
0
  10
    5.100000
  20
    29.100000
  30
    0.000000
  0
VERTEX
  8
2
  62
0
  10
    4.900000
  20
    29.000000
  30
    0.000000
  0
VERTEX
  8
2
  62
0
  10
    4.900000
  20
    28.300000
  30
    0.000000
  0
VERTEX
  8
2
  62
0
  10
    5.100000
  20
    27.900000
  30
    0.000000
  0
VERTEX
  8
2
  62
0
  10
    5.100000
  20
    26.000000
  30
    0.000000
  0
SEQEND
  0
POLYLINE
  8
2
  62
0
  66
1
  0
VERTEX
  8
2
  62
0
  10
    5.400000
  20
    33.000000
  30
    0.000000
  0
VERTEX
  8
2
  62
0
  10
    6.000000
  20
    32.100000
  30
    0.000000
  0
VERTEX
  8
2
  62
0
  10
    7.000000
  20
    32.300000
  30
    0.000000
  0
VERTEX
  8
2
  62
0
  10
    7.300000
  20
    32.800000
  30
    0.000000
  0
VERTEX
  8
2
  62
0
  10
    6.800000
  20
    33.400000
  30
    0.000000
  0
VERTEX
  8
2
  62
0
  10
    6.000000
  20
    33.400000
  30
    0.000000
  0
VERTEX
  8
2
  62
0
  10
    5.400000
  20
    33.000000
  30
    0.000000
  0
SEQEND
  0
POLYLINE
  8
2
  62
0
  66
1
  0
VERTEX
  8
2
  62
0
  10
    5.500000
  20
    25.100000
  30
    0.000000
  0
VERTEX
  8
2
  62
0
  10
    6.800000
  20
    24.000000
  30
    0.000000
  0
VERTEX
  8
2
  62
0
  10
    7.200000
  20
    24.100000
  30
    0.000000
  0
VERTEX
  8
2
  62
0
  10
    7.200000
  20
    24.500000
  30
    0.000000
  0
VERTEX
  8
2
  62
0
  10
    6.500000
  20
    25.500000
  30
    0.000000
  0
VERTEX
  8
2
  62
0
  10
    6.200000
  20
    25.600000
  30
    0.000000
  0
VERTEX
  8
2
  62
0
  10
    5.500000
  20
    25.100000
  30
    0.000000
  0
SEQEND
  0
POLYLINE
  8
2
  62
0
  66
1
  0
VERTEX
  8
2
  62
0
  10
    5.700000
  20
    12.500000
  30
    0.000000
  0
VERTEX
  8
2
  62
0
  10
    6.000000
  20
    11.900000
  30
    0.000000
  0
VERTEX
  8
2
  62
0
  10
    6.700000
  20
    11.700000
  30
    0.000000
  0
VERTEX
  8
2
  62
0
  10
    7.500000
  20
    11.900000
  30
    0.000000
  0
VERTEX
  8
2
  62
0
  10
    7.700000
  20
    12.200000
  30
    0.000000
  0
VERTEX
  8
2
  62
0
  10
    7.400000
  20
    13.200000
  30
    0.000000
  0
VERTEX
  8
2
  62
0
  10
    6.500000
  20
    13.100000
  30
    0.000000
  0
VERTEX
  8
2
  62
0
  10
    5.700000
  20
    12.500000
  30
    0.000000
  0
SEQEND
  0
POLYLINE
  8
2
  62
0
  66
1
  0
VERTEX
  8
2
  62
0
  10
    8.800000
  20
    26.900000
  30
    0.000000
  0
VERTEX
  8
2
  62
0
  10
    8.700000
  20
    27.700000
  30
    0.000000
  0
VERTEX
  8
2
  62
0
  10
    8.300000
  20
    28.400000
  30
    0.000000
  0
VERTEX
  8
2
  62
0
  10
    7.900000
  20
    28.600000
  30
    0.000000
  0
VERTEX
  8
2
  62
0
  10
    7.400000
  20
    29.400000
  30
    0.000000
  0
VERTEX
  8
2
  62
0
  10
    7.000000
  20
    29.300000
  30
    0.000000
  0
VERTEX
  8
2
  62
0
  10
    6.600000
  20
    28.600000
  30
    0.000000
  0
VERTEX
  8
2
  62
0
  10
    6.700000
  20
    28.100000
  30
    0.000000
  0
VERTEX
  8
2
  62
0
  10
    7.800000
  20
    27.200000
  30
    0.000000
  0
VERTEX
  8
2
  62
0
  10
    8.800000
  20
    26.900000
  30
    0.000000
  0
SEQEND
  0
POLYLINE
  8
2
  62
0
  66
1
  0
VERTEX
  8
2
  62
0
  10
    6.800000
  20
    16.500000
  30
    0.000000
  0
VERTEX
  8
2
  62
0
  10
    7.000000
  20
    15.500000
  30
    0.000000
  0
VERTEX
  8
2
  62
0
  10
    8.200000
  20
    14.800000
  30
    0.000000
  0
VERTEX
  8
2
  62
0
  10
    8.200000
  20
    14.600000
  30
    0.000000
  0
VERTEX
  8
2
  62
0
  10
    9.000000
  20
    14.000000
  30
    0.000000
  0
VERTEX
  8
2
  62
0
  10
    10.200000
  20
    14.000000
  30
    0.000000
  0
VERTEX
  8
2
  62
0
  10
    10.500000
  20
    14.300000
  30
    0.000000
  0
VERTEX
  8
2
  62
0
  10
    10.600000
  20
    14.800000
  30
    0.000000
  0
VERTEX
  8
2
  62
0
  10
    10.300000
  20
    15.600000
  30
    0.000000
  0
VERTEX
  8
2
  62
0
  10
    9.000000
  20
    16.500000
  30
    0.000000
  0
VERTEX
  8
2
  62
0
  10
    7.900000
  20
    16.900000
  30
    0.000000
  0
VERTEX
  8
2
  62
0
  10
    7.300000
  20
    16.900000
  30
    0.000000
  0
VERTEX
  8
2
  62
0
  10
    6.800000
  20
    16.500000
  30
    0.000000
  0
SEQEND
  0
POLYLINE
  8
2
  62
0
  66
1
  0
VERTEX
  8
2
  62
0
  10
    7.800000
  20
    6.800000
  30
    0.000000
  0
VERTEX
  8
2
  62
0
  10
    8.000000
  20
    10.100000
  30
    0.000000
  0
VERTEX
  8
2
  62
0
  10
    7.700000
  20
    10.100000
  30
    0.000000
  0
VERTEX
  8
2
  62
0
  10
    7.300000
  20
    11.000000
  30
    0.000000
  0
VERTEX
  8
2
  62
0
  10
    6.900000
  20
    11.000000
  30
    0.000000
  0
VERTEX
  8
2
  62
0
  10
    6.800000
  20
    10.000000
  30
    0.000000
  0
VERTEX
  8
2
  62
0
  10
    7.100000
  20
    8.700000
  30
    0.000000
  0
VERTEX
  8
2
  62
0
  10
    6.800000
  20
    8.400000
  30
    0.000000
  0
VERTEX
  8
2
  62
0
  10
    6.800000
  20
    7.500000
  30
    0.000000
  0
VERTEX
  8
2
  62
0
  10
    7.200000
  20
    6.900000
  30
    0.000000
  0
VERTEX
  8
2
  62
0
  10
    7.800000
  20
    6.800000
  30
    0.000000
  0
SEQEND
  0
POLYLINE
  8
2
  62
0
  66
1
  0
VERTEX
  8
2
  62
0
  10
    6.800000
  20
    5.800000
  30
    0.000000
  0
VERTEX
  8
2
  62
0
  10
    6.900000
  20
    5.400000
  30
    0.000000
  0
VERTEX
  8
2
  62
0
  10
    7.300000
  20
    5.200000
  30
    0.000000
  0
VERTEX
  8
2
  62
0
  10
    8.100000
  20
    5.400000
  30
    0.000000
  0
VERTEX
  8
2
  62
0
  10
    8.100000
  20
    6.000000
  30
    0.000000
  0
VERTEX
  8
2
  62
0
  10
    7.600000
  20
    6.400000
  30
    0.000000
  0
VERTEX
  8
2
  62
0
  10
    7.200000
  20
    6.300000
  30
    0.000000
  0
VERTEX
  8
2
  62
0
  10
    6.800000
  20
    5.800000
  30
    0.000000
  0
SEQEND
  0
POLYLINE
  8
2
  62
0
  66
1
  0
VERTEX
  8
2
  62
0
  10
    7.000000
  20
    34.400000
  30
    0.000000
  0
VERTEX
  8
2
  62
0
  10
    7.000000
  20
    33.700000
  30
    0.000000
  0
VERTEX
  8
2
  62
0
  10
    7.700000
  20
    33.400000
  30
    0.000000
  0
VERTEX
  8
2
  62
0
  10
    7.800000
  20
    34.200000
  30
    0.000000
  0
VERTEX
  8
2
  62
0
  10
    7.500000
  20
    34.500000
  30
    0.000000
  0
VERTEX
  8
2
  62
0
  10
    7.000000
  20
    34.400000
  30
    0.000000
  0
SEQEND
  0
POLYLINE
  8
2
  62
0
  66
1
  0
VERTEX
  8
2
  62
0
  10
    7.500000
  20
    32.600000
  30
    0.000000
  0
VERTEX
  8
2
  62
0
  10
    8.400000
  20
    32.500000
  30
    0.000000
  0
VERTEX
  8
2
  62
0
  10
    8.600000
  20
    32.800000
  30
    0.000000
  0
VERTEX
  8
2
  62
0
  10
    8.900000
  20
    32.800000
  30
    0.000000
  0
VERTEX
  8
2
  62
0
  10
    8.900000
  20
    33.200000
  30
    0.000000
  0
VERTEX
  8
2
  62
0
  10
    8.300000
  20
    33.400000
  30
    0.000000
  0
VERTEX
  8
2
  62
0
  10
    7.500000
  20
    32.600000
  30
    0.000000
  0
SEQEND
  0
POLYLINE
  8
2
  62
0
  66
1
  0
VERTEX
  8
2
  62
0
  10
    8.700000
  20
    24.300000
  30
    0.000000
  0
VERTEX
  8
2
  62
0
  10
    8.800000
  20
    25.000000
  30
    0.000000
  0
VERTEX
  8
2
  62
0
  10
    8.300000
  20
    25.400000
  30
    0.000000
  0
VERTEX
  8
2
  62
0
  10
    7.700000
  20
    25.400000
  30
    0.000000
  0
VERTEX
  8
2
  62
0
  10
    7.500000
  20
    25.100000
  30
    0.000000
  0
VERTEX
  8
2
  62
0
  10
    7.600000
  20
    24.500000
  30
    0.000000
  0
VERTEX
  8
2
  62
0
  10
    7.800000
  20
    24.300000
  30
    0.000000
  0
VERTEX
  8
2
  62
0
  10
    8.700000
  20
    24.300000
  30
    0.000000
  0
SEQEND
  0
POLYLINE
  8
2
  62
0
  66
1
  0
VERTEX
  8
2
  62
0
  10
    7.500000
  20
    0.000000
  30
    0.000000
  0
VERTEX
  8
2
  62
0
  10
    10.200000
  20
    0.000000
  30
    0.000000
  0
VERTEX
  8
2
  62
0
  10
    10.200000
  20
    0.500000
  30
    0.000000
  0
VERTEX
  8
2
  62
0
  10
    9.500000
  20
    1.500000
  30
    0.000000
  0
VERTEX
  8
2
  62
0
  10
    8.700000
  20
    1.400000
  30
    0.000000
  0
VERTEX
  8
2
  62
0
  10
    7.600000
  20
    0.500000
  30
    0.000000
  0
VERTEX
  8
2
  62
0
  10
    7.500000
  20
    0.000000
  30
    0.000000
  0
SEQEND
  0
POLYLINE
  8
2
  62
0
  66
1
  0
VERTEX
  8
2
  62
0
  10
    7.600000
  20
    22.500000
  30
    0.000000
  0
VERTEX
  8
2
  62
0
  10
    7.900000
  20
    21.900000
  30
    0.000000
  0
VERTEX
  8
2
  62
0
  10
    8.700000
  20
    21.400000
  30
    0.000000
  0
VERTEX
  8
2
  62
0
  10
    9.200000
  20
    20.500000
  30
    0.000000
  0
VERTEX
  8
2
  62
0
  10
    9.200000
  20
    19.600000
  30
    0.000000
  0
VERTEX
  8
2
  62
0
  10
    10.000000
  20
    18.800000
  30
    0.000000
  0
VERTEX
  8
2
  62
0
  10
    10.800000
  20
    18.700000
  30
    0.000000
  0
VERTEX
  8
2
  62
0
  10
    11.000000
  20
    19.100000
  30
    0.000000
  0
VERTEX
  8
2
  62
0
  10
    12.400000
  20
    19.700000
  30
    0.000000
  0
VERTEX
  8
2
  62
0
  10
    12.900000
  20
    20.300000
  30
    0.000000
  0
VERTEX
  8
2
  62
0
  10
    12.900000
  20
    21.100000
  30
    0.000000
  0
VERTEX
  8
2
  62
0
  10
    12.400000
  20
    21.700000
  30
    0.000000
  0
VERTEX
  8
2
  62
0
  10
    12.400000
  20
    22.200000
  30
    0.000000
  0
VERTEX
  8
2
  62
0
  10
    11.800000
  20
    22.700000
  30
    0.000000
  0
VERTEX
  8
2
  62
0
  10
    10.800000
  20
    22.900000
  30
    0.000000
  0
VERTEX
  8
2
  62
0
  10
    9.800000
  20
    23.600000
  30
    0.000000
  0
VERTEX
  8
2
  62
0
  10
    9.400000
  20
    23.700000
  30
    0.000000
  0
VERTEX
  8
2
  62
0
  10
    7.600000
  20
    22.500000
  30
    0.000000
  0
SEQEND
  0
POLYLINE
  8
2
  62
0
  66
1
  0
VERTEX
  8
2
  62
0
  10
    7.700000
  20
    2.200000
  30
    0.000000
  0
VERTEX
  8
2
  62
0
  10
    8.900000
  20
    1.800000
  30
    0.000000
  0
VERTEX
  8
2
  62
0
  10
    9.500000
  20
    2.000000
  30
    0.000000
  0
VERTEX
  8
2
  62
0
  10
    9.500000
  20
    2.600000
  30
    0.000000
  0
VERTEX
  8
2
  62
0
  10
    10.100000
  20
    3.200000
  30
    0.000000
  0
VERTEX
  8
2
  62
0
  10
    10.100000
  20
    4.100000
  30
    0.000000
  0
VERTEX
  8
2
  62
0
  10
    9.300000
  20
    4.000000
  30
    0.000000
  0
VERTEX
  8
2
  62
0
  10
    9.200000
  20
    3.700000
  30
    0.000000
  0
VERTEX
  8
2
  62
0
  10
    8.100000
  20
    3.400000
  30
    0.000000
  0
VERTEX
  8
2
  62
0
  10
    7.700000
  20
    2.900000
  30
    0.000000
  0
VERTEX
  8
2
  62
0
  10
    7.700000
  20
    2.200000
  30
    0.000000
  0
SEQEND
  0
POLYLINE
  8
2
  62
0
  66
1
  0
VERTEX
  8
2
  62
0
  10
    7.900000
  20
    11.500000
  30
    0.000000
  0
VERTEX
  8
2
  62
0
  10
    8.600000
  20
    11.500000
  30
    0.000000
  0
VERTEX
  8
2
  62
0
  10
    8.600000
  20
    11.100000
  30
    0.000000
  0
VERTEX
  8
2
  62
0
  10
    9.600000
  20
    11.200000
  30
    0.000000
  0
VERTEX
  8
2
  62
0
  10
    10.800000
  20
    12.700000
  30
    0.000000
  0
VERTEX
  8
2
  62
0
  10
    11.800000
  20
    13.200000
  30
    0.000000
  0
VERTEX
  8
2
  62
0
  10
    11.800000
  20
    13.600000
  30
    0.000000
  0
VERTEX
  8
2
  62
0
  10
    10.900000
  20
    13.700000
  30
    0.000000
  0
VERTEX
  8
2
  62
0
  10
    10.300000
  20
    13.100000
  30
    0.000000
  0
VERTEX
  8
2
  62
0
  10
    9.700000
  20
    13.000000
  30
    0.000000
  0
VERTEX
  8
2
  62
0
  10
    9.700000
  20
    12.800000
  30
    0.000000
  0
VERTEX
  8
2
  62
0
  10
    9.200000
  20
    12.500000
  30
    0.000000
  0
VERTEX
  8
2
  62
0
  10
    8.000000
  20
    12.000000
  30
    0.000000
  0
VERTEX
  8
2
  62
0
  10
    7.900000
  20
    11.500000
  30
    0.000000
  0
SEQEND
  0
POLYLINE
  8
2
  62
0
  66
1
  0
VERTEX
  8
2
  62
0
  10
    9.300000
  20
    16.700000
  30
    0.000000
  0
VERTEX
  8
2
  62
0
  10
    9.500000
  20
    16.900000
  30
    0.000000
  0
VERTEX
  8
2
  62
0
  10
    9.500000
  20
    18.700000
  30
    0.000000
  0
VERTEX
  8
2
  62
0
  10
    8.800000
  20
    19.300000
  30
    0.000000
  0
VERTEX
  8
2
  62
0
  10
    8.500000
  20
    20.000000
  30
    0.000000
  0
VERTEX
  8
2
  62
0
  10
    8.200000
  20
    20.000000
  30
    0.000000
  0
VERTEX
  8
2
  62
0
  10
    8.000000
  20
    17.900000
  30
    0.000000
  0
VERTEX
  8
2
  62
0
  10
    8.400000
  20
    17.900000
  30
    0.000000
  0
VERTEX
  8
2
  62
0
  10
    9.000000
  20
    16.800000
  30
    0.000000
  0
VERTEX
  8
2
  62
0
  10
    9.300000
  20
    16.700000
  30
    0.000000
  0
SEQEND
  0
POLYLINE
  8
2
  62
0
  66
1
  0
VERTEX
  8
2
  62
0
  10
    8.300000
  20
    26.100000
  30
    0.000000
  0
VERTEX
  8
2
  62
0
  10
    9.700000
  20
    26.000000
  30
    0.000000
  0
VERTEX
  8
2
  62
0
  10
    10.100000
  20
    27.300000
  30
    0.000000
  0
VERTEX
  8
2
  62
0
  10
    9.500000
  20
    27.100000
  30
    0.000000
  0
VERTEX
  8
2
  62
0
  10
    9.500000
  20
    26.900000
  30
    0.000000
  0
VERTEX
  8
2
  62
0
  10
    8.600000
  20
    26.700000
  30
    0.000000
  0
VERTEX
  8
2
  62
0
  10
    8.300000
  20
    26.100000
  30
    0.000000
  0
SEQEND
  0
POLYLINE
  8
2
  62
0
  66
1
  0
VERTEX
  8
2
  62
0
  10
    8.500000
  20
    9.500000
  30
    0.000000
  0
VERTEX
  8
2
  62
0
  10
    8.600000
  20
    8.900000
  30
    0.000000
  0
VERTEX
  8
2
  62
0
  10
    8.800000
  20
    8.800000
  30
    0.000000
  0
VERTEX
  8
2
  62
0
  10
    8.600000
  20
    4.600000
  30
    0.000000
  0
VERTEX
  8
2
  62
0
  10
    9.000000
  20
    4.000000
  30
    0.000000
  0
VERTEX
  8
2
  62
0
  10
    10.100000
  20
    5.900000
  30
    0.000000
  0
VERTEX
  8
2
  62
0
  10
    11.200000
  20
    7.100000
  30
    0.000000
  0
VERTEX
  8
2
  62
0
  10
    11.200000
  20
    7.800000
  30
    0.000000
  0
VERTEX
  8
2
  62
0
  10
    10.100000
  20
    8.900000
  30
    0.000000
  0
VERTEX
  8
2
  62
0
  10
    8.500000
  20
    9.500000
  30
    0.000000
  0
SEQEND
  0
POLYLINE
  8
2
  62
0
  66
1
  0
VERTEX
  8
2
  62
0
  10
    9.500000
  20
    27.700000
  30
    0.000000
  0
VERTEX
  8
2
  62
0
  10
    10.000000
  20
    28.300000
  30
    0.000000
  0
VERTEX
  8
2
  62
0
  10
    10.000000
  20
    29.000000
  30
    0.000000
  0
VERTEX
  8
2
  62
0
  10
    9.700000
  20
    29.500000
  30
    0.000000
  0
VERTEX
  8
2
  62
0
  10
    9.500000
  20
    31.400000
  30
    0.000000
  0
VERTEX
  8
2
  62
0
  10
    9.100000
  20
    31.500000
  30
    0.000000
  0
VERTEX
  8
2
  62
0
  10
    9.000000
  20
    31.200000
  30
    0.000000
  0
VERTEX
  8
2
  62
0
  10
    8.800000
  20
    31.200000
  30
    0.000000
  0
VERTEX
  8
2
  62
0
  10
    8.600000
  20
    29.500000
  30
    0.000000
  0
VERTEX
  8
2
  62
0
  10
    8.800000
  20
    29.400000
  30
    0.000000
  0
VERTEX
  8
2
  62
0
  10
    8.600000
  20
    29.400000
  30
    0.000000
  0
VERTEX
  8
2
  62
0
  10
    8.600000
  20
    29.100000
  30
    0.000000
  0
VERTEX
  8
2
  62
0
  10
    9.200000
  20
    28.200000
  30
    0.000000
  0
VERTEX
  8
2
  62
0
  10
    9.200000
  20
    27.700000
  30
    0.000000
  0
VERTEX
  8
2
  62
0
  10
    9.500000
  20
    27.700000
  30
    0.000000
  0
SEQEND
  0
POLYLINE
  8
2
  62
0
  66
1
  0
VERTEX
  8
2
  62
0
  10
    9.600000
  20
    33.500000
  30
    0.000000
  0
VERTEX
  8
2
  62
0
  10
    10.700000
  20
    33.100000
  30
    0.000000
  0
VERTEX
  8
2
  62
0
  10
    11.300000
  20
    33.600000
  30
    0.000000
  0
VERTEX
  8
2
  62
0
  10
    11.300000
  20
    33.900000
  30
    0.000000
  0
VERTEX
  8
2
  62
0
  10
    10.700000
  20
    34.600000
  30
    0.000000
  0
VERTEX
  8
2
  62
0
  10
    9.900000
  20
    34.600000
  30
    0.000000
  0
VERTEX
  8
2
  62
0
  10
    9.600000
  20
    33.500000
  30
    0.000000
  0
SEQEND
  0
POLYLINE
  8
2
  62
0
  66
1
  0
VERTEX
  8
2
  62
0
  10
    9.700000
  20
    17.000000
  30
    0.000000
  0
VERTEX
  8
2
  62
0
  10
    10.500000
  20
    16.800000
  30
    0.000000
  0
VERTEX
  8
2
  62
0
  10
    11.200000
  20
    17.500000
  30
    0.000000
  0
VERTEX
  8
2
  62
0
  10
    11.200000
  20
    18.300000
  30
    0.000000
  0
VERTEX
  8
2
  62
0
  10
    10.900000
  20
    18.500000
  30
    0.000000
  0
VERTEX
  8
2
  62
0
  10
    10.000000
  20
    18.400000
  30
    0.000000
  0
VERTEX
  8
2
  62
0
  10
    9.800000
  20
    18.200000
  30
    0.000000
  0
VERTEX
  8
2
  62
0
  10
    9.700000
  20
    17.000000
  30
    0.000000
  0
SEQEND
  0
POLYLINE
  8
2
  62
0
  66
1
  0
VERTEX
  8
2
  62
0
  10
    9.900000
  20
    11.200000
  30
    0.000000
  0
VERTEX
  8
2
  62
0
  10
    9.900000
  20
    11.000000
  30
    0.000000
  0
VERTEX
  8
2
  62
0
  10
    10.700000
  20
    10.800000
  30
    0.000000
  0
VERTEX
  8
2
  62
0
  10
    11.000000
  20
    11.000000
  30
    0.000000
  0
VERTEX
  8
2
  62
0
  10
    10.800000
  20
    11.500000
  30
    0.000000
  0
VERTEX
  8
2
  62
0
  10
    10.400000
  20
    11.700000
  30
    0.000000
  0
VERTEX
  8
2
  62
0
  10
    9.900000
  20
    11.200000
  30
    0.000000
  0
SEQEND
  0
POLYLINE
  8
2
  62
0
  66
1
  0
VERTEX
  8
2
  62
0
  10
    11.800000
  20
    23.300000
  30
    0.000000
  0
VERTEX
  8
2
  62
0
  10
    12.200000
  20
    23.700000
  30
    0.000000
  0
VERTEX
  8
2
  62
0
  10
    12.200000
  20
    24.400000
  30
    0.000000
  0
VERTEX
  8
2
  62
0
  10
    11.800000
  20
    25.700000
  30
    0.000000
  0
VERTEX
  8
2
  62
0
  10
    10.900000
  20
    26.400000
  30
    0.000000
  0
VERTEX
  8
2
  62
0
  10
    10.100000
  20
    26.300000
  30
    0.000000
  0
VERTEX
  8
2
  62
0
  10
    10.000000
  20
    25.500000
  30
    0.000000
  0
VERTEX
  8
2
  62
0
  10
    10.500000
  20
    24.300000
  30
    0.000000
  0
VERTEX
  8
2
  62
0
  10
    10.700000
  20
    24.300000
  30
    0.000000
  0
VERTEX
  8
2
  62
0
  10
    11.300000
  20
    23.300000
  30
    0.000000
  0
VERTEX
  8
2
  62
0
  10
    11.800000
  20
    23.300000
  30
    0.000000
  0
SEQEND
  0
POLYLINE
  8
2
  62
0
  66
1
  0
VERTEX
  8
2
  62
0
  10
    10.100000
  20
    9.300000
  30
    0.000000
  0
VERTEX
  8
2
  62
0
  10
    10.400000
  20
    9.100000
  30
    0.000000
  0
VERTEX
  8
2
  62
0
  10
    10.800000
  20
    9.200000
  30
    0.000000
  0
VERTEX
  8
2
  62
0
  10
    11.000000
  20
    9.500000
  30
    0.000000
  0
VERTEX
  8
2
  62
0
  10
    10.900000
  20
    9.900000
  30
    0.000000
  0
VERTEX
  8
2
  62
0
  10
    10.300000
  20
    9.700000
  30
    0.000000
  0
VERTEX
  8
2
  62
0
  10
    10.100000
  20
    9.300000
  30
    0.000000
  0
SEQEND
  0
POLYLINE
  8
2
  62
0
  66
1
  0
VERTEX
  8
2
  62
0
  10
    10.200000
  20
    29.900000
  30
    0.000000
  0
VERTEX
  8
2
  62
0
  10
    10.900000
  20
    29.800000
  30
    0.000000
  0
VERTEX
  8
2
  62
0
  10
    11.300000
  20
    30.600000
  30
    0.000000
  0
VERTEX
  8
2
  62
0
  10
    12.200000
  20
    30.800000
  30
    0.000000
  0
VERTEX
  8
2
  62
0
  10
    13.100000
  20
    31.400000
  30
    0.000000
  0
VERTEX
  8
2
  62
0
  10
    13.000000
  20
    32.000000
  30
    0.000000
  0
VERTEX
  8
2
  62
0
  10
    12.200000
  20
    32.700000
  30
    0.000000
  0
VERTEX
  8
2
  62
0
  10
    11.900000
  20
    33.500000
  30
    0.000000
  0
VERTEX
  8
2
  62
0
  10
    11.400000
  20
    33.500000
  30
    0.000000
  0
VERTEX
  8
2
  62
0
  10
    10.700000
  20
    32.800000
  30
    0.000000
  0
VERTEX
  8
2
  62
0
  10
    10.600000
  20
    31.100000
  30
    0.000000
  0
VERTEX
  8
2
  62
0
  10
    10.200000
  20
    30.800000
  30
    0.000000
  0
VERTEX
  8
2
  62
0
  10
    10.200000
  20
    29.900000
  30
    0.000000
  0
SEQEND
  0
POLYLINE
  8
2
  62
0
  66
1
  0
VERTEX
  8
2
  62
0
  10
    12.300000
  20
    1.700000
  30
    0.000000
  0
VERTEX
  8
2
  62
0
  10
    12.200000
  20
    3.300000
  30
    0.000000
  0
VERTEX
  8
2
  62
0
  10
    11.900000
  20
    4.200000
  30
    0.000000
  0
VERTEX
  8
2
  62
0
  10
    11.700000
  20
    4.500000
  30
    0.000000
  0
VERTEX
  8
2
  62
0
  10
    11.100000
  20
    4.500000
  30
    0.000000
  0
VERTEX
  8
2
  62
0
  10
    10.700000
  20
    4.100000
  30
    0.000000
  0
VERTEX
  8
2
  62
0
  10
    10.600000
  20
    3.500000
  30
    0.000000
  0
VERTEX
  8
2
  62
0
  10
    10.600000
  20
    3.200000
  30
    0.000000
  0
VERTEX
  8
2
  62
0
  10
    11.000000
  20
    3.100000
  30
    0.000000
  0
VERTEX
  8
2
  62
0
  10
    11.100000
  20
    2.000000
  30
    0.000000
  0
VERTEX
  8
2
  62
0
  10
    12.300000
  20
    1.700000
  30
    0.000000
  0
SEQEND
  0
POLYLINE
  8
2
  62
0
  66
1
  0
VERTEX
  8
2
  62
0
  10
    10.800000
  20
    27.100000
  30
    0.000000
  0
VERTEX
  8
2
  62
0
  10
    12.300000
  20
    28.300000
  30
    0.000000
  0
VERTEX
  8
2
  62
0
  10
    12.200000
  20
    29.000000
  30
    0.000000
  0
VERTEX
  8
2
  62
0
  10
    11.200000
  20
    29.300000
  30
    0.000000
  0
VERTEX
  8
2
  62
0
  10
    10.700000
  20
    29.000000
  30
    0.000000
  0
VERTEX
  8
2
  62
0
  10
    10.800000
  20
    27.100000
  30
    0.000000
  0
SEQEND
  0
POLYLINE
  8
2
  62
0
  66
1
  0
VERTEX
  8
2
  62
0
  10
    11.200000
  20
    16.300000
  30
    0.000000
  0
VERTEX
  8
2
  62
0
  10
    11.300000
  20
    16.000000
  30
    0.000000
  0
VERTEX
  8
2
  62
0
  10
    12.800000
  20
    15.200000
  30
    0.000000
  0
VERTEX
  8
2
  62
0
  10
    13.500000
  20
    15.100000
  30
    0.000000
  0
VERTEX
  8
2
  62
0
  10
    14.100000
  20
    15.800000
  30
    0.000000
  0
VERTEX
  8
2
  62
0
  10
    13.900000
  20
    16.400000
  30
    0.000000
  0
VERTEX
  8
2
  62
0
  10
    12.500000
  20
    17.500000
  30
    0.000000
  0
VERTEX
  8
2
  62
0
  10
    11.200000
  20
    16.300000
  30
    0.000000
  0
SEQEND
  0
POLYLINE
  8
2
  62
0
  66
1
  0
VERTEX
  8
2
  62
0
  10
    13.300000
  20
    4.900000
  30
    0.000000
  0
VERTEX
  8
2
  62
0
  10
    14.600000
  20
    5.300000
  30
    0.000000
  0
VERTEX
  8
2
  62
0
  10
    15.000000
  20
    6.300000
  30
    0.000000
  0
VERTEX
  8
2
  62
0
  10
    15.600000
  20
    6.800000
  30
    0.000000
  0
VERTEX
  8
2
  62
0
  10
    17.000000
  20
    10.200000
  30
    0.000000
  0
VERTEX
  8
2
  62
0
  10
    17.000000
  20
    11.000000
  30
    0.000000
  0
VERTEX
  8
2
  62
0
  10
    17.400000
  20
    12.100000
  30
    0.000000
  0
VERTEX
  8
2
  62
0
  10
    15.900000
  20
    13.400000
  30
    0.000000
  0
VERTEX
  8
2
  62
0
  10
    15.100000
  20
    13.300000
  30
    0.000000
  0
VERTEX
  8
2
  62
0
  10
    14.800000
  20
    12.900000
  30
    0.000000
  0
VERTEX
  8
2
  62
0
  10
    13.300000
  20
    12.100000
  30
    0.000000
  0
VERTEX
  8
2
  62
0
  10
    13.000000
  20
    11.500000
  30
    0.000000
  0
VERTEX
  8
2
  62
0
  10
    11.600000
  20
    10.000000
  30
    0.000000
  0
VERTEX
  8
2
  62
0
  10
    11.600000
  20
    8.800000
  30
    0.000000
  0
VERTEX
  8
2
  62
0
  10
    12.200000
  20
    6.000000
  30
    0.000000
  0
VERTEX
  8
2
  62
0
  10
    12.500000
  20
    5.300000
  30
    0.000000
  0
VERTEX
  8
2
  62
0
  10
    13.300000
  20
    4.900000
  30
    0.000000
  0
SEQEND
  0
POLYLINE
  8
2
  62
0
  66
1
  0
VERTEX
  8
2
  62
0
  10
    11.600000
  20
    26.900000
  30
    0.000000
  0
VERTEX
  8
2
  62
0
  10
    15.500000
  20
    27.600000
  30
    0.000000
  0
VERTEX
  8
2
  62
0
  10
    15.400000
  20
    28.500000
  30
    0.000000
  0
VERTEX
  8
2
  62
0
  10
    14.800000
  20
    28.700000
  30
    0.000000
  0
VERTEX
  8
2
  62
0
  10
    13.400000
  20
    28.000000
  30
    0.000000
  0
VERTEX
  8
2
  62
0
  10
    12.500000
  20
    27.900000
  30
    0.000000
  0
VERTEX
  8
2
  62
0
  10
    12.500000
  20
    27.600000
  30
    0.000000
  0
VERTEX
  8
2
  62
0
  10
    11.600000
  20
    27.300000
  30
    0.000000
  0
VERTEX
  8
2
  62
0
  10
    11.600000
  20
    26.900000
  30
    0.000000
  0
SEQEND
  0
POLYLINE
  8
2
  62
0
  66
1
  0
VERTEX
  8
2
  62
0
  10
    11.700000
  20
    11.600000
  30
    0.000000
  0
VERTEX
  8
2
  62
0
  10
    12.500000
  20
    11.600000
  30
    0.000000
  0
VERTEX
  8
2
  62
0
  10
    12.600000
  20
    12.200000
  30
    0.000000
  0
VERTEX
  8
2
  62
0
  10
    13.100000
  20
    12.200000
  30
    0.000000
  0
VERTEX
  8
2
  62
0
  10
    13.100000
  20
    12.600000
  30
    0.000000
  0
VERTEX
  8
2
  62
0
  10
    12.600000
  20
    13.300000
  30
    0.000000
  0
VERTEX
  8
2
  62
0
  10
    12.000000
  20
    13.200000
  30
    0.000000
  0
VERTEX
  8
2
  62
0
  10
    12.000000
  20
    12.400000
  30
    0.000000
  0
VERTEX
  8
2
  62
0
  10
    11.700000
  20
    12.200000
  30
    0.000000
  0
VERTEX
  8
2
  62
0
  10
    11.700000
  20
    11.600000
  30
    0.000000
  0
SEQEND
  0
POLYLINE
  8
2
  62
0
  66
1
  0
VERTEX
  8
2
  62
0
  10
    11.900000
  20
    35.000000
  30
    0.000000
  0
VERTEX
  8
2
  62
0
  10
    13.900000
  20
    32.700000
  30
    0.000000
  0
VERTEX
  8
2
  62
0
  10
    13.900000
  20
    31.700000
  30
    0.000000
  0
VERTEX
  8
2
  62
0
  10
    14.200000
  20
    31.700000
  30
    0.000000
  0
VERTEX
  8
2
  62
0
  10
    14.700000
  20
    32.300000
  30
    0.000000
  0
VERTEX
  8
2
  62
0
  10
    15.400000
  20
    32.200000
  30
    0.000000
  0
VERTEX
  8
2
  62
0
  10
    15.500000
  20
    32.900000
  30
    0.000000
  0
VERTEX
  8
2
  62
0
  10
    14.800000
  20
    33.700000
  30
    0.000000
  0
VERTEX
  8
2
  62
0
  10
    14.000000
  20
    34.100000
  30
    0.000000
  0
VERTEX
  8
2
  62
0
  10
    13.600000
  20
    35.000000
  30
    0.000000
  0
VERTEX
  8
2
  62
0
  10
    11.900000
  20
    35.000000
  30
    0.000000
  0
SEQEND
  0
POLYLINE
  8
2
  62
0
  66
1
  0
VERTEX
  8
2
  62
0
  10
    12.100000
  20
    17.800000
  30
    0.000000
  0
VERTEX
  8
2
  62
0
  10
    12.900000
  20
    17.800000
  30
    0.000000
  0
VERTEX
  8
2
  62
0
  10
    13.000000
  20
    19.000000
  30
    0.000000
  0
VERTEX
  8
2
  62
0
  10
    12.400000
  20
    18.800000
  30
    0.000000
  0
VERTEX
  8
2
  62
0
  10
    11.900000
  20
    18.200000
  30
    0.000000
  0
VERTEX
  8
2
  62
0
  10
    12.100000
  20
    17.800000
  30
    0.000000
  0
SEQEND
  0
POLYLINE
  8
2
  62
0
  66
1
  0
VERTEX
  8
2
  62
0
  10
    12.000000
  20
    14.200000
  30
    0.000000
  0
VERTEX
  8
2
  62
0
  10
    12.900000
  20
    14.100000
  30
    0.000000
  0
VERTEX
  8
2
  62
0
  10
    13.900000
  20
    14.300000
  30
    0.000000
  0
VERTEX
  8
2
  62
0
  10
    14.500000
  20
    14.700000
  30
    0.000000
  0
VERTEX
  8
2
  62
0
  10
    14.500000
  20
    15.000000
  30
    0.000000
  0
VERTEX
  8
2
  62
0
  10
    14.100000
  20
    15.000000
  30
    0.000000
  0
VERTEX
  8
2
  62
0
  10
    13.700000
  20
    14.700000
  30
    0.000000
  0
VERTEX
  8
2
  62
0
  10
    12.000000
  20
    14.700000
  30
    0.000000
  0
VERTEX
  8
2
  62
0
  10
    12.000000
  20
    14.200000
  30
    0.000000
  0
SEQEND
  0
POLYLINE
  8
2
  62
0
  66
1
  0
VERTEX
  8
2
  62
0
  10
    13.300000
  20
    24.200000
  30
    0.000000
  0
VERTEX
  8
2
  62
0
  10
    13.700000
  20
    24.700000
  30
    0.000000
  0
VERTEX
  8
2
  62
0
  10
    13.500000
  20
    25.700000
  30
    0.000000
  0
VERTEX
  8
2
  62
0
  10
    13.300000
  20
    25.900000
  30
    0.000000
  0
VERTEX
  8
2
  62
0
  10
    12.700000
  20
    25.900000
  30
    0.000000
  0
VERTEX
  8
2
  62
0
  10
    12.500000
  20
    25.600000
  30
    0.000000
  0
VERTEX
  8
2
  62
0
  10
    12.500000
  20
    24.800000
  30
    0.000000
  0
VERTEX
  8
2
  62
0
  10
    12.900000
  20
    24.200000
  30
    0.000000
  0
VERTEX
  8
2
  62
0
  10
    13.300000
  20
    24.200000
  30
    0.000000
  0
SEQEND
  0
POLYLINE
  8
2
  62
0
  66
1
  0
VERTEX
  8
2
  62
0
  10
    12.700000
  20
    3.700000
  30
    0.000000
  0
VERTEX
  8
2
  62
0
  10
    13.200000
  20
    2.200000
  30
    0.000000
  0
VERTEX
  8
2
  62
0
  10
    13.500000
  20
    1.900000
  30
    0.000000
  0
VERTEX
  8
2
  62
0
  10
    14.000000
  20
    2.000000
  30
    0.000000
  0
VERTEX
  8
2
  62
0
  10
    14.000000
  20
    2.600000
  30
    0.000000
  0
VERTEX
  8
2
  62
0
  10
    13.400000
  20
    3.000000
  30
    0.000000
  0
VERTEX
  8
2
  62
0
  10
    13.100000
  20
    3.700000
  30
    0.000000
  0
VERTEX
  8
2
  62
0
  10
    12.700000
  20
    3.700000
  30
    0.000000
  0
SEQEND
  0
POLYLINE
  8
2
  62
0
  66
1
  0
VERTEX
  8
2
  62
0
  10
    15.000000
  20
    29.500000
  30
    0.000000
  0
VERTEX
  8
2
  62
0
  10
    15.100000
  20
    30.100000
  30
    0.000000
  0
VERTEX
  8
2
  62
0
  10
    14.700000
  20
    30.700000
  30
    0.000000
  0
VERTEX
  8
2
  62
0
  10
    13.700000
  20
    31.000000
  30
    0.000000
  0
VERTEX
  8
2
  62
0
  10
    13.200000
  20
    30.700000
  30
    0.000000
  0
VERTEX
  8
2
  62
0
  10
    13.100000
  20
    30.200000
  30
    0.000000
  0
VERTEX
  8
2
  62
0
  10
    13.300000
  20
    29.900000
  30
    0.000000
  0
VERTEX
  8
2
  62
0
  10
    15.000000
  20
    29.500000
  30
    0.000000
  0
SEQEND
  0
POLYLINE
  8
2
  62
0
  66
1
  0
VERTEX
  8
2
  62
0
  10
    13.200000
  20
    1.200000
  30
    0.000000
  0
VERTEX
  8
2
  62
0
  10
    13.300000
  20
    0.000000
  30
    0.000000
  0
VERTEX
  8
2
  62
0
  10
    15.100000
  20
    0.000000
  30
    0.000000
  0
VERTEX
  8
2
  62
0
  10
    14.500000
  20
    1.000000
  30
    0.000000
  0
VERTEX
  8
2
  62
0
  10
    14.600000
  20
    1.700000
  30
    0.000000
  0
VERTEX
  8
2
  62
0
  10
    14.000000
  20
    1.800000
  30
    0.000000
  0
VERTEX
  8
2
  62
0
  10
    13.500000
  20
    1.200000
  30
    0.000000
  0
VERTEX
  8
2
  62
0
  10
    13.200000
  20
    1.200000
  30
    0.000000
  0
SEQEND
  0
POLYLINE
  8
2
  62
0
  66
1
  0
VERTEX
  8
2
  62
0
  10
    13.300000
  20
    23.900000
  30
    0.000000
  0
VERTEX
  8
2
  62
0
  10
    13.300000
  20
    23.500000
  30
    0.000000
  0
VERTEX
  8
2
  62
0
  10
    15.000000
  20
    23.100000
  30
    0.000000
  0
VERTEX
  8
2
  62
0
  10
    15.000000
  20
    23.500000
  30
    0.000000
  0
VERTEX
  8
2
  62
0
  10
    14.700000
  20
    23.800000
  30
    0.000000
  0
VERTEX
  8
2
  62
0
  10
    14.800000
  20
    24.200000
  30
    0.000000
  0
VERTEX
  8
2
  62
0
  10
    13.300000
  20
    23.900000
  30
    0.000000
  0
SEQEND
  0
POLYLINE
  8
2
  62
0
  66
1
  0
VERTEX
  8
2
  62
0
  10
    13.300000
  20
    13.800000
  30
    0.000000
  0
VERTEX
  8
2
  62
0
  10
    13.500000
  20
    13.100000
  30
    0.000000
  0
VERTEX
  8
2
  62
0
  10
    14.500000
  20
    13.000000
  30
    0.000000
  0
VERTEX
  8
2
  62
0
  10
    14.400000
  20
    13.600000
  30
    0.000000
  0
VERTEX
  8
2
  62
0
  10
    13.900000
  20
    14.000000
  30
    0.000000
  0
VERTEX
  8
2
  62
0
  10
    13.300000
  20
    13.800000
  30
    0.000000
  0
SEQEND
  0
POLYLINE
  8
2
  62
0
  66
1
  0
VERTEX
  8
2
  62
0
  10
    15.100000
  20
    18.500000
  30
    0.000000
  0
VERTEX
  8
2
  62
0
  10
    15.500000
  20
    18.900000
  30
    0.000000
  0
VERTEX
  8
2
  62
0
  10
    15.700000
  20
    19.600000
  30
    0.000000
  0
VERTEX
  8
2
  62
0
  10
    15.300000
  20
    20.700000
  30
    0.000000
  0
VERTEX
  8
2
  62
0
  10
    14.800000
  20
    21.300000
  30
    0.000000
  0
VERTEX
  8
2
  62
0
  10
    14.400000
  20
    22.900000
  30
    0.000000
  0
VERTEX
  8
2
  62
0
  10
    13.800000
  20
    23.000000
  30
    0.000000
  0
VERTEX
  8
2
  62
0
  10
    13.600000
  20
    22.900000
  30
    0.000000
  0
VERTEX
  8
2
  62
0
  10
    13.600000
  20
    22.000000
  30
    0.000000
  0
VERTEX
  8
2
  62
0
  10
    13.900000
  20
    20.700000
  30
    0.000000
  0
VERTEX
  8
2
  62
0
  10
    14.700000
  20
    18.500000
  30
    0.000000
  0
VERTEX
  8
2
  62
0
  10
    15.100000
  20
    18.500000
  30
    0.000000
  0
SEQEND
  0
POLYLINE
  8
2
  62
0
  66
1
  0
VERTEX
  8
2
  62
0
  10
    14.100000
  20
    17.100000
  30
    0.000000
  0
VERTEX
  8
2
  62
0
  10
    16.100000
  20
    16.800000
  30
    0.000000
  0
VERTEX
  8
2
  62
0
  10
    16.100000
  20
    17.300000
  30
    0.000000
  0
VERTEX
  8
2
  62
0
  10
    15.900000
  20
    17.400000
  30
    0.000000
  0
VERTEX
  8
2
  62
0
  10
    16.100000
  20
    18.200000
  30
    0.000000
  0
VERTEX
  8
2
  62
0
  10
    15.000000
  20
    17.700000
  30
    0.000000
  0
VERTEX
  8
2
  62
0
  10
    14.100000
  20
    17.600000
  30
    0.000000
  0
VERTEX
  8
2
  62
0
  10
    14.100000
  20
    17.100000
  30
    0.000000
  0
SEQEND
  0
POLYLINE
  8
2
  62
0
  66
1
  0
VERTEX
  8
2
  62
0
  10
    14.400000
  20
    26.700000
  30
    0.000000
  0
VERTEX
  8
2
  62
0
  10
    14.400000
  20
    25.600000
  30
    0.000000
  0
VERTEX
  8
2
  62
0
  10
    14.800000
  20
    24.800000
  30
    0.000000
  0
VERTEX
  8
2
  62
0
  10
    15.200000
  20
    24.800000
  30
    0.000000
  0
VERTEX
  8
2
  62
0
  10
    15.200000
  20
    26.400000
  30
    0.000000
  0
VERTEX
  8
2
  62
0
  10
    14.800000
  20
    26.700000
  30
    0.000000
  0
VERTEX
  8
2
  62
0
  10
    14.400000
  20
    26.700000
  30
    0.000000
  0
SEQEND
  0
POLYLINE
  8
2
  62
0
  66
1
  0
VERTEX
  8
2
  62
0
  10
    14.600000
  20
    4.800000
  30
    0.000000
  0
VERTEX
  8
2
  62
0
  10
    15.800000
  20
    5.000000
  30
    0.000000
  0
VERTEX
  8
2
  62
0
  10
    15.900000
  20
    5.700000
  30
    0.000000
  0
VERTEX
  8
2
  62
0
  10
    15.100000
  20
    5.800000
  30
    0.000000
  0
VERTEX
  8
2
  62
0
  10
    14.600000
  20
    4.800000
  30
    0.000000
  0
SEQEND
  0
POLYLINE
  8
2
  62
0
  66
1
  0
VERTEX
  8
2
  62
0
  10
    18.200000
  20
    2.600000
  30
    0.000000
  0
VERTEX
  8
2
  62
0
  10
    18.200000
  20
    3.200000
  30
    0.000000
  0
VERTEX
  8
2
  62
0
  10
    17.700000
  20
    3.900000
  30
    0.000000
  0
VERTEX
  8
2
  62
0
  10
    17.000000
  20
    4.300000
  30
    0.000000
  0
VERTEX
  8
2
  62
0
  10
    17.000000
  20
    4.600000
  30
    0.000000
  0
VERTEX
  8
2
  62
0
  10
    14.900000
  20
    4.600000
  30
    0.000000
  0
VERTEX
  8
2
  62
0
  10
    14.900000
  20
    4.200000
  30
    0.000000
  0
VERTEX
  8
2
  62
0
  10
    14.600000
  20
    3.900000
  30
    0.000000
  0
VERTEX
  8
2
  62
0
  10
    14.700000
  20
    3.000000
  30
    0.000000
  0
VERTEX
  8
2
  62
0
  10
    18.200000
  20
    2.600000
  30
    0.000000
  0
SEQEND
  0
POLYLINE
  8
2
  62
0
  66
1
  0
VERTEX
  8
2
  62
0
  10
    15.700000
  20
    14.700000
  30
    0.000000
  0
VERTEX
  8
2
  62
0
  10
    16.000000
  20
    15.100000
  30
    0.000000
  0
VERTEX
  8
2
  62
0
  10
    15.900000
  20
    16.000000
  30
    0.000000
  0
VERTEX
  8
2
  62
0
  10
    15.200000
  20
    16.500000
  30
    0.000000
  0
VERTEX
  8
2
  62
0
  10
    15.200000
  20
    15.500000
  30
    0.000000
  0
VERTEX
  8
2
  62
0
  10
    15.700000
  20
    14.700000
  30
    0.000000
  0
SEQEND
  0
POLYLINE
  8
2
  62
0
  66
1
  0
VERTEX
  8
2
  62
0
  10
    15.800000
  20
    28.900000
  30
    0.000000
  0
VERTEX
  8
2
  62
0
  10
    16.500000
  20
    29.000000
  30
    0.000000
  0
VERTEX
  8
2
  62
0
  10
    17.000000
  20
    29.500000
  30
    0.000000
  0
VERTEX
  8
2
  62
0
  10
    17.000000
  20
    31.000000
  30
    0.000000
  0
VERTEX
  8
2
  62
0
  10
    17.400000
  20
    31.500000
  30
    0.000000
  0
VERTEX
  8
2
  62
0
  10
    17.300000
  20
    32.000000
  30
    0.000000
  0
VERTEX
  8
2
  62
0
  10
    17.500000
  20
    32.600000
  30
    0.000000
  0
VERTEX
  8
2
  62
0
  10
    17.100000
  20
    32.600000
  30
    0.000000
  0
VERTEX
  8
2
  62
0
  10
    15.400000
  20
    31.800000
  30
    0.000000
  0
VERTEX
  8
2
  62
0
  10
    15.400000
  20
    31.400000
  30
    0.000000
  0
VERTEX
  8
2
  62
0
  10
    16.000000
  20
    31.200000
  30
    0.000000
  0
VERTEX
  8
2
  62
0
  10
    15.800000
  20
    28.900000
  30
    0.000000
  0
SEQEND
  0
POLYLINE
  8
2
  62
0
  66
1
  0
VERTEX
  8
2
  62
0
  10
    15.500000
  20
    25.300000
  30
    0.000000
  0
VERTEX
  8
2
  62
0
  10
    15.600000
  20
    23.900000
  30
    0.000000
  0
VERTEX
  8
2
  62
0
  10
    16.700000
  20
    23.700000
  30
    0.000000
  0
VERTEX
  8
2
  62
0
  10
    16.900000
  20
    24.300000
  30
    0.000000
  0
VERTEX
  8
2
  62
0
  10
    16.300000
  20
    24.700000
  30
    0.000000
  0
VERTEX
  8
2
  62
0
  10
    16.100000
  20
    25.200000
  30
    0.000000
  0
VERTEX
  8
2
  62
0
  10
    15.500000
  20
    25.300000
  30
    0.000000
  0
SEQEND
  0
POLYLINE
  8
2
  62
0
  66
1
  0
VERTEX
  8
2
  62
0
  10
    16.600000
  20
    32.600000
  30
    0.000000
  0
VERTEX
  8
2
  62
0
  10
    16.600000
  20
    33.500000
  30
    0.000000
  0
VERTEX
  8
2
  62
0
  10
    16.200000
  20
    33.900000
  30
    0.000000
  0
VERTEX
  8
2
  62
0
  10
    15.900000
  20
    33.900000
  30
    0.000000
  0
VERTEX
  8
2
  62
0
  10
    15.600000
  20
    33.400000
  30
    0.000000
  0
VERTEX
  8
2
  62
0
  10
    15.700000
  20
    33.100000
  30
    0.000000
  0
VERTEX
  8
2
  62
0
  10
    16.600000
  20
    32.600000
  30
    0.000000
  0
SEQEND
  0
POLYLINE
  8
2
  62
0
  66
1
  0
VERTEX
  8
2
  62
0
  10
    15.700000
  20
    23.000000
  30
    0.000000
  0
VERTEX
  8
2
  62
0
  10
    15.900000
  20
    21.600000
  30
    0.000000
  0
VERTEX
  8
2
  62
0
  10
    15.700000
  20
    21.100000
  30
    0.000000
  0
VERTEX
  8
2
  62
0
  10
    16.300000
  20
    20.300000
  30
    0.000000
  0
VERTEX
  8
2
  62
0
  10
    17.600000
  20
    20.100000
  30
    0.000000
  0
VERTEX
  8
2
  62
0
  10
    18.500000
  20
    20.700000
  30
    0.000000
  0
VERTEX
  8
2
  62
0
  10
    18.700000
  20
    21.700000
  30
    0.000000
  0
VERTEX
  8
2
  62
0
  10
    18.100000
  20
    23.000000
  30
    0.000000
  0
VERTEX
  8
2
  62
0
  10
    16.100000
  20
    23.300000
  30
    0.000000
  0
VERTEX
  8
2
  62
0
  10
    15.700000
  20
    23.000000
  30
    0.000000
  0
SEQEND
  0
POLYLINE
  8
2
  62
0
  66
1
  0
VERTEX
  8
2
  62
0
  10
    17.600000
  20
    24.900000
  30
    0.000000
  0
VERTEX
  8
2
  62
0
  10
    17.900000
  20
    27.400000
  30
    0.000000
  0
VERTEX
  8
2
  62
0
  10
    17.600000
  20
    28.200000
  30
    0.000000
  0
VERTEX
  8
2
  62
0
  10
    17.200000
  20
    28.500000
  30
    0.000000
  0
VERTEX
  8
2
  62
0
  10
    16.400000
  20
    27.900000
  30
    0.000000
  0
VERTEX
  8
2
  62
0
  10
    16.400000
  20
    27.500000
  30
    0.000000
  0
VERTEX
  8
2
  62
0
  10
    16.000000
  20
    27.200000
  30
    0.000000
  0
VERTEX
  8
2
  62
0
  10
    15.900000
  20
    26.100000
  30
    0.000000
  0
VERTEX
  8
2
  62
0
  10
    16.600000
  20
    25.300000
  30
    0.000000
  0
VERTEX
  8
2
  62
0
  10
    17.600000
  20
    24.900000
  30
    0.000000
  0
SEQEND
  0
POLYLINE
  8
2
  62
0
  66
1
  0
VERTEX
  8
2
  62
0
  10
    16.100000
  20
    6.500000
  30
    0.000000
  0
VERTEX
  8
2
  62
0
  10
    16.500000
  20
    6.600000
  30
    0.000000
  0
VERTEX
  8
2
  62
0
  10
    16.900000
  20
    7.300000
  30
    0.000000
  0
VERTEX
  8
2
  62
0
  10
    16.700000
  20
    7.900000
  30
    0.000000
  0
VERTEX
  8
2
  62
0
  10
    16.400000
  20
    7.900000
  30
    0.000000
  0
VERTEX
  8
2
  62
0
  10
    15.900000
  20
    7.200000
  30
    0.000000
  0
VERTEX
  8
2
  62
0
  10
    16.100000
  20
    6.500000
  30
    0.000000
  0
SEQEND
  0
POLYLINE
  8
2
  62
0
  66
1
  0
VERTEX
  8
2
  62
0
  10
    18.000000
  20
    13.100000
  30
    0.000000
  0
VERTEX
  8
2
  62
0
  10
    18.300000
  20
    13.700000
  30
    0.000000
  0
VERTEX
  8
2
  62
0
  10
    18.400000
  20
    15.500000
  30
    0.000000
  0
VERTEX
  8
2
  62
0
  10
    17.200000
  20
    16.300000
  30
    0.000000
  0
VERTEX
  8
2
  62
0
  10
    16.900000
  20
    15.500000
  30
    0.000000
  0
VERTEX
  8
2
  62
0
  10
    16.100000
  20
    14.900000
  30
    0.000000
  0
VERTEX
  8
2
  62
0
  10
    16.000000
  20
    14.300000
  30
    0.000000
  0
VERTEX
  8
2
  62
0
  10
    16.700000
  20
    13.500000
  30
    0.000000
  0
VERTEX
  8
2
  62
0
  10
    18.000000
  20
    13.100000
  30
    0.000000
  0
SEQEND
  0
POLYLINE
  8
2
  62
0
  66
1
  0
VERTEX
  8
2
  62
0
  10
    17.200000
  20
    1.100000
  30
    0.000000
  0
VERTEX
  8
2
  62
0
  10
    17.300000
  20
    2.100000
  30
    0.000000
  0
VERTEX
  8
2
  62
0
  10
    17.100000
  20
    2.300000
  30
    0.000000
  0
VERTEX
  8
2
  62
0
  10
    16.500000
  20
    2.200000
  30
    0.000000
  0
VERTEX
  8
2
  62
0
  10
    16.400000
  20
    2.000000
  30
    0.000000
  0
VERTEX
  8
2
  62
0
  10
    16.700000
  20
    1.400000
  30
    0.000000
  0
VERTEX
  8
2
  62
0
  10
    17.200000
  20
    1.100000
  30
    0.000000
  0
SEQEND
  0
POLYLINE
  8
2
  62
0
  66
1
  0
VERTEX
  8
2
  62
0
  10
    16.500000
  20
    18.000000
  30
    0.000000
  0
VERTEX
  8
2
  62
0
  10
    16.900000
  20
    17.200000
  30
    0.000000
  0
VERTEX
  8
2
  62
0
  10
    17.400000
  20
    16.800000
  30
    0.000000
  0
VERTEX
  8
2
  62
0
  10
    19.000000
  20
    16.900000
  30
    0.000000
  0
VERTEX
  8
2
  62
0
  10
    22.100000
  20
    16.100000
  30
    0.000000
  0
VERTEX
  8
2
  62
0
  10
    23.100000
  20
    16.100000
  30
    0.000000
  0
VERTEX
  8
2
  62
0
  10
    23.300000
  20
    16.400000
  30
    0.000000
  0
VERTEX
  8
2
  62
0
  10
    23.500000
  20
    20.100000
  30
    0.000000
  0
VERTEX
  8
2
  62
0
  10
    22.800000
  20
    20.900000
  30
    0.000000
  0
VERTEX
  8
2
  62
0
  10
    22.300000
  20
    20.600000
  30
    0.000000
  0
VERTEX
  8
2
  62
0
  10
    21.800000
  20
    20.600000
  30
    0.000000
  0
VERTEX
  8
2
  62
0
  10
    19.400000
  20
    21.500000
  30
    0.000000
  0
VERTEX
  8
2
  62
0
  10
    19.000000
  20
    21.200000
  30
    0.000000
  0
VERTEX
  8
2
  62
0
  10
    19.200000
  20
    20.600000
  30
    0.000000
  0
VERTEX
  8
2
  62
0
  10
    19.000000
  20
    19.800000
  30
    0.000000
  0
VERTEX
  8
2
  62
0
  10
    17.000000
  20
    18.900000
  30
    0.000000
  0
VERTEX
  8
2
  62
0
  10
    16.600000
  20
    18.500000
  30
    0.000000
  0
VERTEX
  8
2
  62
0
  10
    16.500000
  20
    18.000000
  30
    0.000000
  0
SEQEND
  0
POLYLINE
  8
2
  62
0
  66
1
  0
VERTEX
  8
2
  62
0
  10
    17.200000
  20
    8.800000
  30
    0.000000
  0
VERTEX
  8
2
  62
0
  10
    18.300000
  20
    9.200000
  30
    0.000000
  0
VERTEX
  8
2
  62
0
  10
    18.100000
  20
    12.100000
  30
    0.000000
  0
VERTEX
  8
2
  62
0
  10
    17.800000
  20
    12.100000
  30
    0.000000
  0
VERTEX
  8
2
  62
0
  10
    17.800000
  20
    11.300000
  30
    0.000000
  0
VERTEX
  8
2
  62
0
  10
    16.900000
  20
    9.800000
  30
    0.000000
  0
VERTEX
  8
2
  62
0
  10
    16.900000
  20
    9.500000
  30
    0.000000
  0
VERTEX
  8
2
  62
0
  10
    17.400000
  20
    9.600000
  30
    0.000000
  0
VERTEX
  8
2
  62
0
  10
    17.200000
  20
    8.800000
  30
    0.000000
  0
SEQEND
  0
POLYLINE
  8
2
  62
0
  66
1
  0
VERTEX
  8
2
  62
0
  10
    16.900000
  20
    5.800000
  30
    0.000000
  0
VERTEX
  8
2
  62
0
  10
    18.000000
  20
    5.100000
  30
    0.000000
  0
VERTEX
  8
2
  62
0
  10
    18.600000
  20
    5.100000
  30
    0.000000
  0
VERTEX
  8
2
  62
0
  10
    18.800000
  20
    5.800000
  30
    0.000000
  0
VERTEX
  8
2
  62
0
  10
    19.900000
  20
    6.100000
  30
    0.000000
  0
VERTEX
  8
2
  62
0
  10
    20.400000
  20
    6.700000
  30
    0.000000
  0
VERTEX
  8
2
  62
0
  10
    20.900000
  20
    6.800000
  30
    0.000000
  0
VERTEX
  8
2
  62
0
  10
    20.900000
  20
    7.400000
  30
    0.000000
  0
VERTEX
  8
2
  62
0
  10
    19.000000
  20
    8.900000
  30
    0.000000
  0
VERTEX
  8
2
  62
0
  10
    18.600000
  20
    8.600000
  30
    0.000000
  0
VERTEX
  8
2
  62
0
  10
    17.600000
  20
    8.400000
  30
    0.000000
  0
VERTEX
  8
2
  62
0
  10
    17.100000
  20
    8.000000
  30
    0.000000
  0
VERTEX
  8
2
  62
0
  10
    17.200000
  20
    7.000000
  30
    0.000000
  0
VERTEX
  8
2
  62
0
  10
    16.900000
  20
    5.800000
  30
    0.000000
  0
SEQEND
  0
POLYLINE
  8
2
  62
0
  66
1
  0
VERTEX
  8
2
  62
0
  10
    17.900000
  20
    29.700000
  30
    0.000000
  0
VERTEX
  8
2
  62
0
  10
    18.700000
  20
    30.100000
  30
    0.000000
  0
VERTEX
  8
2
  62
0
  10
    19.600000
  20
    30.200000
  30
    0.000000
  0
VERTEX
  8
2
  62
0
  10
    19.100000
  20
    31.500000
  30
    0.000000
  0
VERTEX
  8
2
  62
0
  10
    18.600000
  20
    32.100000
  30
    0.000000
  0
VERTEX
  8
2
  62
0
  10
    18.300000
  20
    32.000000
  30
    0.000000
  0
VERTEX
  8
2
  62
0
  10
    17.600000
  20
    30.700000
  30
    0.000000
  0
VERTEX
  8
2
  62
0
  10
    17.500000
  20
    30.200000
  30
    0.000000
  0
VERTEX
  8
2
  62
0
  10
    17.900000
  20
    29.700000
  30
    0.000000
  0
SEQEND
  0
POLYLINE
  8
2
  62
0
  66
1
  0
VERTEX
  8
2
  62
0
  10
    17.600000
  20
    35.000000
  30
    0.000000
  0
VERTEX
  8
2
  62
0
  10
    17.700000
  20
    33.100000
  30
    0.000000
  0
VERTEX
  8
2
  62
0
  10
    18.100000
  20
    32.500000
  30
    0.000000
  0
VERTEX
  8
2
  62
0
  10
    20.600000
  20
    31.800000
  30
    0.000000
  0
VERTEX
  8
2
  62
0
  10
    21.000000
  20
    31.800000
  30
    0.000000
  0
VERTEX
  8
2
  62
0
  10
    21.600000
  20
    32.200000
  30
    0.000000
  0
VERTEX
  8
2
  62
0
  10
    21.300000
  20
    33.600000
  30
    0.000000
  0
VERTEX
  8
2
  62
0
  10
    20.600000
  20
    35.000000
  30
    0.000000
  0
VERTEX
  8
2
  62
0
  10
    17.600000
  20
    35.000000
  30
    0.000000
  0
SEQEND
  0
POLYLINE
  8
2
  62
0
  66
1
  0
VERTEX
  8
2
  62
0
  10
    17.600000
  20
    0.000000
  30
    0.000000
  0
VERTEX
  8
2
  62
0
  10
    18.700000
  20
    0.000000
  30
    0.000000
  0
VERTEX
  8
2
  62
0
  10
    18.900000
  20
    0.700000
  30
    0.000000
  0
VERTEX
  8
2
  62
0
  10
    18.000000
  20
    1.000000
  30
    0.000000
  0
VERTEX
  8
2
  62
0
  10
    17.600000
  20
    0.400000
  30
    0.000000
  0
VERTEX
  8
2
  62
0
  10
    17.600000
  20
    0.000000
  30
    0.000000
  0
SEQEND
  0
POLYLINE
  8
2
  62
0
  66
1
  0
VERTEX
  8
2
  62
0
  10
    18.900000
  20
    24.100000
  30
    0.000000
  0
VERTEX
  8
2
  62
0
  10
    19.100000
  20
    25.200000
  30
    0.000000
  0
VERTEX
  8
2
  62
0
  10
    18.900000
  20
    25.600000
  30
    0.000000
  0
VERTEX
  8
2
  62
0
  10
    18.200000
  20
    25.600000
  30
    0.000000
  0
VERTEX
  8
2
  62
0
  10
    18.100000
  20
    24.600000
  30
    0.000000
  0
VERTEX
  8
2
  62
0
  10
    18.500000
  20
    24.100000
  30
    0.000000
  0
VERTEX
  8
2
  62
0
  10
    18.900000
  20
    24.100000
  30
    0.000000
  0
SEQEND
  0
POLYLINE
  8
2
  62
0
  66
1
  0
VERTEX
  8
2
  62
0
  10
    19.400000
  20
    22.300000
  30
    0.000000
  0
VERTEX
  8
2
  62
0
  10
    19.500000
  20
    23.200000
  30
    0.000000
  0
VERTEX
  8
2
  62
0
  10
    19.200000
  20
    23.500000
  30
    0.000000
  0
VERTEX
  8
2
  62
0
  10
    18.700000
  20
    23.500000
  30
    0.000000
  0
VERTEX
  8
2
  62
0
  10
    18.600000
  20
    22.800000
  30
    0.000000
  0
VERTEX
  8
2
  62
0
  10
    18.900000
  20
    22.700000
  30
    0.000000
  0
VERTEX
  8
2
  62
0
  10
    19.000000
  20
    22.300000
  30
    0.000000
  0
VERTEX
  8
2
  62
0
  10
    19.400000
  20
    22.300000
  30
    0.000000
  0
SEQEND
  0
POLYLINE
  8
2
  62
0
  66
1
  0
VERTEX
  8
2
  62
0
  10
    18.600000
  20
    11.500000
  30
    0.000000
  0
VERTEX
  8
2
  62
0
  10
    18.700000
  20
    10.900000
  30
    0.000000
  0
VERTEX
  8
2
  62
0
  10
    19.100000
  20
    10.700000
  30
    0.000000
  0
VERTEX
  8
2
  62
0
  10
    20.000000
  20
    10.700000
  30
    0.000000
  0
VERTEX
  8
2
  62
0
  10
    20.300000
  20
    11.000000
  30
    0.000000
  0
VERTEX
  8
2
  62
0
  10
    20.200000
  20
    11.300000
  30
    0.000000
  0
VERTEX
  8
2
  62
0
  10
    19.100000
  20
    11.700000
  30
    0.000000
  0
VERTEX
  8
2
  62
0
  10
    18.600000
  20
    11.500000
  30
    0.000000
  0
SEQEND
  0
POLYLINE
  8
2
  62
0
  66
1
  0
VERTEX
  8
2
  62
0
  10
    18.900000
  20
    14.900000
  30
    0.000000
  0
VERTEX
  8
2
  62
0
  10
    19.100000
  20
    14.200000
  30
    0.000000
  0
VERTEX
  8
2
  62
0
  10
    19.500000
  20
    13.800000
  30
    0.000000
  0
VERTEX
  8
2
  62
0
  10
    20.400000
  20
    13.900000
  30
    0.000000
  0
VERTEX
  8
2
  62
0
  10
    20.600000
  20
    14.600000
  30
    0.000000
  0
VERTEX
  8
2
  62
0
  10
    20.500000
  20
    15.300000
  30
    0.000000
  0
VERTEX
  8
2
  62
0
  10
    20.000000
  20
    15.500000
  30
    0.000000
  0
VERTEX
  8
2
  62
0
  10
    18.900000
  20
    14.900000
  30
    0.000000
  0
SEQEND
  0
POLYLINE
  8
2
  62
0
  66
1
  0
VERTEX
  8
2
  62
0
  10
    18.900000
  20
    10.300000
  30
    0.000000
  0
VERTEX
  8
2
  62
0
  10
    19.000000
  20
    9.700000
  30
    0.000000
  0
VERTEX
  8
2
  62
0
  10
    20.300000
  20
    8.600000
  30
    0.000000
  0
VERTEX
  8
2
  62
0
  10
    20.400000
  20
    8.300000
  30
    0.000000
  0
VERTEX
  8
2
  62
0
  10
    20.800000
  20
    8.300000
  30
    0.000000
  0
VERTEX
  8
2
  62
0
  10
    20.600000
  20
    9.600000
  30
    0.000000
  0
VERTEX
  8
2
  62
0
  10
    20.900000
  20
    10.000000
  30
    0.000000
  0
VERTEX
  8
2
  62
0
  10
    20.900000
  20
    10.500000
  30
    0.000000
  0
VERTEX
  8
2
  62
0
  10
    20.300000
  20
    10.200000
  30
    0.000000
  0
VERTEX
  8
2
  62
0
  10
    19.600000
  20
    10.300000
  30
    0.000000
  0
VERTEX
  8
2
  62
0
  10
    19.600000
  20
    10.100000
  30
    0.000000
  0
VERTEX
  8
2
  62
0
  10
    18.900000
  20
    10.300000
  30
    0.000000
  0
SEQEND
  0
POLYLINE
  8
2
  62
0
  66
1
  0
VERTEX
  8
2
  62
0
  10
    19.000000
  20
    26.400000
  30
    0.000000
  0
VERTEX
  8
2
  62
0
  10
    19.900000
  20
    26.300000
  30
    0.000000
  0
VERTEX
  8
2
  62
0
  10
    20.500000
  20
    26.700000
  30
    0.000000
  0
VERTEX
  8
2
  62
0
  10
    20.500000
  20
    27.100000
  30
    0.000000
  0
VERTEX
  8
2
  62
0
  10
    19.600000
  20
    27.200000
  30
    0.000000
  0
VERTEX
  8
2
  62
0
  10
    19.600000
  20
    27.000000
  30
    0.000000
  0
VERTEX
  8
2
  62
0
  10
    19.000000
  20
    26.800000
  30
    0.000000
  0
VERTEX
  8
2
  62
0
  10
    19.000000
  20
    26.400000
  30
    0.000000
  0
SEQEND
  0
POLYLINE
  8
2
  62
0
  66
1
  0
VERTEX
  8
2
  62
0
  10
    19.000000
  20
    0.800000
  30
    0.000000
  0
VERTEX
  8
2
  62
0
  10
    19.400000
  20
    0.600000
  30
    0.000000
  0
VERTEX
  8
2
  62
0
  10
    19.400000
  20
    0.400000
  30
    0.000000
  0
VERTEX
  8
2
  62
0
  10
    19.900000
  20
    0.400000
  30
    0.000000
  0
VERTEX
  8
2
  62
0
  10
    20.000000
  20
    0.600000
  30
    0.000000
  0
VERTEX
  8
2
  62
0
  10
    20.700000
  20
    0.700000
  30
    0.000000
  0
VERTEX
  8
2
  62
0
  10
    20.700000
  20
    0.900000
  30
    0.000000
  0
VERTEX
  8
2
  62
0
  10
    21.100000
  20
    0.900000
  30
    0.000000
  0
VERTEX
  8
2
  62
0
  10
    21.200000
  20
    1.300000
  30
    0.000000
  0
VERTEX
  8
2
  62
0
  10
    20.600000
  20
    1.300000
  30
    0.000000
  0
VERTEX
  8
2
  62
0
  10
    19.800000
  20
    1.900000
  30
    0.000000
  0
VERTEX
  8
2
  62
0
  10
    19.400000
  20
    1.900000
  30
    0.000000
  0
VERTEX
  8
2
  62
0
  10
    19.000000
  20
    0.800000
  30
    0.000000
  0
SEQEND
  0
POLYLINE
  8
2
  62
0
  66
1
  0
VERTEX
  8
2
  62
0
  10
    19.200000
  20
    27.300000
  30
    0.000000
  0
VERTEX
  8
2
  62
0
  10
    22.200000
  20
    28.800000
  30
    0.000000
  0
VERTEX
  8
2
  62
0
  10
    22.200000
  20
    29.200000
  30
    0.000000
  0
VERTEX
  8
2
  62
0
  10
    20.900000
  20
    29.600000
  30
    0.000000
  0
VERTEX
  8
2
  62
0
  10
    19.800000
  20
    29.600000
  30
    0.000000
  0
VERTEX
  8
2
  62
0
  10
    19.500000
  20
    29.100000
  30
    0.000000
  0
VERTEX
  8
2
  62
0
  10
    19.500000
  20
    28.600000
  30
    0.000000
  0
VERTEX
  8
2
  62
0
  10
    19.700000
  20
    28.500000
  30
    0.000000
  0
VERTEX
  8
2
  62
0
  10
    19.500000
  20
    28.500000
  30
    0.000000
  0
VERTEX
  8
2
  62
0
  10
    19.300000
  20
    28.100000
  30
    0.000000
  0
VERTEX
  8
2
  62
0
  10
    19.200000
  20
    27.300000
  30
    0.000000
  0
SEQEND
  0
POLYLINE
  8
2
  62
0
  66
1
  0
VERTEX
  8
2
  62
0
  10
    20.600000
  20
    21.400000
  30
    0.000000
  0
VERTEX
  8
2
  62
0
  10
    21.700000
  20
    22.300000
  30
    0.000000
  0
VERTEX
  8
2
  62
0
  10
    21.800000
  20
    22.700000
  30
    0.000000
  0
VERTEX
  8
2
  62
0
  10
    23.100000
  20
    22.700000
  30
    0.000000
  0
VERTEX
  8
2
  62
0
  10
    23.400000
  20
    23.100000
  30
    0.000000
  0
VERTEX
  8
2
  62
0
  10
    23.300000
  20
    23.800000
  30
    0.000000
  0
VERTEX
  8
2
  62
0
  10
    22.100000
  20
    25.100000
  30
    0.000000
  0
VERTEX
  8
2
  62
0
  10
    21.500000
  20
    26.400000
  30
    0.000000
  0
VERTEX
  8
2
  62
0
  10
    21.000000
  20
    26.400000
  30
    0.000000
  0
VERTEX
  8
2
  62
0
  10
    20.800000
  20
    25.800000
  30
    0.000000
  0
VERTEX
  8
2
  62
0
  10
    20.400000
  20
    25.700000
  30
    0.000000
  0
VERTEX
  8
2
  62
0
  10
    19.400000
  20
    24.800000
  30
    0.000000
  0
VERTEX
  8
2
  62
0
  10
    20.100000
  20
    22.300000
  30
    0.000000
  0
VERTEX
  8
2
  62
0
  10
    20.600000
  20
    21.400000
  30
    0.000000
  0
SEQEND
  0
POLYLINE
  8
2
  62
0
  66
1
  0
VERTEX
  8
2
  62
0
  10
    19.400000
  20
    13.000000
  30
    0.000000
  0
VERTEX
  8
2
  62
0
  10
    19.600000
  20
    12.000000
  30
    0.000000
  0
VERTEX
  8
2
  62
0
  10
    19.900000
  20
    11.500000
  30
    0.000000
  0
VERTEX
  8
2
  62
0
  10
    20.100000
  20
    11.500000
  30
    0.000000
  0
VERTEX
  8
2
  62
0
  10
    20.100000
  20
    12.900000
  30
    0.000000
  0
VERTEX
  8
2
  62
0
  10
    19.400000
  20
    13.000000
  30
    0.000000
  0
SEQEND
  0
POLYLINE
  8
2
  62
0
  66
1
  0
VERTEX
  8
2
  62
0
  10
    19.600000
  20
    3.400000
  30
    0.000000
  0
VERTEX
  8
2
  62
0
  10
    19.700000
  20
    2.700000
  30
    0.000000
  0
VERTEX
  8
2
  62
0
  10
    20.200000
  20
    2.100000
  30
    0.000000
  0
VERTEX
  8
2
  62
0
  10
    20.900000
  20
    2.200000
  30
    0.000000
  0
VERTEX
  8
2
  62
0
  10
    21.600000
  20
    2.800000
  30
    0.000000
  0
VERTEX
  8
2
  62
0
  10
    21.300000
  20
    3.800000
  30
    0.000000
  0
VERTEX
  8
2
  62
0
  10
    19.900000
  20
    3.800000
  30
    0.000000
  0
VERTEX
  8
2
  62
0
  10
    19.600000
  20
    3.400000
  30
    0.000000
  0
SEQEND
  0
POLYLINE
  8
2
  62
0
  66
1
  0
VERTEX
  8
2
  62
0
  10
    20.100000
  20
    31.400000
  30
    0.000000
  0
VERTEX
  8
2
  62
0
  10
    20.600000
  20
    30.300000
  30
    0.000000
  0
VERTEX
  8
2
  62
0
  10
    21.100000
  20
    29.900000
  30
    0.000000
  0
VERTEX
  8
2
  62
0
  10
    21.900000
  20
    29.800000
  30
    0.000000
  0
VERTEX
  8
2
  62
0
  10
    21.900000
  20
    30.300000
  30
    0.000000
  0
VERTEX
  8
2
  62
0
  10
    21.200000
  20
    31.200000
  30
    0.000000
  0
VERTEX
  8
2
  62
0
  10
    20.100000
  20
    31.400000
  30
    0.000000
  0
SEQEND
  0
POLYLINE
  8
2
  62
0
  66
1
  0
VERTEX
  8
2
  62
0
  10
    20.400000
  20
    12.400000
  30
    0.000000
  0
VERTEX
  8
2
  62
0
  10
    20.900000
  20
    12.100000
  30
    0.000000
  0
VERTEX
  8
2
  62
0
  10
    21.300000
  20
    12.400000
  30
    0.000000
  0
VERTEX
  8
2
  62
0
  10
    21.300000
  20
    12.800000
  30
    0.000000
  0
VERTEX
  8
2
  62
0
  10
    20.700000
  20
    13.000000
  30
    0.000000
  0
VERTEX
  8
2
  62
0
  10
    20.400000
  20
    12.400000
  30
    0.000000
  0
SEQEND
  0
POLYLINE
  8
2
  62
0
  66
1
  0
VERTEX
  8
2
  62
0
  10
    20.900000
  20
    0.000000
  30
    0.000000
  0
VERTEX
  8
2
  62
0
  10
    23.500000
  20
    0.000000
  30
    0.000000
  0
VERTEX
  8
2
  62
0
  10
    23.500000
  20
    0.900000
  30
    0.000000
  0
VERTEX
  8
2
  62
0
  10
    23.800000
  20
    1.800000
  30
    0.000000
  0
VERTEX
  8
2
  62
0
  10
    24.000000
  20
    2.300000
  30
    0.000000
  0
VERTEX
  8
2
  62
0
  10
    24.300000
  20
    2.300000
  30
    0.000000
  0
VERTEX
  8
2
  62
0
  10
    24.300000
  20
    3.400000
  30
    0.000000
  0
VERTEX
  8
2
  62
0
  10
    24.000000
  20
    3.400000
  30
    0.000000
  0
VERTEX
  8
2
  62
0
  10
    23.500000
  20
    2.700000
  30
    0.000000
  0
VERTEX
  8
2
  62
0
  10
    23.200000
  20
    2.600000
  30
    0.000000
  0
VERTEX
  8
2
  62
0
  10
    22.500000
  20
    1.400000
  30
    0.000000
  0
VERTEX
  8
2
  62
0
  10
    20.900000
  20
    0.400000
  30
    0.000000
  0
VERTEX
  8
2
  62
0
  10
    20.900000
  20
    0.000000
  30
    0.000000
  0
SEQEND
  0
POLYLINE
  8
2
  62
0
  66
1
  0
VERTEX
  8
2
  62
0
  10
    21.200000
  20
    15.100000
  30
    0.000000
  0
VERTEX
  8
2
  62
0
  10
    21.200000
  20
    14.100000
  30
    0.000000
  0
VERTEX
  8
2
  62
0
  10
    21.600000
  20
    13.000000
  30
    0.000000
  0
VERTEX
  8
2
  62
0
  10
    22.100000
  20
    12.400000
  30
    0.000000
  0
VERTEX
  8
2
  62
0
  10
    22.900000
  20
    12.400000
  30
    0.000000
  0
VERTEX
  8
2
  62
0
  10
    22.700000
  20
    13.200000
  30
    0.000000
  0
VERTEX
  8
2
  62
0
  10
    21.700000
  20
    15.000000
  30
    0.000000
  0
VERTEX
  8
2
  62
0
  10
    21.200000
  20
    15.100000
  30
    0.000000
  0
SEQEND
  0
POLYLINE
  8
2
  62
0
  66
1
  0
VERTEX
  8
2
  62
0
  10
    21.300000
  20
    10.600000
  30
    0.000000
  0
VERTEX
  8
2
  62
0
  10
    21.600000
  20
    10.300000
  30
    0.000000
  0
VERTEX
  8
2
  62
0
  10
    22.100000
  20
    10.300000
  30
    0.000000
  0
VERTEX
  8
2
  62
0
  10
    22.600000
  20
    11.100000
  30
    0.000000
  0
VERTEX
  8
2
  62
0
  10
    21.600000
  20
    11.100000
  30
    0.000000
  0
VERTEX
  8
2
  62
0
  10
    21.300000
  20
    10.900000
  30
    0.000000
  0
VERTEX
  8
2
  62
0
  10
    21.300000
  20
    10.600000
  30
    0.000000
  0
SEQEND
  0
POLYLINE
  8
2
  62
0
  66
1
  0
VERTEX
  8
2
  62
0
  10
    22.300000
  20
    2.800000
  30
    0.000000
  0
VERTEX
  8
2
  62
0
  10
    22.600000
  20
    2.800000
  30
    0.000000
  0
VERTEX
  8
2
  62
0
  10
    22.900000
  20
    3.600000
  30
    0.000000
  0
VERTEX
  8
2
  62
0
  10
    23.000000
  20
    4.900000
  30
    0.000000
  0
VERTEX
  8
2
  62
0
  10
    23.400000
  20
    5.400000
  30
    0.000000
  0
VERTEX
  8
2
  62
0
  10
    23.300000
  20
    6.400000
  30
    0.000000
  0
VERTEX
  8
2
  62
0
  10
    21.300000
  20
    5.400000
  30
    0.000000
  0
VERTEX
  8
2
  62
0
  10
    21.300000
  20
    4.900000
  30
    0.000000
  0
VERTEX
  8
2
  62
0
  10
    21.900000
  20
    4.500000
  30
    0.000000
  0
VERTEX
  8
2
  62
0
  10
    22.000000
  20
    4.100000
  30
    0.000000
  0
VERTEX
  8
2
  62
0
  10
    22.300000
  20
    4.100000
  30
    0.000000
  0
VERTEX
  8
2
  62
0
  10
    22.300000
  20
    2.800000
  30
    0.000000
  0
SEQEND
  0
POLYLINE
  8
2
  62
0
  66
1
  0
VERTEX
  8
2
  62
0
  10
    24.000000
  20
    32.400000
  30
    0.000000
  0
VERTEX
  8
2
  62
0
  10
    23.200000
  20
    33.800000
  30
    0.000000
  0
VERTEX
  8
2
  62
0
  10
    22.600000
  20
    34.100000
  30
    0.000000
  0
VERTEX
  8
2
  62
0
  10
    22.300000
  20
    34.700000
  30
    0.000000
  0
VERTEX
  8
2
  62
0
  10
    21.900000
  20
    34.500000
  30
    0.000000
  0
VERTEX
  8
2
  62
0
  10
    21.500000
  20
    34.700000
  30
    0.000000
  0
VERTEX
  8
2
  62
0
  10
    21.400000
  20
    34.100000
  30
    0.000000
  0
VERTEX
  8
2
  62
0
  10
    21.700000
  20
    34.000000
  30
    0.000000
  0
VERTEX
  8
2
  62
0
  10
    22.000000
  20
    33.500000
  30
    0.000000
  0
VERTEX
  8
2
  62
0
  10
    22.300000
  20
    33.500000
  30
    0.000000
  0
VERTEX
  8
2
  62
0
  10
    22.600000
  20
    33.000000
  30
    0.000000
  0
VERTEX
  8
2
  62
0
  10
    23.500000
  20
    32.500000
  30
    0.000000
  0
VERTEX
  8
2
  62
0
  10
    24.000000
  20
    32.400000
  30
    0.000000
  0
SEQEND
  0
POLYLINE
  8
2
  62
0
  66
1
  0
VERTEX
  8
2
  62
0
  10
    22.600000
  20
    8.100000
  30
    0.000000
  0
VERTEX
  8
2
  62
0
  10
    22.900000
  20
    8.400000
  30
    0.000000
  0
VERTEX
  8
2
  62
0
  10
    23.000000
  20
    9.300000
  30
    0.000000
  0
VERTEX
  8
2
  62
0
  10
    22.200000
  20
    9.800000
  30
    0.000000
  0
VERTEX
  8
2
  62
0
  10
    21.600000
  20
    8.500000
  30
    0.000000
  0
VERTEX
  8
2
  62
0
  10
    22.200000
  20
    8.100000
  30
    0.000000
  0
VERTEX
  8
2
  62
0
  10
    22.600000
  20
    8.100000
  30
    0.000000
  0
SEQEND
  0
POLYLINE
  8
2
  62
0
  66
1
  0
VERTEX
  8
2
  62
0
  10
    24.800000
  20
    6.400000
  30
    0.000000
  0
VERTEX
  8
2
  62
0
  10
    24.800000
  20
    6.900000
  30
    0.000000
  0
VERTEX
  8
2
  62
0
  10
    24.200000
  20
    8.300000
  30
    0.000000
  0
VERTEX
  8
2
  62
0
  10
    24.100000
  20
    9.800000
  30
    0.000000
  0
VERTEX
  8
2
  62
0
  10
    24.000000
  20
    10.000000
  30
    0.000000
  0
VERTEX
  8
2
  62
0
  10
    23.400000
  20
    10.000000
  30
    0.000000
  0
VERTEX
  8
2
  62
0
  10
    23.400000
  20
    9.200000
  30
    0.000000
  0
VERTEX
  8
2
  62
0
  10
    23.000000
  20
    8.700000
  30
    0.000000
  0
VERTEX
  8
2
  62
0
  10
    22.900000
  20
    8.100000
  30
    0.000000
  0
VERTEX
  8
2
  62
0
  10
    22.600000
  20
    8.000000
  30
    0.000000
  0
VERTEX
  8
2
  62
0
  10
    22.700000
  20
    7.500000
  30
    0.000000
  0
VERTEX
  8
2
  62
0
  10
    21.700000
  20
    7.200000
  30
    0.000000
  0
VERTEX
  8
2
  62
0
  10
    21.700000
  20
    6.900000
  30
    0.000000
  0
VERTEX
  8
2
  62
0
  10
    22.600000
  20
    6.900000
  30
    0.000000
  0
VERTEX
  8
2
  62
0
  10
    22.600000
  20
    6.700000
  30
    0.000000
  0
VERTEX
  8
2
  62
0
  10
    23.400000
  20
    6.600000
  30
    0.000000
  0
VERTEX
  8
2
  62
0
  10
    23.700000
  20
    6.300000
  30
    0.000000
  0
VERTEX
  8
2
  62
0
  10
    24.800000
  20
    6.400000
  30
    0.000000
  0
SEQEND
  0
POLYLINE
  8
2
  62
0
  66
1
  0
VERTEX
  8
2
  62
0
  10
    22.500000
  20
    30.500000
  30
    0.000000
  0
VERTEX
  8
2
  62
0
  10
    22.800000
  20
    30.700000
  30
    0.000000
  0
VERTEX
  8
2
  62
0
  10
    22.800000
  20
    31.200000
  30
    0.000000
  0
VERTEX
  8
2
  62
0
  10
    22.600000
  20
    31.700000
  30
    0.000000
  0
VERTEX
  8
2
  62
0
  10
    22.200000
  20
    31.800000
  30
    0.000000
  0
VERTEX
  8
2
  62
0
  10
    22.100000
  20
    31.000000
  30
    0.000000
  0
VERTEX
  8
2
  62
0
  10
    22.500000
  20
    30.500000
  30
    0.000000
  0
SEQEND
  0
POLYLINE
  8
2
  62
0
  66
1
  0
VERTEX
  8
2
  62
0
  10
    25.200000
  20
    25.300000
  30
    0.000000
  0
VERTEX
  8
2
  62
0
  10
    25.500000
  20
    26.800000
  30
    0.000000
  0
VERTEX
  8
2
  62
0
  10
    25.200000
  20
    26.900000
  30
    0.000000
  0
VERTEX
  8
2
  62
0
  10
    25.100000
  20
    27.300000
  30
    0.000000
  0
VERTEX
  8
2
  62
0
  10
    24.800000
  20
    27.300000
  30
    0.000000
  0
VERTEX
  8
2
  62
0
  10
    24.500000
  20
    26.700000
  30
    0.000000
  0
VERTEX
  8
2
  62
0
  10
    23.100000
  20
    27.400000
  30
    0.000000
  0
VERTEX
  8
2
  62
0
  10
    22.400000
  20
    27.400000
  30
    0.000000
  0
VERTEX
  8
2
  62
0
  10
    22.200000
  20
    26.500000
  30
    0.000000
  0
VERTEX
  8
2
  62
0
  10
    23.400000
  20
    26.500000
  30
    0.000000
  0
VERTEX
  8
2
  62
0
  10
    24.800000
  20
    25.300000
  30
    0.000000
  0
VERTEX
  8
2
  62
0
  10
    25.200000
  20
    25.300000
  30
    0.000000
  0
SEQEND
  0
POLYLINE
  8
2
  62
0
  66
1
  0
VERTEX
  8
2
  62
0
  10
    22.300000
  20
    28.900000
  30
    0.000000
  0
VERTEX
  8
2
  62
0
  10
    22.900000
  20
    28.500000
  30
    0.000000
  0
VERTEX
  8
2
  62
0
  10
    23.400000
  20
    28.700000
  30
    0.000000
  0
VERTEX
  8
2
  62
0
  10
    23.000000
  20
    29.300000
  30
    0.000000
  0
VERTEX
  8
2
  62
0
  10
    22.300000
  20
    28.900000
  30
    0.000000
  0
SEQEND
  0
POLYLINE
  8
2
  62
0
  66
1
  0
VERTEX
  8
2
  62
0
  10
    23.800000
  20
    23.700000
  30
    0.000000
  0
VERTEX
  8
2
  62
0
  10
    24.300000
  20
    24.300000
  30
    0.000000
  0
VERTEX
  8
2
  62
0
  10
    24.300000
  20
    25.000000
  30
    0.000000
  0
VERTEX
  8
2
  62
0
  10
    24.100000
  20
    25.400000
  30
    0.000000
  0
VERTEX
  8
2
  62
0
  10
    23.300000
  20
    25.600000
  30
    0.000000
  0
VERTEX
  8
2
  62
0
  10
    22.900000
  20
    25.400000
  30
    0.000000
  0
VERTEX
  8
2
  62
0
  10
    22.800000
  20
    25.100000
  30
    0.000000
  0
VERTEX
  8
2
  62
0
  10
    23.400000
  20
    23.700000
  30
    0.000000
  0
VERTEX
  8
2
  62
0
  10
    23.800000
  20
    23.700000
  30
    0.000000
  0
SEQEND
  0
POLYLINE
  8
2
  62
0
  66
1
  0
VERTEX
  8
2
  62
0
  10
    23.600000
  20
    13.000000
  30
    0.000000
  0
VERTEX
  8
2
  62
0
  10
    24.400000
  20
    13.100000
  30
    0.000000
  0
VERTEX
  8
2
  62
0
  10
    24.700000
  20
    13.700000
  30
    0.000000
  0
VERTEX
  8
2
  62
0
  10
    25.200000
  20
    14.100000
  30
    0.000000
  0
VERTEX
  8
2
  62
0
  10
    25.300000
  20
    15.300000
  30
    0.000000
  0
VERTEX
  8
2
  62
0
  10
    24.900000
  20
    15.800000
  30
    0.000000
  0
VERTEX
  8
2
  62
0
  10
    24.200000
  20
    15.900000
  30
    0.000000
  0
VERTEX
  8
2
  62
0
  10
    23.500000
  20
    15.500000
  30
    0.000000
  0
VERTEX
  8
2
  62
0
  10
    23.000000
  20
    14.900000
  30
    0.000000
  0
VERTEX
  8
2
  62
0
  10
    23.000000
  20
    13.900000
  30
    0.000000
  0
VERTEX
  8
2
  62
0
  10
    23.600000
  20
    13.000000
  30
    0.000000
  0
SEQEND
  0
POLYLINE
  8
2
  62
0
  66
1
  0
VERTEX
  8
2
  62
0
  10
    23.200000
  20
    22.300000
  30
    0.000000
  0
VERTEX
  8
2
  62
0
  10
    23.300000
  20
    21.700000
  30
    0.000000
  0
VERTEX
  8
2
  62
0
  10
    24.400000
  20
    21.700000
  30
    0.000000
  0
VERTEX
  8
2
  62
0
  10
    24.200000
  20
    22.600000
  30
    0.000000
  0
VERTEX
  8
2
  62
0
  10
    23.200000
  20
    22.300000
  30
    0.000000
  0
SEQEND
  0
POLYLINE
  8
2
  62
0
  66
1
  0
VERTEX
  8
2
  62
0
  10
    23.500000
  20
    31.100000
  30
    0.000000
  0
VERTEX
  8
2
  62
0
  10
    23.500000
  20
    30.600000
  30
    0.000000
  0
VERTEX
  8
2
  62
0
  10
    24.600000
  20
    30.300000
  30
    0.000000
  0
VERTEX
  8
2
  62
0
  10
    25.600000
  20
    29.700000
  30
    0.000000
  0
VERTEX
  8
2
  62
0
  10
    26.000000
  20
    29.200000
  30
    0.000000
  0
VERTEX
  8
2
  62
0
  10
    26.400000
  20
    29.200000
  30
    0.000000
  0
VERTEX
  8
2
  62
0
  10
    26.500000
  20
    30.100000
  30
    0.000000
  0
VERTEX
  8
2
  62
0
  10
    26.300000
  20
    30.500000
  30
    0.000000
  0
VERTEX
  8
2
  62
0
  10
    25.700000
  20
    30.500000
  30
    0.000000
  0
VERTEX
  8
2
  62
0
  10
    24.700000
  20
    31.200000
  30
    0.000000
  0
VERTEX
  8
2
  62
0
  10
    23.500000
  20
    31.100000
  30
    0.000000
  0
SEQEND
  0
POLYLINE
  8
2
  62
0
  66
1
  0
VERTEX
  8
2
  62
0
  10
    23.500000
  20
    28.500000
  30
    0.000000
  0
VERTEX
  8
2
  62
0
  10
    24.800000
  20
    28.200000
  30
    0.000000
  0
VERTEX
  8
2
  62
0
  10
    25.800000
  20
    28.800000
  30
    0.000000
  0
VERTEX
  8
2
  62
0
  10
    25.800000
  20
    29.200000
  30
    0.000000
  0
VERTEX
  8
2
  62
0
  10
    25.200000
  20
    29.500000
  30
    0.000000
  0
VERTEX
  8
2
  62
0
  10
    24.400000
  20
    29.500000
  30
    0.000000
  0
VERTEX
  8
2
  62
0
  10
    23.500000
  20
    28.800000
  30
    0.000000
  0
VERTEX
  8
2
  62
0
  10
    23.500000
  20
    28.500000
  30
    0.000000
  0
SEQEND
  0
POLYLINE
  8
2
  62
0
  66
1
  0
VERTEX
  8
2
  62
0
  10
    23.500000
  20
    11.800000
  30
    0.000000
  0
VERTEX
  8
2
  62
0
  10
    23.500000
  20
    10.800000
  30
    0.000000
  0
VERTEX
  8
2
  62
0
  10
    23.700000
  20
    10.600000
  30
    0.000000
  0
VERTEX
  8
2
  62
0
  10
    26.700000
  20
    9.800000
  30
    0.000000
  0
VERTEX
  8
2
  62
0
  10
    28.100000
  20
    9.800000
  30
    0.000000
  0
VERTEX
  8
2
  62
0
  10
    28.000000
  20
    11.000000
  30
    0.000000
  0
VERTEX
  8
2
  62
0
  10
    26.300000
  20
    12.000000
  30
    0.000000
  0
VERTEX
  8
2
  62
0
  10
    25.700000
  20
    12.600000
  30
    0.000000
  0
VERTEX
  8
2
  62
0
  10
    25.400000
  20
    12.600000
  30
    0.000000
  0
VERTEX
  8
2
  62
0
  10
    25.100000
  20
    12.000000
  30
    0.000000
  0
VERTEX
  8
2
  62
0
  10
    23.500000
  20
    11.800000
  30
    0.000000
  0
SEQEND
  0
POLYLINE
  8
2
  62
0
  66
1
  0
VERTEX
  8
2
  62
0
  10
    23.900000
  20
    16.400000
  30
    0.000000
  0
VERTEX
  8
2
  62
0
  10
    25.100000
  20
    16.600000
  30
    0.000000
  0
VERTEX
  8
2
  62
0
  10
    25.100000
  20
    17.300000
  30
    0.000000
  0
VERTEX
  8
2
  62
0
  10
    24.300000
  20
    17.400000
  30
    0.000000
  0
VERTEX
  8
2
  62
0
  10
    23.900000
  20
    16.900000
  30
    0.000000
  0
VERTEX
  8
2
  62
0
  10
    23.900000
  20
    16.400000
  30
    0.000000
  0
SEQEND
  0
POLYLINE
  8
2
  62
0
  66
1
  0
VERTEX
  8
2
  62
0
  10
    24.000000
  20
    34.100000
  30
    0.000000
  0
VERTEX
  8
2
  62
0
  10
    24.200000
  20
    33.700000
  30
    0.000000
  0
VERTEX
  8
2
  62
0
  10
    24.800000
  20
    33.800000
  30
    0.000000
  0
VERTEX
  8
2
  62
0
  10
    24.400000
  20
    34.300000
  30
    0.000000
  0
VERTEX
  8
2
  62
0
  10
    24.000000
  20
    34.100000
  30
    0.000000
  0
SEQEND
  0
POLYLINE
  8
2
  62
0
  66
1
  0
VERTEX
  8
2
  62
0
  10
    24.800000
  20
    20.300000
  30
    0.000000
  0
VERTEX
  8
2
  62
0
  10
    25.000000
  20
    20.500000
  30
    0.000000
  0
VERTEX
  8
2
  62
0
  10
    24.900000
  20
    21.100000
  30
    0.000000
  0
VERTEX
  8
2
  62
0
  10
    24.300000
  20
    21.300000
  30
    0.000000
  0
VERTEX
  8
2
  62
0
  10
    24.200000
  20
    20.400000
  30
    0.000000
  0
VERTEX
  8
2
  62
0
  10
    24.800000
  20
    20.300000
  30
    0.000000
  0
SEQEND
  0
POLYLINE
  8
2
  62
0
  66
1
  0
VERTEX
  8
2
  62
0
  10
    24.200000
  20
    18.000000
  30
    0.000000
  0
VERTEX
  8
2
  62
0
  10
    25.600000
  20
    18.000000
  30
    0.000000
  0
VERTEX
  8
2
  62
0
  10
    27.200000
  20
    19.300000
  30
    0.000000
  0
VERTEX
  8
2
  62
0
  10
    27.200000
  20
    19.800000
  30
    0.000000
  0
VERTEX
  8
2
  62
0
  10
    25.800000
  20
    19.700000
  30
    0.000000
  0
VERTEX
  8
2
  62
0
  10
    24.700000
  20
    18.700000
  30
    0.000000
  0
VERTEX
  8
2
  62
0
  10
    24.200000
  20
    18.500000
  30
    0.000000
  0
VERTEX
  8
2
  62
0
  10
    24.200000
  20
    18.000000
  30
    0.000000
  0
SEQEND
  0
POLYLINE
  8
2
  62
0
  66
1
  0
VERTEX
  8
2
  62
0
  10
    26.500000
  20
    3.000000
  30
    0.000000
  0
VERTEX
  8
2
  62
0
  10
    27.000000
  20
    3.900000
  30
    0.000000
  0
VERTEX
  8
2
  62
0
  10
    26.500000
  20
    5.700000
  30
    0.000000
  0
VERTEX
  8
2
  62
0
  10
    25.300000
  20
    5.800000
  30
    0.000000
  0
VERTEX
  8
2
  62
0
  10
    24.700000
  20
    4.100000
  30
    0.000000
  0
VERTEX
  8
2
  62
0
  10
    24.800000
  20
    3.400000
  30
    0.000000
  0
VERTEX
  8
2
  62
0
  10
    25.900000
  20
    2.900000
  30
    0.000000
  0
VERTEX
  8
2
  62
0
  10
    26.500000
  20
    3.000000
  30
    0.000000
  0
SEQEND
  0
POLYLINE
  8
2
  62
0
  66
1
  0
VERTEX
  8
2
  62
0
  10
    24.700000
  20
    0.600000
  30
    0.000000
  0
VERTEX
  8
2
  62
0
  10
    24.800000
  20
    0.000000
  30
    0.000000
  0
VERTEX
  8
2
  62
0
  10
    32.900000
  20
    0.000000
  30
    0.000000
  0
VERTEX
  8
2
  62
0
  10
    32.700000
  20
    0.900000
  30
    0.000000
  0
VERTEX
  8
2
  62
0
  10
    30.800000
  20
    2.200000
  30
    0.000000
  0
VERTEX
  8
2
  62
0
  10
    30.100000
  20
    3.300000
  30
    0.000000
  0
VERTEX
  8
2
  62
0
  10
    28.800000
  20
    4.400000
  30
    0.000000
  0
VERTEX
  8
2
  62
0
  10
    27.900000
  20
    4.300000
  30
    0.000000
  0
VERTEX
  8
2
  62
0
  10
    27.600000
  20
    2.700000
  30
    0.000000
  0
VERTEX
  8
2
  62
0
  10
    26.800000
  20
    1.600000
  30
    0.000000
  0
VERTEX
  8
2
  62
0
  10
    25.500000
  20
    1.200000
  30
    0.000000
  0
VERTEX
  8
2
  62
0
  10
    24.700000
  20
    0.600000
  30
    0.000000
  0
SEQEND
  0
POLYLINE
  8
2
  62
0
  66
1
  0
VERTEX
  8
2
  62
0
  10
    26.700000
  20
    31.200000
  30
    0.000000
  0
VERTEX
  8
2
  62
0
  10
    26.700000
  20
    32.200000
  30
    0.000000
  0
VERTEX
  8
2
  62
0
  10
    25.800000
  20
    33.100000
  30
    0.000000
  0
VERTEX
  8
2
  62
0
  10
    25.200000
  20
    33.200000
  30
    0.000000
  0
VERTEX
  8
2
  62
0
  10
    24.900000
  20
    32.400000
  30
    0.000000
  0
VERTEX
  8
2
  62
0
  10
    25.300000
  20
    31.300000
  30
    0.000000
  0
VERTEX
  8
2
  62
0
  10
    26.000000
  20
    31.100000
  30
    0.000000
  0
VERTEX
  8
2
  62
0
  10
    26.700000
  20
    31.200000
  30
    0.000000
  0
SEQEND
  0
POLYLINE
  8
2
  62
0
  66
1
  0
VERTEX
  8
2
  62
0
  10
    24.900000
  20
    23.300000
  30
    0.000000
  0
VERTEX
  8
2
  62
0
  10
    25.900000
  20
    22.600000
  30
    0.000000
  0
VERTEX
  8
2
  62
0
  10
    26.900000
  20
    22.600000
  30
    0.000000
  0
VERTEX
  8
2
  62
0
  10
    28.300000
  20
    23.600000
  30
    0.000000
  0
VERTEX
  8
2
  62
0
  10
    28.600000
  20
    24.500000
  30
    0.000000
  0
VERTEX
  8
2
  62
0
  10
    26.800000
  20
    24.500000
  30
    0.000000
  0
VERTEX
  8
2
  62
0
  10
    24.900000
  20
    23.600000
  30
    0.000000
  0
VERTEX
  8
2
  62
0
  10
    24.900000
  20
    23.300000
  30
    0.000000
  0
SEQEND
  0
POLYLINE
  8
2
  62
0
  66
1
  0
VERTEX
  8
2
  62
0
  10
    24.900000
  20
    8.700000
  30
    0.000000
  0
VERTEX
  8
2
  62
0
  10
    25.600000
  20
    7.200000
  30
    0.000000
  0
VERTEX
  8
2
  62
0
  10
    26.400000
  20
    7.200000
  30
    0.000000
  0
VERTEX
  8
2
  62
0
  10
    27.100000
  20
    7.600000
  30
    0.000000
  0
VERTEX
  8
2
  62
0
  10
    27.000000
  20
    8.300000
  30
    0.000000
  0
VERTEX
  8
2
  62
0
  10
    26.200000
  20
    9.100000
  30
    0.000000
  0
VERTEX
  8
2
  62
0
  10
    25.900000
  20
    9.100000
  30
    0.000000
  0
VERTEX
  8
2
  62
0
  10
    25.500000
  20
    8.700000
  30
    0.000000
  0
VERTEX
  8
2
  62
0
  10
    24.900000
  20
    8.700000
  30
    0.000000
  0
SEQEND
  0
POLYLINE
  8
2
  62
0
  66
1
  0
VERTEX
  8
2
  62
0
  10
    25.400000
  20
    28.200000
  30
    0.000000
  0
VERTEX
  8
2
  62
0
  10
    25.800000
  20
    27.400000
  30
    0.000000
  0
VERTEX
  8
2
  62
0
  10
    26.500000
  20
    27.100000
  30
    0.000000
  0
VERTEX
  8
2
  62
0
  10
    26.800000
  20
    27.300000
  30
    0.000000
  0
VERTEX
  8
2
  62
0
  10
    26.500000
  20
    28.100000
  30
    0.000000
  0
VERTEX
  8
2
  62
0
  10
    25.800000
  20
    28.400000
  30
    0.000000
  0
VERTEX
  8
2
  62
0
  10
    25.400000
  20
    28.200000
  30
    0.000000
  0
SEQEND
  0
POLYLINE
  8
2
  62
0
  66
1
  0
VERTEX
  8
2
  62
0
  10
    25.500000
  20
    21.600000
  30
    0.000000
  0
VERTEX
  8
2
  62
0
  10
    26.400000
  20
    20.700000
  30
    0.000000
  0
VERTEX
  8
2
  62
0
  10
    27.100000
  20
    20.500000
  30
    0.000000
  0
VERTEX
  8
2
  62
0
  10
    27.100000
  20
    21.200000
  30
    0.000000
  0
VERTEX
  8
2
  62
0
  10
    27.600000
  20
    21.600000
  30
    0.000000
  0
VERTEX
  8
2
  62
0
  10
    27.600000
  20
    22.000000
  30
    0.000000
  0
VERTEX
  8
2
  62
0
  10
    25.600000
  20
    22.000000
  30
    0.000000
  0
VERTEX
  8
2
  62
0
  10
    25.500000
  20
    21.600000
  30
    0.000000
  0
SEQEND
  0
POLYLINE
  8
2
  62
0
  66
1
  0
VERTEX
  8
2
  62
0
  10
    25.700000
  20
    15.200000
  30
    0.000000
  0
VERTEX
  8
2
  62
0
  10
    25.700000
  20
    14.800000
  30
    0.000000
  0
VERTEX
  8
2
  62
0
  10
    26.100000
  20
    14.200000
  30
    0.000000
  0
VERTEX
  8
2
  62
0
  10
    26.200000
  20
    12.900000
  30
    0.000000
  0
VERTEX
  8
2
  62
0
  10
    26.800000
  20
    13.000000
  30
    0.000000
  0
VERTEX
  8
2
  62
0
  10
    27.200000
  20
    12.900000
  30
    0.000000
  0
VERTEX
  8
2
  62
0
  10
    27.400000
  20
    12.500000
  30
    0.000000
  0
VERTEX
  8
2
  62
0
  10
    27.800000
  20
    12.500000
  30
    0.000000
  0
VERTEX
  8
2
  62
0
  10
    27.800000
  20
    12.900000
  30
    0.000000
  0
VERTEX
  8
2
  62
0
  10
    26.800000
  20
    14.900000
  30
    0.000000
  0
VERTEX
  8
2
  62
0
  10
    26.600000
  20
    15.100000
  30
    0.000000
  0
VERTEX
  8
2
  62
0
  10
    25.700000
  20
    15.200000
  30
    0.000000
  0
SEQEND
  0
POLYLINE
  8
2
  62
0
  66
1
  0
VERTEX
  8
2
  62
0
  10
    26.100000
  20
    16.300000
  30
    0.000000
  0
VERTEX
  8
2
  62
0
  10
    26.700000
  20
    16.200000
  30
    0.000000
  0
VERTEX
  8
2
  62
0
  10
    27.200000
  20
    16.500000
  30
    0.000000
  0
VERTEX
  8
2
  62
0
  10
    27.600000
  20
    17.100000
  30
    0.000000
  0
VERTEX
  8
2
  62
0
  10
    28.100000
  20
    17.300000
  30
    0.000000
  0
VERTEX
  8
2
  62
0
  10
    28.100000
  20
    18.000000
  30
    0.000000
  0
VERTEX
  8
2
  62
0
  10
    27.600000
  20
    18.300000
  30
    0.000000
  0
VERTEX
  8
2
  62
0
  10
    27.200000
  20
    18.200000
  30
    0.000000
  0
VERTEX
  8
2
  62
0
  10
    25.900000
  20
    16.800000
  30
    0.000000
  0
VERTEX
  8
2
  62
0
  10
    26.100000
  20
    16.300000
  30
    0.000000
  0
SEQEND
  0
POLYLINE
  8
2
  62
0
  66
1
  0
VERTEX
  8
2
  62
0
  10
    26.300000
  20
    35.000000
  30
    0.000000
  0
VERTEX
  8
2
  62
0
  10
    26.300000
  20
    34.300000
  30
    0.000000
  0
VERTEX
  8
2
  62
0
  10
    27.000000
  20
    33.100000
  30
    0.000000
  0
VERTEX
  8
2
  62
0
  10
    27.500000
  20
    32.900000
  30
    0.000000
  0
VERTEX
  8
2
  62
0
  10
    27.600000
  20
    33.700000
  30
    0.000000
  0
VERTEX
  8
2
  62
0
  10
    28.000000
  20
    33.700000
  30
    0.000000
  0
VERTEX
  8
2
  62
0
  10
    28.000000
  20
    34.100000
  30
    0.000000
  0
VERTEX
  8
2
  62
0
  10
    27.400000
  20
    35.000000
  30
    0.000000
  0
VERTEX
  8
2
  62
0
  10
    26.300000
  20
    35.000000
  30
    0.000000
  0
SEQEND
  0
POLYLINE
  8
2
  62
0
  66
1
  0
VERTEX
  8
2
  62
0
  10
    26.300000
  20
    26.300000
  30
    0.000000
  0
VERTEX
  8
2
  62
0
  10
    26.300000
  20
    26.000000
  30
    0.000000
  0
VERTEX
  8
2
  62
0
  10
    26.900000
  20
    25.600000
  30
    0.000000
  0
VERTEX
  8
2
  62
0
  10
    27.500000
  20
    25.600000
  30
    0.000000
  0
VERTEX
  8
2
  62
0
  10
    27.800000
  20
    26.000000
  30
    0.000000
  0
VERTEX
  8
2
  62
0
  10
    27.800000
  20
    26.300000
  30
    0.000000
  0
VERTEX
  8
2
  62
0
  10
    27.200000
  20
    26.600000
  30
    0.000000
  0
VERTEX
  8
2
  62
0
  10
    26.300000
  20
    26.300000
  30
    0.000000
  0
SEQEND
  0
POLYLINE
  8
2
  62
0
  66
1
  0
VERTEX
  8
2
  62
0
  10
    26.700000
  20
    28.800000
  30
    0.000000
  0
VERTEX
  8
2
  62
0
  10
    26.700000
  20
    28.400000
  30
    0.000000
  0
VERTEX
  8
2
  62
0
  10
    27.200000
  20
    28.400000
  30
    0.000000
  0
VERTEX
  8
2
  62
0
  10
    27.800000
  20
    27.900000
  30
    0.000000
  0
VERTEX
  8
2
  62
0
  10
    28.200000
  20
    27.900000
  30
    0.000000
  0
VERTEX
  8
2
  62
0
  10
    28.200000
  20
    28.300000
  30
    0.000000
  0
VERTEX
  8
2
  62
0
  10
    27.700000
  20
    28.900000
  30
    0.000000
  0
VERTEX
  8
2
  62
0
  10
    27.100000
  20
    29.000000
  30
    0.000000
  0
VERTEX
  8
2
  62
0
  10
    26.700000
  20
    28.800000
  30
    0.000000
  0
SEQEND
  0
POLYLINE
  8
2
  62
0
  66
1
  0
VERTEX
  8
2
  62
0
  10
    26.900000
  20
    26.900000
  30
    0.000000
  0
VERTEX
  8
2
  62
0
  10
    27.500000
  20
    26.800000
  30
    0.000000
  0
VERTEX
  8
2
  62
0
  10
    27.800000
  20
    27.600000
  30
    0.000000
  0
VERTEX
  8
2
  62
0
  10
    27.200000
  20
    27.800000
  30
    0.000000
  0
VERTEX
  8
2
  62
0
  10
    26.900000
  20
    26.900000
  30
    0.000000
  0
SEQEND
  0
POLYLINE
  8
2
  62
0
  66
1
  0
VERTEX
  8
2
  62
0
  10
    29.400000
  20
    28.200000
  30
    0.000000
  0
VERTEX
  8
2
  62
0
  10
    30.300000
  20
    29.800000
  30
    0.000000
  0
VERTEX
  8
2
  62
0
  10
    30.300000
  20
    30.400000
  30
    0.000000
  0
VERTEX
  8
2
  62
0
  10
    29.400000
  20
    31.200000
  30
    0.000000
  0
VERTEX
  8
2
  62
0
  10
    28.300000
  20
    31.500000
  30
    0.000000
  0
VERTEX
  8
2
  62
0
  10
    28.300000
  20
    31.300000
  30
    0.000000
  0
VERTEX
  8
2
  62
0
  10
    27.800000
  20
    31.100000
  30
    0.000000
  0
VERTEX
  8
2
  62
0
  10
    27.400000
  20
    29.800000
  30
    0.000000
  0
VERTEX
  8
2
  62
0
  10
    27.900000
  20
    29.000000
  30
    0.000000
  0
VERTEX
  8
2
  62
0
  10
    28.700000
  20
    28.400000
  30
    0.000000
  0
VERTEX
  8
2
  62
0
  10
    29.400000
  20
    28.200000
  30
    0.000000
  0
SEQEND
  0
POLYLINE
  8
2
  62
0
  66
1
  0
VERTEX
  8
2
  62
0
  10
    27.600000
  20
    14.800000
  30
    0.000000
  0
VERTEX
  8
2
  62
0
  10
    27.700000
  20
    13.900000
  30
    0.000000
  0
VERTEX
  8
2
  62
0
  10
    28.400000
  20
    13.400000
  30
    0.000000
  0
VERTEX
  8
2
  62
0
  10
    28.600000
  20
    12.900000
  30
    0.000000
  0
VERTEX
  8
2
  62
0
  10
    29.000000
  20
    13.000000
  30
    0.000000
  0
VERTEX
  8
2
  62
0
  10
    29.100000
  20
    13.500000
  30
    0.000000
  0
VERTEX
  8
2
  62
0
  10
    28.800000
  20
    14.300000
  30
    0.000000
  0
VERTEX
  8
2
  62
0
  10
    28.300000
  20
    14.700000
  30
    0.000000
  0
VERTEX
  8
2
  62
0
  10
    27.600000
  20
    14.800000
  30
    0.000000
  0
SEQEND
  0
POLYLINE
  8
2
  62
0
  66
1
  0
VERTEX
  8
2
  62
0
  10
    27.700000
  20
    15.500000
  30
    0.000000
  0
VERTEX
  8
2
  62
0
  10
    28.600000
  20
    15.500000
  30
    0.000000
  0
VERTEX
  8
2
  62
0
  10
    28.900000
  20
    14.900000
  30
    0.000000
  0
VERTEX
  8
2
  62
0
  10
    29.400000
  20
    14.900000
  30
    0.000000
  0
VERTEX
  8
2
  62
0
  10
    29.800000
  20
    14.400000
  30
    0.000000
  0
VERTEX
  8
2
  62
0
  10
    30.100000
  20
    14.400000
  30
    0.000000
  0
VERTEX
  8
2
  62
0
  10
    30.400000
  20
    16.200000
  30
    0.000000
  0
VERTEX
  8
2
  62
0
  10
    28.500000
  20
    16.500000
  30
    0.000000
  0
VERTEX
  8
2
  62
0
  10
    27.700000
  20
    15.800000
  30
    0.000000
  0
VERTEX
  8
2
  62
0
  10
    27.700000
  20
    15.500000
  30
    0.000000
  0
SEQEND
  0
POLYLINE
  8
2
  62
0
  66
1
  0
VERTEX
  8
2
  62
0
  10
    27.700000
  20
    7.700000
  30
    0.000000
  0
VERTEX
  8
2
  62
0
  10
    27.800000
  20
    6.500000
  30
    0.000000
  0
VERTEX
  8
2
  62
0
  10
    28.600000
  20
    5.500000
  30
    0.000000
  0
VERTEX
  8
2
  62
0
  10
    29.300000
  20
    4.800000
  30
    0.000000
  0
VERTEX
  8
2
  62
0
  10
    30.800000
  20
    4.100000
  30
    0.000000
  0
VERTEX
  8
2
  62
0
  10
    31.300000
  20
    3.400000
  30
    0.000000
  0
VERTEX
  8
2
  62
0
  10
    32.200000
  20
    2.700000
  30
    0.000000
  0
VERTEX
  8
2
  62
0
  10
    33.100000
  20
    3.400000
  30
    0.000000
  0
VERTEX
  8
2
  62
0
  10
    34.600000
  20
    5.800000
  30
    0.000000
  0
VERTEX
  8
2
  62
0
  10
    34.600000
  20
    6.500000
  30
    0.000000
  0
VERTEX
  8
2
  62
0
  10
    32.300000
  20
    7.400000
  30
    0.000000
  0
VERTEX
  8
2
  62
0
  10
    31.000000
  20
    7.400000
  30
    0.000000
  0
VERTEX
  8
2
  62
0
  10
    29.700000
  20
    7.800000
  30
    0.000000
  0
VERTEX
  8
2
  62
0
  10
    27.700000
  20
    7.700000
  30
    0.000000
  0
SEQEND
  0
POLYLINE
  8
2
  62
0
  66
1
  0
VERTEX
  8
2
  62
0
  10
    29.400000
  20
    31.700000
  30
    0.000000
  0
VERTEX
  8
2
  62
0
  10
    29.400000
  20
    32.100000
  30
    0.000000
  0
VERTEX
  8
2
  62
0
  10
    28.900000
  20
    32.900000
  30
    0.000000
  0
VERTEX
  8
2
  62
0
  10
    29.100000
  20
    33.400000
  30
    0.000000
  0
VERTEX
  8
2
  62
0
  10
    28.900000
  20
    33.800000
  30
    0.000000
  0
VERTEX
  8
2
  62
0
  10
    28.400000
  20
    33.800000
  30
    0.000000
  0
VERTEX
  8
2
  62
0
  10
    27.800000
  20
    32.300000
  30
    0.000000
  0
VERTEX
  8
2
  62
0
  10
    29.000000
  20
    31.700000
  30
    0.000000
  0
VERTEX
  8
2
  62
0
  10
    29.400000
  20
    31.700000
  30
    0.000000
  0
SEQEND
  0
POLYLINE
  8
2
  62
0
  66
1
  0
VERTEX
  8
2
  62
0
  10
    28.000000
  20
    8.900000
  30
    0.000000
  0
VERTEX
  8
2
  62
0
  10
    28.000000
  20
    8.600000
  30
    0.000000
  0
VERTEX
  8
2
  62
0
  10
    29.600000
  20
    8.100000
  30
    0.000000
  0
VERTEX
  8
2
  62
0
  10
    29.600000
  20
    8.500000
  30
    0.000000
  0
VERTEX
  8
2
  62
0
  10
    29.200000
  20
    8.800000
  30
    0.000000
  0
VERTEX
  8
2
  62
0
  10
    29.300000
  20
    9.100000
  30
    0.000000
  0
VERTEX
  8
2
  62
0
  10
    29.100000
  20
    9.300000
  30
    0.000000
  0
VERTEX
  8
2
  62
0
  10
    28.300000
  20
    9.200000
  30
    0.000000
  0
VERTEX
  8
2
  62
0
  10
    28.000000
  20
    8.900000
  30
    0.000000
  0
SEQEND
  0
POLYLINE
  8
2
  62
0
  66
1
  0
VERTEX
  8
2
  62
0
  10
    28.200000
  20
    21.000000
  30
    0.000000
  0
VERTEX
  8
2
  62
0
  10
    29.000000
  20
    21.100000
  30
    0.000000
  0
VERTEX
  8
2
  62
0
  10
    29.600000
  20
    21.700000
  30
    0.000000
  0
VERTEX
  8
2
  62
0
  10
    29.600000
  20
    22.300000
  30
    0.000000
  0
VERTEX
  8
2
  62
0
  10
    29.200000
  20
    22.400000
  30
    0.000000
  0
VERTEX
  8
2
  62
0
  10
    28.500000
  20
    22.100000
  30
    0.000000
  0
VERTEX
  8
2
  62
0
  10
    28.100000
  20
    21.500000
  30
    0.000000
  0
VERTEX
  8
2
  62
0
  10
    28.200000
  20
    21.000000
  30
    0.000000
  0
SEQEND
  0
POLYLINE
  8
2
  62
0
  66
1
  0
VERTEX
  8
2
  62
0
  10
    28.200000
  20
    12.300000
  30
    0.000000
  0
VERTEX
  8
2
  62
0
  10
    28.200000
  20
    11.600000
  30
    0.000000
  0
VERTEX
  8
2
  62
0
  10
    28.500000
  20
    10.900000
  30
    0.000000
  0
VERTEX
  8
2
  62
0
  10
    28.600000
  20
    10.700000
  30
    0.000000
  0
VERTEX
  8
2
  62
0
  10
    29.000000
  20
    10.700000
  30
    0.000000
  0
VERTEX
  8
2
  62
0
  10
    29.200000
  20
    11.500000
  30
    0.000000
  0
VERTEX
  8
2
  62
0
  10
    28.600000
  20
    12.300000
  30
    0.000000
  0
VERTEX
  8
2
  62
0
  10
    28.200000
  20
    12.300000
  30
    0.000000
  0
SEQEND
  0
POLYLINE
  8
2
  62
0
  66
1
  0
VERTEX
  8
2
  62
0
  10
    28.400000
  20
    27.100000
  30
    0.000000
  0
VERTEX
  8
2
  62
0
  10
    28.700000
  20
    26.900000
  30
    0.000000
  0
VERTEX
  8
2
  62
0
  10
    29.500000
  20
    27.000000
  30
    0.000000
  0
VERTEX
  8
2
  62
0
  10
    29.600000
  20
    27.400000
  30
    0.000000
  0
VERTEX
  8
2
  62
0
  10
    30.000000
  20
    27.500000
  30
    0.000000
  0
VERTEX
  8
2
  62
0
  10
    30.000000
  20
    27.900000
  30
    0.000000
  0
VERTEX
  8
2
  62
0
  10
    28.500000
  20
    27.600000
  30
    0.000000
  0
VERTEX
  8
2
  62
0
  10
    28.400000
  20
    27.100000
  30
    0.000000
  0
SEQEND
  0
POLYLINE
  8
2
  62
0
  66
1
  0
VERTEX
  8
2
  62
0
  10
    28.500000
  20
    26.200000
  30
    0.000000
  0
VERTEX
  8
2
  62
0
  10
    28.800000
  20
    25.300000
  30
    0.000000
  0
VERTEX
  8
2
  62
0
  10
    29.900000
  20
    24.300000
  30
    0.000000
  0
VERTEX
  8
2
  62
0
  10
    30.300000
  20
    24.300000
  30
    0.000000
  0
VERTEX
  8
2
  62
0
  10
    30.300000
  20
    24.700000
  30
    0.000000
  0
VERTEX
  8
2
  62
0
  10
    29.800000
  20
    25.600000
  30
    0.000000
  0
VERTEX
  8
2
  62
0
  10
    29.400000
  20
    25.800000
  30
    0.000000
  0
VERTEX
  8
2
  62
0
  10
    29.300000
  20
    26.100000
  30
    0.000000
  0
VERTEX
  8
2
  62
0
  10
    28.500000
  20
    26.200000
  30
    0.000000
  0
SEQEND
  0
POLYLINE
  8
2
  62
0
  66
1
  0
VERTEX
  8
2
  62
0
  10
    28.800000
  20
    18.600000
  30
    0.000000
  0
VERTEX
  8
2
  62
0
  10
    29.300000
  20
    18.600000
  30
    0.000000
  0
VERTEX
  8
2
  62
0
  10
    29.900000
  20
    19.500000
  30
    0.000000
  0
VERTEX
  8
2
  62
0
  10
    29.900000
  20
    19.800000
  30
    0.000000
  0
VERTEX
  8
2
  62
0
  10
    29.300000
  20
    20.300000
  30
    0.000000
  0
VERTEX
  8
2
  62
0
  10
    28.600000
  20
    19.400000
  30
    0.000000
  0
VERTEX
  8
2
  62
0
  10
    28.600000
  20
    18.800000
  30
    0.000000
  0
VERTEX
  8
2
  62
0
  10
    28.800000
  20
    18.600000
  30
    0.000000
  0
SEQEND
  0
POLYLINE
  8
2
  62
0
  66
1
  0
VERTEX
  8
2
  62
0
  10
    30.400000
  20
    16.700000
  30
    0.000000
  0
VERTEX
  8
2
  62
0
  10
    30.500000
  20
    17.100000
  30
    0.000000
  0
VERTEX
  8
2
  62
0
  10
    29.800000
  20
    17.900000
  30
    0.000000
  0
VERTEX
  8
2
  62
0
  10
    29.800000
  20
    18.200000
  30
    0.000000
  0
VERTEX
  8
2
  62
0
  10
    29.300000
  20
    18.100000
  30
    0.000000
  0
VERTEX
  8
2
  62
0
  10
    29.300000
  20
    17.300000
  30
    0.000000
  0
VERTEX
  8
2
  62
0
  10
    29.700000
  20
    16.900000
  30
    0.000000
  0
VERTEX
  8
2
  62
0
  10
    30.400000
  20
    16.700000
  30
    0.000000
  0
SEQEND
  0
POLYLINE
  8
2
  62
0
  66
1
  0
VERTEX
  8
2
  62
0
  10
    30.200000
  20
    22.900000
  30
    0.000000
  0
VERTEX
  8
2
  62
0
  10
    30.400000
  20
    23.100000
  30
    0.000000
  0
VERTEX
  8
2
  62
0
  10
    30.300000
  20
    23.800000
  30
    0.000000
  0
VERTEX
  8
2
  62
0
  10
    29.500000
  20
    24.000000
  30
    0.000000
  0
VERTEX
  8
2
  62
0
  10
    29.500000
  20
    23.200000
  30
    0.000000
  0
VERTEX
  8
2
  62
0
  10
    29.800000
  20
    22.900000
  30
    0.000000
  0
VERTEX
  8
2
  62
0
  10
    30.200000
  20
    22.900000
  30
    0.000000
  0
SEQEND
  0
POLYLINE
  8
2
  62
0
  66
1
  0
VERTEX
  8
2
  62
0
  10
    29.500000
  20
    32.500000
  30
    0.000000
  0
VERTEX
  8
2
  62
0
  10
    30.700000
  20
    32.100000
  30
    0.000000
  0
VERTEX
  8
2
  62
0
  10
    31.300000
  20
    32.500000
  30
    0.000000
  0
VERTEX
  8
2
  62
0
  10
    32.500000
  20
    32.700000
  30
    0.000000
  0
VERTEX
  8
2
  62
0
  10
    32.700000
  20
    32.900000
  30
    0.000000
  0
VERTEX
  8
2
  62
0
  10
    32.700000
  20
    33.500000
  30
    0.000000
  0
VERTEX
  8
2
  62
0
  10
    32.300000
  20
    35.000000
  30
    0.000000
  0
VERTEX
  8
2
  62
0
  10
    29.900000
  20
    35.000000
  30
    0.000000
  0
VERTEX
  8
2
  62
0
  10
    29.900000
  20
    33.700000
  30
    0.000000
  0
VERTEX
  8
2
  62
0
  10
    29.500000
  20
    32.500000
  30
    0.000000
  0
SEQEND
  0
POLYLINE
  8
2
  62
0
  66
1
  0
VERTEX
  8
2
  62
0
  10
    32.700000
  20
    19.200000
  30
    0.000000
  0
VERTEX
  8
2
  62
0
  10
    32.700000
  20
    19.800000
  30
    0.000000
  0
VERTEX
  8
2
  62
0
  10
    31.800000
  20
    21.100000
  30
    0.000000
  0
VERTEX
  8
2
  62
0
  10
    31.000000
  20
    21.700000
  30
    0.000000
  0
VERTEX
  8
2
  62
0
  10
    29.600000
  20
    21.600000
  30
    0.000000
  0
VERTEX
  8
2
  62
0
  10
    29.500000
  20
    20.700000
  30
    0.000000
  0
VERTEX
  8
2
  62
0
  10
    29.700000
  20
    20.500000
  30
    0.000000
  0
VERTEX
  8
2
  62
0
  10
    30.500000
  20
    20.500000
  30
    0.000000
  0
VERTEX
  8
2
  62
0
  10
    31.600000
  20
    19.900000
  30
    0.000000
  0
VERTEX
  8
2
  62
0
  10
    32.300000
  20
    19.200000
  30
    0.000000
  0
VERTEX
  8
2
  62
0
  10
    32.700000
  20
    19.200000
  30
    0.000000
  0
SEQEND
  0
POLYLINE
  8
2
  62
0
  66
1
  0
VERTEX
  8
2
  62
0
  10
    30.600000
  20
    9.800000
  30
    0.000000
  0
VERTEX
  8
2
  62
0
  10
    31.000000
  20
    10.300000
  30
    0.000000
  0
VERTEX
  8
2
  62
0
  10
    31.300000
  20
    12.100000
  30
    0.000000
  0
VERTEX
  8
2
  62
0
  10
    29.600000
  20
    12.900000
  30
    0.000000
  0
VERTEX
  8
2
  62
0
  10
    29.500000
  20
    12.500000
  30
    0.000000
  0
VERTEX
  8
2
  62
0
  10
    29.900000
  20
    10.100000
  30
    0.000000
  0
VERTEX
  8
2
  62
0
  10
    30.100000
  20
    9.800000
  30
    0.000000
  0
VERTEX
  8
2
  62
0
  10
    30.600000
  20
    9.800000
  30
    0.000000
  0
SEQEND
  0
POLYLINE
  8
2
  62
0
  66
1
  0
VERTEX
  8
2
  62
0
  10
    30.000000
  20
    25.900000
  30
    0.000000
  0
VERTEX
  8
2
  62
0
  10
    30.800000
  20
    25.900000
  30
    0.000000
  0
VERTEX
  8
2
  62
0
  10
    30.800000
  20
    26.200000
  30
    0.000000
  0
VERTEX
  8
2
  62
0
  10
    31.300000
  20
    26.500000
  30
    0.000000
  0
VERTEX
  8
2
  62
0
  10
    31.500000
  20
    27.400000
  30
    0.000000
  0
VERTEX
  8
2
  62
0
  10
    32.200000
  20
    28.000000
  30
    0.000000
  0
VERTEX
  8
2
  62
0
  10
    32.600000
  20
    29.000000
  30
    0.000000
  0
VERTEX
  8
2
  62
0
  10
    33.000000
  20
    29.400000
  30
    0.000000
  0
VERTEX
  8
2
  62
0
  10
    33.000000
  20
    30.000000
  30
    0.000000
  0
VERTEX
  8
2
  62
0
  10
    32.600000
  20
    30.000000
  30
    0.000000
  0
VERTEX
  8
2
  62
0
  10
    31.900000
  20
    29.300000
  30
    0.000000
  0
VERTEX
  8
2
  62
0
  10
    31.500000
  20
    28.400000
  30
    0.000000
  0
VERTEX
  8
2
  62
0
  10
    30.700000
  20
    27.800000
  30
    0.000000
  0
VERTEX
  8
2
  62
0
  10
    30.100000
  20
    26.800000
  30
    0.000000
  0
VERTEX
  8
2
  62
0
  10
    30.000000
  20
    25.900000
  30
    0.000000
  0
SEQEND
  0
POLYLINE
  8
2
  62
0
  66
1
  0
VERTEX
  8
2
  62
0
  10
    30.200000
  20
    21.900000
  30
    0.000000
  0
VERTEX
  8
2
  62
0
  10
    30.900000
  20
    22.300000
  30
    0.000000
  0
VERTEX
  8
2
  62
0
  10
    31.100000
  20
    23.000000
  30
    0.000000
  0
VERTEX
  8
2
  62
0
  10
    30.500000
  20
    23.100000
  30
    0.000000
  0
VERTEX
  8
2
  62
0
  10
    30.100000
  20
    22.500000
  30
    0.000000
  0
VERTEX
  8
2
  62
0
  10
    30.200000
  20
    21.900000
  30
    0.000000
  0
SEQEND
  0
POLYLINE
  8
2
  62
0
  66
1
  0
VERTEX
  8
2
  62
0
  10
    30.200000
  20
    19.600000
  30
    0.000000
  0
VERTEX
  8
2
  62
0
  10
    31.200000
  20
    18.600000
  30
    0.000000
  0
VERTEX
  8
2
  62
0
  10
    31.800000
  20
    18.800000
  30
    0.000000
  0
VERTEX
  8
2
  62
0
  10
    30.900000
  20
    19.800000
  30
    0.000000
  0
VERTEX
  8
2
  62
0
  10
    30.200000
  20
    19.600000
  30
    0.000000
  0
SEQEND
  0
POLYLINE
  8
2
  62
0
  66
1
  0
VERTEX
  8
2
  62
0
  10
    30.600000
  20
    8.100000
  30
    0.000000
  0
VERTEX
  8
2
  62
0
  10
    31.600000
  20
    9.000000
  30
    0.000000
  0
VERTEX
  8
2
  62
0
  10
    31.900000
  20
    9.600000
  30
    0.000000
  0
VERTEX
  8
2
  62
0
  10
    31.800000
  20
    9.800000
  30
    0.000000
  0
VERTEX
  8
2
  62
0
  10
    31.300000
  20
    10.000000
  30
    0.000000
  0
VERTEX
  8
2
  62
0
  10
    30.600000
  20
    9.600000
  30
    0.000000
  0
VERTEX
  8
2
  62
0
  10
    30.400000
  20
    9.000000
  30
    0.000000
  0
VERTEX
  8
2
  62
0
  10
    30.600000
  20
    8.100000
  30
    0.000000
  0
SEQEND
  0
POLYLINE
  8
2
  62
0
  66
1
  0
VERTEX
  8
2
  62
0
  10
    30.800000
  20
    30.300000
  30
    0.000000
  0
VERTEX
  8
2
  62
0
  10
    31.900000
  20
    30.100000
  30
    0.000000
  0
VERTEX
  8
2
  62
0
  10
    31.900000
  20
    30.700000
  30
    0.000000
  0
VERTEX
  8
2
  62
0
  10
    32.300000
  20
    30.800000
  30
    0.000000
  0
VERTEX
  8
2
  62
0
  10
    32.100000
  20
    32.000000
  30
    0.000000
  0
VERTEX
  8
2
  62
0
  10
    31.700000
  20
    32.000000
  30
    0.000000
  0
VERTEX
  8
2
  62
0
  10
    31.600000
  20
    31.600000
  30
    0.000000
  0
VERTEX
  8
2
  62
0
  10
    30.900000
  20
    31.500000
  30
    0.000000
  0
VERTEX
  8
2
  62
0
  10
    30.600000
  20
    31.100000
  30
    0.000000
  0
VERTEX
  8
2
  62
0
  10
    30.600000
  20
    30.500000
  30
    0.000000
  0
VERTEX
  8
2
  62
0
  10
    30.800000
  20
    30.300000
  30
    0.000000
  0
SEQEND
  0
POLYLINE
  8
2
  62
0
  66
1
  0
VERTEX
  8
2
  62
0
  10
    30.700000
  20
    14.800000
  30
    0.000000
  0
VERTEX
  8
2
  62
0
  10
    32.000000
  20
    14.900000
  30
    0.000000
  0
VERTEX
  8
2
  62
0
  10
    32.900000
  20
    15.800000
  30
    0.000000
  0
VERTEX
  8
2
  62
0
  10
    33.300000
  20
    16.800000
  30
    0.000000
  0
VERTEX
  8
2
  62
0
  10
    33.700000
  20
    17.200000
  30
    0.000000
  0
VERTEX
  8
2
  62
0
  10
    33.900000
  20
    19.900000
  30
    0.000000
  0
VERTEX
  8
2
  62
0
  10
    33.600000
  20
    19.900000
  30
    0.000000
  0
VERTEX
  8
2
  62
0
  10
    33.200000
  20
    19.100000
  30
    0.000000
  0
VERTEX
  8
2
  62
0
  10
    32.800000
  20
    18.900000
  30
    0.000000
  0
VERTEX
  8
2
  62
0
  10
    32.600000
  20
    18.100000
  30
    0.000000
  0
VERTEX
  8
2
  62
0
  10
    31.100000
  20
    16.200000
  30
    0.000000
  0
VERTEX
  8
2
  62
0
  10
    30.700000
  20
    14.800000
  30
    0.000000
  0
SEQEND
  0
POLYLINE
  8
2
  62
0
  66
1
  0
VERTEX
  8
2
  62
0
  10
    30.800000
  20
    13.900000
  30
    0.000000
  0
VERTEX
  8
2
  62
0
  10
    30.900000
  20
    13.400000
  30
    0.000000
  0
VERTEX
  8
2
  62
0
  10
    31.800000
  20
    12.800000
  30
    0.000000
  0
VERTEX
  8
2
  62
0
  10
    32.000000
  20
    12.300000
  30
    0.000000
  0
VERTEX
  8
2
  62
0
  10
    32.600000
  20
    12.400000
  30
    0.000000
  0
VERTEX
  8
2
  62
0
  10
    32.600000
  20
    13.000000
  30
    0.000000
  0
VERTEX
  8
2
  62
0
  10
    32.300000
  20
    13.600000
  30
    0.000000
  0
VERTEX
  8
2
  62
0
  10
    32.100000
  20
    13.600000
  30
    0.000000
  0
VERTEX
  8
2
  62
0
  10
    32.200000
  20
    14.200000
  30
    0.000000
  0
VERTEX
  8
2
  62
0
  10
    31.800000
  20
    14.200000
  30
    0.000000
  0
VERTEX
  8
2
  62
0
  10
    31.500000
  20
    13.900000
  30
    0.000000
  0
VERTEX
  8
2
  62
0
  10
    30.800000
  20
    13.900000
  30
    0.000000
  0
SEQEND
  0
POLYLINE
  8
2
  62
0
  66
1
  0
VERTEX
  8
2
  62
0
  10
    31.400000
  20
    24.400000
  30
    0.000000
  0
VERTEX
  8
2
  62
0
  10
    32.000000
  20
    24.400000
  30
    0.000000
  0
VERTEX
  8
2
  62
0
  10
    32.200000
  20
    24.800000
  30
    0.000000
  0
VERTEX
  8
2
  62
0
  10
    32.500000
  20
    24.700000
  30
    0.000000
  0
VERTEX
  8
2
  62
0
  10
    32.600000
  20
    24.400000
  30
    0.000000
  0
VERTEX
  8
2
  62
0
  10
    32.900000
  20
    24.400000
  30
    0.000000
  0
VERTEX
  8
2
  62
0
  10
    32.800000
  20
    26.300000
  30
    0.000000
  0
VERTEX
  8
2
  62
0
  10
    32.600000
  20
    26.700000
  30
    0.000000
  0
VERTEX
  8
2
  62
0
  10
    31.900000
  20
    26.400000
  30
    0.000000
  0
VERTEX
  8
2
  62
0
  10
    31.700000
  20
    25.600000
  30
    0.000000
  0
VERTEX
  8
2
  62
0
  10
    31.300000
  20
    25.300000
  30
    0.000000
  0
VERTEX
  8
2
  62
0
  10
    31.400000
  20
    24.400000
  30
    0.000000
  0
SEQEND
  0
POLYLINE
  8
2
  62
0
  66
1
  0
VERTEX
  8
2
  62
0
  10
    33.600000
  20
    21.000000
  30
    0.000000
  0
VERTEX
  8
2
  62
0
  10
    33.600000
  20
    21.600000
  30
    0.000000
  0
VERTEX
  8
2
  62
0
  10
    33.900000
  20
    21.900000
  30
    0.000000
  0
VERTEX
  8
2
  62
0
  10
    33.000000
  20
    22.700000
  30
    0.000000
  0
VERTEX
  8
2
  62
0
  10
    32.200000
  20
    22.700000
  30
    0.000000
  0
VERTEX
  8
2
  62
0
  10
    32.000000
  20
    22.500000
  30
    0.000000
  0
VERTEX
  8
2
  62
0
  10
    32.000000
  20
    21.700000
  30
    0.000000
  0
VERTEX
  8
2
  62
0
  10
    32.500000
  20
    20.900000
  30
    0.000000
  0
VERTEX
  8
2
  62
0
  10
    33.300000
  20
    20.800000
  30
    0.000000
  0
VERTEX
  8
2
  62
0
  10
    33.600000
  20
    21.000000
  30
    0.000000
  0
SEQEND
  0
POLYLINE
  8
2
  62
0
  66
1
  0
VERTEX
  8
2
  62
0
  10
    32.000000
  20
    11.400000
  30
    0.000000
  0
VERTEX
  8
2
  62
0
  10
    32.000000
  20
    10.900000
  30
    0.000000
  0
VERTEX
  8
2
  62
0
  10
    32.500000
  20
    10.400000
  30
    0.000000
  0
VERTEX
  8
2
  62
0
  10
    32.900000
  20
    9.300000
  30
    0.000000
  0
VERTEX
  8
2
  62
0
  10
    33.900000
  20
    8.100000
  30
    0.000000
  0
VERTEX
  8
2
  62
0
  10
    34.200000
  20
    7.300000
  30
    0.000000
  0
VERTEX
  8
2
  62
0
  10
    34.400000
  20
    7.300000
  30
    0.000000
  0
VERTEX
  8
2
  62
0
  10
    34.700000
  20
    6.800000
  30
    0.000000
  0
VERTEX
  8
2
  62
0
  10
    35.300000
  20
    6.800000
  30
    0.000000
  0
VERTEX
  8
2
  62
0
  10
    35.500000
  20
    7.500000
  30
    0.000000
  0
VERTEX
  8
2
  62
0
  10
    34.700000
  20
    8.700000
  30
    0.000000
  0
VERTEX
  8
2
  62
0
  10
    34.400000
  20
    8.800000
  30
    0.000000
  0
VERTEX
  8
2
  62
0
  10
    34.100000
  20
    9.800000
  30
    0.000000
  0
VERTEX
  8
2
  62
0
  10
    33.400000
  20
    10.000000
  30
    0.000000
  0
VERTEX
  8
2
  62
0
  10
    33.400000
  20
    10.400000
  30
    0.000000
  0
VERTEX
  8
2
  62
0
  10
    33.200000
  20
    10.500000
  30
    0.000000
  0
VERTEX
  8
2
  62
0
  10
    33.400000
  20
    10.600000
  30
    0.000000
  0
VERTEX
  8
2
  62
0
  10
    33.300000
  20
    11.200000
  30
    0.000000
  0
VERTEX
  8
2
  62
0
  10
    33.100000
  20
    11.400000
  30
    0.000000
  0
VERTEX
  8
2
  62
0
  10
    32.000000
  20
    11.400000
  30
    0.000000
  0
SEQEND
  0
POLYLINE
  8
2
  62
0
  66
1
  0
VERTEX
  8
2
  62
0
  10
    33.000000
  20
    13.400000
  30
    0.000000
  0
VERTEX
  8
2
  62
0
  10
    33.300000
  20
    13.200000
  30
    0.000000
  0
VERTEX
  8
2
  62
0
  10
    33.900000
  20
    13.300000
  30
    0.000000
  0
VERTEX
  8
2
  62
0
  10
    34.500000
  20
    14.800000
  30
    0.000000
  0
VERTEX
  8
2
  62
0
  10
    33.000000
  20
    15.000000
  30
    0.000000
  0
VERTEX
  8
2
  62
0
  10
    32.600000
  20
    14.200000
  30
    0.000000
  0
VERTEX
  8
2
  62
0
  10
    33.000000
  20
    13.400000
  30
    0.000000
  0
SEQEND
  0
POLYLINE
  8
2
  62
0
  66
1
  0
VERTEX
  8
2
  62
0
  10
    32.800000
  20
    31.200000
  30
    0.000000
  0
VERTEX
  8
2
  62
0
  10
    33.600000
  20
    31.200000
  30
    0.000000
  0
VERTEX
  8
2
  62
0
  10
    33.900000
  20
    31.800000
  30
    0.000000
  0
VERTEX
  8
2
  62
0
  10
    33.600000
  20
    31.900000
  30
    0.000000
  0
VERTEX
  8
2
  62
0
  10
    33.300000
  20
    31.500000
  30
    0.000000
  0
VERTEX
  8
2
  62
0
  10
    32.800000
  20
    31.400000
  30
    0.000000
  0
VERTEX
  8
2
  62
0
  10
    32.800000
  20
    31.200000
  30
    0.000000
  0
SEQEND
  0
POLYLINE
  8
2
  62
0
  66
1
  0
VERTEX
  8
2
  62
0
  10
    33.000000
  20
    30.400000
  30
    0.000000
  0
VERTEX
  8
2
  62
0
  10
    33.600000
  20
    30.300000
  30
    0.000000
  0
VERTEX
  8
2
  62
0
  10
    34.300000
  20
    31.200000
  30
    0.000000
  0
VERTEX
  8
2
  62
0
  10
    34.000000
  20
    31.300000
  30
    0.000000
  0
VERTEX
  8
2
  62
0
  10
    33.000000
  20
    30.400000
  30
    0.000000
  0
SEQEND
  0
POLYLINE
  8
2
  62
0
  66
1
  0
VERTEX
  8
2
  62
0
  10
    33.800000
  20
    26.100000
  30
    0.000000
  0
VERTEX
  8
2
  62
0
  10
    33.900000
  20
    27.300000
  30
    0.000000
  0
VERTEX
  8
2
  62
0
  10
    33.600000
  20
    28.100000
  30
    0.000000
  0
VERTEX
  8
2
  62
0
  10
    33.200000
  20
    28.200000
  30
    0.000000
  0
VERTEX
  8
2
  62
0
  10
    33.200000
  20
    26.700000
  30
    0.000000
  0
VERTEX
  8
2
  62
0
  10
    33.500000
  20
    26.100000
  30
    0.000000
  0
VERTEX
  8
2
  62
0
  10
    33.800000
  20
    26.100000
  30
    0.000000
  0
SEQEND
  0
POLYLINE
  8
2
  62
0
  66
1
  0
VERTEX
  8
2
  62
0
  10
    33.400000
  20
    24.700000
  30
    0.000000
  0
VERTEX
  8
2
  62
0
  10
    33.500000
  20
    24.300000
  30
    0.000000
  0
VERTEX
  8
2
  62
0
  10
    34.900000
  20
    23.800000
  30
    0.000000
  0
VERTEX
  8
2
  62
0
  10
    35.900000
  20
    23.900000
  30
    0.000000
  0
VERTEX
  8
2
  62
0
  10
    35.800000
  20
    24.800000
  30
    0.000000
  0
VERTEX
  8
2
  62
0
  10
    34.500000
  20
    25.800000
  30
    0.000000
  0
VERTEX
  8
2
  62
0
  10
    34.100000
  20
    25.800000
  30
    0.000000
  0
VERTEX
  8
2
  62
0
  10
    34.000000
  20
    25.300000
  30
    0.000000
  0
VERTEX
  8
2
  62
0
  10
    33.400000
  20
    24.700000
  30
    0.000000
  0
SEQEND
  0
POLYLINE
  8
2
  62
0
  66
1
  0
VERTEX
  8
2
  62
0
  10
    33.400000
  20
    12.000000
  30
    0.000000
  0
VERTEX
  8
2
  62
0
  10
    33.700000
  20
    11.700000
  30
    0.000000
  0
VERTEX
  8
2
  62
0
  10
    34.900000
  20
    11.700000
  30
    0.000000
  0
VERTEX
  8
2
  62
0
  10
    35.300000
  20
    12.000000
  30
    0.000000
  0
VERTEX
  8
2
  62
0
  10
    35.300000
  20
    12.400000
  30
    0.000000
  0
VERTEX
  8
2
  62
0
  10
    34.600000
  20
    12.900000
  30
    0.000000
  0
VERTEX
  8
2
  62
0
  10
    33.800000
  20
    12.800000
  30
    0.000000
  0
VERTEX
  8
2
  62
0
  10
    33.400000
  20
    12.000000
  30
    0.000000
  0
SEQEND
  0
POLYLINE
  8
2
  62
0
  66
1
  0
VERTEX
  8
2
  62
0
  10
    36.000000
  20
    0.000000
  30
    0.000000
  0
VERTEX
  8
2
  62
0
  10
    35.400000
  20
    0.800000
  30
    0.000000
  0
VERTEX
  8
2
  62
0
  10
    35.300000
  20
    2.100000
  30
    0.000000
  0
VERTEX
  8
2
  62
0
  10
    34.700000
  20
    2.700000
  30
    0.000000
  0
VERTEX
  8
2
  62
0
  10
    34.400000
  20
    2.700000
  30
    0.000000
  0
VERTEX
  8
2
  62
0
  10
    34.300000
  20
    0.700000
  30
    0.000000
  0
VERTEX
  8
2
  62
0
  10
    33.800000
  20
    0.400000
  30
    0.000000
  0
VERTEX
  8
2
  62
0
  10
    33.800000
  20
    0.000000
  30
    0.000000
  0
VERTEX
  8
2
  62
0
  10
    36.000000
  20
    0.000000
  30
    0.000000
  0
SEQEND
  0
POLYLINE
  8
2
  62
0
  66
1
  0
VERTEX
  8
2
  62
0
  10
    33.900000
  20
    34.700000
  30
    0.000000
  0
VERTEX
  8
2
  62
0
  10
    34.000000
  20
    34.100000
  30
    0.000000
  0
VERTEX
  8
2
  62
0
  10
    35.000000
  20
    33.500000
  30
    0.000000
  0
VERTEX
  8
2
  62
0
  10
    35.300000
  20
    33.500000
  30
    0.000000
  0
VERTEX
  8
2
  62
0
  10
    36.000000
  20
    34.100000
  30
    0.000000
  0
VERTEX
  8
2
  62
0
  10
    36.000000
  20
    34.400000
  30
    0.000000
  0
VERTEX
  8
2
  62
0
  10
    35.600000
  20
    34.700000
  30
    0.000000
  0
VERTEX
  8
2
  62
0
  10
    33.900000
  20
    34.700000
  30
    0.000000
  0
SEQEND
  0
POLYLINE
  8
2
  62
0
  66
1
  0
VERTEX
  8
2
  62
0
  10
    34.000000
  20
    29.600000
  30
    0.000000
  0
VERTEX
  8
2
  62
0
  10
    34.000000
  20
    29.100000
  30
    0.000000
  0
VERTEX
  8
2
  62
0
  10
    34.300000
  20
    28.900000
  30
    0.000000
  0
VERTEX
  8
2
  62
0
  10
    36.300000
  20
    28.300000
  30
    0.000000
  0
VERTEX
  8
2
  62
0
  10
    36.300000
  20
    28.900000
  30
    0.000000
  0
VERTEX
  8
2
  62
0
  10
    35.500000
  20
    29.600000
  30
    0.000000
  0
VERTEX
  8
2
  62
0
  10
    34.000000
  20
    29.600000
  30
    0.000000
  0
SEQEND
  0
POLYLINE
  8
2
  62
0
  66
1
  0
VERTEX
  8
2
  62
0
  10
    34.200000
  20
    33.500000
  30
    0.000000
  0
VERTEX
  8
2
  62
0
  10
    34.300000
  20
    32.700000
  30
    0.000000
  0
VERTEX
  8
2
  62
0
  10
    35.100000
  20
    32.000000
  30
    0.000000
  0
VERTEX
  8
2
  62
0
  10
    35.400000
  20
    32.000000
  30
    0.000000
  0
VERTEX
  8
2
  62
0
  10
    35.500000
  20
    32.300000
  30
    0.000000
  0
VERTEX
  8
2
  62
0
  10
    35.300000
  20
    32.700000
  30
    0.000000
  0
VERTEX
  8
2
  62
0
  10
    34.200000
  20
    33.500000
  30
    0.000000
  0
SEQEND
  0
POLYLINE
  8
2
  62
0
  66
1
  0
VERTEX
  8
2
  62
0
  10
    34.200000
  20
    27.200000
  30
    0.000000
  0
VERTEX
  8
2
  62
0
  10
    35.200000
  20
    27.100000
  30
    0.000000
  0
VERTEX
  8
2
  62
0
  10
    35.800000
  20
    27.800000
  30
    0.000000
  0
VERTEX
  8
2
  62
0
  10
    35.400000
  20
    28.100000
  30
    0.000000
  0
VERTEX
  8
2
  62
0
  10
    35.000000
  20
    28.100000
  30
    0.000000
  0
VERTEX
  8
2
  62
0
  10
    34.200000
  20
    27.200000
  30
    0.000000
  0
SEQEND
  0
POLYLINE
  8
2
  62
0
  66
1
  0
VERTEX
  8
2
  62
0
  10
    34.900000
  20
    19.900000
  30
    0.000000
  0
VERTEX
  8
2
  62
0
  10
    35.300000
  20
    19.900000
  30
    0.000000
  0
VERTEX
  8
2
  62
0
  10
    35.400000
  20
    20.100000
  30
    0.000000
  0
VERTEX
  8
2
  62
0
  10
    35.200000
  20
    22.400000
  30
    0.000000
  0
VERTEX
  8
2
  62
0
  10
    35.500000
  20
    23.100000
  30
    0.000000
  0
VERTEX
  8
2
  62
0
  10
    34.800000
  20
    22.900000
  30
    0.000000
  0
VERTEX
  8
2
  62
0
  10
    34.200000
  20
    21.700000
  30
    0.000000
  0
VERTEX
  8
2
  62
0
  10
    34.200000
  20
    20.700000
  30
    0.000000
  0
VERTEX
  8
2
  62
0
  10
    34.900000
  20
    19.900000
  30
    0.000000
  0
SEQEND
  0
POLYLINE
  8
2
  62
0
  66
1
  0
VERTEX
  8
2
  62
0
  10
    35.200000
  20
    16.900000
  30
    0.000000
  0
VERTEX
  8
2
  62
0
  10
    35.200000
  20
    17.600000
  30
    0.000000
  0
VERTEX
  8
2
  62
0
  10
    34.300000
  20
    18.400000
  30
    0.000000
  0
VERTEX
  8
2
  62
0
  10
    34.300000
  20
    17.400000
  30
    0.000000
  0
VERTEX
  8
2
  62
0
  10
    34.800000
  20
    16.800000
  30
    0.000000
  0
VERTEX
  8
2
  62
0
  10
    35.200000
  20
    16.900000
  30
    0.000000
  0
SEQEND
  0
POLYLINE
  8
2
  62
0
  66
1
  0
VERTEX
  8
2
  62
0
  10
    34.500000
  20
    31.200000
  30
    0.000000
  0
VERTEX
  8
2
  62
0
  10
    34.800000
  20
    31.000000
  30
    0.000000
  0
VERTEX
  8
2
  62
0
  10
    35.200000
  20
    31.600000
  30
    0.000000
  0
VERTEX
  8
2
  62
0
  10
    34.500000
  20
    31.700000
  30
    0.000000
  0
VERTEX
  8
2
  62
0
  10
    34.500000
  20
    31.200000
  30
    0.000000
  0
SEQEND
  0
POLYLINE
  8
2
  62
0
  66
1
  0
VERTEX
  8
2
  62
0
  10
    34.500000
  20
    3.600000
  30
    0.000000
  0
VERTEX
  8
2
  62
0
  10
    35.000000
  20
    3.600000
  30
    0.000000
  0
VERTEX
  8
2
  62
0
  10
    35.000000
  20
    3.300000
  30
    0.000000
  0
VERTEX
  8
2
  62
0
  10
    35.200000
  20
    3.300000
  30
    0.000000
  0
VERTEX
  8
2
  62
0
  10
    35.500000
  20
    3.600000
  30
    0.000000
  0
VERTEX
  8
2
  62
0
  10
    36.500000
  20
    3.600000
  30
    0.000000
  0
VERTEX
  8
2
  62
0
  10
    37.300000
  20
    4.000000
  30
    0.000000
  0
VERTEX
  8
2
  62
0
  10
    37.600000
  20
    4.400000
  30
    0.000000
  0
VERTEX
  8
2
  62
0
  10
    37.900000
  20
    4.900000
  30
    0.000000
  0
VERTEX
  8
2
  62
0
  10
    37.900000
  20
    6.500000
  30
    0.000000
  0
VERTEX
  8
2
  62
0
  10
    37.500000
  20
    6.900000
  30
    0.000000
  0
VERTEX
  8
2
  62
0
  10
    37.400000
  20
    7.500000
  30
    0.000000
  0
VERTEX
  8
2
  62
0
  10
    36.600000
  20
    7.400000
  30
    0.000000
  0
VERTEX
  8
2
  62
0
  10
    36.200000
  20
    7.100000
  30
    0.000000
  0
VERTEX
  8
2
  62
0
  10
    35.900000
  20
    5.500000
  30
    0.000000
  0
VERTEX
  8
2
  62
0
  10
    35.500000
  20
    4.900000
  30
    0.000000
  0
VERTEX
  8
2
  62
0
  10
    35.100000
  20
    4.900000
  30
    0.000000
  0
VERTEX
  8
2
  62
0
  10
    34.500000
  20
    4.400000
  30
    0.000000
  0
VERTEX
  8
2
  62
0
  10
    34.500000
  20
    3.600000
  30
    0.000000
  0
SEQEND
  0
POLYLINE
  8
2
  62
0
  66
1
  0
VERTEX
  8
2
  62
0
  10
    34.800000
  20
    10.000000
  30
    0.000000
  0
VERTEX
  8
2
  62
0
  10
    35.300000
  20
    8.800000
  30
    0.000000
  0
VERTEX
  8
2
  62
0
  10
    35.700000
  20
    8.400000
  30
    0.000000
  0
VERTEX
  8
2
  62
0
  10
    36.800000
  20
    8.400000
  30
    0.000000
  0
VERTEX
  8
2
  62
0
  10
    37.800000
  20
    8.000000
  30
    0.000000
  0
VERTEX
  8
2
  62
0
  10
    38.500000
  20
    8.000000
  30
    0.000000
  0
VERTEX
  8
2
  62
0
  10
    39.100000
  20
    9.000000
  30
    0.000000
  0
VERTEX
  8
2
  62
0
  10
    39.600000
  20
    9.400000
  30
    0.000000
  0
VERTEX
  8
2
  62
0
  10
    39.600000
  20
    10.000000
  30
    0.000000
  0
VERTEX
  8
2
  62
0
  10
    37.300000
  20
    10.900000
  30
    0.000000
  0
VERTEX
  8
2
  62
0
  10
    36.700000
  20
    10.900000
  30
    0.000000
  0
VERTEX
  8
2
  62
0
  10
    36.000000
  20
    11.400000
  30
    0.000000
  0
VERTEX
  8
2
  62
0
  10
    35.600000
  20
    11.400000
  30
    0.000000
  0
VERTEX
  8
2
  62
0
  10
    35.100000
  20
    10.900000
  30
    0.000000
  0
VERTEX
  8
2
  62
0
  10
    34.800000
  20
    10.000000
  30
    0.000000
  0
SEQEND
  0
POLYLINE
  8
2
  62
0
  66
1
  0
VERTEX
  8
2
  62
0
  10
    35.400000
  20
    16.100000
  30
    0.000000
  0
VERTEX
  8
2
  62
0
  10
    35.900000
  20
    16.500000
  30
    0.000000
  0
VERTEX
  8
2
  62
0
  10
    36.400000
  20
    16.500000
  30
    0.000000
  0
VERTEX
  8
2
  62
0
  10
    36.600000
  20
    16.800000
  30
    0.000000
  0
VERTEX
  8
2
  62
0
  10
    36.600000
  20
    17.100000
  30
    0.000000
  0
VERTEX
  8
2
  62
0
  10
    36.000000
  20
    17.600000
  30
    0.000000
  0
VERTEX
  8
2
  62
0
  10
    35.500000
  20
    17.700000
  30
    0.000000
  0
VERTEX
  8
2
  62
0
  10
    35.400000
  20
    16.100000
  30
    0.000000
  0
SEQEND
  0
POLYLINE
  8
2
  62
0
  66
1
  0
VERTEX
  8
2
  62
0
  10
    35.300000
  20
    14.400000
  30
    0.000000
  0
VERTEX
  8
2
  62
0
  10
    35.500000
  20
    13.800000
  30
    0.000000
  0
VERTEX
  8
2
  62
0
  10
    35.900000
  20
    13.600000
  30
    0.000000
  0
VERTEX
  8
2
  62
0
  10
    36.300000
  20
    13.800000
  30
    0.000000
  0
VERTEX
  8
2
  62
0
  10
    36.400000
  20
    14.300000
  30
    0.000000
  0
VERTEX
  8
2
  62
0
  10
    36.200000
  20
    14.500000
  30
    0.000000
  0
VERTEX
  8
2
  62
0
  10
    35.300000
  20
    14.400000
  30
    0.000000
  0
SEQEND
  0
POLYLINE
  8
2
  62
0
  66
1
  0
VERTEX
  8
2
  62
0
  10
    35.600000
  20
    1.800000
  30
    0.000000
  0
VERTEX
  8
2
  62
0
  10
    35.900000
  20
    1.400000
  30
    0.000000
  0
VERTEX
  8
2
  62
0
  10
    36.600000
  20
    1.500000
  30
    0.000000
  0
VERTEX
  8
2
  62
0
  10
    37.300000
  20
    2.100000
  30
    0.000000
  0
VERTEX
  8
2
  62
0
  10
    37.300000
  20
    2.500000
  30
    0.000000
  0
VERTEX
  8
2
  62
0
  10
    35.700000
  20
    2.500000
  30
    0.000000
  0
VERTEX
  8
2
  62
0
  10
    35.600000
  20
    1.800000
  30
    0.000000
  0
SEQEND
  0
POLYLINE
  8
2
  62
0
  66
1
  0
VERTEX
  8
2
  62
0
  10
    35.700000
  20
    30.600000
  30
    0.000000
  0
VERTEX
  8
2
  62
0
  10
    37.600000
  20
    31.800000
  30
    0.000000
  0
VERTEX
  8
2
  62
0
  10
    37.800000
  20
    33.100000
  30
    0.000000
  0
VERTEX
  8
2
  62
0
  10
    37.400000
  20
    33.600000
  30
    0.000000
  0
VERTEX
  8
2
  62
0
  10
    36.500000
  20
    33.800000
  30
    0.000000
  0
VERTEX
  8
2
  62
0
  10
    36.200000
  20
    33.500000
  30
    0.000000
  0
VERTEX
  8
2
  62
0
  10
    35.700000
  20
    30.600000
  30
    0.000000
  0
SEQEND
  0
POLYLINE
  8
2
  62
0
  66
1
  0
VERTEX
  8
2
  62
0
  10
    35.700000
  20
    26.300000
  30
    0.000000
  0
VERTEX
  8
2
  62
0
  10
    37.400000
  20
    27.100000
  30
    0.000000
  0
VERTEX
  8
2
  62
0
  10
    37.700000
  20
    27.800000
  30
    0.000000
  0
VERTEX
  8
2
  62
0
  10
    37.600000
  20
    28.500000
  30
    0.000000
  0
VERTEX
  8
2
  62
0
  10
    37.200000
  20
    28.500000
  30
    0.000000
  0
VERTEX
  8
2
  62
0
  10
    36.400000
  20
    28.000000
  30
    0.000000
  0
VERTEX
  8
2
  62
0
  10
    36.100000
  20
    27.600000
  30
    0.000000
  0
VERTEX
  8
2
  62
0
  10
    36.100000
  20
    27.100000
  30
    0.000000
  0
VERTEX
  8
2
  62
0
  10
    35.700000
  20
    26.800000
  30
    0.000000
  0
VERTEX
  8
2
  62
0
  10
    35.700000
  20
    26.300000
  30
    0.000000
  0
SEQEND
  0
POLYLINE
  8
2
  62
0
  66
1
  0
VERTEX
  8
2
  62
0
  10
    36.200000
  20
    19.300000
  30
    0.000000
  0
VERTEX
  8
2
  62
0
  10
    37.200000
  20
    19.400000
  30
    0.000000
  0
VERTEX
  8
2
  62
0
  10
    38.000000
  20
    20.600000
  30
    0.000000
  0
VERTEX
  8
2
  62
0
  10
    37.900000
  20
    22.600000
  30
    0.000000
  0
VERTEX
  8
2
  62
0
  10
    37.600000
  20
    22.900000
  30
    0.000000
  0
VERTEX
  8
2
  62
0
  10
    36.700000
  20
    22.700000
  30
    0.000000
  0
VERTEX
  8
2
  62
0
  10
    36.200000
  20
    21.800000
  30
    0.000000
  0
VERTEX
  8
2
  62
0
  10
    36.000000
  20
    20.000000
  30
    0.000000
  0
VERTEX
  8
2
  62
0
  10
    36.200000
  20
    19.300000
  30
    0.000000
  0
SEQEND
  0
POLYLINE
  8
2
  62
0
  66
1
  0
VERTEX
  8
2
  62
0
  10
    36.300000
  20
    12.200000
  30
    0.000000
  0
VERTEX
  8
2
  62
0
  10
    36.800000
  20
    11.800000
  30
    0.000000
  0
VERTEX
  8
2
  62
0
  10
    37.600000
  20
    11.800000
  30
    0.000000
  0
VERTEX
  8
2
  62
0
  10
    38.800000
  20
    12.200000
  30
    0.000000
  0
VERTEX
  8
2
  62
0
  10
    38.900000
  20
    12.500000
  30
    0.000000
  0
VERTEX
  8
2
  62
0
  10
    37.700000
  20
    13.500000
  30
    0.000000
  0
VERTEX
  8
2
  62
0
  10
    36.400000
  20
    12.700000
  30
    0.000000
  0
VERTEX
  8
2
  62
0
  10
    36.300000
  20
    12.200000
  30
    0.000000
  0
SEQEND
  0
POLYLINE
  8
2
  62
0
  66
1
  0
VERTEX
  8
2
  62
0
  10
    36.400000
  20
    25.400000
  30
    0.000000
  0
VERTEX
  8
2
  62
0
  10
    36.400000
  20
    24.500000
  30
    0.000000
  0
VERTEX
  8
2
  62
0
  10
    36.700000
  20
    23.600000
  30
    0.000000
  0
VERTEX
  8
2
  62
0
  10
    37.800000
  20
    23.200000
  30
    0.000000
  0
VERTEX
  8
2
  62
0
  10
    37.900000
  20
    23.400000
  30
    0.000000
  0
VERTEX
  8
2
  62
0
  10
    37.500000
  20
    23.900000
  30
    0.000000
  0
VERTEX
  8
2
  62
0
  10
    37.400000
  20
    24.600000
  30
    0.000000
  0
VERTEX
  8
2
  62
0
  10
    37.000000
  20
    24.800000
  30
    0.000000
  0
VERTEX
  8
2
  62
0
  10
    36.700000
  20
    25.400000
  30
    0.000000
  0
VERTEX
  8
2
  62
0
  10
    36.400000
  20
    25.400000
  30
    0.000000
  0
SEQEND
  0
POLYLINE
  8
2
  62
0
  66
1
  0
VERTEX
  8
2
  62
0
  10
    36.700000
  20
    14.300000
  30
    0.000000
  0
VERTEX
  8
2
  62
0
  10
    36.700000
  20
    13.900000
  30
    0.000000
  0
VERTEX
  8
2
  62
0
  10
    37.000000
  20
    13.500000
  30
    0.000000
  0
VERTEX
  8
2
  62
0
  10
    37.800000
  20
    13.700000
  30
    0.000000
  0
VERTEX
  8
2
  62
0
  10
    37.600000
  20
    14.400000
  30
    0.000000
  0
VERTEX
  8
2
  62
0
  10
    37.000000
  20
    14.600000
  30
    0.000000
  0
VERTEX
  8
2
  62
0
  10
    36.700000
  20
    14.300000
  30
    0.000000
  0
SEQEND
  0
POLYLINE
  8
2
  62
0
  66
1
  0
VERTEX
  8
2
  62
0
  10
    36.800000
  20
    26.600000
  30
    0.000000
  0
VERTEX
  8
2
  62
0
  10
    37.200000
  20
    25.400000
  30
    0.000000
  0
VERTEX
  8
2
  62
0
  10
    37.900000
  20
    24.800000
  30
    0.000000
  0
VERTEX
  8
2
  62
0
  10
    38.600000
  20
    23.500000
  30
    0.000000
  0
VERTEX
  8
2
  62
0
  10
    38.900000
  20
    23.500000
  30
    0.000000
  0
VERTEX
  8
2
  62
0
  10
    39.100000
  20
    24.900000
  30
    0.000000
  0
VERTEX
  8
2
  62
0
  10
    38.900000
  20
    25.300000
  30
    0.000000
  0
VERTEX
  8
2
  62
0
  10
    38.600000
  20
    25.400000
  30
    0.000000
  0
VERTEX
  8
2
  62
0
  10
    38.500000
  20
    25.800000
  30
    0.000000
  0
VERTEX
  8
2
  62
0
  10
    38.300000
  20
    25.800000
  30
    0.000000
  0
VERTEX
  8
2
  62
0
  10
    37.700000
  20
    26.600000
  30
    0.000000
  0
VERTEX
  8
2
  62
0
  10
    36.800000
  20
    26.600000
  30
    0.000000
  0
SEQEND
  0
POLYLINE
  8
2
  62
0
  66
1
  0
VERTEX
  8
2
  62
0
  10
    36.800000
  20
    18.600000
  30
    0.000000
  0
VERTEX
  8
2
  62
0
  10
    36.800000
  20
    18.100000
  30
    0.000000
  0
VERTEX
  8
2
  62
0
  10
    37.300000
  20
    17.800000
  30
    0.000000
  0
VERTEX
  8
2
  62
0
  10
    38.400000
  20
    17.900000
  30
    0.000000
  0
VERTEX
  8
2
  62
0
  10
    41.100000
  20
    17.500000
  30
    0.000000
  0
VERTEX
  8
2
  62
0
  10
    41.100000
  20
    18.800000
  30
    0.000000
  0
VERTEX
  8
2
  62
0
  10
    37.200000
  20
    19.100000
  30
    0.000000
  0
VERTEX
  8
2
  62
0
  10
    37.200000
  20
    18.800000
  30
    0.000000
  0
VERTEX
  8
2
  62
0
  10
    36.800000
  20
    18.600000
  30
    0.000000
  0
SEQEND
  0
POLYLINE
  8
2
  62
0
  66
1
  0
VERTEX
  8
2
  62
0
  10
    37.000000
  20
    29.600000
  30
    0.000000
  0
VERTEX
  8
2
  62
0
  10
    37.000000
  20
    29.200000
  30
    0.000000
  0
VERTEX
  8
2
  62
0
  10
    38.600000
  20
    28.700000
  30
    0.000000
  0
VERTEX
  8
2
  62
0
  10
    39.600000
  20
    28.500000
  30
    0.000000
  0
VERTEX
  8
2
  62
0
  10
    40.700000
  20
    28.600000
  30
    0.000000
  0
VERTEX
  8
2
  62
0
  10
    40.700000
  20
    29.100000
  30
    0.000000
  0
VERTEX
  8
2
  62
0
  10
    40.000000
  20
    29.300000
  30
    0.000000
  0
VERTEX
  8
2
  62
0
  10
    40.100000
  20
    29.700000
  30
    0.000000
  0
VERTEX
  8
2
  62
0
  10
    37.500000
  20
    29.800000
  30
    0.000000
  0
VERTEX
  8
2
  62
0
  10
    37.000000
  20
    29.600000
  30
    0.000000
  0
SEQEND
  0
POLYLINE
  8
2
  62
0
  66
1
  0
VERTEX
  8
2
  62
0
  10
    37.100000
  20
    35.000000
  30
    0.000000
  0
VERTEX
  8
2
  62
0
  10
    38.400000
  20
    33.900000
  30
    0.000000
  0
VERTEX
  8
2
  62
0
  10
    38.900000
  20
    33.700000
  30
    0.000000
  0
VERTEX
  8
2
  62
0
  10
    39.300000
  20
    33.800000
  30
    0.000000
  0
VERTEX
  8
2
  62
0
  10
    39.300000
  20
    34.500000
  30
    0.000000
  0
VERTEX
  8
2
  62
0
  10
    39.000000
  20
    35.000000
  30
    0.000000
  0
VERTEX
  8
2
  62
0
  10
    37.100000
  20
    35.000000
  30
    0.000000
  0
SEQEND
  0
POLYLINE
  8
2
  62
0
  66
1
  0
VERTEX
  8
2
  62
0
  10
    38.900000
  20
    0.000000
  30
    0.000000
  0
VERTEX
  8
2
  62
0
  10
    38.900000
  20
    0.700000
  30
    0.000000
  0
VERTEX
  8
2
  62
0
  10
    38.400000
  20
    1.000000
  30
    0.000000
  0
VERTEX
  8
2
  62
0
  10
    38.400000
  20
    1.300000
  30
    0.000000
  0
VERTEX
  8
2
  62
0
  10
    38.100000
  20
    1.400000
  30
    0.000000
  0
VERTEX
  8
2
  62
0
  10
    38.000000
  20
    1.700000
  30
    0.000000
  0
VERTEX
  8
2
  62
0
  10
    37.600000
  20
    1.700000
  30
    0.000000
  0
VERTEX
  8
2
  62
0
  10
    37.600000
  20
    1.300000
  30
    0.000000
  0
VERTEX
  8
2
  62
0
  10
    37.300000
  20
    1.300000
  30
    0.000000
  0
VERTEX
  8
2
  62
0
  10
    37.500000
  20
    0.000000
  30
    0.000000
  0
VERTEX
  8
2
  62
0
  10
    38.900000
  20
    0.000000
  30
    0.000000
  0
SEQEND
  0
POLYLINE
  8
2
  62
0
  66
1
  0
VERTEX
  8
2
  62
0
  10
    37.400000
  20
    15.200000
  30
    0.000000
  0
VERTEX
  8
2
  62
0
  10
    38.300000
  20
    14.100000
  30
    0.000000
  0
VERTEX
  8
2
  62
0
  10
    38.600000
  20
    14.100000
  30
    0.000000
  0
VERTEX
  8
2
  62
0
  10
    39.200000
  20
    14.700000
  30
    0.000000
  0
VERTEX
  8
2
  62
0
  10
    40.400000
  20
    14.600000
  30
    0.000000
  0
VERTEX
  8
2
  62
0
  10
    41.200000
  20
    15.400000
  30
    0.000000
  0
VERTEX
  8
2
  62
0
  10
    41.200000
  20
    16.000000
  30
    0.000000
  0
VERTEX
  8
2
  62
0
  10
    40.400000
  20
    17.000000
  30
    0.000000
  0
VERTEX
  8
2
  62
0
  10
    38.900000
  20
    16.800000
  30
    0.000000
  0
VERTEX
  8
2
  62
0
  10
    37.500000
  20
    15.800000
  30
    0.000000
  0
VERTEX
  8
2
  62
0
  10
    37.400000
  20
    15.200000
  30
    0.000000
  0
SEQEND
  0
POLYLINE
  8
2
  62
0
  66
1
  0
VERTEX
  8
2
  62
0
  10
    37.600000
  20
    30.800000
  30
    0.000000
  0
VERTEX
  8
2
  62
0
  10
    38.300000
  20
    30.800000
  30
    0.000000
  0
VERTEX
  8
2
  62
0
  10
    39.000000
  20
    31.800000
  30
    0.000000
  0
VERTEX
  8
2
  62
0
  10
    39.300000
  20
    31.800000
  30
    0.000000
  0
VERTEX
  8
2
  62
0
  10
    39.600000
  20
    32.200000
  30
    0.000000
  0
VERTEX
  8
2
  62
0
  10
    40.400000
  20
    32.300000
  30
    0.000000
  0
VERTEX
  8
2
  62
0
  10
    40.700000
  20
    32.800000
  30
    0.000000
  0
VERTEX
  8
2
  62
0
  10
    40.900000
  20
    32.800000
  30
    0.000000
  0
VERTEX
  8
2
  62
0
  10
    40.900000
  20
    33.200000
  30
    0.000000
  0
VERTEX
  8
2
  62
0
  10
    40.000000
  20
    33.100000
  30
    0.000000
  0
VERTEX
  8
2
  62
0
  10
    39.500000
  20
    32.700000
  30
    0.000000
  0
VERTEX
  8
2
  62
0
  10
    38.900000
  20
    32.700000
  30
    0.000000
  0
VERTEX
  8
2
  62
0
  10
    37.700000
  20
    31.400000
  30
    0.000000
  0
VERTEX
  8
2
  62
0
  10
    37.600000
  20
    30.800000
  30
    0.000000
  0
SEQEND
  0
POLYLINE
  8
2
  62
0
  66
1
  0
VERTEX
  8
2
  62
0
  10
    37.900000
  20
    2.100000
  30
    0.000000
  0
VERTEX
  8
2
  62
0
  10
    38.300000
  20
    2.100000
  30
    0.000000
  0
VERTEX
  8
2
  62
0
  10
    38.900000
  20
    2.500000
  30
    0.000000
  0
VERTEX
  8
2
  62
0
  10
    40.400000
  20
    2.400000
  30
    0.000000
  0
VERTEX
  8
2
  62
0
  10
    40.400000
  20
    2.900000
  30
    0.000000
  0
VERTEX
  8
2
  62
0
  10
    40.000000
  20
    3.400000
  30
    0.000000
  0
VERTEX
  8
2
  62
0
  10
    38.900000
  20
    3.500000
  30
    0.000000
  0
VERTEX
  8
2
  62
0
  10
    38.100000
  20
    2.800000
  30
    0.000000
  0
VERTEX
  8
2
  62
0
  10
    37.900000
  20
    2.100000
  30
    0.000000
  0
SEQEND
  0
POLYLINE
  8
2
  62
0
  66
1
  0
VERTEX
  8
2
  62
0
  10
    38.400000
  20
    7.300000
  30
    0.000000
  0
VERTEX
  8
2
  62
0
  10
    38.400000
  20
    6.600000
  30
    0.000000
  0
VERTEX
  8
2
  62
0
  10
    39.100000
  20
    5.400000
  30
    0.000000
  0
VERTEX
  8
2
  62
0
  10
    40.600000
  20
    4.000000
  30
    0.000000
  0
VERTEX
  8
2
  62
0
  10
    43.500000
  20
    2.600000
  30
    0.000000
  0
VERTEX
  8
2
  62
0
  10
    44.300000
  20
    3.000000
  30
    0.000000
  0
VERTEX
  8
2
  62
0
  10
    44.700000
  20
    4.400000
  30
    0.000000
  0
VERTEX
  8
2
  62
0
  10
    43.900000
  20
    6.100000
  30
    0.000000
  0
VERTEX
  8
2
  62
0
  10
    42.000000
  20
    8.100000
  30
    0.000000
  0
VERTEX
  8
2
  62
0
  10
    40.800000
  20
    8.500000
  30
    0.000000
  0
VERTEX
  8
2
  62
0
  10
    40.000000
  20
    8.500000
  30
    0.000000
  0
VERTEX
  8
2
  62
0
  10
    39.400000
  20
    7.800000
  30
    0.000000
  0
VERTEX
  8
2
  62
0
  10
    38.400000
  20
    7.300000
  30
    0.000000
  0
SEQEND
  0
POLYLINE
  8
2
  62
0
  66
1
  0
VERTEX
  8
2
  62
0
  10
    38.500000
  20
    22.500000
  30
    0.000000
  0
VERTEX
  8
2
  62
0
  10
    38.700000
  20
    20.200000
  30
    0.000000
  0
VERTEX
  8
2
  62
0
  10
    39.200000
  20
    19.600000
  30
    0.000000
  0
VERTEX
  8
2
  62
0
  10
    39.600000
  20
    19.600000
  30
    0.000000
  0
VERTEX
  8
2
  62
0
  10
    39.600000
  20
    21.600000
  30
    0.000000
  0
VERTEX
  8
2
  62
0
  10
    39.100000
  20
    22.500000
  30
    0.000000
  0
VERTEX
  8
2
  62
0
  10
    38.500000
  20
    22.500000
  30
    0.000000
  0
SEQEND
  0
POLYLINE
  8
2
  62
0
  66
1
  0
VERTEX
  8
2
  62
0
  10
    38.700000
  20
    27.200000
  30
    0.000000
  0
VERTEX
  8
2
  62
0
  10
    38.700000
  20
    26.600000
  30
    0.000000
  0
VERTEX
  8
2
  62
0
  10
    38.900000
  20
    26.400000
  30
    0.000000
  0
VERTEX
  8
2
  62
0
  10
    40.500000
  20
    25.500000
  30
    0.000000
  0
VERTEX
  8
2
  62
0
  10
    41.200000
  20
    25.600000
  30
    0.000000
  0
VERTEX
  8
2
  62
0
  10
    40.800000
  20
    26.500000
  30
    0.000000
  0
VERTEX
  8
2
  62
0
  10
    39.900000
  20
    27.300000
  30
    0.000000
  0
VERTEX
  8
2
  62
0
  10
    39.100000
  20
    27.600000
  30
    0.000000
  0
VERTEX
  8
2
  62
0
  10
    39.100000
  20
    27.300000
  30
    0.000000
  0
VERTEX
  8
2
  62
0
  10
    38.700000
  20
    27.200000
  30
    0.000000
  0
SEQEND
  0
POLYLINE
  8
2
  62
0
  66
1
  0
VERTEX
  8
2
  62
0
  10
    39.900000
  20
    13.000000
  30
    0.000000
  0
VERTEX
  8
2
  62
0
  10
    40.000000
  20
    13.900000
  30
    0.000000
  0
VERTEX
  8
2
  62
0
  10
    39.200000
  20
    14.400000
  30
    0.000000
  0
VERTEX
  8
2
  62
0
  10
    38.800000
  20
    13.900000
  30
    0.000000
  0
VERTEX
  8
2
  62
0
  10
    38.900000
  20
    13.400000
  30
    0.000000
  0
VERTEX
  8
2
  62
0
  10
    39.500000
  20
    13.000000
  30
    0.000000
  0
VERTEX
  8
2
  62
0
  10
    39.900000
  20
    13.000000
  30
    0.000000
  0
SEQEND
  0
POLYLINE
  8
2
  62
0
  66
1
  0
VERTEX
  8
2
  62
0
  10
    39.100000
  20
    10.800000
  30
    0.000000
  0
VERTEX
  8
2
  62
0
  10
    41.000000
  20
    10.700000
  30
    0.000000
  0
VERTEX
  8
2
  62
0
  10
    41.900000
  20
    11.300000
  30
    0.000000
  0
VERTEX
  8
2
  62
0
  10
    42.200000
  20
    11.800000
  30
    0.000000
  0
VERTEX
  8
2
  62
0
  10
    42.500000
  20
    11.800000
  30
    0.000000
  0
VERTEX
  8
2
  62
0
  10
    42.600000
  20
    12.100000
  30
    0.000000
  0
VERTEX
  8
2
  62
0
  10
    43.100000
  20
    12.200000
  30
    0.000000
  0
VERTEX
  8
2
  62
0
  10
    43.200000
  20
    12.700000
  30
    0.000000
  0
VERTEX
  8
2
  62
0
  10
    42.800000
  20
    12.800000
  30
    0.000000
  0
VERTEX
  8
2
  62
0
  10
    42.800000
  20
    13.100000
  30
    0.000000
  0
VERTEX
  8
2
  62
0
  10
    41.200000
  20
    12.900000
  30
    0.000000
  0
VERTEX
  8
2
  62
0
  10
    39.100000
  20
    11.300000
  30
    0.000000
  0
VERTEX
  8
2
  62
0
  10
    39.100000
  20
    10.800000
  30
    0.000000
  0
SEQEND
  0
POLYLINE
  8
2
  62
0
  66
1
  0
VERTEX
  8
2
  62
0
  10
    39.600000
  20
    30.400000
  30
    0.000000
  0
VERTEX
  8
2
  62
0
  10
    40.200000
  20
    30.400000
  30
    0.000000
  0
VERTEX
  8
2
  62
0
  10
    40.500000
  20
    30.900000
  30
    0.000000
  0
VERTEX
  8
2
  62
0
  10
    40.500000
  20
    31.300000
  30
    0.000000
  0
VERTEX
  8
2
  62
0
  10
    40.000000
  20
    31.700000
  30
    0.000000
  0
VERTEX
  8
2
  62
0
  10
    39.300000
  20
    31.200000
  30
    0.000000
  0
VERTEX
  8
2
  62
0
  10
    39.600000
  20
    30.400000
  30
    0.000000
  0
SEQEND
  0
POLYLINE
  8
2
  62
0
  66
1
  0
VERTEX
  8
2
  62
0
  10
    39.300000
  20
    22.700000
  30
    0.000000
  0
VERTEX
  8
2
  62
0
  10
    41.500000
  20
    22.700000
  30
    0.000000
  0
VERTEX
  8
2
  62
0
  10
    41.700000
  20
    23.200000
  30
    0.000000
  0
VERTEX
  8
2
  62
0
  10
    41.400000
  20
    23.700000
  30
    0.000000
  0
VERTEX
  8
2
  62
0
  10
    40.600000
  20
    23.900000
  30
    0.000000
  0
VERTEX
  8
2
  62
0
  10
    39.600000
  20
    23.200000
  30
    0.000000
  0
VERTEX
  8
2
  62
0
  10
    39.300000
  20
    22.700000
  30
    0.000000
  0
SEQEND
  0
POLYLINE
  8
2
  62
0
  66
1
  0
VERTEX
  8
2
  62
0
  10
    39.800000
  20
    2.100000
  30
    0.000000
  0
VERTEX
  8
2
  62
0
  10
    39.800000
  20
    1.700000
  30
    0.000000
  0
VERTEX
  8
2
  62
0
  10
    40.100000
  20
    1.500000
  30
    0.000000
  0
VERTEX
  8
2
  62
0
  10
    40.100000
  20
    0.800000
  30
    0.000000
  0
VERTEX
  8
2
  62
0
  10
    40.400000
  20
    0.500000
  30
    0.000000
  0
VERTEX
  8
2
  62
0
  10
    39.900000
  20
    0.000000
  30
    0.000000
  0
VERTEX
  8
2
  62
0
  10
    43.300000
  20
    0.000000
  30
    0.000000
  0
VERTEX
  8
2
  62
0
  10
    43.300000
  20
    0.200000
  30
    0.000000
  0
VERTEX
  8
2
  62
0
  10
    42.200000
  20
    1.000000
  30
    0.000000
  0
VERTEX
  8
2
  62
0
  10
    42.200000
  20
    1.400000
  30
    0.000000
  0
VERTEX
  8
2
  62
0
  10
    41.900000
  20
    1.400000
  30
    0.000000
  0
VERTEX
  8
2
  62
0
  10
    41.700000
  20
    1.800000
  30
    0.000000
  0
VERTEX
  8
2
  62
0
  10
    41.200000
  20
    1.800000
  30
    0.000000
  0
VERTEX
  8
2
  62
0
  10
    41.000000
  20
    2.100000
  30
    0.000000
  0
VERTEX
  8
2
  62
0
  10
    39.800000
  20
    2.100000
  30
    0.000000
  0
SEQEND
  0
POLYLINE
  8
2
  62
0
  66
1
  0
VERTEX
  8
2
  62
0
  10
    42.000000
  20
    19.500000
  30
    0.000000
  0
VERTEX
  8
2
  62
0
  10
    42.800000
  20
    19.500000
  30
    0.000000
  0
VERTEX
  8
2
  62
0
  10
    43.000000
  20
    19.900000
  30
    0.000000
  0
VERTEX
  8
2
  62
0
  10
    44.400000
  20
    20.500000
  30
    0.000000
  0
VERTEX
  8
2
  62
0
  10
    44.400000
  20
    21.000000
  30
    0.000000
  0
VERTEX
  8
2
  62
0
  10
    43.700000
  20
    22.100000
  30
    0.000000
  0
VERTEX
  8
2
  62
0
  10
    43.300000
  20
    23.500000
  30
    0.000000
  0
VERTEX
  8
2
  62
0
  10
    42.600000
  20
    24.000000
  30
    0.000000
  0
VERTEX
  8
2
  62
0
  10
    42.200000
  20
    23.800000
  30
    0.000000
  0
VERTEX
  8
2
  62
0
  10
    42.200000
  20
    23.000000
  30
    0.000000
  0
VERTEX
  8
2
  62
0
  10
    41.300000
  20
    22.000000
  30
    0.000000
  0
VERTEX
  8
2
  62
0
  10
    41.000000
  20
    21.800000
  30
    0.000000
  0
VERTEX
  8
2
  62
0
  10
    40.200000
  20
    21.800000
  30
    0.000000
  0
VERTEX
  8
2
  62
0
  10
    40.000000
  20
    21.500000
  30
    0.000000
  0
VERTEX
  8
2
  62
0
  10
    40.200000
  20
    20.900000
  30
    0.000000
  0
VERTEX
  8
2
  62
0
  10
    41.100000
  20
    20.000000
  30
    0.000000
  0
VERTEX
  8
2
  62
0
  10
    42.000000
  20
    19.500000
  30
    0.000000
  0
SEQEND
  0
POLYLINE
  8
2
  62
0
  66
1
  0
VERTEX
  8
2
  62
0
  10
    40.500000
  20
    34.800000
  30
    0.000000
  0
VERTEX
  8
2
  62
0
  10
    40.600000
  20
    33.800000
  30
    0.000000
  0
VERTEX
  8
2
  62
0
  10
    41.500000
  20
    33.400000
  30
    0.000000
  0
VERTEX
  8
2
  62
0
  10
    42.700000
  20
    33.400000
  30
    0.000000
  0
VERTEX
  8
2
  62
0
  10
    43.100000
  20
    33.900000
  30
    0.000000
  0
VERTEX
  8
2
  62
0
  10
    42.900000
  20
    35.000000
  30
    0.000000
  0
VERTEX
  8
2
  62
0
  10
    40.600000
  20
    35.000000
  30
    0.000000
  0
VERTEX
  8
2
  62
0
  10
    40.500000
  20
    34.800000
  30
    0.000000
  0
SEQEND
  0
POLYLINE
  8
2
  62
0
  66
1
  0
VERTEX
  8
2
  62
0
  10
    41.400000
  20
    27.700000
  30
    0.000000
  0
VERTEX
  8
2
  62
0
  10
    42.000000
  20
    27.900000
  30
    0.000000
  0
VERTEX
  8
2
  62
0
  10
    42.100000
  20
    29.400000
  30
    0.000000
  0
VERTEX
  8
2
  62
0
  10
    42.900000
  20
    30.200000
  30
    0.000000
  0
VERTEX
  8
2
  62
0
  10
    42.900000
  20
    30.700000
  30
    0.000000
  0
VERTEX
  8
2
  62
0
  10
    42.400000
  20
    30.700000
  30
    0.000000
  0
VERTEX
  8
2
  62
0
  10
    42.200000
  20
    31.400000
  30
    0.000000
  0
VERTEX
  8
2
  62
0
  10
    41.600000
  20
    31.400000
  30
    0.000000
  0
VERTEX
  8
2
  62
0
  10
    41.400000
  20
    30.500000
  30
    0.000000
  0
VERTEX
  8
2
  62
0
  10
    41.400000
  20
    27.700000
  30
    0.000000
  0
SEQEND
  0
POLYLINE
  8
2
  62
0
  66
1
  0
VERTEX
  8
2
  62
0
  10
    41.500000
  20
    10.500000
  30
    0.000000
  0
VERTEX
  8
2
  62
0
  10
    41.600000
  20
    9.900000
  30
    0.000000
  0
VERTEX
  8
2
  62
0
  10
    42.100000
  20
    9.600000
  30
    0.000000
  0
VERTEX
  8
2
  62
0
  10
    42.200000
  20
    8.900000
  30
    0.000000
  0
VERTEX
  8
2
  62
0
  10
    43.500000
  20
    8.700000
  30
    0.000000
  0
VERTEX
  8
2
  62
0
  10
    43.300000
  20
    9.300000
  30
    0.000000
  0
VERTEX
  8
2
  62
0
  10
    43.500000
  20
    9.700000
  30
    0.000000
  0
VERTEX
  8
2
  62
0
  10
    43.200000
  20
    9.700000
  30
    0.000000
  0
VERTEX
  8
2
  62
0
  10
    42.800000
  20
    10.200000
  30
    0.000000
  0
VERTEX
  8
2
  62
0
  10
    42.200000
  20
    10.500000
  30
    0.000000
  0
VERTEX
  8
2
  62
0
  10
    41.500000
  20
    10.500000
  30
    0.000000
  0
SEQEND
  0
POLYLINE
  8
2
  62
0
  66
1
  0
VERTEX
  8
2
  62
0
  10
    43.900000
  20
    14.300000
  30
    0.000000
  0
VERTEX
  8
2
  62
0
  10
    44.100000
  20
    15.000000
  30
    0.000000
  0
VERTEX
  8
2
  62
0
  10
    43.700000
  20
    16.000000
  30
    0.000000
  0
VERTEX
  8
2
  62
0
  10
    43.200000
  20
    16.400000
  30
    0.000000
  0
VERTEX
  8
2
  62
0
  10
    42.200000
  20
    16.700000
  30
    0.000000
  0
VERTEX
  8
2
  62
0
  10
    41.700000
  20
    16.100000
  30
    0.000000
  0
VERTEX
  8
2
  62
0
  10
    41.700000
  20
    15.400000
  30
    0.000000
  0
VERTEX
  8
2
  62
0
  10
    42.700000
  20
    14.400000
  30
    0.000000
  0
VERTEX
  8
2
  62
0
  10
    43.300000
  20
    14.200000
  30
    0.000000
  0
VERTEX
  8
2
  62
0
  10
    43.900000
  20
    14.300000
  30
    0.000000
  0
SEQEND
  0
POLYLINE
  8
2
  62
0
  66
1
  0
VERTEX
  8
2
  62
0
  10
    42.000000
  20
    17.500000
  30
    0.000000
  0
VERTEX
  8
2
  62
0
  10
    42.300000
  20
    17.500000
  30
    0.000000
  0
VERTEX
  8
2
  62
0
  10
    43.100000
  20
    18.300000
  30
    0.000000
  0
VERTEX
  8
2
  62
0
  10
    43.600000
  20
    18.900000
  30
    0.000000
  0
VERTEX
  8
2
  62
0
  10
    43.600000
  20
    19.400000
  30
    0.000000
  0
VERTEX
  8
2
  62
0
  10
    43.300000
  20
    19.400000
  30
    0.000000
  0
VERTEX
  8
2
  62
0
  10
    43.000000
  20
    18.900000
  30
    0.000000
  0
VERTEX
  8
2
  62
0
  10
    42.600000
  20
    18.900000
  30
    0.000000
  0
VERTEX
  8
2
  62
0
  10
    42.200000
  20
    18.500000
  30
    0.000000
  0
VERTEX
  8
2
  62
0
  10
    42.000000
  20
    17.500000
  30
    0.000000
  0
SEQEND
  0
POLYLINE
  8
2
  62
0
  66
1
  0
VERTEX
  8
2
  62
0
  10
    44.700000
  20
    24.300000
  30
    0.000000
  0
VERTEX
  8
2
  62
0
  10
    44.600000
  20
    27.200000
  30
    0.000000
  0
VERTEX
  8
2
  62
0
  10
    44.500000
  20
    27.400000
  30
    0.000000
  0
VERTEX
  8
2
  62
0
  10
    43.300000
  20
    27.400000
  30
    0.000000
  0
VERTEX
  8
2
  62
0
  10
    43.000000
  20
    27.100000
  30
    0.000000
  0
VERTEX
  8
2
  62
0
  10
    42.400000
  20
    25.500000
  30
    0.000000
  0
VERTEX
  8
2
  62
0
  10
    42.200000
  20
    25.500000
  30
    0.000000
  0
VERTEX
  8
2
  62
0
  10
    42.200000
  20
    25.100000
  30
    0.000000
  0
VERTEX
  8
2
  62
0
  10
    42.400000
  20
    24.800000
  30
    0.000000
  0
VERTEX
  8
2
  62
0
  10
    44.700000
  20
    24.300000
  30
    0.000000
  0
SEQEND
  0
POLYLINE
  8
2
  62
0
  66
1
  0
VERTEX
  8
2
  62
0
  10
    42.800000
  20
    32.600000
  30
    0.000000
  0
VERTEX
  8
2
  62
0
  10
    44.000000
  20
    31.500000
  30
    0.000000
  0
VERTEX
  8
2
  62
0
  10
    44.900000
  20
    31.300000
  30
    0.000000
  0
VERTEX
  8
2
  62
0
  10
    44.800000
  20
    31.600000
  30
    0.000000
  0
VERTEX
  8
2
  62
0
  10
    45.100000
  20
    32.200000
  30
    0.000000
  0
VERTEX
  8
2
  62
0
  10
    44.700000
  20
    32.900000
  30
    0.000000
  0
VERTEX
  8
2
  62
0
  10
    43.600000
  20
    33.000000
  30
    0.000000
  0
VERTEX
  8
2
  62
0
  10
    42.800000
  20
    32.600000
  30
    0.000000
  0
SEQEND
  0
POLYLINE
  8
2
  62
0
  66
1
  0
VERTEX
  8
2
  62
0
  10
    43.100000
  20
    2.000000
  30
    0.000000
  0
VERTEX
  8
2
  62
0
  10
    43.400000
  20
    0.900000
  30
    0.000000
  0
VERTEX
  8
2
  62
0
  10
    43.900000
  20
    0.400000
  30
    0.000000
  0
VERTEX
  8
2
  62
0
  10
    44.400000
  20
    0.400000
  30
    0.000000
  0
VERTEX
  8
2
  62
0
  10
    44.500000
  20
    1.500000
  30
    0.000000
  0
VERTEX
  8
2
  62
0
  10
    43.800000
  20
    2.000000
  30
    0.000000
  0
VERTEX
  8
2
  62
0
  10
    43.100000
  20
    2.000000
  30
    0.000000
  0
SEQEND
  0
POLYLINE
  8
2
  62
0
  66
1
  0
VERTEX
  8
2
  62
0
  10
    43.600000
  20
    28.300000
  30
    0.000000
  0
VERTEX
  8
2
  62
0
  10
    44.600000
  20
    28.900000
  30
    0.000000
  0
VERTEX
  8
2
  62
0
  10
    44.600000
  20
    29.300000
  30
    0.000000
  0
VERTEX
  8
2
  62
0
  10
    44.100000
  20
    29.900000
  30
    0.000000
  0
VERTEX
  8
2
  62
0
  10
    43.600000
  20
    29.900000
  30
    0.000000
  0
VERTEX
  8
2
  62
0
  10
    43.200000
  20
    29.600000
  30
    0.000000
  0
VERTEX
  8
2
  62
0
  10
    43.600000
  20
    28.300000
  30
    0.000000
  0
SEQEND
  0
POLYLINE
  8
2
  62
0
  66
1
  0
VERTEX
  8
2
  62
0
  10
    43.300000
  20
    10.300000
  30
    0.000000
  0
VERTEX
  8
2
  62
0
  10
    44.800000
  20
    9.900000
  30
    0.000000
  0
VERTEX
  8
2
  62
0
  10
    45.800000
  20
    9.900000
  30
    0.000000
  0
VERTEX
  8
2
  62
0
  10
    46.400000
  20
    10.900000
  30
    0.000000
  0
VERTEX
  8
2
  62
0
  10
    46.500000
  20
    11.600000
  30
    0.000000
  0
VERTEX
  8
2
  62
0
  10
    46.100000
  20
    12.000000
  30
    0.000000
  0
VERTEX
  8
2
  62
0
  10
    43.700000
  20
    11.900000
  30
    0.000000
  0
VERTEX
  8
2
  62
0
  10
    43.500000
  20
    11.400000
  30
    0.000000
  0
VERTEX
  8
2
  62
0
  10
    43.200000
  20
    11.300000
  30
    0.000000
  0
VERTEX
  8
2
  62
0
  10
    43.300000
  20
    10.300000
  30
    0.000000
  0
SEQEND
  0
POLYLINE
  8
2
  62
0
  66
1
  0
VERTEX
  8
2
  62
0
  10
    45.100000
  20
    21.200000
  30
    0.000000
  0
VERTEX
  8
2
  62
0
  10
    45.700000
  20
    22.100000
  30
    0.000000
  0
VERTEX
  8
2
  62
0
  10
    45.700000
  20
    22.600000
  30
    0.000000
  0
VERTEX
  8
2
  62
0
  10
    44.600000
  20
    23.500000
  30
    0.000000
  0
VERTEX
  8
2
  62
0
  10
    43.800000
  20
    23.700000
  30
    0.000000
  0
VERTEX
  8
2
  62
0
  10
    43.600000
  20
    23.500000
  30
    0.000000
  0
VERTEX
  8
2
  62
0
  10
    43.800000
  20
    22.900000
  30
    0.000000
  0
VERTEX
  8
2
  62
0
  10
    44.900000
  20
    21.200000
  30
    0.000000
  0
VERTEX
  8
2
  62
0
  10
    45.100000
  20
    21.200000
  30
    0.000000
  0
SEQEND
  0
POLYLINE
  8
2
  62
0
  66
1
  0
VERTEX
  8
2
  62
0
  10
    43.800000
  20
    17.500000
  30
    0.000000
  0
VERTEX
  8
2
  62
0
  10
    44.300000
  20
    17.100000
  30
    0.000000
  0
VERTEX
  8
2
  62
0
  10
    45.000000
  20
    17.100000
  30
    0.000000
  0
VERTEX
  8
2
  62
0
  10
    45.600000
  20
    17.600000
  30
    0.000000
  0
VERTEX
  8
2
  62
0
  10
    46.000000
  20
    17.400000
  30
    0.000000
  0
VERTEX
  8
2
  62
0
  10
    46.700000
  20
    17.500000
  30
    0.000000
  0
VERTEX
  8
2
  62
0
  10
    46.700000
  20
    18.000000
  30
    0.000000
  0
VERTEX
  8
2
  62
0
  10
    46.400000
  20
    18.300000
  30
    0.000000
  0
VERTEX
  8
2
  62
0
  10
    44.300000
  20
    19.000000
  30
    0.000000
  0
VERTEX
  8
2
  62
0
  10
    44.300000
  20
    18.500000
  30
    0.000000
  0
VERTEX
  8
2
  62
0
  10
    43.800000
  20
    17.900000
  30
    0.000000
  0
VERTEX
  8
2
  62
0
  10
    43.800000
  20
    17.500000
  30
    0.000000
  0
SEQEND
  0
POLYLINE
  8
2
  62
0
  66
1
  0
VERTEX
  8
2
  62
0
  10
    43.800000
  20
    8.800000
  30
    0.000000
  0
VERTEX
  8
2
  62
0
  10
    43.800000
  20
    8.200000
  30
    0.000000
  0
VERTEX
  8
2
  62
0
  10
    45.200000
  20
    8.400000
  30
    0.000000
  0
VERTEX
  8
2
  62
0
  10
    46.100000
  20
    8.200000
  30
    0.000000
  0
VERTEX
  8
2
  62
0
  10
    46.100000
  20
    8.600000
  30
    0.000000
  0
VERTEX
  8
2
  62
0
  10
    45.600000
  20
    9.200000
  30
    0.000000
  0
VERTEX
  8
2
  62
0
  10
    44.800000
  20
    9.200000
  30
    0.000000
  0
VERTEX
  8
2
  62
0
  10
    44.500000
  20
    8.900000
  30
    0.000000
  0
VERTEX
  8
2
  62
0
  10
    43.800000
  20
    8.800000
  30
    0.000000
  0
SEQEND
  0
POLYLINE
  8
2
  62
0
  66
1
  0
VERTEX
  8
2
  62
0
  10
    45.300000
  20
    5.900000
  30
    0.000000
  0
VERTEX
  8
2
  62
0
  10
    46.000000
  20
    7.000000
  30
    0.000000
  0
VERTEX
  8
2
  62
0
  10
    45.200000
  20
    7.600000
  30
    0.000000
  0
VERTEX
  8
2
  62
0
  10
    44.500000
  20
    7.700000
  30
    0.000000
  0
VERTEX
  8
2
  62
0
  10
    44.300000
  20
    6.900000
  30
    0.000000
  0
VERTEX
  8
2
  62
0
  10
    45.300000
  20
    5.900000
  30
    0.000000
  0
SEQEND
  0
POLYLINE
  8
2
  62
0
  66
1
  0
VERTEX
  8
2
  62
0
  10
    44.700000
  20
    15.200000
  30
    0.000000
  0
VERTEX
  8
2
  62
0
  10
    45.100000
  20
    15.200000
  30
    0.000000
  0
VERTEX
  8
2
  62
0
  10
    45.500000
  20
    16.500000
  30
    0.000000
  0
VERTEX
  8
2
  62
0
  10
    44.500000
  20
    16.300000
  30
    0.000000
  0
VERTEX
  8
2
  62
0
  10
    44.700000
  20
    15.200000
  30
    0.000000
  0
SEQEND
  0
POLYLINE
  8
2
  62
0
  66
1
  0
VERTEX
  8
2
  62
0
  10
    44.600000
  20
    14.100000
  30
    0.000000
  0
VERTEX
  8
2
  62
0
  10
    44.600000
  20
    13.100000
  30
    0.000000
  0
VERTEX
  8
2
  62
0
  10
    45.300000
  20
    12.500000
  30
    0.000000
  0
VERTEX
  8
2
  62
0
  10
    46.400000
  20
    12.300000
  30
    0.000000
  0
VERTEX
  8
2
  62
0
  10
    46.100000
  20
    13.300000
  30
    0.000000
  0
VERTEX
  8
2
  62
0
  10
    45.900000
  20
    13.300000
  30
    0.000000
  0
VERTEX
  8
2
  62
0
  10
    45.400000
  20
    14.100000
  30
    0.000000
  0
VERTEX
  8
2
  62
0
  10
    44.600000
  20
    14.100000
  30
    0.000000
  0
SEQEND
  0
POLYLINE
  8
2
  62
0
  66
1
  0
VERTEX
  8
2
  62
0
  10
    45.200000
  20
    28.800000
  30
    0.000000
  0
VERTEX
  8
2
  62
0
  10
    46.000000
  20
    29.500000
  30
    0.000000
  0
VERTEX
  8
2
  62
0
  10
    45.700000
  20
    30.300000
  30
    0.000000
  0
VERTEX
  8
2
  62
0
  10
    45.500000
  20
    30.300000
  30
    0.000000
  0
VERTEX
  8
2
  62
0
  10
    45.500000
  20
    29.900000
  30
    0.000000
  0
VERTEX
  8
2
  62
0
  10
    44.900000
  20
    29.400000
  30
    0.000000
  0
VERTEX
  8
2
  62
0
  10
    45.200000
  20
    28.800000
  30
    0.000000
  0
SEQEND
  0
POLYLINE
  8
2
  62
0
  66
1
  0
VERTEX
  8
2
  62
0
  10
    45.200000
  20
    34.200000
  30
    0.000000
  0
VERTEX
  8
2
  62
0
  10
    45.200000
  20
    33.500000
  30
    0.000000
  0
VERTEX
  8
2
  62
0
  10
    45.400000
  20
    33.300000
  30
    0.000000
  0
VERTEX
  8
2
  62
0
  10
    46.400000
  20
    33.300000
  30
    0.000000
  0
VERTEX
  8
2
  62
0
  10
    46.900000
  20
    32.900000
  30
    0.000000
  0
VERTEX
  8
2
  62
0
  10
    47.100000
  20
    32.900000
  30
    0.000000
  0
VERTEX
  8
2
  62
0
  10
    47.100000
  20
    33.300000
  30
    0.000000
  0
VERTEX
  8
2
  62
0
  10
    47.600000
  20
    33.300000
  30
    0.000000
  0
VERTEX
  8
2
  62
0
  10
    47.600000
  20
    33.700000
  30
    0.000000
  0
VERTEX
  8
2
  62
0
  10
    47.000000
  20
    34.000000
  30
    0.000000
  0
VERTEX
  8
2
  62
0
  10
    46.200000
  20
    34.100000
  30
    0.000000
  0
VERTEX
  8
2
  62
0
  10
    46.100000
  20
    34.300000
  30
    0.000000
  0
VERTEX
  8
2
  62
0
  10
    45.200000
  20
    34.200000
  30
    0.000000
  0
SEQEND
  0
POLYLINE
  8
2
  62
0
  66
1
  0
VERTEX
  8
2
  62
0
  10
    50.000000
  20
    0.000000
  30
    0.000000
  0
VERTEX
  8
2
  62
0
  10
    50.000000
  20
    4.600000
  30
    0.000000
  0
VERTEX
  8
2
  62
0
  10
    49.000000
  20
    4.900000
  30
    0.000000
  0
VERTEX
  8
2
  62
0
  10
    46.200000
  20
    4.900000
  30
    0.000000
  0
VERTEX
  8
2
  62
0
  10
    45.500000
  20
    5.100000
  30
    0.000000
  0
VERTEX
  8
2
  62
0
  10
    45.400000
  20
    4.600000
  30
    0.000000
  0
VERTEX
  8
2
  62
0
  10
    45.800000
  20
    3.900000
  30
    0.000000
  0
VERTEX
  8
2
  62
0
  10
    45.900000
  20
    3.200000
  30
    0.000000
  0
VERTEX
  8
2
  62
0
  10
    45.500000
  20
    2.600000
  30
    0.000000
  0
VERTEX
  8
2
  62
0
  10
    45.400000
  20
    1.000000
  30
    0.000000
  0
VERTEX
  8
2
  62
0
  10
    47.700000
  20
    0.000000
  30
    0.000000
  0
VERTEX
  8
2
  62
0
  10
    50.000000
  20
    0.000000
  30
    0.000000
  0
SEQEND
  0
POLYLINE
  8
2
  62
0
  66
1
  0
VERTEX
  8
2
  62
0
  10
    45.600000
  20
    15.400000
  30
    0.000000
  0
VERTEX
  8
2
  62
0
  10
    45.900000
  20
    14.900000
  30
    0.000000
  0
VERTEX
  8
2
  62
0
  10
    46.600000
  20
    14.800000
  30
    0.000000
  0
VERTEX
  8
2
  62
0
  10
    46.600000
  20
    15.600000
  30
    0.000000
  0
VERTEX
  8
2
  62
0
  10
    46.000000
  20
    15.700000
  30
    0.000000
  0
VERTEX
  8
2
  62
0
  10
    45.600000
  20
    15.400000
  30
    0.000000
  0
SEQEND
  0
POLYLINE
  8
2
  62
0
  66
1
  0
VERTEX
  8
2
  62
0
  10
    47.600000
  20
    24.500000
  30
    0.000000
  0
VERTEX
  8
2
  62
0
  10
    47.700000
  20
    26.300000
  30
    0.000000
  0
VERTEX
  8
2
  62
0
  10
    47.000000
  20
    27.000000
  30
    0.000000
  0
VERTEX
  8
2
  62
0
  10
    46.800000
  20
    27.800000
  30
    0.000000
  0
VERTEX
  8
2
  62
0
  10
    45.900000
  20
    26.800000
  30
    0.000000
  0
VERTEX
  8
2
  62
0
  10
    45.700000
  20
    25.600000
  30
    0.000000
  0
VERTEX
  8
2
  62
0
  10
    46.700000
  20
    24.600000
  30
    0.000000
  0
VERTEX
  8
2
  62
0
  10
    47.600000
  20
    24.500000
  30
    0.000000
  0
SEQEND
  0
POLYLINE
  8
2
  62
0
  66
1
  0
VERTEX
  8
2
  62
0
  10
    46.000000
  20
    19.700000
  30
    0.000000
  0
VERTEX
  8
2
  62
0
  10
    46.100000
  20
    19.200000
  30
    0.000000
  0
VERTEX
  8
2
  62
0
  10
    46.500000
  20
    18.900000
  30
    0.000000
  0
VERTEX
  8
2
  62
0
  10
    47.800000
  20
    18.500000
  30
    0.000000
  0
VERTEX
  8
2
  62
0
  10
    48.500000
  20
    18.600000
  30
    0.000000
  0
VERTEX
  8
2
  62
0
  10
    48.400000
  20
    19.400000
  30
    0.000000
  0
VERTEX
  8
2
  62
0
  10
    47.300000
  20
    20.200000
  30
    0.000000
  0
VERTEX
  8
2
  62
0
  10
    46.500000
  20
    20.300000
  30
    0.000000
  0
VERTEX
  8
2
  62
0
  10
    46.500000
  20
    20.000000
  30
    0.000000
  0
VERTEX
  8
2
  62
0
  10
    46.000000
  20
    19.700000
  30
    0.000000
  0
SEQEND
  0
POLYLINE
  8
2
  62
0
  66
1
  0
VERTEX
  8
2
  62
0
  10
    48.400000
  20
    20.000000
  30
    0.000000
  0
VERTEX
  8
2
  62
0
  10
    47.900000
  20
    21.300000
  30
    0.000000
  0
VERTEX
  8
2
  62
0
  10
    47.600000
  20
    21.500000
  30
    0.000000
  0
VERTEX
  8
2
  62
0
  10
    47.600000
  20
    22.200000
  30
    0.000000
  0
VERTEX
  8
2
  62
0
  10
    47.200000
  20
    22.400000
  30
    0.000000
  0
VERTEX
  8
2
  62
0
  10
    46.900000
  20
    23.400000
  30
    0.000000
  0
VERTEX
  8
2
  62
0
  10
    46.500000
  20
    23.400000
  30
    0.000000
  0
VERTEX
  8
2
  62
0
  10
    46.500000
  20
    22.200000
  30
    0.000000
  0
VERTEX
  8
2
  62
0
  10
    46.100000
  20
    21.600000
  30
    0.000000
  0
VERTEX
  8
2
  62
0
  10
    46.100000
  20
    21.100000
  30
    0.000000
  0
VERTEX
  8
2
  62
0
  10
    46.700000
  20
    21.100000
  30
    0.000000
  0
VERTEX
  8
2
  62
0
  10
    47.100000
  20
    20.600000
  30
    0.000000
  0
VERTEX
  8
2
  62
0
  10
    47.800000
  20
    20.400000
  30
    0.000000
  0
VERTEX
  8
2
  62
0
  10
    48.000000
  20
    20.000000
  30
    0.000000
  0
VERTEX
  8
2
  62
0
  10
    48.400000
  20
    20.000000
  30
    0.000000
  0
SEQEND
  0
POLYLINE
  8
2
  62
0
  66
1
  0
VERTEX
  8
2
  62
0
  10
    46.200000
  20
    32.500000
  30
    0.000000
  0
VERTEX
  8
2
  62
0
  10
    46.400000
  20
    29.100000
  30
    0.000000
  0
VERTEX
  8
2
  62
0
  10
    47.700000
  20
    28.100000
  30
    0.000000
  0
VERTEX
  8
2
  62
0
  10
    48.600000
  20
    28.100000
  30
    0.000000
  0
VERTEX
  8
2
  62
0
  10
    48.600000
  20
    28.500000
  30
    0.000000
  0
VERTEX
  8
2
  62
0
  10
    47.800000
  20
    29.700000
  30
    0.000000
  0
VERTEX
  8
2
  62
0
  10
    46.900000
  20
    32.200000
  30
    0.000000
  0
VERTEX
  8
2
  62
0
  10
    46.200000
  20
    32.500000
  30
    0.000000
  0
SEQEND
  0
POLYLINE
  8
2
  62
0
  66
1
  0
VERTEX
  8
2
  62
0
  10
    46.600000
  20
    9.100000
  30
    0.000000
  0
VERTEX
  8
2
  62
0
  10
    47.200000
  20
    9.000000
  30
    0.000000
  0
VERTEX
  8
2
  62
0
  10
    47.600000
  20
    9.400000
  30
    0.000000
  0
VERTEX
  8
2
  62
0
  10
    48.300000
  20
    9.600000
  30
    0.000000
  0
VERTEX
  8
2
  62
0
  10
    48.200000
  20
    10.100000
  30
    0.000000
  0
VERTEX
  8
2
  62
0
  10
    47.500000
  20
    10.500000
  30
    0.000000
  0
VERTEX
  8
2
  62
0
  10
    47.000000
  20
    10.400000
  30
    0.000000
  0
VERTEX
  8
2
  62
0
  10
    46.500000
  20
    9.900000
  30
    0.000000
  0
VERTEX
  8
2
  62
0
  10
    46.600000
  20
    9.100000
  30
    0.000000
  0
SEQEND
  0
POLYLINE
  8
2
  62
0
  66
1
  0
VERTEX
  8
2
  62
0
  10
    46.600000
  20
    7.100000
  30
    0.000000
  0
VERTEX
  8
2
  62
0
  10
    46.800000
  20
    5.700000
  30
    0.000000
  0
VERTEX
  8
2
  62
0
  10
    47.400000
  20
    5.300000
  30
    0.000000
  0
VERTEX
  8
2
  62
0
  10
    48.100000
  20
    5.200000
  30
    0.000000
  0
VERTEX
  8
2
  62
0
  10
    48.100000
  20
    5.600000
  30
    0.000000
  0
VERTEX
  8
2
  62
0
  10
    47.300000
  20
    6.200000
  30
    0.000000
  0
VERTEX
  8
2
  62
0
  10
    46.900000
  20
    7.100000
  30
    0.000000
  0
VERTEX
  8
2
  62
0
  10
    46.600000
  20
    7.100000
  30
    0.000000
  0
SEQEND
  0
POLYLINE
  8
2
  62
0
  66
1
  0
VERTEX
  8
2
  62
0
  10
    46.700000
  20
    16.800000
  30
    0.000000
  0
VERTEX
  8
2
  62
0
  10
    47.500000
  20
    16.700000
  30
    0.000000
  0
VERTEX
  8
2
  62
0
  10
    47.600000
  20
    17.000000
  30
    0.000000
  0
VERTEX
  8
2
  62
0
  10
    48.300000
  20
    17.200000
  30
    0.000000
  0
VERTEX
  8
2
  62
0
  10
    48.900000
  20
    17.900000
  30
    0.000000
  0
VERTEX
  8
2
  62
0
  10
    48.900000
  20
    18.200000
  30
    0.000000
  0
VERTEX
  8
2
  62
0
  10
    46.900000
  20
    17.600000
  30
    0.000000
  0
VERTEX
  8
2
  62
0
  10
    46.700000
  20
    16.800000
  30
    0.000000
  0
SEQEND
  0
POLYLINE
  8
2
  62
0
  66
1
  0
VERTEX
  8
2
  62
0
  10
    47.600000
  20
    35.000000
  30
    0.000000
  0
VERTEX
  8
2
  62
0
  10
    47.600000
  20
    34.700000
  30
    0.000000
  0
VERTEX
  8
2
  62
0
  10
    48.100000
  20
    34.400000
  30
    0.000000
  0
VERTEX
  8
2
  62
0
  10
    49.000000
  20
    33.300000
  30
    0.000000
  0
VERTEX
  8
2
  62
0
  10
    49.000000
  20
    32.800000
  30
    0.000000
  0
VERTEX
  8
2
  62
0
  10
    48.100000
  20
    32.000000
  30
    0.000000
  0
VERTEX
  8
2
  62
0
  10
    48.200000
  20
    31.500000
  30
    0.000000
  0
VERTEX
  8
2
  62
0
  10
    50.000000
  20
    30.600000
  30
    0.000000
  0
VERTEX
  8
2
  62
0
  10
    50.000000
  20
    35.000000
  30
    0.000000
  0
VERTEX
  8
2
  62
0
  10
    47.600000
  20
    35.000000
  30
    0.000000
  0
SEQEND
  0
POLYLINE
  8
2
  62
0
  66
1
  0
VERTEX
  8
2
  62
0
  10
    50.000000
  20
    10.900000
  30
    0.000000
  0
VERTEX
  8
2
  62
0
  10
    50.000000
  20
    12.500000
  30
    0.000000
  0
VERTEX
  8
2
  62
0
  10
    49.300000
  20
    12.900000
  30
    0.000000
  0
VERTEX
  8
2
  62
0
  10
    48.500000
  20
    13.800000
  30
    0.000000
  0
VERTEX
  8
2
  62
0
  10
    47.800000
  20
    13.700000
  30
    0.000000
  0
VERTEX
  8
2
  62
0
  10
    47.600000
  20
    13.500000
  30
    0.000000
  0
VERTEX
  8
2
  62
0
  10
    47.700000
  20
    13.000000
  30
    0.000000
  0
VERTEX
  8
2
  62
0
  10
    49.500000
  20
    11.100000
  30
    0.000000
  0
VERTEX
  8
2
  62
0
  10
    50.000000
  20
    10.900000
  30
    0.000000
  0
SEQEND
  0
POLYLINE
  8
2
  62
0
  66
1
  0
VERTEX
  8
2
  62
0
  10
    50.000000
  20
    5.700000
  30
    0.000000
  0
VERTEX
  8
2
  62
0
  10
    50.000000
  20
    8.100000
  30
    0.000000
  0
VERTEX
  8
2
  62
0
  10
    49.200000
  20
    8.700000
  30
    0.000000
  0
VERTEX
  8
2
  62
0
  10
    48.700000
  20
    8.700000
  30
    0.000000
  0
VERTEX
  8
2
  62
0
  10
    48.200000
  20
    7.700000
  30
    0.000000
  0
VERTEX
  8
2
  62
0
  10
    47.800000
  20
    7.600000
  30
    0.000000
  0
VERTEX
  8
2
  62
0
  10
    47.600000
  20
    7.200000
  30
    0.000000
  0
VERTEX
  8
2
  62
0
  10
    50.000000
  20
    5.700000
  30
    0.000000
  0
SEQEND
  0
POLYLINE
  8
2
  62
0
  66
1
  0
VERTEX
  8
2
  62
0
  10
    47.800000
  20
    27.300000
  30
    0.000000
  0
VERTEX
  8
2
  62
0
  10
    47.800000
  20
    26.700000
  30
    0.000000
  0
VERTEX
  8
2
  62
0
  10
    48.200000
  20
    26.100000
  30
    0.000000
  0
VERTEX
  8
2
  62
0
  10
    48.400000
  20
    26.100000
  30
    0.000000
  0
VERTEX
  8
2
  62
0
  10
    48.400000
  20
    25.500000
  30
    0.000000
  0
VERTEX
  8
2
  62
0
  10
    48.900000
  20
    25.500000
  30
    0.000000
  0
VERTEX
  8
2
  62
0
  10
    49.300000
  20
    25.900000
  30
    0.000000
  0
VERTEX
  8
2
  62
0
  10
    49.500000
  20
    27.100000
  30
    0.000000
  0
VERTEX
  8
2
  62
0
  10
    48.700000
  20
    27.000000
  30
    0.000000
  0
VERTEX
  8
2
  62
0
  10
    47.800000
  20
    27.300000
  30
    0.000000
  0
SEQEND
  0
POLYLINE
  8
2
  62
0
  66
1
  0
VERTEX
  8
2
  62
0
  10
    48.100000
  20
    14.400000
  30
    0.000000
  0
VERTEX
  8
2
  62
0
  10
    49.000000
  20
    14.500000
  30
    0.000000
  0
VERTEX
  8
2
  62
0
  10
    50.000000
  20
    15.100000
  30
    0.000000
  0
VERTEX
  8
2
  62
0
  10
    50.000000
  20
    17.700000
  30
    0.000000
  0
VERTEX
  8
2
  62
0
  10
    49.500000
  20
    17.700000
  30
    0.000000
  0
VERTEX
  8
2
  62
0
  10
    48.800000
  20
    17.000000
  30
    0.000000
  0
VERTEX
  8
2
  62
0
  10
    48.400000
  20
    15.700000
  30
    0.000000
  0
VERTEX
  8
2
  62
0
  10
    48.000000
  20
    15.600000
  30
    0.000000
  0
VERTEX
  8
2
  62
0
  10
    48.100000
  20
    14.400000
  30
    0.000000
  0
SEQEND
  0
POLYLINE
  8
2
  62
0
  66
1
  0
VERTEX
  8
2
  62
0
  10
    50.000000
  20
    21.300000
  30
    0.000000
  0
VERTEX
  8
2
  62
0
  10
    50.000000
  20
    24.200000
  30
    0.000000
  0
VERTEX
  8
2
  62
0
  10
    48.900000
  20
    24.700000
  30
    0.000000
  0
VERTEX
  8
2
  62
0
  10
    48.300000
  20
    24.100000
  30
    0.000000
  0
VERTEX
  8
2
  62
0
  10
    48.100000
  20
    22.800000
  30
    0.000000
  0
VERTEX
  8
2
  62
0
  10
    49.500000
  20
    21.300000
  30
    0.000000
  0
VERTEX
  8
2
  62
0
  10
    50.000000
  20
    21.300000
  30
    0.000000
  0
SEQEND
  0
POLYLINE
  8
2
  62
0
  66
1
  0
VERTEX
  8
2
  62
0
  10
    0.000000
  20
    0.000000
  30
    0.000000
  0
VERTEX
  8
2
  62
0
  10
    0.000000
  20
    35.000000
  30
    0.000000
  0
VERTEX
  8
2
  62
0
  10
    50.000000
  20
    35.000000
  30
    0.000000
  0
VERTEX
  8
2
  62
0
  10
    50.000000
  20
    0.000000
  30
    0.000000
  0
VERTEX
  8
2
  62
0
  10
    0.000000
  20
    0.000000
  30
    0.000000
  0
SEQEND
  0
ENDSEC
  0
EOF
