  0
SECTION
  2
ENTITIES
  0
POLYLINE
  8
2
  62
0
  66
1
  0
VERTEX
  8
2
  62
0
  10
    6.450000
  20
    52.500000
  30
    0.000000
  0
VERTEX
  8
2
  62
0
  10
    7.950000
  20
    49.650000
  30
    0.000000
  0
VERTEX
  8
2
  62
0
  10
    7.500000
  20
    48.900000
  30
    0.000000
  0
VERTEX
  8
2
  62
0
  10
    7.650000
  20
    46.650000
  30
    0.000000
  0
VERTEX
  8
2
  62
0
  10
    6.600000
  20
    45.750000
  30
    0.000000
  0
VERTEX
  8
2
  62
0
  10
    6.300000
  20
    44.700000
  30
    0.000000
  0
VERTEX
  8
2
  62
0
  10
    3.900000
  20
    42.900000
  30
    0.000000
  0
VERTEX
  8
2
  62
0
  10
    1.800000
  20
    42.900000
  30
    0.000000
  0
VERTEX
  8
2
  62
0
  10
    0.750000
  20
    43.500000
  30
    0.000000
  0
VERTEX
  8
2
  62
0
  10
    0.000000
  20
    43.350000
  30
    0.000000
  0
VERTEX
  8
2
  62
0
  10
    0.000000
  20
    52.500000
  30
    0.000000
  0
VERTEX
  8
2
  62
0
  10
    6.450000
  20
    52.500000
  30
    0.000000
  0
SEQEND
  0
POLYLINE
  8
2
  62
0
  66
1
  0
VERTEX
  8
2
  62
0
  10
    0.000000
  20
    36.150000
  30
    0.000000
  0
VERTEX
  8
2
  62
0
  10
    0.900000
  20
    35.700000
  30
    0.000000
  0
VERTEX
  8
2
  62
0
  10
    0.900000
  20
    34.950000
  30
    0.000000
  0
VERTEX
  8
2
  62
0
  10
    1.650000
  20
    34.350000
  30
    0.000000
  0
VERTEX
  8
2
  62
0
  10
    1.800000
  20
    33.600000
  30
    0.000000
  0
VERTEX
  8
2
  62
0
  10
    2.400000
  20
    33.000000
  30
    0.000000
  0
VERTEX
  8
2
  62
0
  10
    1.800000
  20
    31.500000
  30
    0.000000
  0
VERTEX
  8
2
  62
0
  10
    0.450000
  20
    30.750000
  30
    0.000000
  0
VERTEX
  8
2
  62
0
  10
    0.000000
  20
    30.750000
  30
    0.000000
  0
VERTEX
  8
2
  62
0
  10
    0.000000
  20
    36.150000
  30
    0.000000
  0
SEQEND
  0
POLYLINE
  8
2
  62
0
  66
1
  0
VERTEX
  8
2
  62
0
  10
    0.000000
  20
    28.800000
  30
    0.000000
  0
VERTEX
  8
2
  62
0
  10
    1.050000
  20
    28.350000
  30
    0.000000
  0
VERTEX
  8
2
  62
0
  10
    1.200000
  20
    27.900000
  30
    0.000000
  0
VERTEX
  8
2
  62
0
  10
    2.250000
  20
    27.750000
  30
    0.000000
  0
VERTEX
  8
2
  62
0
  10
    2.550000
  20
    27.300000
  30
    0.000000
  0
VERTEX
  8
2
  62
0
  10
    2.550000
  20
    26.700000
  30
    0.000000
  0
VERTEX
  8
2
  62
0
  10
    1.800000
  20
    26.250000
  30
    0.000000
  0
VERTEX
  8
2
  62
0
  10
    1.500000
  20
    25.350000
  30
    0.000000
  0
VERTEX
  8
2
  62
0
  10
    0.900000
  20
    25.350000
  30
    0.000000
  0
VERTEX
  8
2
  62
0
  10
    0.000000
  20
    26.700000
  30
    0.000000
  0
VERTEX
  8
2
  62
0
  10
    0.000000
  20
    28.800000
  30
    0.000000
  0
SEQEND
  0
POLYLINE
  8
2
  62
0
  66
1
  0
VERTEX
  8
2
  62
0
  10
    0.000000
  20
    10.800000
  30
    0.000000
  0
VERTEX
  8
2
  62
0
  10
    1.350000
  20
    11.700000
  30
    0.000000
  0
VERTEX
  8
2
  62
0
  10
    1.800000
  20
    12.600000
  30
    0.000000
  0
VERTEX
  8
2
  62
0
  10
    3.900000
  20
    13.050000
  30
    0.000000
  0
VERTEX
  8
2
  62
0
  10
    4.650000
  20
    13.650000
  30
    0.000000
  0
VERTEX
  8
2
  62
0
  10
    6.450000
  20
    11.700000
  30
    0.000000
  0
VERTEX
  8
2
  62
0
  10
    7.950000
  20
    8.550000
  30
    0.000000
  0
VERTEX
  8
2
  62
0
  10
    10.050000
  20
    6.450000
  30
    0.000000
  0
VERTEX
  8
2
  62
0
  10
    10.050000
  20
    3.750000
  30
    0.000000
  0
VERTEX
  8
2
  62
0
  10
    9.750000
  20
    3.450000
  30
    0.000000
  0
VERTEX
  8
2
  62
0
  10
    8.250000
  20
    3.750000
  30
    0.000000
  0
VERTEX
  8
2
  62
0
  10
    5.550000
  20
    2.700000
  30
    0.000000
  0
VERTEX
  8
2
  62
0
  10
    4.650000
  20
    1.950000
  30
    0.000000
  0
VERTEX
  8
2
  62
0
  10
    3.300000
  20
    1.800000
  30
    0.000000
  0
VERTEX
  8
2
  62
0
  10
    2.250000
  20
    3.000000
  30
    0.000000
  0
VERTEX
  8
2
  62
0
  10
    0.450000
  20
    6.600000
  30
    0.000000
  0
VERTEX
  8
2
  62
0
  10
    0.000000
  20
    6.750000
  30
    0.000000
  0
VERTEX
  8
2
  62
0
  10
    0.000000
  20
    10.800000
  30
    0.000000
  0
SEQEND
  0
POLYLINE
  8
2
  62
0
  66
1
  0
VERTEX
  8
2
  62
0
  10
    0.000000
  20
    1.650000
  30
    0.000000
  0
VERTEX
  8
2
  62
0
  10
    1.200000
  20
    1.500000
  30
    0.000000
  0
VERTEX
  8
2
  62
0
  10
    2.550000
  20
    0.000000
  30
    0.000000
  0
VERTEX
  8
2
  62
0
  10
    0.000000
  20
    0.000000
  30
    0.000000
  0
VERTEX
  8
2
  62
0
  10
    0.000000
  20
    1.650000
  30
    0.000000
  0
SEQEND
  0
POLYLINE
  8
2
  62
0
  66
1
  0
VERTEX
  8
2
  62
0
  10
    0.600000
  20
    39.300000
  30
    0.000000
  0
VERTEX
  8
2
  62
0
  10
    1.350000
  20
    39.300000
  30
    0.000000
  0
VERTEX
  8
2
  62
0
  10
    2.400000
  20
    37.950000
  30
    0.000000
  0
VERTEX
  8
2
  62
0
  10
    3.600000
  20
    37.650000
  30
    0.000000
  0
VERTEX
  8
2
  62
0
  10
    3.900000
  20
    37.200000
  30
    0.000000
  0
VERTEX
  8
2
  62
0
  10
    3.750000
  20
    35.850000
  30
    0.000000
  0
VERTEX
  8
2
  62
0
  10
    1.050000
  20
    36.150000
  30
    0.000000
  0
VERTEX
  8
2
  62
0
  10
    0.300000
  20
    37.500000
  30
    0.000000
  0
VERTEX
  8
2
  62
0
  10
    0.600000
  20
    39.300000
  30
    0.000000
  0
SEQEND
  0
POLYLINE
  8
2
  62
0
  66
1
  0
VERTEX
  8
2
  62
0
  10
    0.900000
  20
    17.700000
  30
    0.000000
  0
VERTEX
  8
2
  62
0
  10
    1.350000
  20
    17.700000
  30
    0.000000
  0
VERTEX
  8
2
  62
0
  10
    2.850000
  20
    16.350000
  30
    0.000000
  0
VERTEX
  8
2
  62
0
  10
    3.000000
  20
    15.450000
  30
    0.000000
  0
VERTEX
  8
2
  62
0
  10
    3.900000
  20
    14.550000
  30
    0.000000
  0
VERTEX
  8
2
  62
0
  10
    3.900000
  20
    13.500000
  30
    0.000000
  0
VERTEX
  8
2
  62
0
  10
    1.650000
  20
    14.100000
  30
    0.000000
  0
VERTEX
  8
2
  62
0
  10
    0.900000
  20
    15.900000
  30
    0.000000
  0
VERTEX
  8
2
  62
0
  10
    0.900000
  20
    17.700000
  30
    0.000000
  0
SEQEND
  0
POLYLINE
  8
2
  62
0
  66
1
  0
VERTEX
  8
2
  62
0
  10
    1.950000
  20
    42.000000
  30
    0.000000
  0
VERTEX
  8
2
  62
0
  10
    1.650000
  20
    40.350000
  30
    0.000000
  0
VERTEX
  8
2
  62
0
  10
    1.050000
  20
    40.200000
  30
    0.000000
  0
VERTEX
  8
2
  62
0
  10
    1.050000
  20
    42.000000
  30
    0.000000
  0
VERTEX
  8
2
  62
0
  10
    1.950000
  20
    42.000000
  30
    0.000000
  0
SEQEND
  0
POLYLINE
  8
2
  62
0
  66
1
  0
VERTEX
  8
2
  62
0
  10
    1.200000
  20
    22.650000
  30
    0.000000
  0
VERTEX
  8
2
  62
0
  10
    2.250000
  20
    22.500000
  30
    0.000000
  0
VERTEX
  8
2
  62
0
  10
    2.850000
  20
    21.900000
  30
    0.000000
  0
VERTEX
  8
2
  62
0
  10
    3.000000
  20
    20.550000
  30
    0.000000
  0
VERTEX
  8
2
  62
0
  10
    2.550000
  20
    19.350000
  30
    0.000000
  0
VERTEX
  8
2
  62
0
  10
    2.100000
  20
    19.350000
  30
    0.000000
  0
VERTEX
  8
2
  62
0
  10
    2.100000
  20
    19.050000
  30
    0.000000
  0
VERTEX
  8
2
  62
0
  10
    1.350000
  20
    19.050000
  30
    0.000000
  0
VERTEX
  8
2
  62
0
  10
    1.200000
  20
    22.650000
  30
    0.000000
  0
SEQEND
  0
POLYLINE
  8
2
  62
0
  66
1
  0
VERTEX
  8
2
  62
0
  10
    2.250000
  20
    24.450000
  30
    0.000000
  0
VERTEX
  8
2
  62
0
  10
    4.200000
  20
    24.750000
  30
    0.000000
  0
VERTEX
  8
2
  62
0
  10
    5.400000
  20
    24.150000
  30
    0.000000
  0
VERTEX
  8
2
  62
0
  10
    5.400000
  20
    23.250000
  30
    0.000000
  0
VERTEX
  8
2
  62
0
  10
    4.500000
  20
    21.900000
  30
    0.000000
  0
VERTEX
  8
2
  62
0
  10
    3.600000
  20
    22.050000
  30
    0.000000
  0
VERTEX
  8
2
  62
0
  10
    2.700000
  20
    22.950000
  30
    0.000000
  0
VERTEX
  8
2
  62
0
  10
    2.250000
  20
    23.700000
  30
    0.000000
  0
VERTEX
  8
2
  62
0
  10
    2.250000
  20
    24.450000
  30
    0.000000
  0
SEQEND
  0
POLYLINE
  8
2
  62
0
  66
1
  0
VERTEX
  8
2
  62
0
  10
    3.150000
  20
    42.000000
  30
    0.000000
  0
VERTEX
  8
2
  62
0
  10
    4.050000
  20
    41.700000
  30
    0.000000
  0
VERTEX
  8
2
  62
0
  10
    5.550000
  20
    40.350000
  30
    0.000000
  0
VERTEX
  8
2
  62
0
  10
    5.550000
  20
    39.450000
  30
    0.000000
  0
VERTEX
  8
2
  62
0
  10
    5.250000
  20
    39.150000
  30
    0.000000
  0
VERTEX
  8
2
  62
0
  10
    3.600000
  20
    39.300000
  30
    0.000000
  0
VERTEX
  8
2
  62
0
  10
    2.700000
  20
    40.050000
  30
    0.000000
  0
VERTEX
  8
2
  62
0
  10
    3.150000
  20
    42.000000
  30
    0.000000
  0
SEQEND
  0
POLYLINE
  8
2
  62
0
  66
1
  0
VERTEX
  8
2
  62
0
  10
    4.350000
  20
    31.200000
  30
    0.000000
  0
VERTEX
  8
2
  62
0
  10
    4.650000
  20
    30.600000
  30
    0.000000
  0
VERTEX
  8
2
  62
0
  10
    4.200000
  20
    30.600000
  30
    0.000000
  0
VERTEX
  8
2
  62
0
  10
    3.900000
  20
    29.550000
  30
    0.000000
  0
VERTEX
  8
2
  62
0
  10
    3.150000
  20
    29.250000
  30
    0.000000
  0
VERTEX
  8
2
  62
0
  10
    3.000000
  20
    30.300000
  30
    0.000000
  0
VERTEX
  8
2
  62
0
  10
    3.450000
  20
    31.050000
  30
    0.000000
  0
VERTEX
  8
2
  62
0
  10
    3.900000
  20
    31.350000
  30
    0.000000
  0
VERTEX
  8
2
  62
0
  10
    4.350000
  20
    31.200000
  30
    0.000000
  0
SEQEND
  0
POLYLINE
  8
2
  62
0
  66
1
  0
VERTEX
  8
2
  62
0
  10
    3.300000
  20
    20.400000
  30
    0.000000
  0
VERTEX
  8
2
  62
0
  10
    4.650000
  20
    20.400000
  30
    0.000000
  0
VERTEX
  8
2
  62
0
  10
    5.850000
  20
    18.900000
  30
    0.000000
  0
VERTEX
  8
2
  62
0
  10
    6.150000
  20
    18.000000
  30
    0.000000
  0
VERTEX
  8
2
  62
0
  10
    3.900000
  20
    17.550000
  30
    0.000000
  0
VERTEX
  8
2
  62
0
  10
    4.050000
  20
    18.150000
  30
    0.000000
  0
VERTEX
  8
2
  62
0
  10
    3.300000
  20
    20.400000
  30
    0.000000
  0
SEQEND
  0
POLYLINE
  8
2
  62
0
  66
1
  0
VERTEX
  8
2
  62
0
  10
    8.700000
  20
    2.550000
  30
    0.000000
  0
VERTEX
  8
2
  62
0
  10
    8.850000
  20
    1.500000
  30
    0.000000
  0
VERTEX
  8
2
  62
0
  10
    7.950000
  20
    1.050000
  30
    0.000000
  0
VERTEX
  8
2
  62
0
  10
    7.350000
  20
    0.000000
  30
    0.000000
  0
VERTEX
  8
2
  62
0
  10
    3.900000
  20
    0.000000
  30
    0.000000
  0
VERTEX
  8
2
  62
0
  10
    4.650000
  20
    0.300000
  30
    0.000000
  0
VERTEX
  8
2
  62
0
  10
    5.250000
  20
    1.200000
  30
    0.000000
  0
VERTEX
  8
2
  62
0
  10
    7.950000
  20
    1.950000
  30
    0.000000
  0
VERTEX
  8
2
  62
0
  10
    8.250000
  20
    2.550000
  30
    0.000000
  0
VERTEX
  8
2
  62
0
  10
    8.700000
  20
    2.550000
  30
    0.000000
  0
SEQEND
  0
POLYLINE
  8
2
  62
0
  66
1
  0
VERTEX
  8
2
  62
0
  10
    4.500000
  20
    35.100000
  30
    0.000000
  0
VERTEX
  8
2
  62
0
  10
    7.200000
  20
    32.850000
  30
    0.000000
  0
VERTEX
  8
2
  62
0
  10
    10.500000
  20
    30.750000
  30
    0.000000
  0
VERTEX
  8
2
  62
0
  10
    11.400000
  20
    29.400000
  30
    0.000000
  0
VERTEX
  8
2
  62
0
  10
    11.400000
  20
    28.050000
  30
    0.000000
  0
VERTEX
  8
2
  62
0
  10
    10.800000
  20
    26.850000
  30
    0.000000
  0
VERTEX
  8
2
  62
0
  10
    9.450000
  20
    25.350000
  30
    0.000000
  0
VERTEX
  8
2
  62
0
  10
    7.650000
  20
    24.300000
  30
    0.000000
  0
VERTEX
  8
2
  62
0
  10
    6.600000
  20
    25.050000
  30
    0.000000
  0
VERTEX
  8
2
  62
0
  10
    5.400000
  20
    26.850000
  30
    0.000000
  0
VERTEX
  8
2
  62
0
  10
    5.550000
  20
    28.350000
  30
    0.000000
  0
VERTEX
  8
2
  62
0
  10
    4.650000
  20
    30.750000
  30
    0.000000
  0
VERTEX
  8
2
  62
0
  10
    4.500000
  20
    35.100000
  30
    0.000000
  0
SEQEND
  0
POLYLINE
  8
2
  62
0
  66
1
  0
VERTEX
  8
2
  62
0
  10
    4.950000
  20
    43.050000
  30
    0.000000
  0
VERTEX
  8
2
  62
0
  10
    6.300000
  20
    42.900000
  30
    0.000000
  0
VERTEX
  8
2
  62
0
  10
    7.050000
  20
    40.200000
  30
    0.000000
  0
VERTEX
  8
2
  62
0
  10
    5.850000
  20
    40.650000
  30
    0.000000
  0
VERTEX
  8
2
  62
0
  10
    4.950000
  20
    42.300000
  30
    0.000000
  0
VERTEX
  8
2
  62
0
  10
    4.950000
  20
    43.050000
  30
    0.000000
  0
SEQEND
  0
POLYLINE
  8
2
  62
0
  66
1
  0
VERTEX
  8
2
  62
0
  10
    7.200000
  20
    38.100000
  30
    0.000000
  0
VERTEX
  8
2
  62
0
  10
    7.200000
  20
    37.350000
  30
    0.000000
  0
VERTEX
  8
2
  62
0
  10
    6.600000
  20
    36.300000
  30
    0.000000
  0
VERTEX
  8
2
  62
0
  10
    5.400000
  20
    36.450000
  30
    0.000000
  0
VERTEX
  8
2
  62
0
  10
    5.550000
  20
    37.500000
  30
    0.000000
  0
VERTEX
  8
2
  62
0
  10
    7.200000
  20
    38.100000
  30
    0.000000
  0
SEQEND
  0
POLYLINE
  8
2
  62
0
  66
1
  0
VERTEX
  8
2
  62
0
  10
    5.850000
  20
    22.050000
  30
    0.000000
  0
VERTEX
  8
2
  62
0
  10
    6.600000
  20
    22.350000
  30
    0.000000
  0
VERTEX
  8
2
  62
0
  10
    9.900000
  20
    22.350000
  30
    0.000000
  0
VERTEX
  8
2
  62
0
  10
    9.900000
  20
    21.750000
  30
    0.000000
  0
VERTEX
  8
2
  62
0
  10
    10.800000
  20
    21.450000
  30
    0.000000
  0
VERTEX
  8
2
  62
0
  10
    10.800000
  20
    20.250000
  30
    0.000000
  0
VERTEX
  8
2
  62
0
  10
    8.700000
  20
    20.100000
  30
    0.000000
  0
VERTEX
  8
2
  62
0
  10
    7.350000
  20
    20.400000
  30
    0.000000
  0
VERTEX
  8
2
  62
0
  10
    5.850000
  20
    21.300000
  30
    0.000000
  0
VERTEX
  8
2
  62
0
  10
    5.850000
  20
    22.050000
  30
    0.000000
  0
SEQEND
  0
POLYLINE
  8
2
  62
0
  66
1
  0
VERTEX
  8
2
  62
0
  10
    6.450000
  20
    35.850000
  30
    0.000000
  0
VERTEX
  8
2
  62
0
  10
    8.100000
  20
    36.000000
  30
    0.000000
  0
VERTEX
  8
2
  62
0
  10
    9.300000
  20
    35.700000
  30
    0.000000
  0
VERTEX
  8
2
  62
0
  10
    9.900000
  20
    34.350000
  30
    0.000000
  0
VERTEX
  8
2
  62
0
  10
    9.750000
  20
    33.000000
  30
    0.000000
  0
VERTEX
  8
2
  62
0
  10
    8.550000
  20
    32.850000
  30
    0.000000
  0
VERTEX
  8
2
  62
0
  10
    6.750000
  20
    34.200000
  30
    0.000000
  0
VERTEX
  8
2
  62
0
  10
    6.450000
  20
    35.850000
  30
    0.000000
  0
SEQEND
  0
POLYLINE
  8
2
  62
0
  66
1
  0
VERTEX
  8
2
  62
0
  10
    6.600000
  20
    16.950000
  30
    0.000000
  0
VERTEX
  8
2
  62
0
  10
    7.350000
  20
    16.650000
  30
    0.000000
  0
VERTEX
  8
2
  62
0
  10
    9.300000
  20
    13.950000
  30
    0.000000
  0
VERTEX
  8
2
  62
0
  10
    9.300000
  20
    12.750000
  30
    0.000000
  0
VERTEX
  8
2
  62
0
  10
    8.700000
  20
    12.600000
  30
    0.000000
  0
VERTEX
  8
2
  62
0
  10
    8.700000
  20
    12.300000
  30
    0.000000
  0
VERTEX
  8
2
  62
0
  10
    8.100000
  20
    12.300000
  30
    0.000000
  0
VERTEX
  8
2
  62
0
  10
    7.500000
  20
    13.500000
  30
    0.000000
  0
VERTEX
  8
2
  62
0
  10
    7.050000
  20
    15.450000
  30
    0.000000
  0
VERTEX
  8
2
  62
0
  10
    6.600000
  20
    16.050000
  30
    0.000000
  0
VERTEX
  8
2
  62
0
  10
    6.600000
  20
    16.950000
  30
    0.000000
  0
SEQEND
  0
POLYLINE
  8
2
  62
0
  66
1
  0
VERTEX
  8
2
  62
0
  10
    7.500000
  20
    19.350000
  30
    0.000000
  0
VERTEX
  8
2
  62
0
  10
    8.100000
  20
    19.350000
  30
    0.000000
  0
VERTEX
  8
2
  62
0
  10
    7.950000
  20
    17.700000
  30
    0.000000
  0
VERTEX
  8
2
  62
0
  10
    8.100000
  20
    17.100000
  30
    0.000000
  0
VERTEX
  8
2
  62
0
  10
    8.400000
  20
    17.100000
  30
    0.000000
  0
VERTEX
  8
2
  62
0
  10
    8.400000
  20
    16.500000
  30
    0.000000
  0
VERTEX
  8
2
  62
0
  10
    7.650000
  20
    16.650000
  30
    0.000000
  0
VERTEX
  8
2
  62
0
  10
    7.050000
  20
    17.550000
  30
    0.000000
  0
VERTEX
  8
2
  62
0
  10
    7.050000
  20
    18.900000
  30
    0.000000
  0
VERTEX
  8
2
  62
0
  10
    7.500000
  20
    19.350000
  30
    0.000000
  0
SEQEND
  0
POLYLINE
  8
2
  62
0
  66
1
  0
VERTEX
  8
2
  62
0
  10
    12.000000
  20
    46.050000
  30
    0.000000
  0
VERTEX
  8
2
  62
0
  10
    12.000000
  20
    45.600000
  30
    0.000000
  0
VERTEX
  8
2
  62
0
  10
    10.950000
  20
    45.150000
  30
    0.000000
  0
VERTEX
  8
2
  62
0
  10
    10.650000
  20
    44.400000
  30
    0.000000
  0
VERTEX
  8
2
  62
0
  10
    8.850000
  20
    42.900000
  30
    0.000000
  0
VERTEX
  8
2
  62
0
  10
    8.400000
  20
    39.750000
  30
    0.000000
  0
VERTEX
  8
2
  62
0
  10
    8.100000
  20
    39.000000
  30
    0.000000
  0
VERTEX
  8
2
  62
0
  10
    7.650000
  20
    39.000000
  30
    0.000000
  0
VERTEX
  8
2
  62
0
  10
    7.650000
  20
    41.850000
  30
    0.000000
  0
VERTEX
  8
2
  62
0
  10
    7.350000
  20
    42.450000
  30
    0.000000
  0
VERTEX
  8
2
  62
0
  10
    7.350000
  20
    43.500000
  30
    0.000000
  0
VERTEX
  8
2
  62
0
  10
    7.650000
  20
    43.650000
  30
    0.000000
  0
VERTEX
  8
2
  62
0
  10
    7.500000
  20
    44.850000
  30
    0.000000
  0
VERTEX
  8
2
  62
0
  10
    9.450000
  20
    45.450000
  30
    0.000000
  0
VERTEX
  8
2
  62
0
  10
    10.200000
  20
    46.350000
  30
    0.000000
  0
VERTEX
  8
2
  62
0
  10
    12.000000
  20
    46.050000
  30
    0.000000
  0
SEQEND
  0
POLYLINE
  8
2
  62
0
  66
1
  0
VERTEX
  8
2
  62
0
  10
    8.100000
  20
    49.500000
  30
    0.000000
  0
VERTEX
  8
2
  62
0
  10
    9.000000
  20
    50.100000
  30
    0.000000
  0
VERTEX
  8
2
  62
0
  10
    10.200000
  20
    50.100000
  30
    0.000000
  0
VERTEX
  8
2
  62
0
  10
    10.950000
  20
    49.200000
  30
    0.000000
  0
VERTEX
  8
2
  62
0
  10
    10.500000
  20
    48.450000
  30
    0.000000
  0
VERTEX
  8
2
  62
0
  10
    9.000000
  20
    48.150000
  30
    0.000000
  0
VERTEX
  8
2
  62
0
  10
    8.100000
  20
    49.500000
  30
    0.000000
  0
SEQEND
  0
POLYLINE
  8
2
  62
0
  66
1
  0
VERTEX
  8
2
  62
0
  10
    8.250000
  20
    37.650000
  30
    0.000000
  0
VERTEX
  8
2
  62
0
  10
    9.300000
  20
    38.400000
  30
    0.000000
  0
VERTEX
  8
2
  62
0
  10
    9.750000
  20
    38.250000
  30
    0.000000
  0
VERTEX
  8
2
  62
0
  10
    10.800000
  20
    36.750000
  30
    0.000000
  0
VERTEX
  8
2
  62
0
  10
    10.800000
  20
    36.150000
  30
    0.000000
  0
VERTEX
  8
2
  62
0
  10
    10.200000
  20
    36.000000
  30
    0.000000
  0
VERTEX
  8
2
  62
0
  10
    8.250000
  20
    37.650000
  30
    0.000000
  0
SEQEND
  0
POLYLINE
  8
2
  62
0
  66
1
  0
VERTEX
  8
2
  62
0
  10
    8.550000
  20
    18.750000
  30
    0.000000
  0
VERTEX
  8
2
  62
0
  10
    9.750000
  20
    19.650000
  30
    0.000000
  0
VERTEX
  8
2
  62
0
  10
    11.100000
  20
    19.800000
  30
    0.000000
  0
VERTEX
  8
2
  62
0
  10
    11.550000
  20
    18.300000
  30
    0.000000
  0
VERTEX
  8
2
  62
0
  10
    10.950000
  20
    17.700000
  30
    0.000000
  0
VERTEX
  8
2
  62
0
  10
    10.050000
  20
    17.550000
  30
    0.000000
  0
VERTEX
  8
2
  62
0
  10
    9.000000
  20
    17.850000
  30
    0.000000
  0
VERTEX
  8
2
  62
0
  10
    8.550000
  20
    18.750000
  30
    0.000000
  0
SEQEND
  0
POLYLINE
  8
2
  62
0
  66
1
  0
VERTEX
  8
2
  62
0
  10
    10.500000
  20
    43.950000
  30
    0.000000
  0
VERTEX
  8
2
  62
0
  10
    11.100000
  20
    44.100000
  30
    0.000000
  0
VERTEX
  8
2
  62
0
  10
    11.850000
  20
    42.900000
  30
    0.000000
  0
VERTEX
  8
2
  62
0
  10
    12.450000
  20
    42.600000
  30
    0.000000
  0
VERTEX
  8
2
  62
0
  10
    13.050000
  20
    41.550000
  30
    0.000000
  0
VERTEX
  8
2
  62
0
  10
    13.200000
  20
    40.350000
  30
    0.000000
  0
VERTEX
  8
2
  62
0
  10
    11.700000
  20
    40.800000
  30
    0.000000
  0
VERTEX
  8
2
  62
0
  10
    10.050000
  20
    42.150000
  30
    0.000000
  0
VERTEX
  8
2
  62
0
  10
    9.900000
  20
    42.900000
  30
    0.000000
  0
VERTEX
  8
2
  62
0
  10
    10.500000
  20
    43.950000
  30
    0.000000
  0
SEQEND
  0
POLYLINE
  8
2
  62
0
  66
1
  0
VERTEX
  8
2
  62
0
  10
    10.200000
  20
    24.750000
  30
    0.000000
  0
VERTEX
  8
2
  62
0
  10
    10.950000
  20
    25.350000
  30
    0.000000
  0
VERTEX
  8
2
  62
0
  10
    11.850000
  20
    25.350000
  30
    0.000000
  0
VERTEX
  8
2
  62
0
  10
    13.500000
  20
    24.750000
  30
    0.000000
  0
VERTEX
  8
2
  62
0
  10
    15.450000
  20
    23.400000
  30
    0.000000
  0
VERTEX
  8
2
  62
0
  10
    15.900000
  20
    22.200000
  30
    0.000000
  0
VERTEX
  8
2
  62
0
  10
    15.750000
  20
    21.450000
  30
    0.000000
  0
VERTEX
  8
2
  62
0
  10
    15.300000
  20
    21.000000
  30
    0.000000
  0
VERTEX
  8
2
  62
0
  10
    13.500000
  20
    21.000000
  30
    0.000000
  0
VERTEX
  8
2
  62
0
  10
    12.300000
  20
    21.900000
  30
    0.000000
  0
VERTEX
  8
2
  62
0
  10
    12.300000
  20
    22.200000
  30
    0.000000
  0
VERTEX
  8
2
  62
0
  10
    10.500000
  20
    23.250000
  30
    0.000000
  0
VERTEX
  8
2
  62
0
  10
    10.200000
  20
    24.750000
  30
    0.000000
  0
SEQEND
  0
POLYLINE
  8
2
  62
0
  66
1
  0
VERTEX
  8
2
  62
0
  10
    10.350000
  20
    16.500000
  30
    0.000000
  0
VERTEX
  8
2
  62
0
  10
    10.950000
  20
    16.500000
  30
    0.000000
  0
VERTEX
  8
2
  62
0
  10
    11.550000
  20
    15.150000
  30
    0.000000
  0
VERTEX
  8
2
  62
0
  10
    12.000000
  20
    15.150000
  30
    0.000000
  0
VERTEX
  8
2
  62
0
  10
    11.700000
  20
    10.200000
  30
    0.000000
  0
VERTEX
  8
2
  62
0
  10
    10.800000
  20
    10.350000
  30
    0.000000
  0
VERTEX
  8
2
  62
0
  10
    10.200000
  20
    11.250000
  30
    0.000000
  0
VERTEX
  8
2
  62
0
  10
    10.200000
  20
    12.600000
  30
    0.000000
  0
VERTEX
  8
2
  62
0
  10
    10.650000
  20
    13.050000
  30
    0.000000
  0
VERTEX
  8
2
  62
0
  10
    10.200000
  20
    15.000000
  30
    0.000000
  0
VERTEX
  8
2
  62
0
  10
    10.350000
  20
    16.500000
  30
    0.000000
  0
SEQEND
  0
POLYLINE
  8
2
  62
0
  66
1
  0
VERTEX
  8
2
  62
0
  10
    10.200000
  20
    8.700000
  30
    0.000000
  0
VERTEX
  8
2
  62
0
  10
    10.800000
  20
    9.450000
  30
    0.000000
  0
VERTEX
  8
2
  62
0
  10
    11.400000
  20
    9.600000
  30
    0.000000
  0
VERTEX
  8
2
  62
0
  10
    12.150000
  20
    9.000000
  30
    0.000000
  0
VERTEX
  8
2
  62
0
  10
    12.150000
  20
    8.100000
  30
    0.000000
  0
VERTEX
  8
2
  62
0
  10
    10.950000
  20
    7.800000
  30
    0.000000
  0
VERTEX
  8
2
  62
0
  10
    10.350000
  20
    8.100000
  30
    0.000000
  0
VERTEX
  8
2
  62
0
  10
    10.200000
  20
    8.700000
  30
    0.000000
  0
SEQEND
  0
POLYLINE
  8
2
  62
0
  66
1
  0
VERTEX
  8
2
  62
0
  10
    10.500000
  20
    51.600000
  30
    0.000000
  0
VERTEX
  8
2
  62
0
  10
    11.250000
  20
    51.750000
  30
    0.000000
  0
VERTEX
  8
2
  62
0
  10
    11.700000
  20
    51.300000
  30
    0.000000
  0
VERTEX
  8
2
  62
0
  10
    11.550000
  20
    50.100000
  30
    0.000000
  0
VERTEX
  8
2
  62
0
  10
    10.500000
  20
    50.550000
  30
    0.000000
  0
VERTEX
  8
2
  62
0
  10
    10.500000
  20
    51.600000
  30
    0.000000
  0
SEQEND
  0
POLYLINE
  8
2
  62
0
  66
1
  0
VERTEX
  8
2
  62
0
  10
    13.350000
  20
    49.800000
  30
    0.000000
  0
VERTEX
  8
2
  62
0
  10
    13.350000
  20
    49.200000
  30
    0.000000
  0
VERTEX
  8
2
  62
0
  10
    12.900000
  20
    49.200000
  30
    0.000000
  0
VERTEX
  8
2
  62
0
  10
    12.600000
  20
    48.750000
  30
    0.000000
  0
VERTEX
  8
2
  62
0
  10
    11.250000
  20
    48.900000
  30
    0.000000
  0
VERTEX
  8
2
  62
0
  10
    12.450000
  20
    50.100000
  30
    0.000000
  0
VERTEX
  8
2
  62
0
  10
    13.350000
  20
    49.800000
  30
    0.000000
  0
SEQEND
  0
POLYLINE
  8
2
  62
0
  66
1
  0
VERTEX
  8
2
  62
0
  10
    11.550000
  20
    38.100000
  30
    0.000000
  0
VERTEX
  8
2
  62
0
  10
    12.750000
  20
    37.950000
  30
    0.000000
  0
VERTEX
  8
2
  62
0
  10
    13.200000
  20
    37.500000
  30
    0.000000
  0
VERTEX
  8
2
  62
0
  10
    13.200000
  20
    36.600000
  30
    0.000000
  0
VERTEX
  8
2
  62
0
  10
    11.700000
  20
    36.450000
  30
    0.000000
  0
VERTEX
  8
2
  62
0
  10
    11.250000
  20
    37.050000
  30
    0.000000
  0
VERTEX
  8
2
  62
0
  10
    11.550000
  20
    38.100000
  30
    0.000000
  0
SEQEND
  0
POLYLINE
  8
2
  62
0
  66
1
  0
VERTEX
  8
2
  62
0
  10
    15.300000
  20
    0.750000
  30
    0.000000
  0
VERTEX
  8
2
  62
0
  10
    15.300000
  20
    0.000000
  30
    0.000000
  0
VERTEX
  8
2
  62
0
  10
    11.250000
  20
    0.000000
  30
    0.000000
  0
VERTEX
  8
2
  62
0
  10
    11.400000
  20
    0.750000
  30
    0.000000
  0
VERTEX
  8
2
  62
0
  10
    13.050000
  20
    2.100000
  30
    0.000000
  0
VERTEX
  8
2
  62
0
  10
    14.250000
  20
    2.250000
  30
    0.000000
  0
VERTEX
  8
2
  62
0
  10
    15.300000
  20
    0.750000
  30
    0.000000
  0
SEQEND
  0
POLYLINE
  8
2
  62
0
  66
1
  0
VERTEX
  8
2
  62
0
  10
    11.400000
  20
    33.750000
  30
    0.000000
  0
VERTEX
  8
2
  62
0
  10
    14.100000
  20
    35.550000
  30
    0.000000
  0
VERTEX
  8
2
  62
0
  10
    14.700000
  20
    35.400000
  30
    0.000000
  0
VERTEX
  8
2
  62
0
  10
    16.200000
  20
    34.350000
  30
    0.000000
  0
VERTEX
  8
2
  62
0
  10
    17.700000
  20
    34.050000
  30
    0.000000
  0
VERTEX
  8
2
  62
0
  10
    18.600000
  20
    33.300000
  30
    0.000000
  0
VERTEX
  8
2
  62
0
  10
    18.600000
  20
    32.550000
  30
    0.000000
  0
VERTEX
  8
2
  62
0
  10
    19.350000
  20
    31.650000
  30
    0.000000
  0
VERTEX
  8
2
  62
0
  10
    19.350000
  20
    30.450000
  30
    0.000000
  0
VERTEX
  8
2
  62
0
  10
    18.600000
  20
    29.550000
  30
    0.000000
  0
VERTEX
  8
2
  62
0
  10
    16.500000
  20
    28.650000
  30
    0.000000
  0
VERTEX
  8
2
  62
0
  10
    16.200000
  20
    28.050000
  30
    0.000000
  0
VERTEX
  8
2
  62
0
  10
    15.000000
  20
    28.200000
  30
    0.000000
  0
VERTEX
  8
2
  62
0
  10
    13.800000
  20
    29.400000
  30
    0.000000
  0
VERTEX
  8
2
  62
0
  10
    13.800000
  20
    30.750000
  30
    0.000000
  0
VERTEX
  8
2
  62
0
  10
    13.050000
  20
    32.100000
  30
    0.000000
  0
VERTEX
  8
2
  62
0
  10
    11.700000
  20
    33.000000
  30
    0.000000
  0
VERTEX
  8
2
  62
0
  10
    11.400000
  20
    33.750000
  30
    0.000000
  0
SEQEND
  0
POLYLINE
  8
2
  62
0
  66
1
  0
VERTEX
  8
2
  62
0
  10
    15.150000
  20
    6.150000
  30
    0.000000
  0
VERTEX
  8
2
  62
0
  10
    15.150000
  20
    4.800000
  30
    0.000000
  0
VERTEX
  8
2
  62
0
  10
    14.400000
  20
    4.200000
  30
    0.000000
  0
VERTEX
  8
2
  62
0
  10
    14.250000
  20
    3.000000
  30
    0.000000
  0
VERTEX
  8
2
  62
0
  10
    13.350000
  20
    2.700000
  30
    0.000000
  0
VERTEX
  8
2
  62
0
  10
    11.550000
  20
    3.300000
  30
    0.000000
  0
VERTEX
  8
2
  62
0
  10
    11.550000
  20
    4.350000
  30
    0.000000
  0
VERTEX
  8
2
  62
0
  10
    12.150000
  20
    5.100000
  30
    0.000000
  0
VERTEX
  8
2
  62
0
  10
    13.800000
  20
    5.550000
  30
    0.000000
  0
VERTEX
  8
2
  62
0
  10
    13.950000
  20
    6.000000
  30
    0.000000
  0
VERTEX
  8
2
  62
0
  10
    15.150000
  20
    6.150000
  30
    0.000000
  0
SEQEND
  0
POLYLINE
  8
2
  62
0
  66
1
  0
VERTEX
  8
2
  62
0
  10
    17.700000
  20
    20.400000
  30
    0.000000
  0
VERTEX
  8
2
  62
0
  10
    17.700000
  20
    19.800000
  30
    0.000000
  0
VERTEX
  8
2
  62
0
  10
    16.200000
  20
    19.050000
  30
    0.000000
  0
VERTEX
  8
2
  62
0
  10
    14.400000
  20
    16.800000
  30
    0.000000
  0
VERTEX
  8
2
  62
0
  10
    12.900000
  20
    16.650000
  30
    0.000000
  0
VERTEX
  8
2
  62
0
  10
    12.900000
  20
    17.250000
  30
    0.000000
  0
VERTEX
  8
2
  62
0
  10
    11.850000
  20
    17.250000
  30
    0.000000
  0
VERTEX
  8
2
  62
0
  10
    12.000000
  20
    18.000000
  30
    0.000000
  0
VERTEX
  8
2
  62
0
  10
    13.800000
  20
    18.750000
  30
    0.000000
  0
VERTEX
  8
2
  62
0
  10
    14.550000
  20
    19.200000
  30
    0.000000
  0
VERTEX
  8
2
  62
0
  10
    14.550000
  20
    19.500000
  30
    0.000000
  0
VERTEX
  8
2
  62
0
  10
    15.450000
  20
    19.650000
  30
    0.000000
  0
VERTEX
  8
2
  62
0
  10
    16.350000
  20
    20.550000
  30
    0.000000
  0
VERTEX
  8
2
  62
0
  10
    17.700000
  20
    20.400000
  30
    0.000000
  0
SEQEND
  0
POLYLINE
  8
2
  62
0
  66
1
  0
VERTEX
  8
2
  62
0
  10
    12.300000
  20
    30.000000
  30
    0.000000
  0
VERTEX
  8
2
  62
0
  10
    12.750000
  20
    30.000000
  30
    0.000000
  0
VERTEX
  8
2
  62
0
  10
    13.200000
  20
    28.950000
  30
    0.000000
  0
VERTEX
  8
2
  62
0
  10
    14.250000
  20
    28.050000
  30
    0.000000
  0
VERTEX
  8
2
  62
0
  10
    14.250000
  20
    25.350000
  30
    0.000000
  0
VERTEX
  8
2
  62
0
  10
    13.950000
  20
    25.050000
  30
    0.000000
  0
VERTEX
  8
2
  62
0
  10
    13.500000
  20
    25.200000
  30
    0.000000
  0
VERTEX
  8
2
  62
0
  10
    12.600000
  20
    26.850000
  30
    0.000000
  0
VERTEX
  8
2
  62
0
  10
    12.000000
  20
    26.850000
  30
    0.000000
  0
VERTEX
  8
2
  62
0
  10
    12.300000
  20
    30.000000
  30
    0.000000
  0
SEQEND
  0
POLYLINE
  8
2
  62
0
  66
1
  0
VERTEX
  8
2
  62
0
  10
    15.150000
  20
    40.950000
  30
    0.000000
  0
VERTEX
  8
2
  62
0
  10
    14.550000
  20
    39.000000
  30
    0.000000
  0
VERTEX
  8
2
  62
0
  10
    12.450000
  20
    39.150000
  30
    0.000000
  0
VERTEX
  8
2
  62
0
  10
    12.900000
  20
    40.050000
  30
    0.000000
  0
VERTEX
  8
2
  62
0
  10
    14.250000
  20
    40.350000
  30
    0.000000
  0
VERTEX
  8
2
  62
0
  10
    14.250000
  20
    40.650000
  30
    0.000000
  0
VERTEX
  8
2
  62
0
  10
    15.150000
  20
    40.950000
  30
    0.000000
  0
SEQEND
  0
POLYLINE
  8
2
  62
0
  66
1
  0
VERTEX
  8
2
  62
0
  10
    12.750000
  20
    14.250000
  30
    0.000000
  0
VERTEX
  8
2
  62
0
  10
    15.150000
  20
    13.350000
  30
    0.000000
  0
VERTEX
  8
2
  62
0
  10
    16.800000
  20
    11.700000
  30
    0.000000
  0
VERTEX
  8
2
  62
0
  10
    16.800000
  20
    10.650000
  30
    0.000000
  0
VERTEX
  8
2
  62
0
  10
    15.150000
  20
    8.850000
  30
    0.000000
  0
VERTEX
  8
2
  62
0
  10
    13.500000
  20
    6.000000
  30
    0.000000
  0
VERTEX
  8
2
  62
0
  10
    12.900000
  20
    6.900000
  30
    0.000000
  0
VERTEX
  8
2
  62
0
  10
    13.200000
  20
    13.200000
  30
    0.000000
  0
VERTEX
  8
2
  62
0
  10
    12.900000
  20
    13.350000
  30
    0.000000
  0
VERTEX
  8
2
  62
0
  10
    12.750000
  20
    14.250000
  30
    0.000000
  0
SEQEND
  0
POLYLINE
  8
2
  62
0
  66
1
  0
VERTEX
  8
2
  62
0
  10
    13.650000
  20
    47.250000
  30
    0.000000
  0
VERTEX
  8
2
  62
0
  10
    14.250000
  20
    47.100000
  30
    0.000000
  0
VERTEX
  8
2
  62
0
  10
    14.550000
  20
    44.250000
  30
    0.000000
  0
VERTEX
  8
2
  62
0
  10
    15.000000
  20
    43.500000
  30
    0.000000
  0
VERTEX
  8
2
  62
0
  10
    15.000000
  20
    42.450000
  30
    0.000000
  0
VERTEX
  8
2
  62
0
  10
    14.250000
  20
    41.550000
  30
    0.000000
  0
VERTEX
  8
2
  62
0
  10
    13.800000
  20
    41.550000
  30
    0.000000
  0
VERTEX
  8
2
  62
0
  10
    13.800000
  20
    42.300000
  30
    0.000000
  0
VERTEX
  8
2
  62
0
  10
    12.900000
  20
    43.650000
  30
    0.000000
  0
VERTEX
  8
2
  62
0
  10
    12.900000
  20
    44.100000
  30
    0.000000
  0
VERTEX
  8
2
  62
0
  10
    13.200000
  20
    44.100000
  30
    0.000000
  0
VERTEX
  8
2
  62
0
  10
    12.900000
  20
    44.400000
  30
    0.000000
  0
VERTEX
  8
2
  62
0
  10
    13.200000
  20
    46.800000
  30
    0.000000
  0
VERTEX
  8
2
  62
0
  10
    13.650000
  20
    46.950000
  30
    0.000000
  0
VERTEX
  8
2
  62
0
  10
    13.650000
  20
    47.250000
  30
    0.000000
  0
SEQEND
  0
POLYLINE
  8
2
  62
0
  66
1
  0
VERTEX
  8
2
  62
0
  10
    16.950000
  20
    50.850000
  30
    0.000000
  0
VERTEX
  8
2
  62
0
  10
    16.950000
  20
    50.400000
  30
    0.000000
  0
VERTEX
  8
2
  62
0
  10
    16.050000
  20
    49.650000
  30
    0.000000
  0
VERTEX
  8
2
  62
0
  10
    14.400000
  20
    50.250000
  30
    0.000000
  0
VERTEX
  8
2
  62
0
  10
    14.850000
  20
    51.900000
  30
    0.000000
  0
VERTEX
  8
2
  62
0
  10
    16.050000
  20
    51.900000
  30
    0.000000
  0
VERTEX
  8
2
  62
0
  10
    16.950000
  20
    50.850000
  30
    0.000000
  0
SEQEND
  0
POLYLINE
  8
2
  62
0
  66
1
  0
VERTEX
  8
2
  62
0
  10
    16.800000
  20
    27.450000
  30
    0.000000
  0
VERTEX
  8
2
  62
0
  10
    16.800000
  20
    26.250000
  30
    0.000000
  0
VERTEX
  8
2
  62
0
  10
    15.750000
  20
    25.200000
  30
    0.000000
  0
VERTEX
  8
2
  62
0
  10
    14.550000
  20
    25.500000
  30
    0.000000
  0
VERTEX
  8
2
  62
0
  10
    14.700000
  20
    27.300000
  30
    0.000000
  0
VERTEX
  8
2
  62
0
  10
    15.000000
  20
    27.600000
  30
    0.000000
  0
VERTEX
  8
2
  62
0
  10
    16.350000
  20
    27.750000
  30
    0.000000
  0
VERTEX
  8
2
  62
0
  10
    16.800000
  20
    27.450000
  30
    0.000000
  0
SEQEND
  0
POLYLINE
  8
2
  62
0
  66
1
  0
VERTEX
  8
2
  62
0
  10
    14.850000
  20
    16.800000
  30
    0.000000
  0
VERTEX
  8
2
  62
0
  10
    15.600000
  20
    17.550000
  30
    0.000000
  0
VERTEX
  8
2
  62
0
  10
    16.200000
  20
    17.250000
  30
    0.000000
  0
VERTEX
  8
2
  62
0
  10
    16.500000
  20
    16.500000
  30
    0.000000
  0
VERTEX
  8
2
  62
0
  10
    16.050000
  20
    16.200000
  30
    0.000000
  0
VERTEX
  8
2
  62
0
  10
    14.850000
  20
    16.500000
  30
    0.000000
  0
VERTEX
  8
2
  62
0
  10
    14.850000
  20
    16.800000
  30
    0.000000
  0
SEQEND
  0
POLYLINE
  8
2
  62
0
  66
1
  0
VERTEX
  8
2
  62
0
  10
    15.150000
  20
    39.450000
  30
    0.000000
  0
VERTEX
  8
2
  62
0
  10
    16.350000
  20
    39.600000
  30
    0.000000
  0
VERTEX
  8
2
  62
0
  10
    17.700000
  20
    38.550000
  30
    0.000000
  0
VERTEX
  8
2
  62
0
  10
    18.300000
  20
    37.200000
  30
    0.000000
  0
VERTEX
  8
2
  62
0
  10
    18.300000
  20
    35.700000
  30
    0.000000
  0
VERTEX
  8
2
  62
0
  10
    17.700000
  20
    34.950000
  30
    0.000000
  0
VERTEX
  8
2
  62
0
  10
    16.950000
  20
    34.950000
  30
    0.000000
  0
VERTEX
  8
2
  62
0
  10
    16.050000
  20
    36.450000
  30
    0.000000
  0
VERTEX
  8
2
  62
0
  10
    15.750000
  20
    36.450000
  30
    0.000000
  0
VERTEX
  8
2
  62
0
  10
    15.000000
  20
    38.250000
  30
    0.000000
  0
VERTEX
  8
2
  62
0
  10
    15.150000
  20
    39.450000
  30
    0.000000
  0
SEQEND
  0
POLYLINE
  8
2
  62
0
  66
1
  0
VERTEX
  8
2
  62
0
  10
    16.350000
  20
    14.850000
  30
    0.000000
  0
VERTEX
  8
2
  62
0
  10
    16.500000
  20
    14.250000
  30
    0.000000
  0
VERTEX
  8
2
  62
0
  10
    16.200000
  20
    13.800000
  30
    0.000000
  0
VERTEX
  8
2
  62
0
  10
    15.600000
  20
    13.650000
  30
    0.000000
  0
VERTEX
  8
2
  62
0
  10
    15.150000
  20
    13.950000
  30
    0.000000
  0
VERTEX
  8
2
  62
0
  10
    15.450000
  20
    14.550000
  30
    0.000000
  0
VERTEX
  8
2
  62
0
  10
    16.350000
  20
    14.850000
  30
    0.000000
  0
SEQEND
  0
POLYLINE
  8
2
  62
0
  66
1
  0
VERTEX
  8
2
  62
0
  10
    17.850000
  20
    50.250000
  30
    0.000000
  0
VERTEX
  8
2
  62
0
  10
    18.300000
  20
    49.050000
  30
    0.000000
  0
VERTEX
  8
2
  62
0
  10
    19.500000
  20
    48.000000
  30
    0.000000
  0
VERTEX
  8
2
  62
0
  10
    19.650000
  20
    47.100000
  30
    0.000000
  0
VERTEX
  8
2
  62
0
  10
    18.300000
  20
    46.200000
  30
    0.000000
  0
VERTEX
  8
2
  62
0
  10
    16.950000
  20
    45.900000
  30
    0.000000
  0
VERTEX
  8
2
  62
0
  10
    16.350000
  20
    44.700000
  30
    0.000000
  0
VERTEX
  8
2
  62
0
  10
    15.300000
  20
    44.850000
  30
    0.000000
  0
VERTEX
  8
2
  62
0
  10
    15.300000
  20
    46.200000
  30
    0.000000
  0
VERTEX
  8
2
  62
0
  10
    15.900000
  20
    46.650000
  30
    0.000000
  0
VERTEX
  8
2
  62
0
  10
    16.050000
  20
    49.200000
  30
    0.000000
  0
VERTEX
  8
2
  62
0
  10
    17.100000
  20
    50.250000
  30
    0.000000
  0
VERTEX
  8
2
  62
0
  10
    17.850000
  20
    50.250000
  30
    0.000000
  0
SEQEND
  0
POLYLINE
  8
2
  62
0
  66
1
  0
VERTEX
  8
2
  62
0
  10
    16.650000
  20
    6.750000
  30
    0.000000
  0
VERTEX
  8
2
  62
0
  10
    17.550000
  20
    6.750000
  30
    0.000000
  0
VERTEX
  8
2
  62
0
  10
    17.850000
  20
    6.300000
  30
    0.000000
  0
VERTEX
  8
2
  62
0
  10
    18.300000
  20
    4.950000
  30
    0.000000
  0
VERTEX
  8
2
  62
0
  10
    18.450000
  20
    2.550000
  30
    0.000000
  0
VERTEX
  8
2
  62
0
  10
    16.650000
  20
    3.000000
  30
    0.000000
  0
VERTEX
  8
2
  62
0
  10
    16.650000
  20
    4.200000
  30
    0.000000
  0
VERTEX
  8
2
  62
0
  10
    16.350000
  20
    4.800000
  30
    0.000000
  0
VERTEX
  8
2
  62
0
  10
    15.900000
  20
    4.800000
  30
    0.000000
  0
VERTEX
  8
2
  62
0
  10
    15.900000
  20
    5.700000
  30
    0.000000
  0
VERTEX
  8
2
  62
0
  10
    16.650000
  20
    6.750000
  30
    0.000000
  0
SEQEND
  0
POLYLINE
  8
2
  62
0
  66
1
  0
VERTEX
  8
2
  62
0
  10
    18.300000
  20
    43.500000
  30
    0.000000
  0
VERTEX
  8
2
  62
0
  10
    18.450000
  20
    42.450000
  30
    0.000000
  0
VERTEX
  8
2
  62
0
  10
    16.200000
  20
    40.650000
  30
    0.000000
  0
VERTEX
  8
2
  62
0
  10
    16.050000
  20
    43.500000
  30
    0.000000
  0
VERTEX
  8
2
  62
0
  10
    17.100000
  20
    43.950000
  30
    0.000000
  0
VERTEX
  8
2
  62
0
  10
    18.300000
  20
    43.500000
  30
    0.000000
  0
SEQEND
  0
POLYLINE
  8
2
  62
0
  66
1
  0
VERTEX
  8
2
  62
0
  10
    16.800000
  20
    24.450000
  30
    0.000000
  0
VERTEX
  8
2
  62
0
  10
    18.750000
  20
    26.250000
  30
    0.000000
  0
VERTEX
  8
2
  62
0
  10
    20.850000
  20
    24.600000
  30
    0.000000
  0
VERTEX
  8
2
  62
0
  10
    21.150000
  20
    23.700000
  30
    0.000000
  0
VERTEX
  8
2
  62
0
  10
    20.250000
  20
    22.650000
  30
    0.000000
  0
VERTEX
  8
2
  62
0
  10
    19.200000
  20
    22.800000
  30
    0.000000
  0
VERTEX
  8
2
  62
0
  10
    16.950000
  20
    24.000000
  30
    0.000000
  0
VERTEX
  8
2
  62
0
  10
    16.800000
  20
    24.450000
  30
    0.000000
  0
SEQEND
  0
POLYLINE
  8
2
  62
0
  66
1
  0
VERTEX
  8
2
  62
0
  10
    23.850000
  20
    20.100000
  30
    0.000000
  0
VERTEX
  8
2
  62
0
  10
    26.100000
  20
    18.150000
  30
    0.000000
  0
VERTEX
  8
2
  62
0
  10
    25.500000
  20
    16.500000
  30
    0.000000
  0
VERTEX
  8
2
  62
0
  10
    25.500000
  20
    15.300000
  30
    0.000000
  0
VERTEX
  8
2
  62
0
  10
    23.400000
  20
    10.200000
  30
    0.000000
  0
VERTEX
  8
2
  62
0
  10
    22.200000
  20
    9.000000
  30
    0.000000
  0
VERTEX
  8
2
  62
0
  10
    21.900000
  20
    7.950000
  30
    0.000000
  0
VERTEX
  8
2
  62
0
  10
    19.950000
  20
    7.350000
  30
    0.000000
  0
VERTEX
  8
2
  62
0
  10
    18.750000
  20
    7.950000
  30
    0.000000
  0
VERTEX
  8
2
  62
0
  10
    18.300000
  20
    9.000000
  30
    0.000000
  0
VERTEX
  8
2
  62
0
  10
    17.400000
  20
    13.200000
  30
    0.000000
  0
VERTEX
  8
2
  62
0
  10
    17.400000
  20
    15.000000
  30
    0.000000
  0
VERTEX
  8
2
  62
0
  10
    19.500000
  20
    17.250000
  30
    0.000000
  0
VERTEX
  8
2
  62
0
  10
    19.950000
  20
    18.150000
  30
    0.000000
  0
VERTEX
  8
2
  62
0
  10
    22.200000
  20
    19.350000
  30
    0.000000
  0
VERTEX
  8
2
  62
0
  10
    22.650000
  20
    19.950000
  30
    0.000000
  0
VERTEX
  8
2
  62
0
  10
    23.850000
  20
    20.100000
  30
    0.000000
  0
SEQEND
  0
POLYLINE
  8
2
  62
0
  66
1
  0
VERTEX
  8
2
  62
0
  10
    23.100000
  20
    42.750000
  30
    0.000000
  0
VERTEX
  8
2
  62
0
  10
    23.250000
  20
    41.400000
  30
    0.000000
  0
VERTEX
  8
2
  62
0
  10
    17.400000
  20
    40.350000
  30
    0.000000
  0
VERTEX
  8
2
  62
0
  10
    17.400000
  20
    40.950000
  30
    0.000000
  0
VERTEX
  8
2
  62
0
  10
    18.750000
  20
    41.400000
  30
    0.000000
  0
VERTEX
  8
2
  62
0
  10
    18.750000
  20
    41.850000
  30
    0.000000
  0
VERTEX
  8
2
  62
0
  10
    20.100000
  20
    42.000000
  30
    0.000000
  0
VERTEX
  8
2
  62
0
  10
    22.200000
  20
    43.050000
  30
    0.000000
  0
VERTEX
  8
2
  62
0
  10
    23.100000
  20
    42.750000
  30
    0.000000
  0
SEQEND
  0
POLYLINE
  8
2
  62
0
  66
1
  0
VERTEX
  8
2
  62
0
  10
    18.900000
  20
    19.950000
  30
    0.000000
  0
VERTEX
  8
2
  62
0
  10
    19.650000
  20
    18.900000
  30
    0.000000
  0
VERTEX
  8
2
  62
0
  10
    19.650000
  20
    18.300000
  30
    0.000000
  0
VERTEX
  8
2
  62
0
  10
    18.900000
  20
    18.300000
  30
    0.000000
  0
VERTEX
  8
2
  62
0
  10
    18.750000
  20
    17.400000
  30
    0.000000
  0
VERTEX
  8
2
  62
0
  10
    17.550000
  20
    17.400000
  30
    0.000000
  0
VERTEX
  8
2
  62
0
  10
    17.550000
  20
    18.300000
  30
    0.000000
  0
VERTEX
  8
2
  62
0
  10
    18.000000
  20
    18.600000
  30
    0.000000
  0
VERTEX
  8
2
  62
0
  10
    18.000000
  20
    19.800000
  30
    0.000000
  0
VERTEX
  8
2
  62
0
  10
    18.900000
  20
    19.950000
  30
    0.000000
  0
SEQEND
  0
POLYLINE
  8
2
  62
0
  66
1
  0
VERTEX
  8
2
  62
0
  10
    17.850000
  20
    52.500000
  30
    0.000000
  0
VERTEX
  8
2
  62
0
  10
    20.400000
  20
    52.500000
  30
    0.000000
  0
VERTEX
  8
2
  62
0
  10
    21.000000
  20
    51.150000
  30
    0.000000
  0
VERTEX
  8
2
  62
0
  10
    22.200000
  20
    50.550000
  30
    0.000000
  0
VERTEX
  8
2
  62
0
  10
    23.250000
  20
    49.350000
  30
    0.000000
  0
VERTEX
  8
2
  62
0
  10
    23.100000
  20
    48.300000
  30
    0.000000
  0
VERTEX
  8
2
  62
0
  10
    22.050000
  20
    48.450000
  30
    0.000000
  0
VERTEX
  8
2
  62
0
  10
    21.300000
  20
    47.550000
  30
    0.000000
  0
VERTEX
  8
2
  62
0
  10
    20.850000
  20
    47.550000
  30
    0.000000
  0
VERTEX
  8
2
  62
0
  10
    20.850000
  20
    49.050000
  30
    0.000000
  0
VERTEX
  8
2
  62
0
  10
    17.850000
  20
    52.500000
  30
    0.000000
  0
SEQEND
  0
POLYLINE
  8
2
  62
0
  66
1
  0
VERTEX
  8
2
  62
0
  10
    19.500000
  20
    28.500000
  30
    0.000000
  0
VERTEX
  8
2
  62
0
  10
    19.350000
  20
    26.700000
  30
    0.000000
  0
VERTEX
  8
2
  62
0
  10
    18.150000
  20
    26.700000
  30
    0.000000
  0
VERTEX
  8
2
  62
0
  10
    17.850000
  20
    27.300000
  30
    0.000000
  0
VERTEX
  8
2
  62
0
  10
    18.600000
  20
    28.200000
  30
    0.000000
  0
VERTEX
  8
2
  62
0
  10
    19.500000
  20
    28.500000
  30
    0.000000
  0
SEQEND
  0
POLYLINE
  8
2
  62
0
  66
1
  0
VERTEX
  8
2
  62
0
  10
    21.750000
  20
    22.500000
  30
    0.000000
  0
VERTEX
  8
2
  62
0
  10
    21.750000
  20
    22.050000
  30
    0.000000
  0
VERTEX
  8
2
  62
0
  10
    20.850000
  20
    21.450000
  30
    0.000000
  0
VERTEX
  8
2
  62
0
  10
    19.350000
  20
    21.150000
  30
    0.000000
  0
VERTEX
  8
2
  62
0
  10
    18.000000
  20
    21.300000
  30
    0.000000
  0
VERTEX
  8
2
  62
0
  10
    18.000000
  20
    22.050000
  30
    0.000000
  0
VERTEX
  8
2
  62
0
  10
    20.550000
  20
    22.050000
  30
    0.000000
  0
VERTEX
  8
2
  62
0
  10
    21.150000
  20
    22.500000
  30
    0.000000
  0
VERTEX
  8
2
  62
0
  10
    21.750000
  20
    22.500000
  30
    0.000000
  0
SEQEND
  0
POLYLINE
  8
2
  62
0
  66
1
  0
VERTEX
  8
2
  62
0
  10
    19.050000
  20
    38.850000
  30
    0.000000
  0
VERTEX
  8
2
  62
0
  10
    19.950000
  20
    38.850000
  30
    0.000000
  0
VERTEX
  8
2
  62
0
  10
    20.250000
  20
    38.550000
  30
    0.000000
  0
VERTEX
  8
2
  62
0
  10
    20.550000
  20
    37.050000
  30
    0.000000
  0
VERTEX
  8
2
  62
0
  10
    19.950000
  20
    36.300000
  30
    0.000000
  0
VERTEX
  8
2
  62
0
  10
    19.350000
  20
    36.300000
  30
    0.000000
  0
VERTEX
  8
2
  62
0
  10
    18.750000
  20
    37.200000
  30
    0.000000
  0
VERTEX
  8
2
  62
0
  10
    18.750000
  20
    38.400000
  30
    0.000000
  0
VERTEX
  8
2
  62
0
  10
    19.050000
  20
    38.850000
  30
    0.000000
  0
SEQEND
  0
POLYLINE
  8
2
  62
0
  66
1
  0
VERTEX
  8
2
  62
0
  10
    19.050000
  20
    5.550000
  30
    0.000000
  0
VERTEX
  8
2
  62
0
  10
    19.650000
  20
    5.550000
  30
    0.000000
  0
VERTEX
  8
2
  62
0
  10
    20.100000
  20
    4.500000
  30
    0.000000
  0
VERTEX
  8
2
  62
0
  10
    21.000000
  20
    3.900000
  30
    0.000000
  0
VERTEX
  8
2
  62
0
  10
    21.000000
  20
    3.000000
  30
    0.000000
  0
VERTEX
  8
2
  62
0
  10
    20.250000
  20
    2.850000
  30
    0.000000
  0
VERTEX
  8
2
  62
0
  10
    19.800000
  20
    3.300000
  30
    0.000000
  0
VERTEX
  8
2
  62
0
  10
    19.050000
  20
    5.550000
  30
    0.000000
  0
SEQEND
  0
POLYLINE
  8
2
  62
0
  66
1
  0
VERTEX
  8
2
  62
0
  10
    19.800000
  20
    46.050000
  30
    0.000000
  0
VERTEX
  8
2
  62
0
  10
    20.850000
  20
    46.500000
  30
    0.000000
  0
VERTEX
  8
2
  62
0
  10
    22.050000
  20
    46.050000
  30
    0.000000
  0
VERTEX
  8
2
  62
0
  10
    22.650000
  20
    45.150000
  30
    0.000000
  0
VERTEX
  8
2
  62
0
  10
    22.500000
  20
    44.250000
  30
    0.000000
  0
VERTEX
  8
2
  62
0
  10
    19.950000
  20
    44.850000
  30
    0.000000
  0
VERTEX
  8
2
  62
0
  10
    19.650000
  20
    45.300000
  30
    0.000000
  0
VERTEX
  8
2
  62
0
  10
    19.800000
  20
    46.050000
  30
    0.000000
  0
SEQEND
  0
POLYLINE
  8
2
  62
0
  66
1
  0
VERTEX
  8
2
  62
0
  10
    19.800000
  20
    1.800000
  30
    0.000000
  0
VERTEX
  8
2
  62
0
  10
    20.250000
  20
    1.800000
  30
    0.000000
  0
VERTEX
  8
2
  62
0
  10
    21.000000
  20
    2.700000
  30
    0.000000
  0
VERTEX
  8
2
  62
0
  10
    21.900000
  20
    2.550000
  30
    0.000000
  0
VERTEX
  8
2
  62
0
  10
    21.750000
  20
    1.500000
  30
    0.000000
  0
VERTEX
  8
2
  62
0
  10
    22.650000
  20
    0.000000
  30
    0.000000
  0
VERTEX
  8
2
  62
0
  10
    19.950000
  20
    0.000000
  30
    0.000000
  0
VERTEX
  8
2
  62
0
  10
    19.800000
  20
    1.800000
  30
    0.000000
  0
SEQEND
  0
POLYLINE
  8
2
  62
0
  66
1
  0
VERTEX
  8
2
  62
0
  10
    19.950000
  20
    35.850000
  30
    0.000000
  0
VERTEX
  8
2
  62
0
  10
    22.200000
  20
    36.300000
  30
    0.000000
  0
VERTEX
  8
2
  62
0
  10
    22.050000
  20
    35.700000
  30
    0.000000
  0
VERTEX
  8
2
  62
0
  10
    22.500000
  20
    35.250000
  30
    0.000000
  0
VERTEX
  8
2
  62
0
  10
    22.500000
  20
    34.650000
  30
    0.000000
  0
VERTEX
  8
2
  62
0
  10
    19.950000
  20
    35.250000
  30
    0.000000
  0
VERTEX
  8
2
  62
0
  10
    19.950000
  20
    35.850000
  30
    0.000000
  0
SEQEND
  0
POLYLINE
  8
2
  62
0
  66
1
  0
VERTEX
  8
2
  62
0
  10
    19.950000
  20
    20.700000
  30
    0.000000
  0
VERTEX
  8
2
  62
0
  10
    20.850000
  20
    21.000000
  30
    0.000000
  0
VERTEX
  8
2
  62
0
  10
    21.600000
  20
    20.400000
  30
    0.000000
  0
VERTEX
  8
2
  62
0
  10
    21.750000
  20
    19.500000
  30
    0.000000
  0
VERTEX
  8
2
  62
0
  10
    20.250000
  20
    19.650000
  30
    0.000000
  0
VERTEX
  8
2
  62
0
  10
    19.950000
  20
    20.700000
  30
    0.000000
  0
SEQEND
  0
POLYLINE
  8
2
  62
0
  66
1
  0
VERTEX
  8
2
  62
0
  10
    20.700000
  20
    34.500000
  30
    0.000000
  0
VERTEX
  8
2
  62
0
  10
    21.600000
  20
    34.350000
  30
    0.000000
  0
VERTEX
  8
2
  62
0
  10
    22.200000
  20
    31.950000
  30
    0.000000
  0
VERTEX
  8
2
  62
0
  10
    22.950000
  20
    31.050000
  30
    0.000000
  0
VERTEX
  8
2
  62
0
  10
    23.550000
  20
    29.400000
  30
    0.000000
  0
VERTEX
  8
2
  62
0
  10
    23.250000
  20
    28.350000
  30
    0.000000
  0
VERTEX
  8
2
  62
0
  10
    22.650000
  20
    27.750000
  30
    0.000000
  0
VERTEX
  8
2
  62
0
  10
    22.050000
  20
    27.750000
  30
    0.000000
  0
VERTEX
  8
2
  62
0
  10
    20.850000
  20
    31.050000
  30
    0.000000
  0
VERTEX
  8
2
  62
0
  10
    20.400000
  20
    33.000000
  30
    0.000000
  0
VERTEX
  8
2
  62
0
  10
    20.400000
  20
    34.350000
  30
    0.000000
  0
VERTEX
  8
2
  62
0
  10
    20.700000
  20
    34.500000
  30
    0.000000
  0
SEQEND
  0
POLYLINE
  8
2
  62
0
  66
1
  0
VERTEX
  8
2
  62
0
  10
    24.150000
  20
    27.300000
  30
    0.000000
  0
VERTEX
  8
2
  62
0
  10
    23.850000
  20
    26.400000
  30
    0.000000
  0
VERTEX
  8
2
  62
0
  10
    24.150000
  20
    25.200000
  30
    0.000000
  0
VERTEX
  8
2
  62
0
  10
    21.150000
  20
    25.650000
  30
    0.000000
  0
VERTEX
  8
2
  62
0
  10
    21.150000
  20
    26.400000
  30
    0.000000
  0
VERTEX
  8
2
  62
0
  10
    22.500000
  20
    26.550000
  30
    0.000000
  0
VERTEX
  8
2
  62
0
  10
    24.150000
  20
    27.300000
  30
    0.000000
  0
SEQEND
  0
POLYLINE
  8
2
  62
0
  66
1
  0
VERTEX
  8
2
  62
0
  10
    21.600000
  20
    40.050000
  30
    0.000000
  0
VERTEX
  8
2
  62
0
  10
    22.200000
  20
    40.050000
  30
    0.000000
  0
VERTEX
  8
2
  62
0
  10
    22.800000
  20
    39.600000
  30
    0.000000
  0
VERTEX
  8
2
  62
0
  10
    22.800000
  20
    37.200000
  30
    0.000000
  0
VERTEX
  8
2
  62
0
  10
    22.050000
  20
    37.350000
  30
    0.000000
  0
VERTEX
  8
2
  62
0
  10
    21.600000
  20
    38.400000
  30
    0.000000
  0
VERTEX
  8
2
  62
0
  10
    21.600000
  20
    40.050000
  30
    0.000000
  0
SEQEND
  0
POLYLINE
  8
2
  62
0
  66
1
  0
VERTEX
  8
2
  62
0
  10
    23.850000
  20
    8.550000
  30
    0.000000
  0
VERTEX
  8
2
  62
0
  10
    23.700000
  20
    7.500000
  30
    0.000000
  0
VERTEX
  8
2
  62
0
  10
    21.900000
  20
    7.200000
  30
    0.000000
  0
VERTEX
  8
2
  62
0
  10
    22.650000
  20
    8.700000
  30
    0.000000
  0
VERTEX
  8
2
  62
0
  10
    23.850000
  20
    8.550000
  30
    0.000000
  0
SEQEND
  0
POLYLINE
  8
2
  62
0
  66
1
  0
VERTEX
  8
2
  62
0
  10
    22.350000
  20
    6.900000
  30
    0.000000
  0
VERTEX
  8
2
  62
0
  10
    25.500000
  20
    6.900000
  30
    0.000000
  0
VERTEX
  8
2
  62
0
  10
    25.500000
  20
    6.450000
  30
    0.000000
  0
VERTEX
  8
2
  62
0
  10
    26.550000
  20
    5.850000
  30
    0.000000
  0
VERTEX
  8
2
  62
0
  10
    27.300000
  20
    4.800000
  30
    0.000000
  0
VERTEX
  8
2
  62
0
  10
    27.300000
  20
    3.900000
  30
    0.000000
  0
VERTEX
  8
2
  62
0
  10
    22.050000
  20
    4.500000
  30
    0.000000
  0
VERTEX
  8
2
  62
0
  10
    21.900000
  20
    5.850000
  30
    0.000000
  0
VERTEX
  8
2
  62
0
  10
    22.350000
  20
    6.300000
  30
    0.000000
  0
VERTEX
  8
2
  62
0
  10
    22.350000
  20
    6.900000
  30
    0.000000
  0
SEQEND
  0
POLYLINE
  8
2
  62
0
  66
1
  0
VERTEX
  8
2
  62
0
  10
    22.800000
  20
    24.750000
  30
    0.000000
  0
VERTEX
  8
2
  62
0
  10
    23.850000
  20
    24.000000
  30
    0.000000
  0
VERTEX
  8
2
  62
0
  10
    24.000000
  20
    22.650000
  30
    0.000000
  0
VERTEX
  8
2
  62
0
  10
    23.550000
  20
    22.050000
  30
    0.000000
  0
VERTEX
  8
2
  62
0
  10
    22.800000
  20
    23.250000
  30
    0.000000
  0
VERTEX
  8
2
  62
0
  10
    22.800000
  20
    24.750000
  30
    0.000000
  0
SEQEND
  0
POLYLINE
  8
2
  62
0
  66
1
  0
VERTEX
  8
2
  62
0
  10
    26.250000
  20
    48.900000
  30
    0.000000
  0
VERTEX
  8
2
  62
0
  10
    25.950000
  20
    48.000000
  30
    0.000000
  0
VERTEX
  8
2
  62
0
  10
    26.100000
  20
    47.250000
  30
    0.000000
  0
VERTEX
  8
2
  62
0
  10
    25.500000
  20
    46.500000
  30
    0.000000
  0
VERTEX
  8
2
  62
0
  10
    25.500000
  20
    44.250000
  30
    0.000000
  0
VERTEX
  8
2
  62
0
  10
    24.750000
  20
    43.500000
  30
    0.000000
  0
VERTEX
  8
2
  62
0
  10
    23.700000
  20
    43.350000
  30
    0.000000
  0
VERTEX
  8
2
  62
0
  10
    24.000000
  20
    46.800000
  30
    0.000000
  0
VERTEX
  8
2
  62
0
  10
    23.100000
  20
    47.100000
  30
    0.000000
  0
VERTEX
  8
2
  62
0
  10
    23.100000
  20
    47.700000
  30
    0.000000
  0
VERTEX
  8
2
  62
0
  10
    25.650000
  20
    48.900000
  30
    0.000000
  0
VERTEX
  8
2
  62
0
  10
    26.250000
  20
    48.900000
  30
    0.000000
  0
SEQEND
  0
POLYLINE
  8
2
  62
0
  66
1
  0
VERTEX
  8
2
  62
0
  10
    23.250000
  20
    37.950000
  30
    0.000000
  0
VERTEX
  8
2
  62
0
  10
    24.150000
  20
    37.800000
  30
    0.000000
  0
VERTEX
  8
2
  62
0
  10
    24.450000
  20
    37.050000
  30
    0.000000
  0
VERTEX
  8
2
  62
0
  10
    25.350000
  20
    36.450000
  30
    0.000000
  0
VERTEX
  8
2
  62
0
  10
    25.050000
  20
    35.550000
  30
    0.000000
  0
VERTEX
  8
2
  62
0
  10
    23.400000
  20
    35.850000
  30
    0.000000
  0
VERTEX
  8
2
  62
0
  10
    23.250000
  20
    37.950000
  30
    0.000000
  0
SEQEND
  0
POLYLINE
  8
2
  62
0
  66
1
  0
VERTEX
  8
2
  62
0
  10
    23.850000
  20
    50.850000
  30
    0.000000
  0
VERTEX
  8
2
  62
0
  10
    24.300000
  20
    50.850000
  30
    0.000000
  0
VERTEX
  8
2
  62
0
  10
    24.900000
  20
    50.250000
  30
    0.000000
  0
VERTEX
  8
2
  62
0
  10
    24.900000
  20
    48.900000
  30
    0.000000
  0
VERTEX
  8
2
  62
0
  10
    23.550000
  20
    49.650000
  30
    0.000000
  0
VERTEX
  8
2
  62
0
  10
    23.400000
  20
    50.100000
  30
    0.000000
  0
VERTEX
  8
2
  62
0
  10
    23.850000
  20
    50.850000
  30
    0.000000
  0
SEQEND
  0
POLYLINE
  8
2
  62
0
  66
1
  0
VERTEX
  8
2
  62
0
  10
    23.550000
  20
    34.500000
  30
    0.000000
  0
VERTEX
  8
2
  62
0
  10
    24.300000
  20
    34.950000
  30
    0.000000
  0
VERTEX
  8
2
  62
0
  10
    27.150000
  20
    34.500000
  30
    0.000000
  0
VERTEX
  8
2
  62
0
  10
    28.050000
  20
    32.550000
  30
    0.000000
  0
VERTEX
  8
2
  62
0
  10
    27.750000
  20
    31.050000
  30
    0.000000
  0
VERTEX
  8
2
  62
0
  10
    26.400000
  20
    30.150000
  30
    0.000000
  0
VERTEX
  8
2
  62
0
  10
    24.450000
  20
    30.450000
  30
    0.000000
  0
VERTEX
  8
2
  62
0
  10
    23.550000
  20
    31.650000
  30
    0.000000
  0
VERTEX
  8
2
  62
0
  10
    23.850000
  20
    32.550000
  30
    0.000000
  0
VERTEX
  8
2
  62
0
  10
    23.550000
  20
    34.500000
  30
    0.000000
  0
SEQEND
  0
POLYLINE
  8
2
  62
0
  66
1
  0
VERTEX
  8
2
  62
0
  10
    25.800000
  20
    42.750000
  30
    0.000000
  0
VERTEX
  8
2
  62
0
  10
    26.400000
  20
    42.300000
  30
    0.000000
  0
VERTEX
  8
2
  62
0
  10
    26.850000
  20
    41.100000
  30
    0.000000
  0
VERTEX
  8
2
  62
0
  10
    26.400000
  20
    37.350000
  30
    0.000000
  0
VERTEX
  8
2
  62
0
  10
    24.900000
  20
    37.950000
  30
    0.000000
  0
VERTEX
  8
2
  62
0
  10
    23.850000
  20
    39.150000
  30
    0.000000
  0
VERTEX
  8
2
  62
0
  10
    24.000000
  20
    40.800000
  30
    0.000000
  0
VERTEX
  8
2
  62
0
  10
    24.600000
  20
    41.250000
  30
    0.000000
  0
VERTEX
  8
2
  62
0
  10
    24.600000
  20
    41.850000
  30
    0.000000
  0
VERTEX
  8
2
  62
0
  10
    25.800000
  20
    42.750000
  30
    0.000000
  0
SEQEND
  0
POLYLINE
  8
2
  62
0
  66
1
  0
VERTEX
  8
2
  62
0
  10
    25.050000
  20
    11.850000
  30
    0.000000
  0
VERTEX
  8
2
  62
0
  10
    25.350000
  20
    10.950000
  30
    0.000000
  0
VERTEX
  8
2
  62
0
  10
    24.750000
  20
    9.900000
  30
    0.000000
  0
VERTEX
  8
2
  62
0
  10
    24.150000
  20
    9.750000
  30
    0.000000
  0
VERTEX
  8
2
  62
0
  10
    23.850000
  20
    10.800000
  30
    0.000000
  0
VERTEX
  8
2
  62
0
  10
    24.600000
  20
    11.850000
  30
    0.000000
  0
VERTEX
  8
2
  62
0
  10
    25.050000
  20
    11.850000
  30
    0.000000
  0
SEQEND
  0
POLYLINE
  8
2
  62
0
  66
1
  0
VERTEX
  8
2
  62
0
  10
    25.800000
  20
    24.450000
  30
    0.000000
  0
VERTEX
  8
2
  62
0
  10
    27.600000
  20
    23.250000
  30
    0.000000
  0
VERTEX
  8
2
  62
0
  10
    27.450000
  20
    20.550000
  30
    0.000000
  0
VERTEX
  8
2
  62
0
  10
    27.000000
  20
    19.650000
  30
    0.000000
  0
VERTEX
  8
2
  62
0
  10
    25.050000
  20
    20.250000
  30
    0.000000
  0
VERTEX
  8
2
  62
0
  10
    24.000000
  20
    21.450000
  30
    0.000000
  0
VERTEX
  8
2
  62
0
  10
    24.150000
  20
    22.350000
  30
    0.000000
  0
VERTEX
  8
2
  62
0
  10
    25.350000
  20
    23.250000
  30
    0.000000
  0
VERTEX
  8
2
  62
0
  10
    25.800000
  20
    24.450000
  30
    0.000000
  0
SEQEND
  0
POLYLINE
  8
2
  62
0
  66
1
  0
VERTEX
  8
2
  62
0
  10
    24.750000
  20
    3.300000
  30
    0.000000
  0
VERTEX
  8
2
  62
0
  10
    25.650000
  20
    3.450000
  30
    0.000000
  0
VERTEX
  8
2
  62
0
  10
    25.950000
  20
    3.150000
  30
    0.000000
  0
VERTEX
  8
2
  62
0
  10
    25.800000
  20
    1.650000
  30
    0.000000
  0
VERTEX
  8
2
  62
0
  10
    25.050000
  20
    2.100000
  30
    0.000000
  0
VERTEX
  8
2
  62
0
  10
    24.600000
  20
    3.000000
  30
    0.000000
  0
VERTEX
  8
2
  62
0
  10
    24.750000
  20
    3.300000
  30
    0.000000
  0
SEQEND
  0
POLYLINE
  8
2
  62
0
  66
1
  0
VERTEX
  8
2
  62
0
  10
    35.250000
  20
    30.150000
  30
    0.000000
  0
VERTEX
  8
2
  62
0
  10
    34.950000
  20
    24.600000
  30
    0.000000
  0
VERTEX
  8
2
  62
0
  10
    34.650000
  20
    24.150000
  30
    0.000000
  0
VERTEX
  8
2
  62
0
  10
    33.150000
  20
    24.150000
  30
    0.000000
  0
VERTEX
  8
2
  62
0
  10
    28.500000
  20
    25.350000
  30
    0.000000
  0
VERTEX
  8
2
  62
0
  10
    26.100000
  20
    25.200000
  30
    0.000000
  0
VERTEX
  8
2
  62
0
  10
    25.350000
  20
    25.800000
  30
    0.000000
  0
VERTEX
  8
2
  62
0
  10
    24.750000
  20
    27.000000
  30
    0.000000
  0
VERTEX
  8
2
  62
0
  10
    24.900000
  20
    27.750000
  30
    0.000000
  0
VERTEX
  8
2
  62
0
  10
    25.500000
  20
    28.350000
  30
    0.000000
  0
VERTEX
  8
2
  62
0
  10
    28.500000
  20
    29.700000
  30
    0.000000
  0
VERTEX
  8
2
  62
0
  10
    28.800000
  20
    30.600000
  30
    0.000000
  0
VERTEX
  8
2
  62
0
  10
    28.500000
  20
    31.800000
  30
    0.000000
  0
VERTEX
  8
2
  62
0
  10
    29.100000
  20
    32.250000
  30
    0.000000
  0
VERTEX
  8
2
  62
0
  10
    32.700000
  20
    30.900000
  30
    0.000000
  0
VERTEX
  8
2
  62
0
  10
    33.450000
  20
    30.900000
  30
    0.000000
  0
VERTEX
  8
2
  62
0
  10
    34.200000
  20
    31.350000
  30
    0.000000
  0
VERTEX
  8
2
  62
0
  10
    35.250000
  20
    30.150000
  30
    0.000000
  0
SEQEND
  0
POLYLINE
  8
2
  62
0
  66
1
  0
VERTEX
  8
2
  62
0
  10
    27.150000
  20
    18.150000
  30
    0.000000
  0
VERTEX
  8
2
  62
0
  10
    27.450000
  20
    13.800000
  30
    0.000000
  0
VERTEX
  8
2
  62
0
  10
    25.800000
  20
    13.200000
  30
    0.000000
  0
VERTEX
  8
2
  62
0
  10
    26.100000
  20
    14.400000
  30
    0.000000
  0
VERTEX
  8
2
  62
0
  10
    25.350000
  20
    14.250000
  30
    0.000000
  0
VERTEX
  8
2
  62
0
  10
    25.350000
  20
    14.700000
  30
    0.000000
  0
VERTEX
  8
2
  62
0
  10
    26.700000
  20
    16.950000
  30
    0.000000
  0
VERTEX
  8
2
  62
0
  10
    26.700000
  20
    18.150000
  30
    0.000000
  0
VERTEX
  8
2
  62
0
  10
    27.150000
  20
    18.150000
  30
    0.000000
  0
SEQEND
  0
POLYLINE
  8
2
  62
0
  66
1
  0
VERTEX
  8
2
  62
0
  10
    31.350000
  20
    11.100000
  30
    0.000000
  0
VERTEX
  8
2
  62
0
  10
    31.350000
  20
    10.200000
  30
    0.000000
  0
VERTEX
  8
2
  62
0
  10
    30.600000
  20
    10.050000
  30
    0.000000
  0
VERTEX
  8
2
  62
0
  10
    29.850000
  20
    9.150000
  30
    0.000000
  0
VERTEX
  8
2
  62
0
  10
    28.200000
  20
    8.700000
  30
    0.000000
  0
VERTEX
  8
2
  62
0
  10
    27.900000
  20
    7.650000
  30
    0.000000
  0
VERTEX
  8
2
  62
0
  10
    27.000000
  20
    7.650000
  30
    0.000000
  0
VERTEX
  8
2
  62
0
  10
    25.350000
  20
    8.700000
  30
    0.000000
  0
VERTEX
  8
2
  62
0
  10
    25.800000
  20
    10.500000
  30
    0.000000
  0
VERTEX
  8
2
  62
0
  10
    25.650000
  20
    12.000000
  30
    0.000000
  0
VERTEX
  8
2
  62
0
  10
    26.400000
  20
    12.600000
  30
    0.000000
  0
VERTEX
  8
2
  62
0
  10
    27.900000
  20
    12.900000
  30
    0.000000
  0
VERTEX
  8
2
  62
0
  10
    28.500000
  20
    13.350000
  30
    0.000000
  0
VERTEX
  8
2
  62
0
  10
    31.350000
  20
    11.100000
  30
    0.000000
  0
SEQEND
  0
POLYLINE
  8
2
  62
0
  66
1
  0
VERTEX
  8
2
  62
0
  10
    27.900000
  20
    48.150000
  30
    0.000000
  0
VERTEX
  8
2
  62
0
  10
    28.650000
  20
    47.250000
  30
    0.000000
  0
VERTEX
  8
2
  62
0
  10
    29.400000
  20
    45.300000
  30
    0.000000
  0
VERTEX
  8
2
  62
0
  10
    28.050000
  20
    45.150000
  30
    0.000000
  0
VERTEX
  8
2
  62
0
  10
    26.850000
  20
    44.550000
  30
    0.000000
  0
VERTEX
  8
2
  62
0
  10
    26.250000
  20
    45.300000
  30
    0.000000
  0
VERTEX
  8
2
  62
0
  10
    26.400000
  20
    46.050000
  30
    0.000000
  0
VERTEX
  8
2
  62
0
  10
    27.450000
  20
    48.000000
  30
    0.000000
  0
VERTEX
  8
2
  62
0
  10
    27.900000
  20
    48.150000
  30
    0.000000
  0
SEQEND
  0
POLYLINE
  8
2
  62
0
  66
1
  0
VERTEX
  8
2
  62
0
  10
    26.400000
  20
    52.500000
  30
    0.000000
  0
VERTEX
  8
2
  62
0
  10
    30.900000
  20
    52.500000
  30
    0.000000
  0
VERTEX
  8
2
  62
0
  10
    31.950000
  20
    50.400000
  30
    0.000000
  0
VERTEX
  8
2
  62
0
  10
    32.400000
  20
    48.300000
  30
    0.000000
  0
VERTEX
  8
2
  62
0
  10
    31.500000
  20
    47.700000
  30
    0.000000
  0
VERTEX
  8
2
  62
0
  10
    30.900000
  20
    47.700000
  30
    0.000000
  0
VERTEX
  8
2
  62
0
  10
    27.150000
  20
    48.750000
  30
    0.000000
  0
VERTEX
  8
2
  62
0
  10
    26.550000
  20
    49.650000
  30
    0.000000
  0
VERTEX
  8
2
  62
0
  10
    26.400000
  20
    52.500000
  30
    0.000000
  0
SEQEND
  0
POLYLINE
  8
2
  62
0
  66
1
  0
VERTEX
  8
2
  62
0
  10
    28.350000
  20
    1.050000
  30
    0.000000
  0
VERTEX
  8
2
  62
0
  10
    28.050000
  20
    0.000000
  30
    0.000000
  0
VERTEX
  8
2
  62
0
  10
    26.400000
  20
    0.000000
  30
    0.000000
  0
VERTEX
  8
2
  62
0
  10
    26.400000
  20
    0.600000
  30
    0.000000
  0
VERTEX
  8
2
  62
0
  10
    27.000000
  20
    1.500000
  30
    0.000000
  0
VERTEX
  8
2
  62
0
  10
    28.350000
  20
    1.050000
  30
    0.000000
  0
SEQEND
  0
POLYLINE
  8
2
  62
0
  66
1
  0
VERTEX
  8
2
  62
0
  10
    27.300000
  20
    38.400000
  30
    0.000000
  0
VERTEX
  8
2
  62
0
  10
    28.350000
  20
    38.400000
  30
    0.000000
  0
VERTEX
  8
2
  62
0
  10
    28.650000
  20
    37.800000
  30
    0.000000
  0
VERTEX
  8
2
  62
0
  10
    28.350000
  20
    36.150000
  30
    0.000000
  0
VERTEX
  8
2
  62
0
  10
    27.750000
  20
    36.150000
  30
    0.000000
  0
VERTEX
  8
2
  62
0
  10
    27.150000
  20
    36.900000
  30
    0.000000
  0
VERTEX
  8
2
  62
0
  10
    27.300000
  20
    38.400000
  30
    0.000000
  0
SEQEND
  0
POLYLINE
  8
2
  62
0
  66
1
  0
VERTEX
  8
2
  62
0
  10
    28.050000
  20
    35.250000
  30
    0.000000
  0
VERTEX
  8
2
  62
0
  10
    28.800000
  20
    35.250000
  30
    0.000000
  0
VERTEX
  8
2
  62
0
  10
    29.250000
  20
    34.800000
  30
    0.000000
  0
VERTEX
  8
2
  62
0
  10
    29.100000
  20
    33.450000
  30
    0.000000
  0
VERTEX
  8
2
  62
0
  10
    28.500000
  20
    33.450000
  30
    0.000000
  0
VERTEX
  8
2
  62
0
  10
    28.350000
  20
    34.050000
  30
    0.000000
  0
VERTEX
  8
2
  62
0
  10
    27.900000
  20
    34.200000
  30
    0.000000
  0
VERTEX
  8
2
  62
0
  10
    28.050000
  20
    35.250000
  30
    0.000000
  0
SEQEND
  0
POLYLINE
  8
2
  62
0
  66
1
  0
VERTEX
  8
2
  62
0
  10
    27.900000
  20
    17.250000
  30
    0.000000
  0
VERTEX
  8
2
  62
0
  10
    28.650000
  20
    17.550000
  30
    0.000000
  0
VERTEX
  8
2
  62
0
  10
    30.300000
  20
    16.950000
  30
    0.000000
  0
VERTEX
  8
2
  62
0
  10
    30.450000
  20
    16.500000
  30
    0.000000
  0
VERTEX
  8
2
  62
0
  10
    30.000000
  20
    16.050000
  30
    0.000000
  0
VERTEX
  8
2
  62
0
  10
    28.650000
  20
    16.050000
  30
    0.000000
  0
VERTEX
  8
2
  62
0
  10
    28.050000
  20
    16.350000
  30
    0.000000
  0
VERTEX
  8
2
  62
0
  10
    27.900000
  20
    17.250000
  30
    0.000000
  0
SEQEND
  0
POLYLINE
  8
2
  62
0
  66
1
  0
VERTEX
  8
2
  62
0
  10
    28.350000
  20
    22.350000
  30
    0.000000
  0
VERTEX
  8
2
  62
0
  10
    30.000000
  20
    23.250000
  30
    0.000000
  0
VERTEX
  8
2
  62
0
  10
    30.750000
  20
    22.950000
  30
    0.000000
  0
VERTEX
  8
2
  62
0
  10
    30.900000
  20
    21.900000
  30
    0.000000
  0
VERTEX
  8
2
  62
0
  10
    30.600000
  20
    20.850000
  30
    0.000000
  0
VERTEX
  8
2
  62
0
  10
    29.250000
  20
    20.700000
  30
    0.000000
  0
VERTEX
  8
2
  62
0
  10
    28.650000
  20
    21.300000
  30
    0.000000
  0
VERTEX
  8
2
  62
0
  10
    28.350000
  20
    22.350000
  30
    0.000000
  0
SEQEND
  0
POLYLINE
  8
2
  62
0
  66
1
  0
VERTEX
  8
2
  62
0
  10
    28.350000
  20
    15.450000
  30
    0.000000
  0
VERTEX
  8
2
  62
0
  10
    29.400000
  20
    15.150000
  30
    0.000000
  0
VERTEX
  8
2
  62
0
  10
    29.400000
  20
    15.450000
  30
    0.000000
  0
VERTEX
  8
2
  62
0
  10
    30.450000
  20
    15.300000
  30
    0.000000
  0
VERTEX
  8
2
  62
0
  10
    31.350000
  20
    15.750000
  30
    0.000000
  0
VERTEX
  8
2
  62
0
  10
    31.350000
  20
    15.000000
  30
    0.000000
  0
VERTEX
  8
2
  62
0
  10
    30.900000
  20
    14.400000
  30
    0.000000
  0
VERTEX
  8
2
  62
0
  10
    31.200000
  20
    12.450000
  30
    0.000000
  0
VERTEX
  8
2
  62
0
  10
    30.600000
  20
    12.450000
  30
    0.000000
  0
VERTEX
  8
2
  62
0
  10
    28.950000
  20
    14.400000
  30
    0.000000
  0
VERTEX
  8
2
  62
0
  10
    28.500000
  20
    14.550000
  30
    0.000000
  0
VERTEX
  8
2
  62
0
  10
    28.350000
  20
    15.450000
  30
    0.000000
  0
SEQEND
  0
POLYLINE
  8
2
  62
0
  66
1
  0
VERTEX
  8
2
  62
0
  10
    30.750000
  20
    40.650000
  30
    0.000000
  0
VERTEX
  8
2
  62
0
  10
    30.750000
  20
    40.050000
  30
    0.000000
  0
VERTEX
  8
2
  62
0
  10
    29.850000
  20
    39.450000
  30
    0.000000
  0
VERTEX
  8
2
  62
0
  10
    28.500000
  20
    39.600000
  30
    0.000000
  0
VERTEX
  8
2
  62
0
  10
    28.500000
  20
    40.200000
  30
    0.000000
  0
VERTEX
  8
2
  62
0
  10
    29.400000
  20
    40.500000
  30
    0.000000
  0
VERTEX
  8
2
  62
0
  10
    29.400000
  20
    40.800000
  30
    0.000000
  0
VERTEX
  8
2
  62
0
  10
    30.750000
  20
    40.650000
  30
    0.000000
  0
SEQEND
  0
POLYLINE
  8
2
  62
0
  66
1
  0
VERTEX
  8
2
  62
0
  10
    31.800000
  20
    1.950000
  30
    0.000000
  0
VERTEX
  8
2
  62
0
  10
    31.650000
  20
    1.350000
  30
    0.000000
  0
VERTEX
  8
2
  62
0
  10
    31.050000
  20
    1.350000
  30
    0.000000
  0
VERTEX
  8
2
  62
0
  10
    31.050000
  20
    1.050000
  30
    0.000000
  0
VERTEX
  8
2
  62
0
  10
    30.000000
  20
    0.900000
  30
    0.000000
  0
VERTEX
  8
2
  62
0
  10
    29.850000
  20
    0.600000
  30
    0.000000
  0
VERTEX
  8
2
  62
0
  10
    29.100000
  20
    0.600000
  30
    0.000000
  0
VERTEX
  8
2
  62
0
  10
    28.950000
  20
    1.050000
  30
    0.000000
  0
VERTEX
  8
2
  62
0
  10
    28.500000
  20
    1.200000
  30
    0.000000
  0
VERTEX
  8
2
  62
0
  10
    29.100000
  20
    2.850000
  30
    0.000000
  0
VERTEX
  8
2
  62
0
  10
    29.700000
  20
    2.850000
  30
    0.000000
  0
VERTEX
  8
2
  62
0
  10
    30.150000
  20
    2.250000
  30
    0.000000
  0
VERTEX
  8
2
  62
0
  10
    30.900000
  20
    1.950000
  30
    0.000000
  0
VERTEX
  8
2
  62
0
  10
    31.800000
  20
    1.950000
  30
    0.000000
  0
SEQEND
  0
POLYLINE
  8
2
  62
0
  66
1
  0
VERTEX
  8
2
  62
0
  10
    33.300000
  20
    43.800000
  30
    0.000000
  0
VERTEX
  8
2
  62
0
  10
    33.300000
  20
    43.200000
  30
    0.000000
  0
VERTEX
  8
2
  62
0
  10
    28.800000
  20
    40.950000
  30
    0.000000
  0
VERTEX
  8
2
  62
0
  10
    29.250000
  20
    43.650000
  30
    0.000000
  0
VERTEX
  8
2
  62
0
  10
    29.700000
  20
    44.400000
  30
    0.000000
  0
VERTEX
  8
2
  62
0
  10
    31.350000
  20
    44.400000
  30
    0.000000
  0
VERTEX
  8
2
  62
0
  10
    33.300000
  20
    43.800000
  30
    0.000000
  0
SEQEND
  0
POLYLINE
  8
2
  62
0
  66
1
  0
VERTEX
  8
2
  62
0
  10
    32.250000
  20
    39.600000
  30
    0.000000
  0
VERTEX
  8
2
  62
0
  10
    33.150000
  20
    37.650000
  30
    0.000000
  0
VERTEX
  8
2
  62
0
  10
    34.950000
  20
    35.700000
  30
    0.000000
  0
VERTEX
  8
2
  62
0
  10
    35.100000
  20
    34.650000
  30
    0.000000
  0
VERTEX
  8
2
  62
0
  10
    34.650000
  20
    34.050000
  30
    0.000000
  0
VERTEX
  8
2
  62
0
  10
    32.700000
  20
    34.050000
  30
    0.000000
  0
VERTEX
  8
2
  62
0
  10
    32.550000
  20
    33.450000
  30
    0.000000
  0
VERTEX
  8
2
  62
0
  10
    30.900000
  20
    32.100000
  30
    0.000000
  0
VERTEX
  8
2
  62
0
  10
    30.150000
  20
    33.450000
  30
    0.000000
  0
VERTEX
  8
2
  62
0
  10
    29.100000
  20
    37.200000
  30
    0.000000
  0
VERTEX
  8
2
  62
0
  10
    31.350000
  20
    38.850000
  30
    0.000000
  0
VERTEX
  8
2
  62
0
  10
    31.500000
  20
    39.600000
  30
    0.000000
  0
VERTEX
  8
2
  62
0
  10
    32.250000
  20
    39.600000
  30
    0.000000
  0
SEQEND
  0
POLYLINE
  8
2
  62
0
  66
1
  0
VERTEX
  8
2
  62
0
  10
    29.100000
  20
    19.500000
  30
    0.000000
  0
VERTEX
  8
2
  62
0
  10
    30.150000
  20
    19.350000
  30
    0.000000
  0
VERTEX
  8
2
  62
0
  10
    30.150000
  20
    17.250000
  30
    0.000000
  0
VERTEX
  8
2
  62
0
  10
    29.700000
  20
    17.400000
  30
    0.000000
  0
VERTEX
  8
2
  62
0
  10
    29.400000
  20
    18.000000
  30
    0.000000
  0
VERTEX
  8
2
  62
0
  10
    29.100000
  20
    19.500000
  30
    0.000000
  0
SEQEND
  0
POLYLINE
  8
2
  62
0
  66
1
  0
VERTEX
  8
2
  62
0
  10
    29.400000
  20
    5.100000
  30
    0.000000
  0
VERTEX
  8
2
  62
0
  10
    29.850000
  20
    5.700000
  30
    0.000000
  0
VERTEX
  8
2
  62
0
  10
    31.950000
  20
    5.700000
  30
    0.000000
  0
VERTEX
  8
2
  62
0
  10
    32.400000
  20
    4.200000
  30
    0.000000
  0
VERTEX
  8
2
  62
0
  10
    31.650000
  20
    3.450000
  30
    0.000000
  0
VERTEX
  8
2
  62
0
  10
    30.300000
  20
    3.150000
  30
    0.000000
  0
VERTEX
  8
2
  62
0
  10
    29.550000
  20
    4.050000
  30
    0.000000
  0
VERTEX
  8
2
  62
0
  10
    29.400000
  20
    5.100000
  30
    0.000000
  0
SEQEND
  0
POLYLINE
  8
2
  62
0
  66
1
  0
VERTEX
  8
2
  62
0
  10
    30.150000
  20
    47.100000
  30
    0.000000
  0
VERTEX
  8
2
  62
0
  10
    31.800000
  20
    46.800000
  30
    0.000000
  0
VERTEX
  8
2
  62
0
  10
    32.850000
  20
    45.450000
  30
    0.000000
  0
VERTEX
  8
2
  62
0
  10
    32.850000
  20
    44.700000
  30
    0.000000
  0
VERTEX
  8
2
  62
0
  10
    31.650000
  20
    44.850000
  30
    0.000000
  0
VERTEX
  8
2
  62
0
  10
    30.900000
  20
    45.450000
  30
    0.000000
  0
VERTEX
  8
2
  62
0
  10
    30.150000
  20
    47.100000
  30
    0.000000
  0
SEQEND
  0
POLYLINE
  8
2
  62
0
  66
1
  0
VERTEX
  8
2
  62
0
  10
    31.950000
  20
    19.200000
  30
    0.000000
  0
VERTEX
  8
2
  62
0
  10
    31.950000
  20
    18.600000
  30
    0.000000
  0
VERTEX
  8
2
  62
0
  10
    31.350000
  20
    18.150000
  30
    0.000000
  0
VERTEX
  8
2
  62
0
  10
    30.600000
  20
    18.600000
  30
    0.000000
  0
VERTEX
  8
2
  62
0
  10
    31.050000
  20
    19.500000
  30
    0.000000
  0
VERTEX
  8
2
  62
0
  10
    31.950000
  20
    19.200000
  30
    0.000000
  0
SEQEND
  0
POLYLINE
  8
2
  62
0
  66
1
  0
VERTEX
  8
2
  62
0
  10
    36.450000
  20
    5.100000
  30
    0.000000
  0
VERTEX
  8
2
  62
0
  10
    36.450000
  20
    3.450000
  30
    0.000000
  0
VERTEX
  8
2
  62
0
  10
    36.000000
  20
    3.450000
  30
    0.000000
  0
VERTEX
  8
2
  62
0
  10
    35.700000
  20
    2.700000
  30
    0.000000
  0
VERTEX
  8
2
  62
0
  10
    35.250000
  20
    1.350000
  30
    0.000000
  0
VERTEX
  8
2
  62
0
  10
    35.250000
  20
    0.000000
  30
    0.000000
  0
VERTEX
  8
2
  62
0
  10
    31.350000
  20
    0.000000
  30
    0.000000
  0
VERTEX
  8
2
  62
0
  10
    31.650000
  20
    0.900000
  30
    0.000000
  0
VERTEX
  8
2
  62
0
  10
    33.750000
  20
    2.100000
  30
    0.000000
  0
VERTEX
  8
2
  62
0
  10
    34.800000
  20
    3.900000
  30
    0.000000
  0
VERTEX
  8
2
  62
0
  10
    35.250000
  20
    4.050000
  30
    0.000000
  0
VERTEX
  8
2
  62
0
  10
    36.000000
  20
    5.100000
  30
    0.000000
  0
VERTEX
  8
2
  62
0
  10
    36.450000
  20
    5.100000
  30
    0.000000
  0
SEQEND
  0
POLYLINE
  8
2
  62
0
  66
1
  0
VERTEX
  8
2
  62
0
  10
    31.800000
  20
    22.650000
  30
    0.000000
  0
VERTEX
  8
2
  62
0
  10
    32.550000
  20
    22.500000
  30
    0.000000
  0
VERTEX
  8
2
  62
0
  10
    34.050000
  20
    19.800000
  30
    0.000000
  0
VERTEX
  8
2
  62
0
  10
    34.350000
  20
    18.600000
  30
    0.000000
  0
VERTEX
  8
2
  62
0
  10
    33.150000
  20
    18.600000
  30
    0.000000
  0
VERTEX
  8
2
  62
0
  10
    32.400000
  20
    19.500000
  30
    0.000000
  0
VERTEX
  8
2
  62
0
  10
    31.800000
  20
    21.150000
  30
    0.000000
  0
VERTEX
  8
2
  62
0
  10
    31.800000
  20
    22.650000
  30
    0.000000
  0
SEQEND
  0
POLYLINE
  8
2
  62
0
  66
1
  0
VERTEX
  8
2
  62
0
  10
    33.900000
  20
    16.650000
  30
    0.000000
  0
VERTEX
  8
2
  62
0
  10
    33.150000
  20
    15.450000
  30
    0.000000
  0
VERTEX
  8
2
  62
0
  10
    32.400000
  20
    15.450000
  30
    0.000000
  0
VERTEX
  8
2
  62
0
  10
    31.950000
  20
    15.900000
  30
    0.000000
  0
VERTEX
  8
2
  62
0
  10
    31.950000
  20
    16.350000
  30
    0.000000
  0
VERTEX
  8
2
  62
0
  10
    32.400000
  20
    16.650000
  30
    0.000000
  0
VERTEX
  8
2
  62
0
  10
    33.900000
  20
    16.650000
  30
    0.000000
  0
SEQEND
  0
POLYLINE
  8
2
  62
0
  66
1
  0
VERTEX
  8
2
  62
0
  10
    34.950000
  20
    9.600000
  30
    0.000000
  0
VERTEX
  8
2
  62
0
  10
    35.100000
  20
    8.100000
  30
    0.000000
  0
VERTEX
  8
2
  62
0
  10
    34.500000
  20
    7.350000
  30
    0.000000
  0
VERTEX
  8
2
  62
0
  10
    34.350000
  20
    5.400000
  30
    0.000000
  0
VERTEX
  8
2
  62
0
  10
    33.900000
  20
    4.200000
  30
    0.000000
  0
VERTEX
  8
2
  62
0
  10
    33.450000
  20
    4.200000
  30
    0.000000
  0
VERTEX
  8
2
  62
0
  10
    33.450000
  20
    6.150000
  30
    0.000000
  0
VERTEX
  8
2
  62
0
  10
    33.000000
  20
    6.150000
  30
    0.000000
  0
VERTEX
  8
2
  62
0
  10
    32.850000
  20
    6.750000
  30
    0.000000
  0
VERTEX
  8
2
  62
0
  10
    31.950000
  20
    7.350000
  30
    0.000000
  0
VERTEX
  8
2
  62
0
  10
    31.950000
  20
    8.100000
  30
    0.000000
  0
VERTEX
  8
2
  62
0
  10
    34.950000
  20
    9.600000
  30
    0.000000
  0
SEQEND
  0
POLYLINE
  8
2
  62
0
  66
1
  0
VERTEX
  8
2
  62
0
  10
    32.250000
  20
    52.050000
  30
    0.000000
  0
VERTEX
  8
2
  62
0
  10
    32.850000
  20
    51.750000
  30
    0.000000
  0
VERTEX
  8
2
  62
0
  10
    33.450000
  20
    52.050000
  30
    0.000000
  0
VERTEX
  8
2
  62
0
  10
    33.900000
  20
    51.150000
  30
    0.000000
  0
VERTEX
  8
2
  62
0
  10
    34.800000
  20
    50.700000
  30
    0.000000
  0
VERTEX
  8
2
  62
0
  10
    36.000000
  20
    48.600000
  30
    0.000000
  0
VERTEX
  8
2
  62
0
  10
    35.250000
  20
    48.750000
  30
    0.000000
  0
VERTEX
  8
2
  62
0
  10
    33.900000
  20
    49.500000
  30
    0.000000
  0
VERTEX
  8
2
  62
0
  10
    33.450000
  20
    50.250000
  30
    0.000000
  0
VERTEX
  8
2
  62
0
  10
    33.000000
  20
    50.250000
  30
    0.000000
  0
VERTEX
  8
2
  62
0
  10
    32.850000
  20
    50.700000
  30
    0.000000
  0
VERTEX
  8
2
  62
0
  10
    32.100000
  20
    51.150000
  30
    0.000000
  0
VERTEX
  8
2
  62
0
  10
    32.250000
  20
    52.050000
  30
    0.000000
  0
SEQEND
  0
POLYLINE
  8
2
  62
0
  66
1
  0
VERTEX
  8
2
  62
0
  10
    33.300000
  20
    14.700000
  30
    0.000000
  0
VERTEX
  8
2
  62
0
  10
    34.500000
  20
    13.950000
  30
    0.000000
  0
VERTEX
  8
2
  62
0
  10
    34.350000
  20
    12.600000
  30
    0.000000
  0
VERTEX
  8
2
  62
0
  10
    33.900000
  20
    12.150000
  30
    0.000000
  0
VERTEX
  8
2
  62
0
  10
    33.300000
  20
    12.150000
  30
    0.000000
  0
VERTEX
  8
2
  62
0
  10
    32.400000
  20
    12.750000
  30
    0.000000
  0
VERTEX
  8
2
  62
0
  10
    33.300000
  20
    14.700000
  30
    0.000000
  0
SEQEND
  0
POLYLINE
  8
2
  62
0
  66
1
  0
VERTEX
  8
2
  62
0
  10
    35.100000
  20
    15.000000
  30
    0.000000
  0
VERTEX
  8
2
  62
0
  10
    36.000000
  20
    15.000000
  30
    0.000000
  0
VERTEX
  8
2
  62
0
  10
    36.150000
  20
    14.700000
  30
    0.000000
  0
VERTEX
  8
2
  62
0
  10
    36.300000
  20
    12.450000
  30
    0.000000
  0
VERTEX
  8
2
  62
0
  10
    37.200000
  20
    10.350000
  30
    0.000000
  0
VERTEX
  8
2
  62
0
  10
    37.200000
  20
    9.600000
  30
    0.000000
  0
VERTEX
  8
2
  62
0
  10
    35.550000
  20
    9.450000
  30
    0.000000
  0
VERTEX
  8
2
  62
0
  10
    35.100000
  20
    9.900000
  30
    0.000000
  0
VERTEX
  8
2
  62
0
  10
    33.900000
  20
    10.050000
  30
    0.000000
  0
VERTEX
  8
2
  62
0
  10
    33.900000
  20
    10.350000
  30
    0.000000
  0
VERTEX
  8
2
  62
0
  10
    32.550000
  20
    10.350000
  30
    0.000000
  0
VERTEX
  8
2
  62
0
  10
    32.550000
  20
    10.800000
  30
    0.000000
  0
VERTEX
  8
2
  62
0
  10
    34.050000
  20
    11.250000
  30
    0.000000
  0
VERTEX
  8
2
  62
0
  10
    33.900000
  20
    12.000000
  30
    0.000000
  0
VERTEX
  8
2
  62
0
  10
    34.350000
  20
    12.150000
  30
    0.000000
  0
VERTEX
  8
2
  62
0
  10
    34.500000
  20
    13.050000
  30
    0.000000
  0
VERTEX
  8
2
  62
0
  10
    35.100000
  20
    13.800000
  30
    0.000000
  0
VERTEX
  8
2
  62
0
  10
    35.100000
  20
    15.000000
  30
    0.000000
  0
SEQEND
  0
POLYLINE
  8
2
  62
0
  66
1
  0
VERTEX
  8
2
  62
0
  10
    33.300000
  20
    47.700000
  30
    0.000000
  0
VERTEX
  8
2
  62
0
  10
    33.750000
  20
    47.700000
  30
    0.000000
  0
VERTEX
  8
2
  62
0
  10
    34.200000
  20
    46.800000
  30
    0.000000
  0
VERTEX
  8
2
  62
0
  10
    34.200000
  20
    46.050000
  30
    0.000000
  0
VERTEX
  8
2
  62
0
  10
    33.750000
  20
    45.750000
  30
    0.000000
  0
VERTEX
  8
2
  62
0
  10
    33.150000
  20
    46.500000
  30
    0.000000
  0
VERTEX
  8
2
  62
0
  10
    33.300000
  20
    47.700000
  30
    0.000000
  0
SEQEND
  0
POLYLINE
  8
2
  62
0
  66
1
  0
VERTEX
  8
2
  62
0
  10
    33.600000
  20
    41.100000
  30
    0.000000
  0
VERTEX
  8
2
  62
0
  10
    34.650000
  20
    41.100000
  30
    0.000000
  0
VERTEX
  8
2
  62
0
  10
    36.750000
  20
    40.050000
  30
    0.000000
  0
VERTEX
  8
2
  62
0
  10
    37.050000
  20
    40.200000
  30
    0.000000
  0
VERTEX
  8
2
  62
0
  10
    37.050000
  20
    40.800000
  30
    0.000000
  0
VERTEX
  8
2
  62
0
  10
    37.650000
  20
    40.950000
  30
    0.000000
  0
VERTEX
  8
2
  62
0
  10
    37.800000
  20
    40.350000
  30
    0.000000
  0
VERTEX
  8
2
  62
0
  10
    38.250000
  20
    40.200000
  30
    0.000000
  0
VERTEX
  8
2
  62
0
  10
    37.800000
  20
    37.950000
  30
    0.000000
  0
VERTEX
  8
2
  62
0
  10
    37.200000
  20
    37.950000
  30
    0.000000
  0
VERTEX
  8
2
  62
0
  10
    35.100000
  20
    39.750000
  30
    0.000000
  0
VERTEX
  8
2
  62
0
  10
    33.300000
  20
    39.750000
  30
    0.000000
  0
VERTEX
  8
2
  62
0
  10
    33.600000
  20
    41.100000
  30
    0.000000
  0
SEQEND
  0
POLYLINE
  8
2
  62
0
  66
1
  0
VERTEX
  8
2
  62
0
  10
    33.450000
  20
    43.350000
  30
    0.000000
  0
VERTEX
  8
2
  62
0
  10
    34.500000
  20
    43.950000
  30
    0.000000
  0
VERTEX
  8
2
  62
0
  10
    35.100000
  20
    43.050000
  30
    0.000000
  0
VERTEX
  8
2
  62
0
  10
    34.350000
  20
    42.750000
  30
    0.000000
  0
VERTEX
  8
2
  62
0
  10
    33.450000
  20
    43.350000
  30
    0.000000
  0
SEQEND
  0
POLYLINE
  8
2
  62
0
  66
1
  0
VERTEX
  8
2
  62
0
  10
    34.950000
  20
    38.400000
  30
    0.000000
  0
VERTEX
  8
2
  62
0
  10
    36.150000
  20
    38.100000
  30
    0.000000
  0
VERTEX
  8
2
  62
0
  10
    36.450000
  20
    37.500000
  30
    0.000000
  0
VERTEX
  8
2
  62
0
  10
    36.450000
  20
    36.450000
  30
    0.000000
  0
VERTEX
  8
2
  62
0
  10
    35.700000
  20
    35.550000
  30
    0.000000
  0
VERTEX
  8
2
  62
0
  10
    35.100000
  20
    35.550000
  30
    0.000000
  0
VERTEX
  8
2
  62
0
  10
    34.200000
  20
    37.650000
  30
    0.000000
  0
VERTEX
  8
2
  62
0
  10
    34.350000
  20
    38.100000
  30
    0.000000
  0
VERTEX
  8
2
  62
0
  10
    34.950000
  20
    38.400000
  30
    0.000000
  0
SEQEND
  0
POLYLINE
  8
2
  62
0
  66
1
  0
VERTEX
  8
2
  62
0
  10
    37.350000
  20
    23.700000
  30
    0.000000
  0
VERTEX
  8
2
  62
0
  10
    37.950000
  20
    22.950000
  30
    0.000000
  0
VERTEX
  8
2
  62
0
  10
    37.800000
  20
    21.150000
  30
    0.000000
  0
VERTEX
  8
2
  62
0
  10
    37.050000
  20
    20.550000
  30
    0.000000
  0
VERTEX
  8
2
  62
0
  10
    36.600000
  20
    19.650000
  30
    0.000000
  0
VERTEX
  8
2
  62
0
  10
    35.400000
  20
    19.500000
  30
    0.000000
  0
VERTEX
  8
2
  62
0
  10
    34.500000
  20
    20.850000
  30
    0.000000
  0
VERTEX
  8
2
  62
0
  10
    34.500000
  20
    22.350000
  30
    0.000000
  0
VERTEX
  8
2
  62
0
  10
    35.250000
  20
    23.250000
  30
    0.000000
  0
VERTEX
  8
2
  62
0
  10
    36.300000
  20
    23.850000
  30
    0.000000
  0
VERTEX
  8
2
  62
0
  10
    37.350000
  20
    23.700000
  30
    0.000000
  0
SEQEND
  0
POLYLINE
  8
2
  62
0
  66
1
  0
VERTEX
  8
2
  62
0
  10
    34.800000
  20
    33.450000
  30
    0.000000
  0
VERTEX
  8
2
  62
0
  10
    36.300000
  20
    33.900000
  30
    0.000000
  0
VERTEX
  8
2
  62
0
  10
    36.600000
  20
    32.550000
  30
    0.000000
  0
VERTEX
  8
2
  62
0
  10
    34.950000
  20
    32.550000
  30
    0.000000
  0
VERTEX
  8
2
  62
0
  10
    34.800000
  20
    33.450000
  30
    0.000000
  0
SEQEND
  0
POLYLINE
  8
2
  62
0
  66
1
  0
VERTEX
  8
2
  62
0
  10
    35.250000
  20
    46.650000
  30
    0.000000
  0
VERTEX
  8
2
  62
0
  10
    37.050000
  20
    46.800000
  30
    0.000000
  0
VERTEX
  8
2
  62
0
  10
    38.550000
  20
    45.750000
  30
    0.000000
  0
VERTEX
  8
2
  62
0
  10
    39.450000
  20
    45.750000
  30
    0.000000
  0
VERTEX
  8
2
  62
0
  10
    39.750000
  20
    45.150000
  30
    0.000000
  0
VERTEX
  8
2
  62
0
  10
    39.600000
  20
    43.800000
  30
    0.000000
  0
VERTEX
  8
2
  62
0
  10
    39.000000
  20
    43.800000
  30
    0.000000
  0
VERTEX
  8
2
  62
0
  10
    38.400000
  20
    44.550000
  30
    0.000000
  0
VERTEX
  8
2
  62
0
  10
    36.900000
  20
    45.450000
  30
    0.000000
  0
VERTEX
  8
2
  62
0
  10
    35.250000
  20
    45.900000
  30
    0.000000
  0
VERTEX
  8
2
  62
0
  10
    35.250000
  20
    46.650000
  30
    0.000000
  0
SEQEND
  0
POLYLINE
  8
2
  62
0
  66
1
  0
VERTEX
  8
2
  62
0
  10
    38.700000
  20
    43.800000
  30
    0.000000
  0
VERTEX
  8
2
  62
0
  10
    38.550000
  20
    43.050000
  30
    0.000000
  0
VERTEX
  8
2
  62
0
  10
    37.800000
  20
    42.900000
  30
    0.000000
  0
VERTEX
  8
2
  62
0
  10
    37.200000
  20
    42.300000
  30
    0.000000
  0
VERTEX
  8
2
  62
0
  10
    35.250000
  20
    42.750000
  30
    0.000000
  0
VERTEX
  8
2
  62
0
  10
    35.250000
  20
    43.200000
  30
    0.000000
  0
VERTEX
  8
2
  62
0
  10
    36.600000
  20
    44.250000
  30
    0.000000
  0
VERTEX
  8
2
  62
0
  10
    37.800000
  20
    44.250000
  30
    0.000000
  0
VERTEX
  8
2
  62
0
  10
    38.700000
  20
    43.800000
  30
    0.000000
  0
SEQEND
  0
POLYLINE
  8
2
  62
0
  66
1
  0
VERTEX
  8
2
  62
0
  10
    35.250000
  20
    17.700000
  30
    0.000000
  0
VERTEX
  8
2
  62
0
  10
    37.650000
  20
    18.000000
  30
    0.000000
  0
VERTEX
  8
2
  62
0
  10
    38.100000
  20
    18.900000
  30
    0.000000
  0
VERTEX
  8
2
  62
0
  10
    38.550000
  20
    18.900000
  30
    0.000000
  0
VERTEX
  8
2
  62
0
  10
    39.450000
  20
    18.000000
  30
    0.000000
  0
VERTEX
  8
2
  62
0
  10
    42.000000
  20
    16.500000
  30
    0.000000
  0
VERTEX
  8
2
  62
0
  10
    42.150000
  20
    14.700000
  30
    0.000000
  0
VERTEX
  8
2
  62
0
  10
    40.050000
  20
    14.700000
  30
    0.000000
  0
VERTEX
  8
2
  62
0
  10
    35.550000
  20
    15.900000
  30
    0.000000
  0
VERTEX
  8
2
  62
0
  10
    35.250000
  20
    16.200000
  30
    0.000000
  0
VERTEX
  8
2
  62
0
  10
    35.250000
  20
    17.700000
  30
    0.000000
  0
SEQEND
  0
POLYLINE
  8
2
  62
0
  66
1
  0
VERTEX
  8
2
  62
0
  10
    37.650000
  20
    25.950000
  30
    0.000000
  0
VERTEX
  8
2
  62
0
  10
    37.650000
  20
    24.900000
  30
    0.000000
  0
VERTEX
  8
2
  62
0
  10
    35.850000
  20
    24.600000
  30
    0.000000
  0
VERTEX
  8
2
  62
0
  10
    35.850000
  20
    25.350000
  30
    0.000000
  0
VERTEX
  8
2
  62
0
  10
    36.450000
  20
    26.100000
  30
    0.000000
  0
VERTEX
  8
2
  62
0
  10
    37.650000
  20
    25.950000
  30
    0.000000
  0
SEQEND
  0
POLYLINE
  8
2
  62
0
  66
1
  0
VERTEX
  8
2
  62
0
  10
    36.000000
  20
    51.150000
  30
    0.000000
  0
VERTEX
  8
2
  62
0
  10
    36.600000
  20
    51.450000
  30
    0.000000
  0
VERTEX
  8
2
  62
0
  10
    37.200000
  20
    50.700000
  30
    0.000000
  0
VERTEX
  8
2
  62
0
  10
    36.300000
  20
    50.550000
  30
    0.000000
  0
VERTEX
  8
2
  62
0
  10
    36.000000
  20
    51.150000
  30
    0.000000
  0
SEQEND
  0
POLYLINE
  8
2
  62
0
  66
1
  0
VERTEX
  8
2
  62
0
  10
    36.450000
  20
    31.950000
  30
    0.000000
  0
VERTEX
  8
2
  62
0
  10
    37.350000
  20
    31.650000
  30
    0.000000
  0
VERTEX
  8
2
  62
0
  10
    37.500000
  20
    30.750000
  30
    0.000000
  0
VERTEX
  8
2
  62
0
  10
    37.200000
  20
    30.450000
  30
    0.000000
  0
VERTEX
  8
2
  62
0
  10
    36.300000
  20
    30.600000
  30
    0.000000
  0
VERTEX
  8
2
  62
0
  10
    36.450000
  20
    31.950000
  30
    0.000000
  0
SEQEND
  0
POLYLINE
  8
2
  62
0
  66
1
  0
VERTEX
  8
2
  62
0
  10
    40.800000
  20
    29.700000
  30
    0.000000
  0
VERTEX
  8
2
  62
0
  10
    40.800000
  20
    28.950000
  30
    0.000000
  0
VERTEX
  8
2
  62
0
  10
    38.400000
  20
    27.000000
  30
    0.000000
  0
VERTEX
  8
2
  62
0
  10
    36.300000
  20
    27.000000
  30
    0.000000
  0
VERTEX
  8
2
  62
0
  10
    36.300000
  20
    27.750000
  30
    0.000000
  0
VERTEX
  8
2
  62
0
  10
    38.700000
  20
    29.550000
  30
    0.000000
  0
VERTEX
  8
2
  62
0
  10
    40.800000
  20
    29.700000
  30
    0.000000
  0
SEQEND
  0
POLYLINE
  8
2
  62
0
  66
1
  0
VERTEX
  8
2
  62
0
  10
    37.950000
  20
    8.700000
  30
    0.000000
  0
VERTEX
  8
2
  62
0
  10
    39.600000
  20
    8.700000
  30
    0.000000
  0
VERTEX
  8
2
  62
0
  10
    40.200000
  20
    7.500000
  30
    0.000000
  0
VERTEX
  8
2
  62
0
  10
    40.500000
  20
    5.700000
  30
    0.000000
  0
VERTEX
  8
2
  62
0
  10
    39.750000
  20
    4.500000
  30
    0.000000
  0
VERTEX
  8
2
  62
0
  10
    38.850000
  20
    4.350000
  30
    0.000000
  0
VERTEX
  8
2
  62
0
  10
    37.200000
  20
    5.100000
  30
    0.000000
  0
VERTEX
  8
2
  62
0
  10
    37.050000
  20
    6.150000
  30
    0.000000
  0
VERTEX
  8
2
  62
0
  10
    37.950000
  20
    8.700000
  30
    0.000000
  0
SEQEND
  0
POLYLINE
  8
2
  62
0
  66
1
  0
VERTEX
  8
2
  62
0
  10
    37.050000
  20
    0.900000
  30
    0.000000
  0
VERTEX
  8
2
  62
0
  10
    38.250000
  20
    1.800000
  30
    0.000000
  0
VERTEX
  8
2
  62
0
  10
    40.200000
  20
    2.400000
  30
    0.000000
  0
VERTEX
  8
2
  62
0
  10
    41.400000
  20
    4.050000
  30
    0.000000
  0
VERTEX
  8
2
  62
0
  10
    41.850000
  20
    6.450000
  30
    0.000000
  0
VERTEX
  8
2
  62
0
  10
    43.200000
  20
    6.600000
  30
    0.000000
  0
VERTEX
  8
2
  62
0
  10
    45.150000
  20
    4.950000
  30
    0.000000
  0
VERTEX
  8
2
  62
0
  10
    46.200000
  20
    3.300000
  30
    0.000000
  0
VERTEX
  8
2
  62
0
  10
    49.050000
  20
    1.350000
  30
    0.000000
  0
VERTEX
  8
2
  62
0
  10
    49.350000
  20
    0.000000
  30
    0.000000
  0
VERTEX
  8
2
  62
0
  10
    37.200000
  20
    0.000000
  30
    0.000000
  0
VERTEX
  8
2
  62
0
  10
    37.050000
  20
    0.900000
  30
    0.000000
  0
SEQEND
  0
POLYLINE
  8
2
  62
0
  66
1
  0
VERTEX
  8
2
  62
0
  10
    37.800000
  20
    49.800000
  30
    0.000000
  0
VERTEX
  8
2
  62
0
  10
    38.700000
  20
    49.650000
  30
    0.000000
  0
VERTEX
  8
2
  62
0
  10
    40.050000
  20
    48.300000
  30
    0.000000
  0
VERTEX
  8
2
  62
0
  10
    40.050000
  20
    46.800000
  30
    0.000000
  0
VERTEX
  8
2
  62
0
  10
    39.000000
  20
    46.650000
  30
    0.000000
  0
VERTEX
  8
2
  62
0
  10
    37.950000
  20
    46.950000
  30
    0.000000
  0
VERTEX
  8
2
  62
0
  10
    37.350000
  20
    48.600000
  30
    0.000000
  0
VERTEX
  8
2
  62
0
  10
    37.800000
  20
    49.800000
  30
    0.000000
  0
SEQEND
  0
POLYLINE
  8
2
  62
0
  66
1
  0
VERTEX
  8
2
  62
0
  10
    42.900000
  20
    36.750000
  30
    0.000000
  0
VERTEX
  8
2
  62
0
  10
    42.450000
  20
    35.400000
  30
    0.000000
  0
VERTEX
  8
2
  62
0
  10
    40.350000
  20
    33.900000
  30
    0.000000
  0
VERTEX
  8
2
  62
0
  10
    38.850000
  20
    33.900000
  30
    0.000000
  0
VERTEX
  8
2
  62
0
  10
    37.350000
  20
    34.950000
  30
    0.000000
  0
VERTEX
  8
2
  62
0
  10
    37.350000
  20
    35.400000
  30
    0.000000
  0
VERTEX
  8
2
  62
0
  10
    40.200000
  20
    36.750000
  30
    0.000000
  0
VERTEX
  8
2
  62
0
  10
    42.900000
  20
    36.750000
  30
    0.000000
  0
SEQEND
  0
POLYLINE
  8
2
  62
0
  66
1
  0
VERTEX
  8
2
  62
0
  10
    37.350000
  20
    13.050000
  30
    0.000000
  0
VERTEX
  8
2
  62
0
  10
    38.250000
  20
    13.050000
  30
    0.000000
  0
VERTEX
  8
2
  62
0
  10
    38.850000
  20
    13.650000
  30
    0.000000
  0
VERTEX
  8
2
  62
0
  10
    39.300000
  20
    13.650000
  30
    0.000000
  0
VERTEX
  8
2
  62
0
  10
    40.500000
  20
    12.450000
  30
    0.000000
  0
VERTEX
  8
2
  62
0
  10
    40.650000
  20
    11.400000
  30
    0.000000
  0
VERTEX
  8
2
  62
0
  10
    39.600000
  20
    10.800000
  30
    0.000000
  0
VERTEX
  8
2
  62
0
  10
    38.400000
  20
    10.800000
  30
    0.000000
  0
VERTEX
  8
2
  62
0
  10
    37.350000
  20
    13.050000
  30
    0.000000
  0
SEQEND
  0
POLYLINE
  8
2
  62
0
  66
1
  0
VERTEX
  8
2
  62
0
  10
    38.100000
  20
    42.300000
  30
    0.000000
  0
VERTEX
  8
2
  62
0
  10
    38.700000
  20
    42.600000
  30
    0.000000
  0
VERTEX
  8
2
  62
0
  10
    39.750000
  20
    42.150000
  30
    0.000000
  0
VERTEX
  8
2
  62
0
  10
    40.200000
  20
    40.950000
  30
    0.000000
  0
VERTEX
  8
2
  62
0
  10
    39.750000
  20
    40.650000
  30
    0.000000
  0
VERTEX
  8
2
  62
0
  10
    38.700000
  20
    41.100000
  30
    0.000000
  0
VERTEX
  8
2
  62
0
  10
    38.100000
  20
    42.300000
  30
    0.000000
  0
SEQEND
  0
POLYLINE
  8
2
  62
0
  66
1
  0
VERTEX
  8
2
  62
0
  10
    41.400000
  20
    33.000000
  30
    0.000000
  0
VERTEX
  8
2
  62
0
  10
    41.400000
  20
    32.400000
  30
    0.000000
  0
VERTEX
  8
2
  62
0
  10
    40.650000
  20
    31.800000
  30
    0.000000
  0
VERTEX
  8
2
  62
0
  10
    40.650000
  20
    30.750000
  30
    0.000000
  0
VERTEX
  8
2
  62
0
  10
    39.600000
  20
    31.050000
  30
    0.000000
  0
VERTEX
  8
2
  62
0
  10
    38.250000
  20
    32.400000
  30
    0.000000
  0
VERTEX
  8
2
  62
0
  10
    38.400000
  20
    33.000000
  30
    0.000000
  0
VERTEX
  8
2
  62
0
  10
    41.400000
  20
    33.000000
  30
    0.000000
  0
SEQEND
  0
POLYLINE
  8
2
  62
0
  66
1
  0
VERTEX
  8
2
  62
0
  10
    38.550000
  20
    22.800000
  30
    0.000000
  0
VERTEX
  8
2
  62
0
  10
    39.900000
  20
    22.650000
  30
    0.000000
  0
VERTEX
  8
2
  62
0
  10
    40.200000
  20
    22.350000
  30
    0.000000
  0
VERTEX
  8
2
  62
0
  10
    41.700000
  20
    19.350000
  30
    0.000000
  0
VERTEX
  8
2
  62
0
  10
    41.700000
  20
    18.750000
  30
    0.000000
  0
VERTEX
  8
2
  62
0
  10
    41.100000
  20
    18.750000
  30
    0.000000
  0
VERTEX
  8
2
  62
0
  10
    40.800000
  20
    19.350000
  30
    0.000000
  0
VERTEX
  8
2
  62
0
  10
    40.200000
  20
    19.500000
  30
    0.000000
  0
VERTEX
  8
2
  62
0
  10
    39.300000
  20
    19.350000
  30
    0.000000
  0
VERTEX
  8
2
  62
0
  10
    39.150000
  20
    21.300000
  30
    0.000000
  0
VERTEX
  8
2
  62
0
  10
    38.550000
  20
    22.200000
  30
    0.000000
  0
VERTEX
  8
2
  62
0
  10
    38.550000
  20
    22.800000
  30
    0.000000
  0
SEQEND
  0
POLYLINE
  8
2
  62
0
  66
1
  0
VERTEX
  8
2
  62
0
  10
    42.150000
  20
    27.000000
  30
    0.000000
  0
VERTEX
  8
2
  62
0
  10
    42.150000
  20
    25.950000
  30
    0.000000
  0
VERTEX
  8
2
  62
0
  10
    41.400000
  20
    25.650000
  30
    0.000000
  0
VERTEX
  8
2
  62
0
  10
    40.800000
  20
    24.750000
  30
    0.000000
  0
VERTEX
  8
2
  62
0
  10
    40.050000
  20
    24.300000
  30
    0.000000
  0
VERTEX
  8
2
  62
0
  10
    39.150000
  20
    24.450000
  30
    0.000000
  0
VERTEX
  8
2
  62
0
  10
    38.850000
  20
    25.200000
  30
    0.000000
  0
VERTEX
  8
2
  62
0
  10
    40.800000
  20
    27.300000
  30
    0.000000
  0
VERTEX
  8
2
  62
0
  10
    41.400000
  20
    27.450000
  30
    0.000000
  0
VERTEX
  8
2
  62
0
  10
    42.150000
  20
    27.000000
  30
    0.000000
  0
SEQEND
  0
POLYLINE
  8
2
  62
0
  66
1
  0
VERTEX
  8
2
  62
0
  10
    39.450000
  20
    52.500000
  30
    0.000000
  0
VERTEX
  8
2
  62
0
  10
    41.100000
  20
    52.500000
  30
    0.000000
  0
VERTEX
  8
2
  62
0
  10
    42.000000
  20
    51.150000
  30
    0.000000
  0
VERTEX
  8
2
  62
0
  10
    42.000000
  20
    50.550000
  30
    0.000000
  0
VERTEX
  8
2
  62
0
  10
    41.400000
  20
    50.550000
  30
    0.000000
  0
VERTEX
  8
2
  62
0
  10
    41.250000
  20
    49.350000
  30
    0.000000
  0
VERTEX
  8
2
  62
0
  10
    40.800000
  20
    49.350000
  30
    0.000000
  0
VERTEX
  8
2
  62
0
  10
    40.050000
  20
    50.400000
  30
    0.000000
  0
VERTEX
  8
2
  62
0
  10
    39.450000
  20
    51.450000
  30
    0.000000
  0
VERTEX
  8
2
  62
0
  10
    39.450000
  20
    52.500000
  30
    0.000000
  0
SEQEND
  0
POLYLINE
  8
2
  62
0
  66
1
  0
VERTEX
  8
2
  62
0
  10
    39.450000
  20
    39.450000
  30
    0.000000
  0
VERTEX
  8
2
  62
0
  10
    40.800000
  20
    39.900000
  30
    0.000000
  0
VERTEX
  8
2
  62
0
  10
    41.550000
  20
    39.600000
  30
    0.000000
  0
VERTEX
  8
2
  62
0
  10
    41.700000
  20
    39.000000
  30
    0.000000
  0
VERTEX
  8
2
  62
0
  10
    41.250000
  20
    38.400000
  30
    0.000000
  0
VERTEX
  8
2
  62
0
  10
    40.350000
  20
    38.400000
  30
    0.000000
  0
VERTEX
  8
2
  62
0
  10
    39.450000
  20
    39.000000
  30
    0.000000
  0
VERTEX
  8
2
  62
0
  10
    39.450000
  20
    39.450000
  30
    0.000000
  0
SEQEND
  0
POLYLINE
  8
2
  62
0
  66
1
  0
VERTEX
  8
2
  62
0
  10
    40.050000
  20
    43.200000
  30
    0.000000
  0
VERTEX
  8
2
  62
0
  10
    40.650000
  20
    43.500000
  30
    0.000000
  0
VERTEX
  8
2
  62
0
  10
    41.550000
  20
    43.350000
  30
    0.000000
  0
VERTEX
  8
2
  62
0
  10
    42.300000
  20
    42.450000
  30
    0.000000
  0
VERTEX
  8
2
  62
0
  10
    42.300000
  20
    41.850000
  30
    0.000000
  0
VERTEX
  8
2
  62
0
  10
    41.700000
  20
    41.850000
  30
    0.000000
  0
VERTEX
  8
2
  62
0
  10
    40.800000
  20
    42.600000
  30
    0.000000
  0
VERTEX
  8
2
  62
0
  10
    40.050000
  20
    42.600000
  30
    0.000000
  0
VERTEX
  8
2
  62
0
  10
    40.050000
  20
    43.200000
  30
    0.000000
  0
SEQEND
  0
POLYLINE
  8
2
  62
0
  66
1
  0
VERTEX
  8
2
  62
0
  10
    41.550000
  20
    41.550000
  30
    0.000000
  0
VERTEX
  8
2
  62
0
  10
    41.550000
  20
    40.500000
  30
    0.000000
  0
VERTEX
  8
2
  62
0
  10
    40.500000
  20
    40.200000
  30
    0.000000
  0
VERTEX
  8
2
  62
0
  10
    40.350000
  20
    40.800000
  30
    0.000000
  0
VERTEX
  8
2
  62
0
  10
    40.800000
  20
    41.700000
  30
    0.000000
  0
VERTEX
  8
2
  62
0
  10
    41.550000
  20
    41.550000
  30
    0.000000
  0
SEQEND
  0
POLYLINE
  8
2
  62
0
  66
1
  0
VERTEX
  8
2
  62
0
  10
    42.450000
  20
    47.250000
  30
    0.000000
  0
VERTEX
  8
2
  62
0
  10
    44.100000
  20
    46.800000
  30
    0.000000
  0
VERTEX
  8
2
  62
0
  10
    45.450000
  20
    45.600000
  30
    0.000000
  0
VERTEX
  8
2
  62
0
  10
    45.450000
  20
    44.700000
  30
    0.000000
  0
VERTEX
  8
2
  62
0
  10
    44.100000
  20
    42.300000
  30
    0.000000
  0
VERTEX
  8
2
  62
0
  10
    43.050000
  20
    42.600000
  30
    0.000000
  0
VERTEX
  8
2
  62
0
  10
    41.850000
  20
    43.500000
  30
    0.000000
  0
VERTEX
  8
2
  62
0
  10
    41.100000
  20
    44.700000
  30
    0.000000
  0
VERTEX
  8
2
  62
0
  10
    41.700000
  20
    46.650000
  30
    0.000000
  0
VERTEX
  8
2
  62
0
  10
    42.450000
  20
    46.950000
  30
    0.000000
  0
VERTEX
  8
2
  62
0
  10
    42.450000
  20
    47.250000
  30
    0.000000
  0
SEQEND
  0
POLYLINE
  8
2
  62
0
  66
1
  0
VERTEX
  8
2
  62
0
  10
    41.400000
  20
    22.200000
  30
    0.000000
  0
VERTEX
  8
2
  62
0
  10
    42.450000
  20
    22.050000
  30
    0.000000
  0
VERTEX
  8
2
  62
0
  10
    43.200000
  20
    21.450000
  30
    0.000000
  0
VERTEX
  8
2
  62
0
  10
    43.650000
  20
    20.250000
  30
    0.000000
  0
VERTEX
  8
2
  62
0
  10
    43.500000
  20
    19.500000
  30
    0.000000
  0
VERTEX
  8
2
  62
0
  10
    42.900000
  20
    19.350000
  30
    0.000000
  0
VERTEX
  8
2
  62
0
  10
    42.600000
  20
    20.100000
  30
    0.000000
  0
VERTEX
  8
2
  62
0
  10
    41.550000
  20
    20.850000
  30
    0.000000
  0
VERTEX
  8
2
  62
0
  10
    41.400000
  20
    22.200000
  30
    0.000000
  0
SEQEND
  0
POLYLINE
  8
2
  62
0
  66
1
  0
VERTEX
  8
2
  62
0
  10
    45.600000
  20
    24.300000
  30
    0.000000
  0
VERTEX
  8
2
  62
0
  10
    45.150000
  20
    21.600000
  30
    0.000000
  0
VERTEX
  8
2
  62
0
  10
    44.700000
  20
    21.600000
  30
    0.000000
  0
VERTEX
  8
2
  62
0
  10
    44.100000
  20
    22.350000
  30
    0.000000
  0
VERTEX
  8
2
  62
0
  10
    43.350000
  20
    22.350000
  30
    0.000000
  0
VERTEX
  8
2
  62
0
  10
    42.900000
  20
    23.250000
  30
    0.000000
  0
VERTEX
  8
2
  62
0
  10
    41.550000
  20
    23.250000
  30
    0.000000
  0
VERTEX
  8
2
  62
0
  10
    41.550000
  20
    23.700000
  30
    0.000000
  0
VERTEX
  8
2
  62
0
  10
    42.750000
  20
    24.750000
  30
    0.000000
  0
VERTEX
  8
2
  62
0
  10
    45.600000
  20
    24.300000
  30
    0.000000
  0
SEQEND
  0
POLYLINE
  8
2
  62
0
  66
1
  0
VERTEX
  8
2
  62
0
  10
    41.550000
  20
    11.550000
  30
    0.000000
  0
VERTEX
  8
2
  62
0
  10
    44.550000
  20
    11.700000
  30
    0.000000
  0
VERTEX
  8
2
  62
0
  10
    46.500000
  20
    11.100000
  30
    0.000000
  0
VERTEX
  8
2
  62
0
  10
    48.450000
  20
    11.100000
  30
    0.000000
  0
VERTEX
  8
2
  62
0
  10
    51.900000
  20
    9.750000
  30
    0.000000
  0
VERTEX
  8
2
  62
0
  10
    51.900000
  20
    8.700000
  30
    0.000000
  0
VERTEX
  8
2
  62
0
  10
    49.650000
  20
    5.100000
  30
    0.000000
  0
VERTEX
  8
2
  62
0
  10
    48.300000
  20
    4.050000
  30
    0.000000
  0
VERTEX
  8
2
  62
0
  10
    47.100000
  20
    4.950000
  30
    0.000000
  0
VERTEX
  8
2
  62
0
  10
    46.200000
  20
    6.150000
  30
    0.000000
  0
VERTEX
  8
2
  62
0
  10
    43.950000
  20
    7.200000
  30
    0.000000
  0
VERTEX
  8
2
  62
0
  10
    42.900000
  20
    8.250000
  30
    0.000000
  0
VERTEX
  8
2
  62
0
  10
    41.700000
  20
    9.750000
  30
    0.000000
  0
VERTEX
  8
2
  62
0
  10
    41.550000
  20
    11.550000
  30
    0.000000
  0
SEQEND
  0
POLYLINE
  8
2
  62
0
  66
1
  0
VERTEX
  8
2
  62
0
  10
    42.600000
  20
    50.700000
  30
    0.000000
  0
VERTEX
  8
2
  62
0
  10
    43.350000
  20
    50.700000
  30
    0.000000
  0
VERTEX
  8
2
  62
0
  10
    43.650000
  20
    50.100000
  30
    0.000000
  0
VERTEX
  8
2
  62
0
  10
    43.350000
  20
    49.350000
  30
    0.000000
  0
VERTEX
  8
2
  62
0
  10
    44.100000
  20
    48.150000
  30
    0.000000
  0
VERTEX
  8
2
  62
0
  10
    44.100000
  20
    47.550000
  30
    0.000000
  0
VERTEX
  8
2
  62
0
  10
    43.500000
  20
    47.550000
  30
    0.000000
  0
VERTEX
  8
2
  62
0
  10
    41.700000
  20
    48.450000
  30
    0.000000
  0
VERTEX
  8
2
  62
0
  10
    42.600000
  20
    50.700000
  30
    0.000000
  0
SEQEND
  0
POLYLINE
  8
2
  62
0
  66
1
  0
VERTEX
  8
2
  62
0
  10
    42.000000
  20
    13.350000
  30
    0.000000
  0
VERTEX
  8
2
  62
0
  10
    42.450000
  20
    13.800000
  30
    0.000000
  0
VERTEX
  8
2
  62
0
  10
    43.650000
  20
    13.950000
  30
    0.000000
  0
VERTEX
  8
2
  62
0
  10
    43.950000
  20
    13.650000
  30
    0.000000
  0
VERTEX
  8
2
  62
0
  10
    43.800000
  20
    13.200000
  30
    0.000000
  0
VERTEX
  8
2
  62
0
  10
    44.400000
  20
    12.750000
  30
    0.000000
  0
VERTEX
  8
2
  62
0
  10
    44.400000
  20
    12.150000
  30
    0.000000
  0
VERTEX
  8
2
  62
0
  10
    42.000000
  20
    12.900000
  30
    0.000000
  0
VERTEX
  8
2
  62
0
  10
    42.000000
  20
    13.350000
  30
    0.000000
  0
SEQEND
  0
POLYLINE
  8
2
  62
0
  66
1
  0
VERTEX
  8
2
  62
0
  10
    44.400000
  20
    33.450000
  30
    0.000000
  0
VERTEX
  8
2
  62
0
  10
    44.400000
  20
    32.550000
  30
    0.000000
  0
VERTEX
  8
2
  62
0
  10
    43.500000
  20
    31.650000
  30
    0.000000
  0
VERTEX
  8
2
  62
0
  10
    42.450000
  20
    31.350000
  30
    0.000000
  0
VERTEX
  8
2
  62
0
  10
    42.150000
  20
    32.250000
  30
    0.000000
  0
VERTEX
  8
2
  62
0
  10
    42.750000
  20
    33.150000
  30
    0.000000
  0
VERTEX
  8
2
  62
0
  10
    43.800000
  20
    33.600000
  30
    0.000000
  0
VERTEX
  8
2
  62
0
  10
    44.400000
  20
    33.450000
  30
    0.000000
  0
SEQEND
  0
POLYLINE
  8
2
  62
0
  66
1
  0
VERTEX
  8
2
  62
0
  10
    42.300000
  20
    18.450000
  30
    0.000000
  0
VERTEX
  8
2
  62
0
  10
    42.900000
  20
    18.450000
  30
    0.000000
  0
VERTEX
  8
2
  62
0
  10
    43.800000
  20
    17.250000
  30
    0.000000
  0
VERTEX
  8
2
  62
0
  10
    43.500000
  20
    16.050000
  30
    0.000000
  0
VERTEX
  8
2
  62
0
  10
    42.900000
  20
    16.050000
  30
    0.000000
  0
VERTEX
  8
2
  62
0
  10
    42.300000
  20
    17.400000
  30
    0.000000
  0
VERTEX
  8
2
  62
0
  10
    42.300000
  20
    18.450000
  30
    0.000000
  0
SEQEND
  0
POLYLINE
  8
2
  62
0
  66
1
  0
VERTEX
  8
2
  62
0
  10
    45.000000
  20
    41.850000
  30
    0.000000
  0
VERTEX
  8
2
  62
0
  10
    45.000000
  20
    41.250000
  30
    0.000000
  0
VERTEX
  8
2
  62
0
  10
    44.400000
  20
    41.100000
  30
    0.000000
  0
VERTEX
  8
2
  62
0
  10
    44.250000
  20
    40.500000
  30
    0.000000
  0
VERTEX
  8
2
  62
0
  10
    43.050000
  20
    40.350000
  30
    0.000000
  0
VERTEX
  8
2
  62
0
  10
    42.600000
  20
    40.650000
  30
    0.000000
  0
VERTEX
  8
2
  62
0
  10
    42.750000
  20
    41.400000
  30
    0.000000
  0
VERTEX
  8
2
  62
0
  10
    45.000000
  20
    41.850000
  30
    0.000000
  0
SEQEND
  0
POLYLINE
  8
2
  62
0
  66
1
  0
VERTEX
  8
2
  62
0
  10
    42.750000
  20
    39.300000
  30
    0.000000
  0
VERTEX
  8
2
  62
0
  10
    43.950000
  20
    39.150000
  30
    0.000000
  0
VERTEX
  8
2
  62
0
  10
    44.400000
  20
    38.400000
  30
    0.000000
  0
VERTEX
  8
2
  62
0
  10
    44.700000
  20
    38.400000
  30
    0.000000
  0
VERTEX
  8
2
  62
0
  10
    45.450000
  20
    37.050000
  30
    0.000000
  0
VERTEX
  8
2
  62
0
  10
    45.450000
  20
    36.450000
  30
    0.000000
  0
VERTEX
  8
2
  62
0
  10
    44.850000
  20
    36.450000
  30
    0.000000
  0
VERTEX
  8
2
  62
0
  10
    43.200000
  20
    37.950000
  30
    0.000000
  0
VERTEX
  8
2
  62
0
  10
    42.750000
  20
    39.300000
  30
    0.000000
  0
SEQEND
  0
POLYLINE
  8
2
  62
0
  66
1
  0
VERTEX
  8
2
  62
0
  10
    43.950000
  20
    30.450000
  30
    0.000000
  0
VERTEX
  8
2
  62
0
  10
    44.850000
  20
    29.700000
  30
    0.000000
  0
VERTEX
  8
2
  62
0
  10
    44.850000
  20
    29.250000
  30
    0.000000
  0
VERTEX
  8
2
  62
0
  10
    43.950000
  20
    27.900000
  30
    0.000000
  0
VERTEX
  8
2
  62
0
  10
    43.200000
  20
    27.900000
  30
    0.000000
  0
VERTEX
  8
2
  62
0
  10
    42.900000
  20
    28.200000
  30
    0.000000
  0
VERTEX
  8
2
  62
0
  10
    42.900000
  20
    29.100000
  30
    0.000000
  0
VERTEX
  8
2
  62
0
  10
    43.950000
  20
    30.450000
  30
    0.000000
  0
SEQEND
  0
POLYLINE
  8
2
  62
0
  66
1
  0
VERTEX
  8
2
  62
0
  10
    43.950000
  20
    27.150000
  30
    0.000000
  0
VERTEX
  8
2
  62
0
  10
    44.700000
  20
    27.300000
  30
    0.000000
  0
VERTEX
  8
2
  62
0
  10
    44.700000
  20
    26.850000
  30
    0.000000
  0
VERTEX
  8
2
  62
0
  10
    45.750000
  20
    25.650000
  30
    0.000000
  0
VERTEX
  8
2
  62
0
  10
    45.600000
  20
    25.050000
  30
    0.000000
  0
VERTEX
  8
2
  62
0
  10
    44.550000
  20
    25.350000
  30
    0.000000
  0
VERTEX
  8
2
  62
0
  10
    43.950000
  20
    25.950000
  30
    0.000000
  0
VERTEX
  8
2
  62
0
  10
    43.950000
  20
    27.150000
  30
    0.000000
  0
SEQEND
  0
POLYLINE
  8
2
  62
0
  66
1
  0
VERTEX
  8
2
  62
0
  10
    44.250000
  20
    36.000000
  30
    0.000000
  0
VERTEX
  8
2
  62
0
  10
    45.450000
  20
    35.700000
  30
    0.000000
  0
VERTEX
  8
2
  62
0
  10
    45.600000
  20
    34.650000
  30
    0.000000
  0
VERTEX
  8
2
  62
0
  10
    45.300000
  20
    34.350000
  30
    0.000000
  0
VERTEX
  8
2
  62
0
  10
    44.700000
  20
    34.350000
  30
    0.000000
  0
VERTEX
  8
2
  62
0
  10
    44.250000
  20
    34.800000
  30
    0.000000
  0
VERTEX
  8
2
  62
0
  10
    44.250000
  20
    36.000000
  30
    0.000000
  0
SEQEND
  0
POLYLINE
  8
2
  62
0
  66
1
  0
VERTEX
  8
2
  62
0
  10
    48.450000
  20
    52.500000
  30
    0.000000
  0
VERTEX
  8
2
  62
0
  10
    49.050000
  20
    50.250000
  30
    0.000000
  0
VERTEX
  8
2
  62
0
  10
    49.050000
  20
    49.350000
  30
    0.000000
  0
VERTEX
  8
2
  62
0
  10
    48.750000
  20
    49.050000
  30
    0.000000
  0
VERTEX
  8
2
  62
0
  10
    47.400000
  20
    48.900000
  30
    0.000000
  0
VERTEX
  8
2
  62
0
  10
    46.050000
  20
    48.150000
  30
    0.000000
  0
VERTEX
  8
2
  62
0
  10
    44.250000
  20
    48.750000
  30
    0.000000
  0
VERTEX
  8
2
  62
0
  10
    44.850000
  20
    50.550000
  30
    0.000000
  0
VERTEX
  8
2
  62
0
  10
    44.850000
  20
    52.500000
  30
    0.000000
  0
VERTEX
  8
2
  62
0
  10
    48.450000
  20
    52.500000
  30
    0.000000
  0
SEQEND
  0
POLYLINE
  8
2
  62
0
  66
1
  0
VERTEX
  8
2
  62
0
  10
    44.400000
  20
    32.400000
  30
    0.000000
  0
VERTEX
  8
2
  62
0
  10
    46.500000
  20
    32.550000
  30
    0.000000
  0
VERTEX
  8
2
  62
0
  10
    47.700000
  20
    31.650000
  30
    0.000000
  0
VERTEX
  8
2
  62
0
  10
    49.050000
  20
    29.700000
  30
    0.000000
  0
VERTEX
  8
2
  62
0
  10
    49.050000
  20
    28.800000
  30
    0.000000
  0
VERTEX
  8
2
  62
0
  10
    48.450000
  20
    28.800000
  30
    0.000000
  0
VERTEX
  8
2
  62
0
  10
    47.400000
  20
    29.850000
  30
    0.000000
  0
VERTEX
  8
2
  62
0
  10
    45.750000
  20
    30.750000
  30
    0.000000
  0
VERTEX
  8
2
  62
0
  10
    44.550000
  20
    30.750000
  30
    0.000000
  0
VERTEX
  8
2
  62
0
  10
    44.250000
  20
    31.050000
  30
    0.000000
  0
VERTEX
  8
2
  62
0
  10
    44.400000
  20
    32.400000
  30
    0.000000
  0
SEQEND
  0
POLYLINE
  8
2
  62
0
  66
1
  0
VERTEX
  8
2
  62
0
  10
    44.400000
  20
    19.350000
  30
    0.000000
  0
VERTEX
  8
2
  62
0
  10
    46.950000
  20
    18.150000
  30
    0.000000
  0
VERTEX
  8
2
  62
0
  10
    46.500000
  20
    15.450000
  30
    0.000000
  0
VERTEX
  8
2
  62
0
  10
    45.900000
  20
    14.700000
  30
    0.000000
  0
VERTEX
  8
2
  62
0
  10
    45.150000
  20
    14.700000
  30
    0.000000
  0
VERTEX
  8
2
  62
0
  10
    44.850000
  20
    15.150000
  30
    0.000000
  0
VERTEX
  8
2
  62
0
  10
    44.250000
  20
    18.750000
  30
    0.000000
  0
VERTEX
  8
2
  62
0
  10
    44.400000
  20
    19.350000
  30
    0.000000
  0
SEQEND
  0
POLYLINE
  8
2
  62
0
  66
1
  0
VERTEX
  8
2
  62
0
  10
    49.500000
  20
    45.000000
  30
    0.000000
  0
VERTEX
  8
2
  62
0
  10
    49.500000
  20
    44.100000
  30
    0.000000
  0
VERTEX
  8
2
  62
0
  10
    48.900000
  20
    43.500000
  30
    0.000000
  0
VERTEX
  8
2
  62
0
  10
    48.300000
  20
    42.000000
  30
    0.000000
  0
VERTEX
  8
2
  62
0
  10
    47.250000
  20
    41.100000
  30
    0.000000
  0
VERTEX
  8
2
  62
0
  10
    46.950000
  20
    39.750000
  30
    0.000000
  0
VERTEX
  8
2
  62
0
  10
    46.200000
  20
    39.300000
  30
    0.000000
  0
VERTEX
  8
2
  62
0
  10
    46.200000
  20
    38.850000
  30
    0.000000
  0
VERTEX
  8
2
  62
0
  10
    45.000000
  20
    38.850000
  30
    0.000000
  0
VERTEX
  8
2
  62
0
  10
    45.150000
  20
    40.200000
  30
    0.000000
  0
VERTEX
  8
2
  62
0
  10
    46.050000
  20
    41.700000
  30
    0.000000
  0
VERTEX
  8
2
  62
0
  10
    47.250000
  20
    42.600000
  30
    0.000000
  0
VERTEX
  8
2
  62
0
  10
    47.850000
  20
    43.950000
  30
    0.000000
  0
VERTEX
  8
2
  62
0
  10
    48.900000
  20
    45.000000
  30
    0.000000
  0
VERTEX
  8
2
  62
0
  10
    49.500000
  20
    45.000000
  30
    0.000000
  0
SEQEND
  0
POLYLINE
  8
2
  62
0
  66
1
  0
VERTEX
  8
2
  62
0
  10
    46.650000
  20
    34.500000
  30
    0.000000
  0
VERTEX
  8
2
  62
0
  10
    46.350000
  20
    33.450000
  30
    0.000000
  0
VERTEX
  8
2
  62
0
  10
    45.300000
  20
    32.850000
  30
    0.000000
  0
VERTEX
  8
2
  62
0
  10
    45.150000
  20
    33.750000
  30
    0.000000
  0
VERTEX
  8
2
  62
0
  10
    45.750000
  20
    34.650000
  30
    0.000000
  0
VERTEX
  8
2
  62
0
  10
    46.650000
  20
    34.500000
  30
    0.000000
  0
SEQEND
  0
POLYLINE
  8
2
  62
0
  66
1
  0
VERTEX
  8
2
  62
0
  10
    45.300000
  20
    29.400000
  30
    0.000000
  0
VERTEX
  8
2
  62
0
  10
    46.350000
  20
    29.700000
  30
    0.000000
  0
VERTEX
  8
2
  62
0
  10
    47.700000
  20
    28.200000
  30
    0.000000
  0
VERTEX
  8
2
  62
0
  10
    46.800000
  20
    27.900000
  30
    0.000000
  0
VERTEX
  8
2
  62
0
  10
    45.300000
  20
    29.400000
  30
    0.000000
  0
SEQEND
  0
POLYLINE
  8
2
  62
0
  66
1
  0
VERTEX
  8
2
  62
0
  10
    47.700000
  20
    14.700000
  30
    0.000000
  0
VERTEX
  8
2
  62
0
  10
    47.850000
  20
    14.400000
  30
    0.000000
  0
VERTEX
  8
2
  62
0
  10
    47.400000
  20
    13.500000
  30
    0.000000
  0
VERTEX
  8
2
  62
0
  10
    45.900000
  20
    12.150000
  30
    0.000000
  0
VERTEX
  8
2
  62
0
  10
    45.600000
  20
    13.050000
  30
    0.000000
  0
VERTEX
  8
2
  62
0
  10
    45.900000
  20
    14.400000
  30
    0.000000
  0
VERTEX
  8
2
  62
0
  10
    46.950000
  20
    15.000000
  30
    0.000000
  0
VERTEX
  8
2
  62
0
  10
    47.700000
  20
    14.700000
  30
    0.000000
  0
SEQEND
  0
POLYLINE
  8
2
  62
0
  66
1
  0
VERTEX
  8
2
  62
0
  10
    48.150000
  20
    48.000000
  30
    0.000000
  0
VERTEX
  8
2
  62
0
  10
    48.450000
  20
    46.200000
  30
    0.000000
  0
VERTEX
  8
2
  62
0
  10
    47.850000
  20
    46.050000
  30
    0.000000
  0
VERTEX
  8
2
  62
0
  10
    47.850000
  20
    45.150000
  30
    0.000000
  0
VERTEX
  8
2
  62
0
  10
    46.200000
  20
    45.450000
  30
    0.000000
  0
VERTEX
  8
2
  62
0
  10
    45.900000
  20
    45.750000
  30
    0.000000
  0
VERTEX
  8
2
  62
0
  10
    45.900000
  20
    46.650000
  30
    0.000000
  0
VERTEX
  8
2
  62
0
  10
    46.350000
  20
    47.250000
  30
    0.000000
  0
VERTEX
  8
2
  62
0
  10
    47.400000
  20
    47.400000
  30
    0.000000
  0
VERTEX
  8
2
  62
0
  10
    47.550000
  20
    48.000000
  30
    0.000000
  0
VERTEX
  8
2
  62
0
  10
    48.150000
  20
    48.000000
  30
    0.000000
  0
SEQEND
  0
POLYLINE
  8
2
  62
0
  66
1
  0
VERTEX
  8
2
  62
0
  10
    50.850000
  20
    29.850000
  30
    0.000000
  0
VERTEX
  8
2
  62
0
  10
    50.550000
  20
    25.800000
  30
    0.000000
  0
VERTEX
  8
2
  62
0
  10
    49.950000
  20
    25.200000
  30
    0.000000
  0
VERTEX
  8
2
  62
0
  10
    49.350000
  20
    23.700000
  30
    0.000000
  0
VERTEX
  8
2
  62
0
  10
    48.000000
  20
    22.350000
  30
    0.000000
  0
VERTEX
  8
2
  62
0
  10
    46.050000
  20
    22.200000
  30
    0.000000
  0
VERTEX
  8
2
  62
0
  10
    46.650000
  20
    24.300000
  30
    0.000000
  0
VERTEX
  8
2
  62
0
  10
    48.900000
  20
    27.150000
  30
    0.000000
  0
VERTEX
  8
2
  62
0
  10
    49.200000
  20
    28.350000
  30
    0.000000
  0
VERTEX
  8
2
  62
0
  10
    49.800000
  20
    28.650000
  30
    0.000000
  0
VERTEX
  8
2
  62
0
  10
    50.400000
  20
    29.850000
  30
    0.000000
  0
VERTEX
  8
2
  62
0
  10
    50.850000
  20
    29.850000
  30
    0.000000
  0
SEQEND
  0
POLYLINE
  8
2
  62
0
  66
1
  0
VERTEX
  8
2
  62
0
  10
    46.200000
  20
    20.850000
  30
    0.000000
  0
VERTEX
  8
2
  62
0
  10
    47.250000
  20
    20.850000
  30
    0.000000
  0
VERTEX
  8
2
  62
0
  10
    47.700000
  20
    21.300000
  30
    0.000000
  0
VERTEX
  8
2
  62
0
  10
    48.300000
  20
    21.300000
  30
    0.000000
  0
VERTEX
  8
2
  62
0
  10
    48.150000
  20
    20.400000
  30
    0.000000
  0
VERTEX
  8
2
  62
0
  10
    48.450000
  20
    20.400000
  30
    0.000000
  0
VERTEX
  8
2
  62
0
  10
    48.900000
  20
    19.500000
  30
    0.000000
  0
VERTEX
  8
2
  62
0
  10
    48.900000
  20
    18.600000
  30
    0.000000
  0
VERTEX
  8
2
  62
0
  10
    48.000000
  20
    18.450000
  30
    0.000000
  0
VERTEX
  8
2
  62
0
  10
    48.000000
  20
    18.900000
  30
    0.000000
  0
VERTEX
  8
2
  62
0
  10
    47.100000
  20
    19.800000
  30
    0.000000
  0
VERTEX
  8
2
  62
0
  10
    46.350000
  20
    20.100000
  30
    0.000000
  0
VERTEX
  8
2
  62
0
  10
    46.200000
  20
    20.850000
  30
    0.000000
  0
SEQEND
  0
POLYLINE
  8
2
  62
0
  66
1
  0
VERTEX
  8
2
  62
0
  10
    48.900000
  20
    40.050000
  30
    0.000000
  0
VERTEX
  8
2
  62
0
  10
    49.200000
  20
    39.450000
  30
    0.000000
  0
VERTEX
  8
2
  62
0
  10
    49.350000
  20
    36.600000
  30
    0.000000
  0
VERTEX
  8
2
  62
0
  10
    48.900000
  20
    36.600000
  30
    0.000000
  0
VERTEX
  8
2
  62
0
  10
    48.600000
  20
    37.200000
  30
    0.000000
  0
VERTEX
  8
2
  62
0
  10
    48.150000
  20
    37.050000
  30
    0.000000
  0
VERTEX
  8
2
  62
0
  10
    48.000000
  20
    36.600000
  30
    0.000000
  0
VERTEX
  8
2
  62
0
  10
    47.100000
  20
    36.600000
  30
    0.000000
  0
VERTEX
  8
2
  62
0
  10
    46.950000
  20
    37.950000
  30
    0.000000
  0
VERTEX
  8
2
  62
0
  10
    47.550000
  20
    38.400000
  30
    0.000000
  0
VERTEX
  8
2
  62
0
  10
    47.850000
  20
    39.600000
  30
    0.000000
  0
VERTEX
  8
2
  62
0
  10
    48.900000
  20
    40.050000
  30
    0.000000
  0
SEQEND
  0
POLYLINE
  8
2
  62
0
  66
1
  0
VERTEX
  8
2
  62
0
  10
    48.300000
  20
    34.050000
  30
    0.000000
  0
VERTEX
  8
2
  62
0
  10
    49.500000
  20
    34.050000
  30
    0.000000
  0
VERTEX
  8
2
  62
0
  10
    50.850000
  20
    32.850000
  30
    0.000000
  0
VERTEX
  8
2
  62
0
  10
    50.400000
  20
    32.400000
  30
    0.000000
  0
VERTEX
  8
2
  62
0
  10
    50.400000
  20
    31.500000
  30
    0.000000
  0
VERTEX
  8
2
  62
0
  10
    49.950000
  20
    31.200000
  30
    0.000000
  0
VERTEX
  8
2
  62
0
  10
    48.750000
  20
    31.350000
  30
    0.000000
  0
VERTEX
  8
2
  62
0
  10
    48.000000
  20
    32.550000
  30
    0.000000
  0
VERTEX
  8
2
  62
0
  10
    48.000000
  20
    33.750000
  30
    0.000000
  0
VERTEX
  8
2
  62
0
  10
    48.300000
  20
    34.050000
  30
    0.000000
  0
SEQEND
  0
POLYLINE
  8
2
  62
0
  66
1
  0
VERTEX
  8
2
  62
0
  10
    48.000000
  20
    17.100000
  30
    0.000000
  0
VERTEX
  8
2
  62
0
  10
    49.650000
  20
    17.100000
  30
    0.000000
  0
VERTEX
  8
2
  62
0
  10
    49.950000
  20
    16.800000
  30
    0.000000
  0
VERTEX
  8
2
  62
0
  10
    50.100000
  20
    15.900000
  30
    0.000000
  0
VERTEX
  8
2
  62
0
  10
    49.800000
  20
    15.750000
  30
    0.000000
  0
VERTEX
  8
2
  62
0
  10
    50.100000
  20
    15.600000
  30
    0.000000
  0
VERTEX
  8
2
  62
0
  10
    50.100000
  20
    15.000000
  30
    0.000000
  0
VERTEX
  8
2
  62
0
  10
    51.150000
  20
    14.700000
  30
    0.000000
  0
VERTEX
  8
2
  62
0
  10
    51.600000
  20
    13.200000
  30
    0.000000
  0
VERTEX
  8
2
  62
0
  10
    52.050000
  20
    13.050000
  30
    0.000000
  0
VERTEX
  8
2
  62
0
  10
    53.250000
  20
    11.250000
  30
    0.000000
  0
VERTEX
  8
2
  62
0
  10
    52.950000
  20
    10.200000
  30
    0.000000
  0
VERTEX
  8
2
  62
0
  10
    52.050000
  20
    10.200000
  30
    0.000000
  0
VERTEX
  8
2
  62
0
  10
    51.600000
  20
    10.950000
  30
    0.000000
  0
VERTEX
  8
2
  62
0
  10
    51.300000
  20
    10.950000
  30
    0.000000
  0
VERTEX
  8
2
  62
0
  10
    50.850000
  20
    12.150000
  30
    0.000000
  0
VERTEX
  8
2
  62
0
  10
    49.350000
  20
    13.950000
  30
    0.000000
  0
VERTEX
  8
2
  62
0
  10
    48.750000
  20
    15.600000
  30
    0.000000
  0
VERTEX
  8
2
  62
0
  10
    48.000000
  20
    16.350000
  30
    0.000000
  0
VERTEX
  8
2
  62
0
  10
    48.000000
  20
    17.100000
  30
    0.000000
  0
SEQEND
  0
POLYLINE
  8
2
  62
0
  66
1
  0
VERTEX
  8
2
  62
0
  10
    51.750000
  20
    22.200000
  30
    0.000000
  0
VERTEX
  8
2
  62
0
  10
    51.150000
  20
    21.000000
  30
    0.000000
  0
VERTEX
  8
2
  62
0
  10
    51.150000
  20
    20.250000
  30
    0.000000
  0
VERTEX
  8
2
  62
0
  10
    50.550000
  20
    19.800000
  30
    0.000000
  0
VERTEX
  8
2
  62
0
  10
    49.650000
  20
    19.950000
  30
    0.000000
  0
VERTEX
  8
2
  62
0
  10
    48.900000
  20
    21.150000
  30
    0.000000
  0
VERTEX
  8
2
  62
0
  10
    49.050000
  20
    22.050000
  30
    0.000000
  0
VERTEX
  8
2
  62
0
  10
    49.500000
  20
    22.500000
  30
    0.000000
  0
VERTEX
  8
2
  62
0
  10
    51.750000
  20
    22.200000
  30
    0.000000
  0
SEQEND
  0
POLYLINE
  8
2
  62
0
  66
1
  0
VERTEX
  8
2
  62
0
  10
    50.850000
  20
    47.700000
  30
    0.000000
  0
VERTEX
  8
2
  62
0
  10
    50.400000
  20
    46.800000
  30
    0.000000
  0
VERTEX
  8
2
  62
0
  10
    49.200000
  20
    46.800000
  30
    0.000000
  0
VERTEX
  8
2
  62
0
  10
    49.200000
  20
    47.100000
  30
    0.000000
  0
VERTEX
  8
2
  62
0
  10
    49.950000
  20
    47.250000
  30
    0.000000
  0
VERTEX
  8
2
  62
0
  10
    50.400000
  20
    47.850000
  30
    0.000000
  0
VERTEX
  8
2
  62
0
  10
    50.850000
  20
    47.700000
  30
    0.000000
  0
SEQEND
  0
POLYLINE
  8
2
  62
0
  66
1
  0
VERTEX
  8
2
  62
0
  10
    51.450000
  20
    46.800000
  30
    0.000000
  0
VERTEX
  8
2
  62
0
  10
    50.400000
  20
    45.450000
  30
    0.000000
  0
VERTEX
  8
2
  62
0
  10
    49.500000
  20
    45.600000
  30
    0.000000
  0
VERTEX
  8
2
  62
0
  10
    51.000000
  20
    46.950000
  30
    0.000000
  0
VERTEX
  8
2
  62
0
  10
    51.450000
  20
    46.800000
  30
    0.000000
  0
SEQEND
  0
POLYLINE
  8
2
  62
0
  66
1
  0
VERTEX
  8
2
  62
0
  10
    49.800000
  20
    42.300000
  30
    0.000000
  0
VERTEX
  8
2
  62
0
  10
    50.400000
  20
    42.150000
  30
    0.000000
  0
VERTEX
  8
2
  62
0
  10
    50.850000
  20
    40.950000
  30
    0.000000
  0
VERTEX
  8
2
  62
0
  10
    50.700000
  20
    39.150000
  30
    0.000000
  0
VERTEX
  8
2
  62
0
  10
    50.250000
  20
    39.150000
  30
    0.000000
  0
VERTEX
  8
2
  62
0
  10
    49.800000
  20
    40.050000
  30
    0.000000
  0
VERTEX
  8
2
  62
0
  10
    49.800000
  20
    42.300000
  30
    0.000000
  0
SEQEND
  0
POLYLINE
  8
2
  62
0
  66
1
  0
VERTEX
  8
2
  62
0
  10
    50.100000
  20
    37.050000
  30
    0.000000
  0
VERTEX
  8
2
  62
0
  10
    51.000000
  20
    37.950000
  30
    0.000000
  0
VERTEX
  8
2
  62
0
  10
    51.150000
  20
    38.700000
  30
    0.000000
  0
VERTEX
  8
2
  62
0
  10
    51.750000
  20
    38.700000
  30
    0.000000
  0
VERTEX
  8
2
  62
0
  10
    53.700000
  20
    37.200000
  30
    0.000000
  0
VERTEX
  8
2
  62
0
  10
    53.850000
  20
    35.850000
  30
    0.000000
  0
VERTEX
  8
2
  62
0
  10
    52.350000
  20
    35.700000
  30
    0.000000
  0
VERTEX
  8
2
  62
0
  10
    50.250000
  20
    36.450000
  30
    0.000000
  0
VERTEX
  8
2
  62
0
  10
    50.100000
  20
    37.050000
  30
    0.000000
  0
SEQEND
  0
POLYLINE
  8
2
  62
0
  66
1
  0
VERTEX
  8
2
  62
0
  10
    52.950000
  20
    18.600000
  30
    0.000000
  0
VERTEX
  8
2
  62
0
  10
    52.950000
  20
    18.000000
  30
    0.000000
  0
VERTEX
  8
2
  62
0
  10
    52.350000
  20
    17.550000
  30
    0.000000
  0
VERTEX
  8
2
  62
0
  10
    50.550000
  20
    17.550000
  30
    0.000000
  0
VERTEX
  8
2
  62
0
  10
    50.100000
  20
    18.000000
  30
    0.000000
  0
VERTEX
  8
2
  62
0
  10
    50.700000
  20
    19.200000
  30
    0.000000
  0
VERTEX
  8
2
  62
0
  10
    51.900000
  20
    19.350000
  30
    0.000000
  0
VERTEX
  8
2
  62
0
  10
    52.950000
  20
    18.600000
  30
    0.000000
  0
SEQEND
  0
POLYLINE
  8
2
  62
0
  66
1
  0
VERTEX
  8
2
  62
0
  10
    51.600000
  20
    4.050000
  30
    0.000000
  0
VERTEX
  8
2
  62
0
  10
    52.050000
  20
    4.050000
  30
    0.000000
  0
VERTEX
  8
2
  62
0
  10
    52.950000
  20
    3.150000
  30
    0.000000
  0
VERTEX
  8
2
  62
0
  10
    53.100000
  20
    1.200000
  30
    0.000000
  0
VERTEX
  8
2
  62
0
  10
    53.700000
  20
    0.750000
  30
    0.000000
  0
VERTEX
  8
2
  62
0
  10
    54.000000
  20
    0.000000
  30
    0.000000
  0
VERTEX
  8
2
  62
0
  10
    50.700000
  20
    0.000000
  30
    0.000000
  0
VERTEX
  8
2
  62
0
  10
    50.700000
  20
    0.600000
  30
    0.000000
  0
VERTEX
  8
2
  62
0
  10
    51.450000
  20
    1.050000
  30
    0.000000
  0
VERTEX
  8
2
  62
0
  10
    51.600000
  20
    4.050000
  30
    0.000000
  0
SEQEND
  0
POLYLINE
  8
2
  62
0
  66
1
  0
VERTEX
  8
2
  62
0
  10
    50.850000
  20
    52.050000
  30
    0.000000
  0
VERTEX
  8
2
  62
0
  10
    53.400000
  20
    52.050000
  30
    0.000000
  0
VERTEX
  8
2
  62
0
  10
    54.000000
  20
    51.600000
  30
    0.000000
  0
VERTEX
  8
2
  62
0
  10
    54.000000
  20
    51.150000
  30
    0.000000
  0
VERTEX
  8
2
  62
0
  10
    52.950000
  20
    50.250000
  30
    0.000000
  0
VERTEX
  8
2
  62
0
  10
    52.500000
  20
    50.250000
  30
    0.000000
  0
VERTEX
  8
2
  62
0
  10
    51.000000
  20
    51.150000
  30
    0.000000
  0
VERTEX
  8
2
  62
0
  10
    50.850000
  20
    52.050000
  30
    0.000000
  0
SEQEND
  0
POLYLINE
  8
2
  62
0
  66
1
  0
VERTEX
  8
2
  62
0
  10
    51.000000
  20
    44.400000
  30
    0.000000
  0
VERTEX
  8
2
  62
0
  10
    53.250000
  20
    44.400000
  30
    0.000000
  0
VERTEX
  8
2
  62
0
  10
    54.450000
  20
    43.350000
  30
    0.000000
  0
VERTEX
  8
2
  62
0
  10
    54.450000
  20
    42.450000
  30
    0.000000
  0
VERTEX
  8
2
  62
0
  10
    51.450000
  20
    43.350000
  30
    0.000000
  0
VERTEX
  8
2
  62
0
  10
    51.000000
  20
    43.650000
  30
    0.000000
  0
VERTEX
  8
2
  62
0
  10
    51.000000
  20
    44.400000
  30
    0.000000
  0
SEQEND
  0
POLYLINE
  8
2
  62
0
  66
1
  0
VERTEX
  8
2
  62
0
  10
    51.300000
  20
    50.250000
  30
    0.000000
  0
VERTEX
  8
2
  62
0
  10
    52.950000
  20
    49.050000
  30
    0.000000
  0
VERTEX
  8
2
  62
0
  10
    53.250000
  20
    48.450000
  30
    0.000000
  0
VERTEX
  8
2
  62
0
  10
    53.100000
  20
    48.000000
  30
    0.000000
  0
VERTEX
  8
2
  62
0
  10
    52.650000
  20
    48.000000
  30
    0.000000
  0
VERTEX
  8
2
  62
0
  10
    51.450000
  20
    49.050000
  30
    0.000000
  0
VERTEX
  8
2
  62
0
  10
    51.300000
  20
    50.250000
  30
    0.000000
  0
SEQEND
  0
POLYLINE
  8
2
  62
0
  66
1
  0
VERTEX
  8
2
  62
0
  10
    53.700000
  20
    41.700000
  30
    0.000000
  0
VERTEX
  8
2
  62
0
  10
    52.800000
  20
    40.650000
  30
    0.000000
  0
VERTEX
  8
2
  62
0
  10
    51.300000
  20
    40.800000
  30
    0.000000
  0
VERTEX
  8
2
  62
0
  10
    52.500000
  20
    42.150000
  30
    0.000000
  0
VERTEX
  8
2
  62
0
  10
    53.100000
  20
    42.150000
  30
    0.000000
  0
VERTEX
  8
2
  62
0
  10
    53.700000
  20
    41.700000
  30
    0.000000
  0
SEQEND
  0
POLYLINE
  8
2
  62
0
  66
1
  0
VERTEX
  8
2
  62
0
  10
    53.250000
  20
    34.650000
  30
    0.000000
  0
VERTEX
  8
2
  62
0
  10
    52.800000
  20
    33.600000
  30
    0.000000
  0
VERTEX
  8
2
  62
0
  10
    53.100000
  20
    30.150000
  30
    0.000000
  0
VERTEX
  8
2
  62
0
  10
    52.950000
  20
    29.850000
  30
    0.000000
  0
VERTEX
  8
2
  62
0
  10
    52.350000
  20
    29.850000
  30
    0.000000
  0
VERTEX
  8
2
  62
0
  10
    51.300000
  20
    31.050000
  30
    0.000000
  0
VERTEX
  8
2
  62
0
  10
    51.300000
  20
    32.550000
  30
    0.000000
  0
VERTEX
  8
2
  62
0
  10
    52.200000
  20
    34.350000
  30
    0.000000
  0
VERTEX
  8
2
  62
0
  10
    53.250000
  20
    34.650000
  30
    0.000000
  0
SEQEND
  0
POLYLINE
  8
2
  62
0
  66
1
  0
VERTEX
  8
2
  62
0
  10
    51.450000
  20
    27.600000
  30
    0.000000
  0
VERTEX
  8
2
  62
0
  10
    52.800000
  20
    26.400000
  30
    0.000000
  0
VERTEX
  8
2
  62
0
  10
    52.800000
  20
    25.350000
  30
    0.000000
  0
VERTEX
  8
2
  62
0
  10
    52.200000
  20
    25.200000
  30
    0.000000
  0
VERTEX
  8
2
  62
0
  10
    51.450000
  20
    26.100000
  30
    0.000000
  0
VERTEX
  8
2
  62
0
  10
    51.450000
  20
    27.600000
  30
    0.000000
  0
SEQEND
  0
POLYLINE
  8
2
  62
0
  66
1
  0
VERTEX
  8
2
  62
0
  10
    52.800000
  20
    47.400000
  30
    0.000000
  0
VERTEX
  8
2
  62
0
  10
    52.200000
  20
    46.500000
  30
    0.000000
  0
VERTEX
  8
2
  62
0
  10
    51.750000
  20
    46.800000
  30
    0.000000
  0
VERTEX
  8
2
  62
0
  10
    51.750000
  20
    47.550000
  30
    0.000000
  0
VERTEX
  8
2
  62
0
  10
    52.800000
  20
    47.400000
  30
    0.000000
  0
SEQEND
  0
POLYLINE
  8
2
  62
0
  66
1
  0
VERTEX
  8
2
  62
0
  10
    56.100000
  20
    11.250000
  30
    0.000000
  0
VERTEX
  8
2
  62
0
  10
    56.100000
  20
    10.650000
  30
    0.000000
  0
VERTEX
  8
2
  62
0
  10
    56.850000
  20
    9.750000
  30
    0.000000
  0
VERTEX
  8
2
  62
0
  10
    56.850000
  20
    7.350000
  30
    0.000000
  0
VERTEX
  8
2
  62
0
  10
    56.400000
  20
    6.600000
  30
    0.000000
  0
VERTEX
  8
2
  62
0
  10
    55.950000
  20
    6.000000
  30
    0.000000
  0
VERTEX
  8
2
  62
0
  10
    54.750000
  20
    5.400000
  30
    0.000000
  0
VERTEX
  8
2
  62
0
  10
    53.250000
  20
    5.400000
  30
    0.000000
  0
VERTEX
  8
2
  62
0
  10
    52.650000
  20
    4.950000
  30
    0.000000
  0
VERTEX
  8
2
  62
0
  10
    52.500000
  20
    5.400000
  30
    0.000000
  0
VERTEX
  8
2
  62
0
  10
    51.750000
  20
    5.400000
  30
    0.000000
  0
VERTEX
  8
2
  62
0
  10
    51.750000
  20
    6.600000
  30
    0.000000
  0
VERTEX
  8
2
  62
0
  10
    52.650000
  20
    7.350000
  30
    0.000000
  0
VERTEX
  8
2
  62
0
  10
    53.250000
  20
    7.350000
  30
    0.000000
  0
VERTEX
  8
2
  62
0
  10
    53.850000
  20
    8.250000
  30
    0.000000
  0
VERTEX
  8
2
  62
0
  10
    54.300000
  20
    10.650000
  30
    0.000000
  0
VERTEX
  8
2
  62
0
  10
    54.900000
  20
    11.100000
  30
    0.000000
  0
VERTEX
  8
2
  62
0
  10
    56.100000
  20
    11.250000
  30
    0.000000
  0
SEQEND
  0
POLYLINE
  8
2
  62
0
  66
1
  0
VERTEX
  8
2
  62
0
  10
    52.200000
  20
    15.000000
  30
    0.000000
  0
VERTEX
  8
2
  62
0
  10
    52.650000
  20
    16.350000
  30
    0.000000
  0
VERTEX
  8
2
  62
0
  10
    53.400000
  20
    17.100000
  30
    0.000000
  0
VERTEX
  8
2
  62
0
  10
    54.000000
  20
    17.100000
  30
    0.000000
  0
VERTEX
  8
2
  62
0
  10
    55.050000
  20
    16.350000
  30
    0.000000
  0
VERTEX
  8
2
  62
0
  10
    55.950000
  20
    16.350000
  30
    0.000000
  0
VERTEX
  8
2
  62
0
  10
    59.400000
  20
    15.000000
  30
    0.000000
  0
VERTEX
  8
2
  62
0
  10
    59.400000
  20
    14.100000
  30
    0.000000
  0
VERTEX
  8
2
  62
0
  10
    58.650000
  20
    13.500000
  30
    0.000000
  0
VERTEX
  8
2
  62
0
  10
    57.750000
  20
    12.000000
  30
    0.000000
  0
VERTEX
  8
2
  62
0
  10
    56.700000
  20
    12.000000
  30
    0.000000
  0
VERTEX
  8
2
  62
0
  10
    55.200000
  20
    12.600000
  30
    0.000000
  0
VERTEX
  8
2
  62
0
  10
    53.550000
  20
    12.600000
  30
    0.000000
  0
VERTEX
  8
2
  62
0
  10
    52.950000
  20
    13.200000
  30
    0.000000
  0
VERTEX
  8
2
  62
0
  10
    52.200000
  20
    15.000000
  30
    0.000000
  0
SEQEND
  0
POLYLINE
  8
2
  62
0
  66
1
  0
VERTEX
  8
2
  62
0
  10
    54.000000
  20
    26.400000
  30
    0.000000
  0
VERTEX
  8
2
  62
0
  10
    54.900000
  20
    25.650000
  30
    0.000000
  0
VERTEX
  8
2
  62
0
  10
    54.900000
  20
    25.200000
  30
    0.000000
  0
VERTEX
  8
2
  62
0
  10
    54.600000
  20
    24.750000
  30
    0.000000
  0
VERTEX
  8
2
  62
0
  10
    53.850000
  20
    24.750000
  30
    0.000000
  0
VERTEX
  8
2
  62
0
  10
    53.100000
  20
    24.150000
  30
    0.000000
  0
VERTEX
  8
2
  62
0
  10
    53.250000
  20
    26.550000
  30
    0.000000
  0
VERTEX
  8
2
  62
0
  10
    54.000000
  20
    26.400000
  30
    0.000000
  0
SEQEND
  0
POLYLINE
  8
2
  62
0
  66
1
  0
VERTEX
  8
2
  62
0
  10
    52.950000
  20
    21.600000
  30
    0.000000
  0
VERTEX
  8
2
  62
0
  10
    54.300000
  20
    21.750000
  30
    0.000000
  0
VERTEX
  8
2
  62
0
  10
    54.600000
  20
    21.450000
  30
    0.000000
  0
VERTEX
  8
2
  62
0
  10
    54.450000
  20
    20.700000
  30
    0.000000
  0
VERTEX
  8
2
  62
0
  10
    53.850000
  20
    20.400000
  30
    0.000000
  0
VERTEX
  8
2
  62
0
  10
    53.250000
  20
    20.700000
  30
    0.000000
  0
VERTEX
  8
2
  62
0
  10
    52.950000
  20
    21.600000
  30
    0.000000
  0
SEQEND
  0
POLYLINE
  8
2
  62
0
  66
1
  0
VERTEX
  8
2
  62
0
  10
    55.950000
  20
    3.750000
  30
    0.000000
  0
VERTEX
  8
2
  62
0
  10
    55.950000
  20
    3.150000
  30
    0.000000
  0
VERTEX
  8
2
  62
0
  10
    54.900000
  20
    2.250000
  30
    0.000000
  0
VERTEX
  8
2
  62
0
  10
    53.850000
  20
    2.100000
  30
    0.000000
  0
VERTEX
  8
2
  62
0
  10
    53.400000
  20
    2.700000
  30
    0.000000
  0
VERTEX
  8
2
  62
0
  10
    53.550000
  20
    3.750000
  30
    0.000000
  0
VERTEX
  8
2
  62
0
  10
    55.950000
  20
    3.750000
  30
    0.000000
  0
SEQEND
  0
POLYLINE
  8
2
  62
0
  66
1
  0
VERTEX
  8
2
  62
0
  10
    56.100000
  20
    50.400000
  30
    0.000000
  0
VERTEX
  8
2
  62
0
  10
    56.700000
  20
    49.650000
  30
    0.000000
  0
VERTEX
  8
2
  62
0
  10
    56.400000
  20
    47.700000
  30
    0.000000
  0
VERTEX
  8
2
  62
0
  10
    53.550000
  20
    45.900000
  30
    0.000000
  0
VERTEX
  8
2
  62
0
  10
    54.300000
  20
    50.250000
  30
    0.000000
  0
VERTEX
  8
2
  62
0
  10
    54.750000
  20
    50.700000
  30
    0.000000
  0
VERTEX
  8
2
  62
0
  10
    56.100000
  20
    50.400000
  30
    0.000000
  0
SEQEND
  0
POLYLINE
  8
2
  62
0
  66
1
  0
VERTEX
  8
2
  62
0
  10
    56.400000
  20
    42.750000
  30
    0.000000
  0
VERTEX
  8
2
  62
0
  10
    56.550000
  20
    41.700000
  30
    0.000000
  0
VERTEX
  8
2
  62
0
  10
    56.100000
  20
    40.650000
  30
    0.000000
  0
VERTEX
  8
2
  62
0
  10
    53.550000
  20
    39.450000
  30
    0.000000
  0
VERTEX
  8
2
  62
0
  10
    53.550000
  20
    40.200000
  30
    0.000000
  0
VERTEX
  8
2
  62
0
  10
    54.150000
  20
    40.650000
  30
    0.000000
  0
VERTEX
  8
2
  62
0
  10
    54.150000
  20
    41.400000
  30
    0.000000
  0
VERTEX
  8
2
  62
0
  10
    54.600000
  20
    42.000000
  30
    0.000000
  0
VERTEX
  8
2
  62
0
  10
    55.800000
  20
    42.750000
  30
    0.000000
  0
VERTEX
  8
2
  62
0
  10
    56.400000
  20
    42.750000
  30
    0.000000
  0
SEQEND
  0
POLYLINE
  8
2
  62
0
  66
1
  0
VERTEX
  8
2
  62
0
  10
    56.400000
  20
    34.350000
  30
    0.000000
  0
VERTEX
  8
2
  62
0
  10
    56.850000
  20
    33.900000
  30
    0.000000
  0
VERTEX
  8
2
  62
0
  10
    57.000000
  20
    30.900000
  30
    0.000000
  0
VERTEX
  8
2
  62
0
  10
    55.800000
  20
    29.100000
  30
    0.000000
  0
VERTEX
  8
2
  62
0
  10
    54.300000
  20
    28.950000
  30
    0.000000
  0
VERTEX
  8
2
  62
0
  10
    54.000000
  20
    29.250000
  30
    0.000000
  0
VERTEX
  8
2
  62
0
  10
    54.000000
  20
    31.650000
  30
    0.000000
  0
VERTEX
  8
2
  62
0
  10
    54.300000
  20
    32.700000
  30
    0.000000
  0
VERTEX
  8
2
  62
0
  10
    55.050000
  20
    34.050000
  30
    0.000000
  0
VERTEX
  8
2
  62
0
  10
    56.400000
  20
    34.350000
  30
    0.000000
  0
SEQEND
  0
POLYLINE
  8
2
  62
0
  66
1
  0
VERTEX
  8
2
  62
0
  10
    58.350000
  20
    18.750000
  30
    0.000000
  0
VERTEX
  8
2
  62
0
  10
    58.200000
  20
    18.300000
  30
    0.000000
  0
VERTEX
  8
2
  62
0
  10
    56.400000
  20
    17.700000
  30
    0.000000
  0
VERTEX
  8
2
  62
0
  10
    55.200000
  20
    17.700000
  30
    0.000000
  0
VERTEX
  8
2
  62
0
  10
    54.450000
  20
    18.300000
  30
    0.000000
  0
VERTEX
  8
2
  62
0
  10
    54.600000
  20
    19.050000
  30
    0.000000
  0
VERTEX
  8
2
  62
0
  10
    56.550000
  20
    20.250000
  30
    0.000000
  0
VERTEX
  8
2
  62
0
  10
    58.350000
  20
    18.750000
  30
    0.000000
  0
SEQEND
  0
POLYLINE
  8
2
  62
0
  66
1
  0
VERTEX
  8
2
  62
0
  10
    54.600000
  20
    38.100000
  30
    0.000000
  0
VERTEX
  8
2
  62
0
  10
    55.050000
  20
    38.100000
  30
    0.000000
  0
VERTEX
  8
2
  62
0
  10
    55.500000
  20
    37.200000
  30
    0.000000
  0
VERTEX
  8
2
  62
0
  10
    56.100000
  20
    36.900000
  30
    0.000000
  0
VERTEX
  8
2
  62
0
  10
    56.250000
  20
    35.850000
  30
    0.000000
  0
VERTEX
  8
2
  62
0
  10
    56.850000
  20
    35.100000
  30
    0.000000
  0
VERTEX
  8
2
  62
0
  10
    56.700000
  20
    34.800000
  30
    0.000000
  0
VERTEX
  8
2
  62
0
  10
    55.050000
  20
    35.400000
  30
    0.000000
  0
VERTEX
  8
2
  62
0
  10
    54.600000
  20
    36.750000
  30
    0.000000
  0
VERTEX
  8
2
  62
0
  10
    54.600000
  20
    38.100000
  30
    0.000000
  0
SEQEND
  0
POLYLINE
  8
2
  62
0
  66
1
  0
VERTEX
  8
2
  62
0
  10
    55.050000
  20
    21.450000
  30
    0.000000
  0
VERTEX
  8
2
  62
0
  10
    55.500000
  20
    21.900000
  30
    0.000000
  0
VERTEX
  8
2
  62
0
  10
    56.400000
  20
    21.600000
  30
    0.000000
  0
VERTEX
  8
2
  62
0
  10
    56.700000
  20
    20.550000
  30
    0.000000
  0
VERTEX
  8
2
  62
0
  10
    55.500000
  20
    20.250000
  30
    0.000000
  0
VERTEX
  8
2
  62
0
  10
    55.050000
  20
    20.850000
  30
    0.000000
  0
VERTEX
  8
2
  62
0
  10
    55.050000
  20
    21.450000
  30
    0.000000
  0
SEQEND
  0
POLYLINE
  8
2
  62
0
  66
1
  0
VERTEX
  8
2
  62
0
  10
    55.200000
  20
    39.900000
  30
    0.000000
  0
VERTEX
  8
2
  62
0
  10
    56.550000
  20
    39.900000
  30
    0.000000
  0
VERTEX
  8
2
  62
0
  10
    57.450000
  20
    38.700000
  30
    0.000000
  0
VERTEX
  8
2
  62
0
  10
    57.750000
  20
    38.700000
  30
    0.000000
  0
VERTEX
  8
2
  62
0
  10
    57.900000
  20
    38.100000
  30
    0.000000
  0
VERTEX
  8
2
  62
0
  10
    58.350000
  20
    37.950000
  30
    0.000000
  0
VERTEX
  8
2
  62
0
  10
    58.650000
  20
    37.050000
  30
    0.000000
  0
VERTEX
  8
2
  62
0
  10
    58.350000
  20
    35.250000
  30
    0.000000
  0
VERTEX
  8
2
  62
0
  10
    57.900000
  20
    35.250000
  30
    0.000000
  0
VERTEX
  8
2
  62
0
  10
    56.850000
  20
    37.200000
  30
    0.000000
  0
VERTEX
  8
2
  62
0
  10
    55.800000
  20
    38.100000
  30
    0.000000
  0
VERTEX
  8
2
  62
0
  10
    55.200000
  20
    39.900000
  30
    0.000000
  0
SEQEND
  0
POLYLINE
  8
2
  62
0
  66
1
  0
VERTEX
  8
2
  62
0
  10
    55.200000
  20
    27.900000
  30
    0.000000
  0
VERTEX
  8
2
  62
0
  10
    55.800000
  20
    28.200000
  30
    0.000000
  0
VERTEX
  8
2
  62
0
  10
    55.800000
  20
    28.650000
  30
    0.000000
  0
VERTEX
  8
2
  62
0
  10
    61.650000
  20
    28.200000
  30
    0.000000
  0
VERTEX
  8
2
  62
0
  10
    61.650000
  20
    26.250000
  30
    0.000000
  0
VERTEX
  8
2
  62
0
  10
    57.600000
  20
    26.850000
  30
    0.000000
  0
VERTEX
  8
2
  62
0
  10
    55.950000
  20
    26.700000
  30
    0.000000
  0
VERTEX
  8
2
  62
0
  10
    55.200000
  20
    27.150000
  30
    0.000000
  0
VERTEX
  8
2
  62
0
  10
    55.200000
  20
    27.900000
  30
    0.000000
  0
SEQEND
  0
POLYLINE
  8
2
  62
0
  66
1
  0
VERTEX
  8
2
  62
0
  10
    55.500000
  20
    44.400000
  30
    0.000000
  0
VERTEX
  8
2
  62
0
  10
    56.250000
  20
    44.700000
  30
    0.000000
  0
VERTEX
  8
2
  62
0
  10
    60.150000
  20
    44.550000
  30
    0.000000
  0
VERTEX
  8
2
  62
0
  10
    60.000000
  20
    43.950000
  30
    0.000000
  0
VERTEX
  8
2
  62
0
  10
    61.050000
  20
    43.650000
  30
    0.000000
  0
VERTEX
  8
2
  62
0
  10
    61.050000
  20
    42.900000
  30
    0.000000
  0
VERTEX
  8
2
  62
0
  10
    59.400000
  20
    42.750000
  30
    0.000000
  0
VERTEX
  8
2
  62
0
  10
    57.900000
  20
    43.050000
  30
    0.000000
  0
VERTEX
  8
2
  62
0
  10
    55.500000
  20
    43.800000
  30
    0.000000
  0
VERTEX
  8
2
  62
0
  10
    55.500000
  20
    44.400000
  30
    0.000000
  0
SEQEND
  0
POLYLINE
  8
2
  62
0
  66
1
  0
VERTEX
  8
2
  62
0
  10
    55.650000
  20
    52.500000
  30
    0.000000
  0
VERTEX
  8
2
  62
0
  10
    58.500000
  20
    52.500000
  30
    0.000000
  0
VERTEX
  8
2
  62
0
  10
    58.950000
  20
    51.750000
  30
    0.000000
  0
VERTEX
  8
2
  62
0
  10
    58.950000
  20
    50.700000
  30
    0.000000
  0
VERTEX
  8
2
  62
0
  10
    58.350000
  20
    50.550000
  30
    0.000000
  0
VERTEX
  8
2
  62
0
  10
    57.600000
  20
    50.850000
  30
    0.000000
  0
VERTEX
  8
2
  62
0
  10
    55.650000
  20
    52.500000
  30
    0.000000
  0
SEQEND
  0
POLYLINE
  8
2
  62
0
  66
1
  0
VERTEX
  8
2
  62
0
  10
    56.400000
  20
    2.550000
  30
    0.000000
  0
VERTEX
  8
2
  62
0
  10
    57.000000
  20
    2.550000
  30
    0.000000
  0
VERTEX
  8
2
  62
0
  10
    57.300000
  20
    1.950000
  30
    0.000000
  0
VERTEX
  8
2
  62
0
  10
    57.600000
  20
    1.950000
  30
    0.000000
  0
VERTEX
  8
2
  62
0
  10
    57.600000
  20
    1.500000
  30
    0.000000
  0
VERTEX
  8
2
  62
0
  10
    58.350000
  20
    1.050000
  30
    0.000000
  0
VERTEX
  8
2
  62
0
  10
    58.350000
  20
    0.000000
  30
    0.000000
  0
VERTEX
  8
2
  62
0
  10
    56.250000
  20
    0.000000
  30
    0.000000
  0
VERTEX
  8
2
  62
0
  10
    55.950000
  20
    1.950000
  30
    0.000000
  0
VERTEX
  8
2
  62
0
  10
    56.400000
  20
    1.950000
  30
    0.000000
  0
VERTEX
  8
2
  62
0
  10
    56.400000
  20
    2.550000
  30
    0.000000
  0
SEQEND
  0
POLYLINE
  8
2
  62
0
  66
1
  0
VERTEX
  8
2
  62
0
  10
    61.800000
  20
    24.000000
  30
    0.000000
  0
VERTEX
  8
2
  62
0
  10
    61.800000
  20
    23.100000
  30
    0.000000
  0
VERTEX
  8
2
  62
0
  10
    60.600000
  20
    21.900000
  30
    0.000000
  0
VERTEX
  8
2
  62
0
  10
    58.800000
  20
    22.050000
  30
    0.000000
  0
VERTEX
  8
2
  62
0
  10
    57.900000
  20
    21.150000
  30
    0.000000
  0
VERTEX
  8
2
  62
0
  10
    57.450000
  20
    21.150000
  30
    0.000000
  0
VERTEX
  8
2
  62
0
  10
    56.100000
  20
    22.800000
  30
    0.000000
  0
VERTEX
  8
2
  62
0
  10
    56.250000
  20
    23.700000
  30
    0.000000
  0
VERTEX
  8
2
  62
0
  10
    58.350000
  20
    25.200000
  30
    0.000000
  0
VERTEX
  8
2
  62
0
  10
    60.600000
  20
    25.500000
  30
    0.000000
  0
VERTEX
  8
2
  62
0
  10
    61.800000
  20
    24.000000
  30
    0.000000
  0
SEQEND
  0
POLYLINE
  8
2
  62
0
  66
1
  0
VERTEX
  8
2
  62
0
  10
    61.350000
  20
    49.800000
  30
    0.000000
  0
VERTEX
  8
2
  62
0
  10
    61.350000
  20
    49.200000
  30
    0.000000
  0
VERTEX
  8
2
  62
0
  10
    60.600000
  20
    48.750000
  30
    0.000000
  0
VERTEX
  8
2
  62
0
  10
    60.600000
  20
    48.450000
  30
    0.000000
  0
VERTEX
  8
2
  62
0
  10
    59.400000
  20
    48.300000
  30
    0.000000
  0
VERTEX
  8
2
  62
0
  10
    58.950000
  20
    47.700000
  30
    0.000000
  0
VERTEX
  8
2
  62
0
  10
    58.500000
  20
    47.700000
  30
    0.000000
  0
VERTEX
  8
2
  62
0
  10
    57.450000
  20
    46.200000
  30
    0.000000
  0
VERTEX
  8
2
  62
0
  10
    56.400000
  20
    46.200000
  30
    0.000000
  0
VERTEX
  8
2
  62
0
  10
    56.550000
  20
    47.100000
  30
    0.000000
  0
VERTEX
  8
2
  62
0
  10
    58.350000
  20
    49.050000
  30
    0.000000
  0
VERTEX
  8
2
  62
0
  10
    59.250000
  20
    49.050000
  30
    0.000000
  0
VERTEX
  8
2
  62
0
  10
    60.450000
  20
    49.800000
  30
    0.000000
  0
VERTEX
  8
2
  62
0
  10
    61.350000
  20
    49.800000
  30
    0.000000
  0
SEQEND
  0
POLYLINE
  8
2
  62
0
  66
1
  0
VERTEX
  8
2
  62
0
  10
    60.600000
  20
    4.350000
  30
    0.000000
  0
VERTEX
  8
2
  62
0
  10
    60.600000
  20
    3.600000
  30
    0.000000
  0
VERTEX
  8
2
  62
0
  10
    58.350000
  20
    3.750000
  30
    0.000000
  0
VERTEX
  8
2
  62
0
  10
    57.450000
  20
    3.150000
  30
    0.000000
  0
VERTEX
  8
2
  62
0
  10
    56.850000
  20
    3.150000
  30
    0.000000
  0
VERTEX
  8
2
  62
0
  10
    57.150000
  20
    4.200000
  30
    0.000000
  0
VERTEX
  8
2
  62
0
  10
    58.350000
  20
    5.250000
  30
    0.000000
  0
VERTEX
  8
2
  62
0
  10
    60.000000
  20
    5.100000
  30
    0.000000
  0
VERTEX
  8
2
  62
0
  10
    60.600000
  20
    4.350000
  30
    0.000000
  0
SEQEND
  0
POLYLINE
  8
2
  62
0
  66
1
  0
VERTEX
  8
2
  62
0
  10
    57.600000
  20
    10.950000
  30
    0.000000
  0
VERTEX
  8
2
  62
0
  10
    59.100000
  20
    11.700000
  30
    0.000000
  0
VERTEX
  8
2
  62
0
  10
    60.000000
  20
    12.750000
  30
    0.000000
  0
VERTEX
  8
2
  62
0
  10
    61.200000
  20
    12.750000
  30
    0.000000
  0
VERTEX
  8
2
  62
0
  10
    63.000000
  20
    12.150000
  30
    0.000000
  0
VERTEX
  8
2
  62
0
  10
    65.850000
  20
    9.150000
  30
    0.000000
  0
VERTEX
  8
2
  62
0
  10
    67.050000
  20
    6.600000
  30
    0.000000
  0
VERTEX
  8
2
  62
0
  10
    66.450000
  20
    4.500000
  30
    0.000000
  0
VERTEX
  8
2
  62
0
  10
    65.250000
  20
    3.900000
  30
    0.000000
  0
VERTEX
  8
2
  62
0
  10
    60.900000
  20
    6.000000
  30
    0.000000
  0
VERTEX
  8
2
  62
0
  10
    58.650000
  20
    8.100000
  30
    0.000000
  0
VERTEX
  8
2
  62
0
  10
    57.600000
  20
    9.900000
  30
    0.000000
  0
VERTEX
  8
2
  62
0
  10
    57.600000
  20
    10.950000
  30
    0.000000
  0
SEQEND
  0
POLYLINE
  8
2
  62
0
  66
1
  0
VERTEX
  8
2
  62
0
  10
    57.750000
  20
    33.750000
  30
    0.000000
  0
VERTEX
  8
2
  62
0
  10
    58.650000
  20
    33.750000
  30
    0.000000
  0
VERTEX
  8
2
  62
0
  10
    59.400000
  20
    32.400000
  30
    0.000000
  0
VERTEX
  8
2
  62
0
  10
    59.400000
  20
    29.400000
  30
    0.000000
  0
VERTEX
  8
2
  62
0
  10
    58.800000
  20
    29.400000
  30
    0.000000
  0
VERTEX
  8
2
  62
0
  10
    58.050000
  20
    30.300000
  30
    0.000000
  0
VERTEX
  8
2
  62
0
  10
    57.750000
  20
    33.750000
  30
    0.000000
  0
SEQEND
  0
POLYLINE
  8
2
  62
0
  66
1
  0
VERTEX
  8
2
  62
0
  10
    58.050000
  20
    40.800000
  30
    0.000000
  0
VERTEX
  8
2
  62
0
  10
    58.650000
  20
    40.950000
  30
    0.000000
  0
VERTEX
  8
2
  62
0
  10
    58.650000
  20
    41.400000
  30
    0.000000
  0
VERTEX
  8
2
  62
0
  10
    59.850000
  20
    40.950000
  30
    0.000000
  0
VERTEX
  8
2
  62
0
  10
    61.200000
  20
    39.750000
  30
    0.000000
  0
VERTEX
  8
2
  62
0
  10
    61.800000
  20
    38.400000
  30
    0.000000
  0
VERTEX
  8
2
  62
0
  10
    60.750000
  20
    38.250000
  30
    0.000000
  0
VERTEX
  8
2
  62
0
  10
    58.350000
  20
    39.600000
  30
    0.000000
  0
VERTEX
  8
2
  62
0
  10
    58.050000
  20
    39.900000
  30
    0.000000
  0
VERTEX
  8
2
  62
0
  10
    58.050000
  20
    40.800000
  30
    0.000000
  0
SEQEND
  0
POLYLINE
  8
2
  62
0
  66
1
  0
VERTEX
  8
2
  62
0
  10
    58.800000
  20
    21.600000
  30
    0.000000
  0
VERTEX
  8
2
  62
0
  10
    60.000000
  20
    20.850000
  30
    0.000000
  0
VERTEX
  8
2
  62
0
  10
    59.850000
  20
    19.500000
  30
    0.000000
  0
VERTEX
  8
2
  62
0
  10
    58.650000
  20
    19.800000
  30
    0.000000
  0
VERTEX
  8
2
  62
0
  10
    58.200000
  20
    20.400000
  30
    0.000000
  0
VERTEX
  8
2
  62
0
  10
    58.800000
  20
    21.600000
  30
    0.000000
  0
SEQEND
  0
POLYLINE
  8
2
  62
0
  66
1
  0
VERTEX
  8
2
  62
0
  10
    64.800000
  20
    19.050000
  30
    0.000000
  0
VERTEX
  8
2
  62
0
  10
    64.650000
  20
    18.300000
  30
    0.000000
  0
VERTEX
  8
2
  62
0
  10
    63.900000
  20
    18.150000
  30
    0.000000
  0
VERTEX
  8
2
  62
0
  10
    63.750000
  20
    17.700000
  30
    0.000000
  0
VERTEX
  8
2
  62
0
  10
    63.300000
  20
    17.700000
  30
    0.000000
  0
VERTEX
  8
2
  62
0
  10
    62.850000
  20
    16.950000
  30
    0.000000
  0
VERTEX
  8
2
  62
0
  10
    61.500000
  20
    16.050000
  30
    0.000000
  0
VERTEX
  8
2
  62
0
  10
    58.650000
  20
    16.200000
  30
    0.000000
  0
VERTEX
  8
2
  62
0
  10
    58.650000
  20
    16.950000
  30
    0.000000
  0
VERTEX
  8
2
  62
0
  10
    61.800000
  20
    19.350000
  30
    0.000000
  0
VERTEX
  8
2
  62
0
  10
    64.200000
  20
    19.650000
  30
    0.000000
  0
VERTEX
  8
2
  62
0
  10
    64.200000
  20
    19.200000
  30
    0.000000
  0
VERTEX
  8
2
  62
0
  10
    64.800000
  20
    19.050000
  30
    0.000000
  0
SEQEND
  0
POLYLINE
  8
2
  62
0
  66
1
  0
VERTEX
  8
2
  62
0
  10
    60.000000
  20
    47.550000
  30
    0.000000
  0
VERTEX
  8
2
  62
0
  10
    60.750000
  20
    46.950000
  30
    0.000000
  0
VERTEX
  8
2
  62
0
  10
    60.750000
  20
    46.350000
  30
    0.000000
  0
VERTEX
  8
2
  62
0
  10
    60.300000
  20
    45.600000
  30
    0.000000
  0
VERTEX
  8
2
  62
0
  10
    59.400000
  20
    45.600000
  30
    0.000000
  0
VERTEX
  8
2
  62
0
  10
    58.950000
  20
    46.800000
  30
    0.000000
  0
VERTEX
  8
2
  62
0
  10
    60.000000
  20
    47.550000
  30
    0.000000
  0
SEQEND
  0
POLYLINE
  8
2
  62
0
  66
1
  0
VERTEX
  8
2
  62
0
  10
    62.550000
  20
    34.800000
  30
    0.000000
  0
VERTEX
  8
2
  62
0
  10
    62.250000
  20
    34.050000
  30
    0.000000
  0
VERTEX
  8
2
  62
0
  10
    58.950000
  20
    34.050000
  30
    0.000000
  0
VERTEX
  8
2
  62
0
  10
    59.400000
  20
    34.800000
  30
    0.000000
  0
VERTEX
  8
2
  62
0
  10
    60.900000
  20
    35.850000
  30
    0.000000
  0
VERTEX
  8
2
  62
0
  10
    62.100000
  20
    35.550000
  30
    0.000000
  0
VERTEX
  8
2
  62
0
  10
    62.550000
  20
    34.800000
  30
    0.000000
  0
SEQEND
  0
POLYLINE
  8
2
  62
0
  66
1
  0
VERTEX
  8
2
  62
0
  10
    59.700000
  20
    3.150000
  30
    0.000000
  0
VERTEX
  8
2
  62
0
  10
    61.500000
  20
    3.150000
  30
    0.000000
  0
VERTEX
  8
2
  62
0
  10
    61.800000
  20
    2.700000
  30
    0.000000
  0
VERTEX
  8
2
  62
0
  10
    62.550000
  20
    2.700000
  30
    0.000000
  0
VERTEX
  8
2
  62
0
  10
    62.850000
  20
    2.100000
  30
    0.000000
  0
VERTEX
  8
2
  62
0
  10
    63.300000
  20
    2.100000
  30
    0.000000
  0
VERTEX
  8
2
  62
0
  10
    63.300000
  20
    1.500000
  30
    0.000000
  0
VERTEX
  8
2
  62
0
  10
    64.950000
  20
    0.300000
  30
    0.000000
  0
VERTEX
  8
2
  62
0
  10
    64.950000
  20
    0.000000
  30
    0.000000
  0
VERTEX
  8
2
  62
0
  10
    59.850000
  20
    0.000000
  30
    0.000000
  0
VERTEX
  8
2
  62
0
  10
    60.600000
  20
    0.750000
  30
    0.000000
  0
VERTEX
  8
2
  62
0
  10
    60.150000
  20
    1.200000
  30
    0.000000
  0
VERTEX
  8
2
  62
0
  10
    60.150000
  20
    2.250000
  30
    0.000000
  0
VERTEX
  8
2
  62
0
  10
    59.700000
  20
    2.550000
  30
    0.000000
  0
VERTEX
  8
2
  62
0
  10
    59.700000
  20
    3.150000
  30
    0.000000
  0
SEQEND
  0
POLYLINE
  8
2
  62
0
  66
1
  0
VERTEX
  8
2
  62
0
  10
    63.900000
  20
    36.000000
  30
    0.000000
  0
VERTEX
  8
2
  62
0
  10
    64.950000
  20
    35.250000
  30
    0.000000
  0
VERTEX
  8
2
  62
0
  10
    65.550000
  20
    33.150000
  30
    0.000000
  0
VERTEX
  8
2
  62
0
  10
    66.600000
  20
    31.500000
  30
    0.000000
  0
VERTEX
  8
2
  62
0
  10
    66.600000
  20
    30.750000
  30
    0.000000
  0
VERTEX
  8
2
  62
0
  10
    64.500000
  20
    29.850000
  30
    0.000000
  0
VERTEX
  8
2
  62
0
  10
    64.200000
  20
    29.250000
  30
    0.000000
  0
VERTEX
  8
2
  62
0
  10
    63.000000
  20
    29.250000
  30
    0.000000
  0
VERTEX
  8
2
  62
0
  10
    62.100000
  20
    29.550000
  30
    0.000000
  0
VERTEX
  8
2
  62
0
  10
    60.750000
  20
    30.900000
  30
    0.000000
  0
VERTEX
  8
2
  62
0
  10
    60.000000
  20
    32.250000
  30
    0.000000
  0
VERTEX
  8
2
  62
0
  10
    60.300000
  20
    32.700000
  30
    0.000000
  0
VERTEX
  8
2
  62
0
  10
    61.500000
  20
    32.700000
  30
    0.000000
  0
VERTEX
  8
2
  62
0
  10
    61.950000
  20
    33.000000
  30
    0.000000
  0
VERTEX
  8
2
  62
0
  10
    63.300000
  20
    34.500000
  30
    0.000000
  0
VERTEX
  8
2
  62
0
  10
    63.300000
  20
    35.700000
  30
    0.000000
  0
VERTEX
  8
2
  62
0
  10
    63.900000
  20
    36.000000
  30
    0.000000
  0
SEQEND
  0
POLYLINE
  8
2
  62
0
  66
1
  0
VERTEX
  8
2
  62
0
  10
    60.750000
  20
    52.200000
  30
    0.000000
  0
VERTEX
  8
2
  62
0
  10
    60.900000
  20
    52.500000
  30
    0.000000
  0
VERTEX
  8
2
  62
0
  10
    64.350000
  20
    52.500000
  30
    0.000000
  0
VERTEX
  8
2
  62
0
  10
    64.650000
  20
    50.850000
  30
    0.000000
  0
VERTEX
  8
2
  62
0
  10
    64.050000
  20
    50.100000
  30
    0.000000
  0
VERTEX
  8
2
  62
0
  10
    62.250000
  20
    50.100000
  30
    0.000000
  0
VERTEX
  8
2
  62
0
  10
    60.900000
  20
    50.700000
  30
    0.000000
  0
VERTEX
  8
2
  62
0
  10
    60.750000
  20
    52.200000
  30
    0.000000
  0
SEQEND
  0
POLYLINE
  8
2
  62
0
  66
1
  0
VERTEX
  8
2
  62
0
  10
    63.300000
  20
    47.100000
  30
    0.000000
  0
VERTEX
  8
2
  62
0
  10
    63.600000
  20
    46.050000
  30
    0.000000
  0
VERTEX
  8
2
  62
0
  10
    64.350000
  20
    46.050000
  30
    0.000000
  0
VERTEX
  8
2
  62
0
  10
    64.350000
  20
    45.300000
  30
    0.000000
  0
VERTEX
  8
2
  62
0
  10
    63.150000
  20
    44.100000
  30
    0.000000
  0
VERTEX
  8
2
  62
0
  10
    63.000000
  20
    41.850000
  30
    0.000000
  0
VERTEX
  8
2
  62
0
  10
    62.100000
  20
    41.550000
  30
    0.000000
  0
VERTEX
  8
2
  62
0
  10
    62.100000
  20
    45.750000
  30
    0.000000
  0
VERTEX
  8
2
  62
0
  10
    62.400000
  20
    47.100000
  30
    0.000000
  0
VERTEX
  8
2
  62
0
  10
    63.300000
  20
    47.100000
  30
    0.000000
  0
SEQEND
  0
POLYLINE
  8
2
  62
0
  66
1
  0
VERTEX
  8
2
  62
0
  10
    62.250000
  20
    15.750000
  30
    0.000000
  0
VERTEX
  8
2
  62
0
  10
    63.300000
  20
    15.750000
  30
    0.000000
  0
VERTEX
  8
2
  62
0
  10
    64.200000
  20
    15.300000
  30
    0.000000
  0
VERTEX
  8
2
  62
0
  10
    64.800000
  20
    14.550000
  30
    0.000000
  0
VERTEX
  8
2
  62
0
  10
    65.250000
  20
    14.550000
  30
    0.000000
  0
VERTEX
  8
2
  62
0
  10
    64.950000
  20
    13.950000
  30
    0.000000
  0
VERTEX
  8
2
  62
0
  10
    65.250000
  20
    13.050000
  30
    0.000000
  0
VERTEX
  8
2
  62
0
  10
    63.300000
  20
    13.350000
  30
    0.000000
  0
VERTEX
  8
2
  62
0
  10
    63.150000
  20
    14.400000
  30
    0.000000
  0
VERTEX
  8
2
  62
0
  10
    62.400000
  20
    14.850000
  30
    0.000000
  0
VERTEX
  8
2
  62
0
  10
    62.250000
  20
    15.750000
  30
    0.000000
  0
SEQEND
  0
POLYLINE
  8
2
  62
0
  66
1
  0
VERTEX
  8
2
  62
0
  10
    63.300000
  20
    25.050000
  30
    0.000000
  0
VERTEX
  8
2
  62
0
  10
    64.800000
  20
    24.600000
  30
    0.000000
  0
VERTEX
  8
2
  62
0
  10
    65.550000
  20
    24.000000
  30
    0.000000
  0
VERTEX
  8
2
  62
0
  10
    66.150000
  20
    22.500000
  30
    0.000000
  0
VERTEX
  8
2
  62
0
  10
    65.850000
  20
    21.450000
  30
    0.000000
  0
VERTEX
  8
2
  62
0
  10
    64.950000
  20
    21.300000
  30
    0.000000
  0
VERTEX
  8
2
  62
0
  10
    64.050000
  20
    21.600000
  30
    0.000000
  0
VERTEX
  8
2
  62
0
  10
    62.550000
  20
    23.100000
  30
    0.000000
  0
VERTEX
  8
2
  62
0
  10
    62.550000
  20
    24.150000
  30
    0.000000
  0
VERTEX
  8
2
  62
0
  10
    63.300000
  20
    25.050000
  30
    0.000000
  0
SEQEND
  0
POLYLINE
  8
2
  62
0
  66
1
  0
VERTEX
  8
2
  62
0
  10
    65.400000
  20
    29.100000
  30
    0.000000
  0
VERTEX
  8
2
  62
0
  10
    65.400000
  20
    28.350000
  30
    0.000000
  0
VERTEX
  8
2
  62
0
  10
    64.650000
  20
    27.450000
  30
    0.000000
  0
VERTEX
  8
2
  62
0
  10
    63.450000
  20
    26.250000
  30
    0.000000
  0
VERTEX
  8
2
  62
0
  10
    63.000000
  20
    26.250000
  30
    0.000000
  0
VERTEX
  8
2
  62
0
  10
    63.300000
  20
    27.750000
  30
    0.000000
  0
VERTEX
  8
2
  62
0
  10
    63.900000
  20
    28.350000
  30
    0.000000
  0
VERTEX
  8
2
  62
0
  10
    64.500000
  20
    28.350000
  30
    0.000000
  0
VERTEX
  8
2
  62
0
  10
    64.950000
  20
    29.100000
  30
    0.000000
  0
VERTEX
  8
2
  62
0
  10
    65.400000
  20
    29.100000
  30
    0.000000
  0
SEQEND
  0
POLYLINE
  8
2
  62
0
  66
1
  0
VERTEX
  8
2
  62
0
  10
    64.950000
  20
    41.100000
  30
    0.000000
  0
VERTEX
  8
2
  62
0
  10
    66.750000
  20
    41.100000
  30
    0.000000
  0
VERTEX
  8
2
  62
0
  10
    66.900000
  20
    40.800000
  30
    0.000000
  0
VERTEX
  8
2
  62
0
  10
    67.050000
  20
    36.450000
  30
    0.000000
  0
VERTEX
  8
2
  62
0
  10
    63.600000
  20
    37.200000
  30
    0.000000
  0
VERTEX
  8
2
  62
0
  10
    63.300000
  20
    37.650000
  30
    0.000000
  0
VERTEX
  8
2
  62
0
  10
    63.300000
  20
    38.250000
  30
    0.000000
  0
VERTEX
  8
2
  62
0
  10
    63.600000
  20
    38.250000
  30
    0.000000
  0
VERTEX
  8
2
  62
0
  10
    64.500000
  20
    40.650000
  30
    0.000000
  0
VERTEX
  8
2
  62
0
  10
    64.950000
  20
    41.100000
  30
    0.000000
  0
SEQEND
  0
POLYLINE
  8
2
  62
0
  66
1
  0
VERTEX
  8
2
  62
0
  10
    64.200000
  20
    48.900000
  30
    0.000000
  0
VERTEX
  8
2
  62
0
  10
    65.400000
  20
    49.500000
  30
    0.000000
  0
VERTEX
  8
2
  62
0
  10
    67.050000
  20
    49.350000
  30
    0.000000
  0
VERTEX
  8
2
  62
0
  10
    67.650000
  20
    48.300000
  30
    0.000000
  0
VERTEX
  8
2
  62
0
  10
    67.200000
  20
    47.400000
  30
    0.000000
  0
VERTEX
  8
2
  62
0
  10
    67.350000
  20
    46.950000
  30
    0.000000
  0
VERTEX
  8
2
  62
0
  10
    66.000000
  20
    47.250000
  30
    0.000000
  0
VERTEX
  8
2
  62
0
  10
    64.200000
  20
    48.900000
  30
    0.000000
  0
SEQEND
  0
POLYLINE
  8
2
  62
0
  66
1
  0
VERTEX
  8
2
  62
0
  10
    64.650000
  20
    3.000000
  30
    0.000000
  0
VERTEX
  8
2
  62
0
  10
    65.700000
  20
    3.000000
  30
    0.000000
  0
VERTEX
  8
2
  62
0
  10
    66.750000
  20
    2.250000
  30
    0.000000
  0
VERTEX
  8
2
  62
0
  10
    66.600000
  20
    0.600000
  30
    0.000000
  0
VERTEX
  8
2
  62
0
  10
    65.850000
  20
    0.600000
  30
    0.000000
  0
VERTEX
  8
2
  62
0
  10
    65.100000
  20
    1.350000
  30
    0.000000
  0
VERTEX
  8
2
  62
0
  10
    64.650000
  20
    3.000000
  30
    0.000000
  0
SEQEND
  0
POLYLINE
  8
2
  62
0
  66
1
  0
VERTEX
  8
2
  62
0
  10
    66.150000
  20
    44.850000
  30
    0.000000
  0
VERTEX
  8
2
  62
0
  10
    66.900000
  20
    43.950000
  30
    0.000000
  0
VERTEX
  8
2
  62
0
  10
    66.900000
  20
    43.350000
  30
    0.000000
  0
VERTEX
  8
2
  62
0
  10
    65.400000
  20
    42.450000
  30
    0.000000
  0
VERTEX
  8
2
  62
0
  10
    64.800000
  20
    44.400000
  30
    0.000000
  0
VERTEX
  8
2
  62
0
  10
    65.400000
  20
    44.850000
  30
    0.000000
  0
VERTEX
  8
2
  62
0
  10
    66.150000
  20
    44.850000
  30
    0.000000
  0
SEQEND
  0
POLYLINE
  8
2
  62
0
  66
1
  0
VERTEX
  8
2
  62
0
  10
    69.750000
  20
    17.400000
  30
    0.000000
  0
VERTEX
  8
2
  62
0
  10
    69.600000
  20
    16.350000
  30
    0.000000
  0
VERTEX
  8
2
  62
0
  10
    68.700000
  20
    14.850000
  30
    0.000000
  0
VERTEX
  8
2
  62
0
  10
    67.200000
  20
    14.850000
  30
    0.000000
  0
VERTEX
  8
2
  62
0
  10
    64.950000
  20
    15.450000
  30
    0.000000
  0
VERTEX
  8
2
  62
0
  10
    64.800000
  20
    16.950000
  30
    0.000000
  0
VERTEX
  8
2
  62
0
  10
    65.250000
  20
    17.100000
  30
    0.000000
  0
VERTEX
  8
2
  62
0
  10
    65.550000
  20
    17.850000
  30
    0.000000
  0
VERTEX
  8
2
  62
0
  10
    69.150000
  20
    18.000000
  30
    0.000000
  0
VERTEX
  8
2
  62
0
  10
    69.750000
  20
    17.400000
  30
    0.000000
  0
SEQEND
  0
POLYLINE
  8
2
  62
0
  66
1
  0
VERTEX
  8
2
  62
0
  10
    65.700000
  20
    35.550000
  30
    0.000000
  0
VERTEX
  8
2
  62
0
  10
    66.900000
  20
    35.250000
  30
    0.000000
  0
VERTEX
  8
2
  62
0
  10
    68.550000
  20
    33.900000
  30
    0.000000
  0
VERTEX
  8
2
  62
0
  10
    68.550000
  20
    33.150000
  30
    0.000000
  0
VERTEX
  8
2
  62
0
  10
    67.650000
  20
    31.800000
  30
    0.000000
  0
VERTEX
  8
2
  62
0
  10
    67.350000
  20
    31.800000
  30
    0.000000
  0
VERTEX
  8
2
  62
0
  10
    65.700000
  20
    34.350000
  30
    0.000000
  0
VERTEX
  8
2
  62
0
  10
    65.400000
  20
    35.250000
  30
    0.000000
  0
VERTEX
  8
2
  62
0
  10
    65.700000
  20
    35.550000
  30
    0.000000
  0
SEQEND
  0
POLYLINE
  8
2
  62
0
  66
1
  0
VERTEX
  8
2
  62
0
  10
    70.050000
  20
    27.000000
  30
    0.000000
  0
VERTEX
  8
2
  62
0
  10
    70.050000
  20
    26.250000
  30
    0.000000
  0
VERTEX
  8
2
  62
0
  10
    69.000000
  20
    26.100000
  30
    0.000000
  0
VERTEX
  8
2
  62
0
  10
    68.400000
  20
    26.400000
  30
    0.000000
  0
VERTEX
  8
2
  62
0
  10
    67.500000
  20
    25.650000
  30
    0.000000
  0
VERTEX
  8
2
  62
0
  10
    66.000000
  20
    25.800000
  30
    0.000000
  0
VERTEX
  8
2
  62
0
  10
    65.700000
  20
    26.250000
  30
    0.000000
  0
VERTEX
  8
2
  62
0
  10
    65.700000
  20
    26.850000
  30
    0.000000
  0
VERTEX
  8
2
  62
0
  10
    66.450000
  20
    27.750000
  30
    0.000000
  0
VERTEX
  8
2
  62
0
  10
    66.450000
  20
    28.500000
  30
    0.000000
  0
VERTEX
  8
2
  62
0
  10
    69.600000
  20
    27.450000
  30
    0.000000
  0
VERTEX
  8
2
  62
0
  10
    70.050000
  20
    27.000000
  30
    0.000000
  0
SEQEND
  0
POLYLINE
  8
2
  62
0
  66
1
  0
VERTEX
  8
2
  62
0
  10
    65.700000
  20
    13.200000
  30
    0.000000
  0
VERTEX
  8
2
  62
0
  10
    66.750000
  20
    13.350000
  30
    0.000000
  0
VERTEX
  8
2
  62
0
  10
    67.200000
  20
    13.800000
  30
    0.000000
  0
VERTEX
  8
2
  62
0
  10
    68.400000
  20
    13.800000
  30
    0.000000
  0
VERTEX
  8
2
  62
0
  10
    69.000000
  20
    13.200000
  30
    0.000000
  0
VERTEX
  8
2
  62
0
  10
    69.150000
  20
    12.300000
  30
    0.000000
  0
VERTEX
  8
2
  62
0
  10
    67.050000
  20
    12.600000
  30
    0.000000
  0
VERTEX
  8
2
  62
0
  10
    66.900000
  20
    12.300000
  30
    0.000000
  0
VERTEX
  8
2
  62
0
  10
    65.700000
  20
    12.300000
  30
    0.000000
  0
VERTEX
  8
2
  62
0
  10
    65.700000
  20
    13.200000
  30
    0.000000
  0
SEQEND
  0
POLYLINE
  8
2
  62
0
  66
1
  0
VERTEX
  8
2
  62
0
  10
    66.750000
  20
    11.550000
  30
    0.000000
  0
VERTEX
  8
2
  62
0
  10
    67.800000
  20
    11.400000
  30
    0.000000
  0
VERTEX
  8
2
  62
0
  10
    69.000000
  20
    10.500000
  30
    0.000000
  0
VERTEX
  8
2
  62
0
  10
    67.950000
  20
    8.850000
  30
    0.000000
  0
VERTEX
  8
2
  62
0
  10
    66.450000
  20
    10.350000
  30
    0.000000
  0
VERTEX
  8
2
  62
0
  10
    66.750000
  20
    11.550000
  30
    0.000000
  0
SEQEND
  0
POLYLINE
  8
2
  62
0
  66
1
  0
VERTEX
  8
2
  62
0
  10
    68.250000
  20
    24.750000
  30
    0.000000
  0
VERTEX
  8
2
  62
0
  10
    67.650000
  20
    22.800000
  30
    0.000000
  0
VERTEX
  8
2
  62
0
  10
    67.050000
  20
    22.800000
  30
    0.000000
  0
VERTEX
  8
2
  62
0
  10
    66.750000
  20
    24.450000
  30
    0.000000
  0
VERTEX
  8
2
  62
0
  10
    68.250000
  20
    24.750000
  30
    0.000000
  0
SEQEND
  0
POLYLINE
  8
2
  62
0
  66
1
  0
VERTEX
  8
2
  62
0
  10
    66.900000
  20
    21.150000
  30
    0.000000
  0
VERTEX
  8
2
  62
0
  10
    68.100000
  20
    21.150000
  30
    0.000000
  0
VERTEX
  8
2
  62
0
  10
    68.850000
  20
    19.950000
  30
    0.000000
  0
VERTEX
  8
2
  62
0
  10
    69.150000
  20
    19.950000
  30
    0.000000
  0
VERTEX
  8
2
  62
0
  10
    69.600000
  20
    18.450000
  30
    0.000000
  0
VERTEX
  8
2
  62
0
  10
    67.950000
  20
    18.750000
  30
    0.000000
  0
VERTEX
  8
2
  62
0
  10
    67.200000
  20
    19.350000
  30
    0.000000
  0
VERTEX
  8
2
  62
0
  10
    66.900000
  20
    19.650000
  30
    0.000000
  0
VERTEX
  8
2
  62
0
  10
    66.900000
  20
    21.150000
  30
    0.000000
  0
SEQEND
  0
POLYLINE
  8
2
  62
0
  66
1
  0
VERTEX
  8
2
  62
0
  10
    68.550000
  20
    45.450000
  30
    0.000000
  0
VERTEX
  8
2
  62
0
  10
    69.000000
  20
    44.250000
  30
    0.000000
  0
VERTEX
  8
2
  62
0
  10
    67.800000
  20
    43.200000
  30
    0.000000
  0
VERTEX
  8
2
  62
0
  10
    67.350000
  20
    44.100000
  30
    0.000000
  0
VERTEX
  8
2
  62
0
  10
    68.250000
  20
    44.850000
  30
    0.000000
  0
VERTEX
  8
2
  62
0
  10
    68.250000
  20
    45.450000
  30
    0.000000
  0
VERTEX
  8
2
  62
0
  10
    68.550000
  20
    45.450000
  30
    0.000000
  0
SEQEND
  0
POLYLINE
  8
2
  62
0
  66
1
  0
VERTEX
  8
2
  62
0
  10
    67.800000
  20
    51.300000
  30
    0.000000
  0
VERTEX
  8
2
  62
0
  10
    69.150000
  20
    51.450000
  30
    0.000000
  0
VERTEX
  8
2
  62
0
  10
    69.300000
  20
    51.150000
  30
    0.000000
  0
VERTEX
  8
2
  62
0
  10
    70.500000
  20
    51.000000
  30
    0.000000
  0
VERTEX
  8
2
  62
0
  10
    71.400000
  20
    50.550000
  30
    0.000000
  0
VERTEX
  8
2
  62
0
  10
    71.400000
  20
    49.950000
  30
    0.000000
  0
VERTEX
  8
2
  62
0
  10
    70.650000
  20
    49.950000
  30
    0.000000
  0
VERTEX
  8
2
  62
0
  10
    70.650000
  20
    49.350000
  30
    0.000000
  0
VERTEX
  8
2
  62
0
  10
    70.200000
  20
    49.350000
  30
    0.000000
  0
VERTEX
  8
2
  62
0
  10
    69.600000
  20
    49.950000
  30
    0.000000
  0
VERTEX
  8
2
  62
0
  10
    68.100000
  20
    49.950000
  30
    0.000000
  0
VERTEX
  8
2
  62
0
  10
    67.800000
  20
    50.250000
  30
    0.000000
  0
VERTEX
  8
2
  62
0
  10
    67.800000
  20
    51.300000
  30
    0.000000
  0
SEQEND
  0
POLYLINE
  8
2
  62
0
  66
1
  0
VERTEX
  8
2
  62
0
  10
    68.250000
  20
    7.650000
  30
    0.000000
  0
VERTEX
  8
2
  62
0
  10
    69.300000
  20
    7.350000
  30
    0.000000
  0
VERTEX
  8
2
  62
0
  10
    73.500000
  20
    7.350000
  30
    0.000000
  0
VERTEX
  8
2
  62
0
  10
    75.000000
  20
    6.900000
  30
    0.000000
  0
VERTEX
  8
2
  62
0
  10
    75.000000
  20
    0.000000
  30
    0.000000
  0
VERTEX
  8
2
  62
0
  10
    71.550000
  20
    0.000000
  30
    0.000000
  0
VERTEX
  8
2
  62
0
  10
    68.100000
  20
    1.500000
  30
    0.000000
  0
VERTEX
  8
2
  62
0
  10
    68.250000
  20
    3.900000
  30
    0.000000
  0
VERTEX
  8
2
  62
0
  10
    68.850000
  20
    4.800000
  30
    0.000000
  0
VERTEX
  8
2
  62
0
  10
    68.700000
  20
    5.850000
  30
    0.000000
  0
VERTEX
  8
2
  62
0
  10
    68.100000
  20
    6.900000
  30
    0.000000
  0
VERTEX
  8
2
  62
0
  10
    68.250000
  20
    7.650000
  30
    0.000000
  0
SEQEND
  0
POLYLINE
  8
2
  62
0
  66
1
  0
VERTEX
  8
2
  62
0
  10
    68.400000
  20
    23.100000
  30
    0.000000
  0
VERTEX
  8
2
  62
0
  10
    69.000000
  20
    23.550000
  30
    0.000000
  0
VERTEX
  8
2
  62
0
  10
    69.900000
  20
    23.400000
  30
    0.000000
  0
VERTEX
  8
2
  62
0
  10
    69.900000
  20
    22.200000
  30
    0.000000
  0
VERTEX
  8
2
  62
0
  10
    68.850000
  20
    22.350000
  30
    0.000000
  0
VERTEX
  8
2
  62
0
  10
    68.400000
  20
    23.100000
  30
    0.000000
  0
SEQEND
  0
POLYLINE
  8
2
  62
0
  66
1
  0
VERTEX
  8
2
  62
0
  10
    70.200000
  20
    41.700000
  30
    0.000000
  0
VERTEX
  8
2
  62
0
  10
    70.500000
  20
    40.500000
  30
    0.000000
  0
VERTEX
  8
2
  62
0
  10
    71.550000
  20
    39.450000
  30
    0.000000
  0
VERTEX
  8
2
  62
0
  10
    71.400000
  20
    36.750000
  30
    0.000000
  0
VERTEX
  8
2
  62
0
  10
    70.050000
  20
    36.900000
  30
    0.000000
  0
VERTEX
  8
2
  62
0
  10
    68.550000
  20
    38.400000
  30
    0.000000
  0
VERTEX
  8
2
  62
0
  10
    68.700000
  20
    39.900000
  30
    0.000000
  0
VERTEX
  8
2
  62
0
  10
    70.200000
  20
    41.700000
  30
    0.000000
  0
SEQEND
  0
POLYLINE
  8
2
  62
0
  66
1
  0
VERTEX
  8
2
  62
0
  10
    69.000000
  20
    29.550000
  30
    0.000000
  0
VERTEX
  8
2
  62
0
  10
    69.750000
  20
    30.000000
  30
    0.000000
  0
VERTEX
  8
2
  62
0
  10
    69.750000
  20
    30.450000
  30
    0.000000
  0
VERTEX
  8
2
  62
0
  10
    70.950000
  20
    30.300000
  30
    0.000000
  0
VERTEX
  8
2
  62
0
  10
    72.600000
  20
    29.100000
  30
    0.000000
  0
VERTEX
  8
2
  62
0
  10
    72.750000
  20
    27.900000
  30
    0.000000
  0
VERTEX
  8
2
  62
0
  10
    71.700000
  20
    27.750000
  30
    0.000000
  0
VERTEX
  8
2
  62
0
  10
    69.750000
  20
    28.350000
  30
    0.000000
  0
VERTEX
  8
2
  62
0
  10
    69.150000
  20
    28.800000
  30
    0.000000
  0
VERTEX
  8
2
  62
0
  10
    69.000000
  20
    29.550000
  30
    0.000000
  0
SEQEND
  0
POLYLINE
  8
2
  62
0
  66
1
  0
VERTEX
  8
2
  62
0
  10
    69.750000
  20
    35.100000
  30
    0.000000
  0
VERTEX
  8
2
  62
0
  10
    70.350000
  20
    35.100000
  30
    0.000000
  0
VERTEX
  8
2
  62
0
  10
    70.800000
  20
    33.600000
  30
    0.000000
  0
VERTEX
  8
2
  62
0
  10
    71.400000
  20
    33.300000
  30
    0.000000
  0
VERTEX
  8
2
  62
0
  10
    71.400000
  20
    32.250000
  30
    0.000000
  0
VERTEX
  8
2
  62
0
  10
    71.850000
  20
    31.950000
  30
    0.000000
  0
VERTEX
  8
2
  62
0
  10
    72.600000
  20
    30.000000
  30
    0.000000
  0
VERTEX
  8
2
  62
0
  10
    72.000000
  20
    30.000000
  30
    0.000000
  0
VERTEX
  8
2
  62
0
  10
    71.700000
  20
    30.600000
  30
    0.000000
  0
VERTEX
  8
2
  62
0
  10
    70.650000
  20
    30.900000
  30
    0.000000
  0
VERTEX
  8
2
  62
0
  10
    70.050000
  20
    31.650000
  30
    0.000000
  0
VERTEX
  8
2
  62
0
  10
    69.150000
  20
    31.650000
  30
    0.000000
  0
VERTEX
  8
2
  62
0
  10
    69.150000
  20
    32.400000
  30
    0.000000
  0
VERTEX
  8
2
  62
0
  10
    69.750000
  20
    33.300000
  30
    0.000000
  0
VERTEX
  8
2
  62
0
  10
    69.750000
  20
    35.100000
  30
    0.000000
  0
SEQEND
  0
POLYLINE
  8
2
  62
0
  66
1
  0
VERTEX
  8
2
  62
0
  10
    69.300000
  20
    48.750000
  30
    0.000000
  0
VERTEX
  8
2
  62
0
  10
    70.350000
  20
    48.300000
  30
    0.000000
  0
VERTEX
  8
2
  62
0
  10
    71.700000
  20
    44.550000
  30
    0.000000
  0
VERTEX
  8
2
  62
0
  10
    72.900000
  20
    42.750000
  30
    0.000000
  0
VERTEX
  8
2
  62
0
  10
    72.900000
  20
    42.150000
  30
    0.000000
  0
VERTEX
  8
2
  62
0
  10
    71.550000
  20
    42.150000
  30
    0.000000
  0
VERTEX
  8
2
  62
0
  10
    69.600000
  20
    43.650000
  30
    0.000000
  0
VERTEX
  8
2
  62
0
  10
    69.300000
  20
    48.750000
  30
    0.000000
  0
SEQEND
  0
POLYLINE
  8
2
  62
0
  66
1
  0
VERTEX
  8
2
  62
0
  10
    72.300000
  20
    15.150000
  30
    0.000000
  0
VERTEX
  8
2
  62
0
  10
    72.450000
  20
    14.400000
  30
    0.000000
  0
VERTEX
  8
2
  62
0
  10
    71.400000
  20
    14.100000
  30
    0.000000
  0
VERTEX
  8
2
  62
0
  10
    70.800000
  20
    13.500000
  30
    0.000000
  0
VERTEX
  8
2
  62
0
  10
    69.900000
  20
    13.650000
  30
    0.000000
  0
VERTEX
  8
2
  62
0
  10
    69.750000
  20
    14.850000
  30
    0.000000
  0
VERTEX
  8
2
  62
0
  10
    70.500000
  20
    15.600000
  30
    0.000000
  0
VERTEX
  8
2
  62
0
  10
    71.250000
  20
    15.750000
  30
    0.000000
  0
VERTEX
  8
2
  62
0
  10
    72.300000
  20
    15.150000
  30
    0.000000
  0
SEQEND
  0
POLYLINE
  8
2
  62
0
  66
1
  0
VERTEX
  8
2
  62
0
  10
    69.900000
  20
    10.650000
  30
    0.000000
  0
VERTEX
  8
2
  62
0
  10
    70.350000
  20
    10.650000
  30
    0.000000
  0
VERTEX
  8
2
  62
0
  10
    70.950000
  20
    9.300000
  30
    0.000000
  0
VERTEX
  8
2
  62
0
  10
    72.150000
  20
    8.400000
  30
    0.000000
  0
VERTEX
  8
2
  62
0
  10
    72.150000
  20
    7.800000
  30
    0.000000
  0
VERTEX
  8
2
  62
0
  10
    71.100000
  20
    7.950000
  30
    0.000000
  0
VERTEX
  8
2
  62
0
  10
    70.200000
  20
    8.550000
  30
    0.000000
  0
VERTEX
  8
2
  62
0
  10
    69.900000
  20
    10.650000
  30
    0.000000
  0
SEQEND
  0
POLYLINE
  8
2
  62
0
  66
1
  0
VERTEX
  8
2
  62
0
  10
    73.350000
  20
    27.300000
  30
    0.000000
  0
VERTEX
  8
2
  62
0
  10
    73.350000
  20
    26.850000
  30
    0.000000
  0
VERTEX
  8
2
  62
0
  10
    72.450000
  20
    25.800000
  30
    0.000000
  0
VERTEX
  8
2
  62
0
  10
    71.400000
  20
    25.500000
  30
    0.000000
  0
VERTEX
  8
2
  62
0
  10
    71.250000
  20
    25.050000
  30
    0.000000
  0
VERTEX
  8
2
  62
0
  10
    70.050000
  20
    25.200000
  30
    0.000000
  0
VERTEX
  8
2
  62
0
  10
    70.350000
  20
    26.400000
  30
    0.000000
  0
VERTEX
  8
2
  62
0
  10
    73.350000
  20
    27.300000
  30
    0.000000
  0
SEQEND
  0
POLYLINE
  8
2
  62
0
  66
1
  0
VERTEX
  8
2
  62
0
  10
    71.400000
  20
    52.500000
  30
    0.000000
  0
VERTEX
  8
2
  62
0
  10
    75.000000
  20
    52.500000
  30
    0.000000
  0
VERTEX
  8
2
  62
0
  10
    75.000000
  20
    45.900000
  30
    0.000000
  0
VERTEX
  8
2
  62
0
  10
    72.300000
  20
    47.250000
  30
    0.000000
  0
VERTEX
  8
2
  62
0
  10
    72.150000
  20
    48.000000
  30
    0.000000
  0
VERTEX
  8
2
  62
0
  10
    73.500000
  20
    49.200000
  30
    0.000000
  0
VERTEX
  8
2
  62
0
  10
    73.500000
  20
    49.950000
  30
    0.000000
  0
VERTEX
  8
2
  62
0
  10
    72.150000
  20
    51.600000
  30
    0.000000
  0
VERTEX
  8
2
  62
0
  10
    71.400000
  20
    52.050000
  30
    0.000000
  0
VERTEX
  8
2
  62
0
  10
    71.400000
  20
    52.500000
  30
    0.000000
  0
SEQEND
  0
POLYLINE
  8
2
  62
0
  66
1
  0
VERTEX
  8
2
  62
0
  10
    71.700000
  20
    20.550000
  30
    0.000000
  0
VERTEX
  8
2
  62
0
  10
    72.750000
  20
    20.700000
  30
    0.000000
  0
VERTEX
  8
2
  62
0
  10
    73.950000
  20
    19.350000
  30
    0.000000
  0
VERTEX
  8
2
  62
0
  10
    75.000000
  20
    18.750000
  30
    0.000000
  0
VERTEX
  8
2
  62
0
  10
    75.000000
  20
    16.350000
  30
    0.000000
  0
VERTEX
  8
2
  62
0
  10
    74.250000
  20
    16.650000
  30
    0.000000
  0
VERTEX
  8
2
  62
0
  10
    71.550000
  20
    19.500000
  30
    0.000000
  0
VERTEX
  8
2
  62
0
  10
    71.400000
  20
    20.250000
  30
    0.000000
  0
VERTEX
  8
2
  62
0
  10
    71.700000
  20
    20.550000
  30
    0.000000
  0
SEQEND
  0
POLYLINE
  8
2
  62
0
  66
1
  0
VERTEX
  8
2
  62
0
  10
    73.050000
  20
    13.050000
  30
    0.000000
  0
VERTEX
  8
2
  62
0
  10
    73.800000
  20
    13.050000
  30
    0.000000
  0
VERTEX
  8
2
  62
0
  10
    75.000000
  20
    12.150000
  30
    0.000000
  0
VERTEX
  8
2
  62
0
  10
    75.000000
  20
    8.550000
  30
    0.000000
  0
VERTEX
  8
2
  62
0
  10
    71.400000
  20
    10.800000
  30
    0.000000
  0
VERTEX
  8
2
  62
0
  10
    71.700000
  20
    11.400000
  30
    0.000000
  0
VERTEX
  8
2
  62
0
  10
    72.300000
  20
    11.550000
  30
    0.000000
  0
VERTEX
  8
2
  62
0
  10
    73.050000
  20
    13.050000
  30
    0.000000
  0
SEQEND
  0
POLYLINE
  8
2
  62
0
  66
1
  0
VERTEX
  8
2
  62
0
  10
    71.700000
  20
    40.950000
  30
    0.000000
  0
VERTEX
  8
2
  62
0
  10
    73.050000
  20
    40.500000
  30
    0.000000
  0
VERTEX
  8
2
  62
0
  10
    74.250000
  20
    40.650000
  30
    0.000000
  0
VERTEX
  8
2
  62
0
  10
    73.950000
  20
    38.850000
  30
    0.000000
  0
VERTEX
  8
2
  62
0
  10
    73.350000
  20
    38.250000
  30
    0.000000
  0
VERTEX
  8
2
  62
0
  10
    72.600000
  20
    38.250000
  30
    0.000000
  0
VERTEX
  8
2
  62
0
  10
    72.600000
  20
    39.150000
  30
    0.000000
  0
VERTEX
  8
2
  62
0
  10
    72.300000
  20
    39.150000
  30
    0.000000
  0
VERTEX
  8
2
  62
0
  10
    71.700000
  20
    40.050000
  30
    0.000000
  0
VERTEX
  8
2
  62
0
  10
    71.700000
  20
    40.950000
  30
    0.000000
  0
SEQEND
  0
POLYLINE
  8
2
  62
0
  66
1
  0
VERTEX
  8
2
  62
0
  10
    75.000000
  20
    26.550000
  30
    0.000000
  0
VERTEX
  8
2
  62
0
  10
    75.000000
  20
    22.650000
  30
    0.000000
  0
VERTEX
  8
2
  62
0
  10
    73.500000
  20
    21.750000
  30
    0.000000
  0
VERTEX
  8
2
  62
0
  10
    72.150000
  20
    21.600000
  30
    0.000000
  0
VERTEX
  8
2
  62
0
  10
    72.000000
  20
    23.400000
  30
    0.000000
  0
VERTEX
  8
2
  62
0
  10
    72.600000
  20
    23.550000
  30
    0.000000
  0
VERTEX
  8
2
  62
0
  10
    73.200000
  20
    25.500000
  30
    0.000000
  0
VERTEX
  8
2
  62
0
  10
    74.250000
  20
    26.550000
  30
    0.000000
  0
VERTEX
  8
2
  62
0
  10
    75.000000
  20
    26.550000
  30
    0.000000
  0
SEQEND
  0
POLYLINE
  8
2
  62
0
  66
1
  0
VERTEX
  8
2
  62
0
  10
    73.350000
  20
    37.050000
  30
    0.000000
  0
VERTEX
  8
2
  62
0
  10
    75.000000
  20
    36.300000
  30
    0.000000
  0
VERTEX
  8
2
  62
0
  10
    75.000000
  20
    31.950000
  30
    0.000000
  0
VERTEX
  8
2
  62
0
  10
    74.250000
  20
    31.950000
  30
    0.000000
  0
VERTEX
  8
2
  62
0
  10
    72.150000
  20
    34.200000
  30
    0.000000
  0
VERTEX
  8
2
  62
0
  10
    72.450000
  20
    36.150000
  30
    0.000000
  0
VERTEX
  8
2
  62
0
  10
    73.350000
  20
    37.050000
  30
    0.000000
  0
SEQEND
  0
POLYLINE
  8
2
  62
0
  66
1
  0
VERTEX
  8
2
  62
0
  10
    0.000000
  20
    0.000000
  30
    0.000000
  0
VERTEX
  8
2
  62
0
  10
    0.000000
  20
    52.500000
  30
    0.000000
  0
VERTEX
  8
2
  62
0
  10
    75.000000
  20
    52.500000
  30
    0.000000
  0
VERTEX
  8
2
  62
0
  10
    75.000000
  20
    0.000000
  30
    0.000000
  0
VERTEX
  8
2
  62
0
  10
    0.000000
  20
    0.000000
  30
    0.000000
  0
SEQEND
  0
ENDSEC
  0
EOF
