  0
SECTION
  2
ENTITIES
  0
POLYLINE
  8
2
  62
0
  66
1
  0
VERTEX
  8
2
  62
0
  10
    212.000000
  20
    313.000000
  30
    0.000000
  0
VERTEX
  8
2
  62
0
  10
    233.000000
  20
    290.000000
  30
    0.000000
  0
VERTEX
  8
2
  62
0
  10
    241.000000
  20
    264.000000
  30
    0.000000
  0
VERTEX
  8
2
  62
0
  10
    239.000000
  20
    231.000000
  30
    0.000000
  0
VERTEX
  8
2
  62
0
  10
    227.000000
  20
    206.000000
  30
    0.000000
  0
VERTEX
  8
2
  62
0
  10
    209.000000
  20
    189.000000
  30
    0.000000
  0
VERTEX
  8
2
  62
0
  10
    187.000000
  20
    179.000000
  30
    0.000000
  0
VERTEX
  8
2
  62
0
  10
    172.000000
  20
    176.000000
  30
    0.000000
  0
VERTEX
  8
2
  62
0
  10
    117.000000
  20
    176.000000
  30
    0.000000
  0
VERTEX
  8
2
  62
0
  10
    117.000000
  20
    327.000000
  30
    0.000000
  0
VERTEX
  8
2
  62
0
  10
    175.000000
  20
    327.000000
  30
    0.000000
  0
VERTEX
  8
2
  62
0
  10
    195.000000
  20
    322.000000
  30
    0.000000
  0
VERTEX
  8
2
  62
0
  10
    212.000000
  20
    313.000000
  30
    0.000000
  0
SEQEND
  0
POLYLINE
  8
2
  62
0
  66
1
  0
VERTEX
  8
2
  62
0
  10
    137.000000
  20
    310.000000
  30
    0.000000
  0
VERTEX
  8
2
  62
0
  10
    166.000000
  20
    310.000000
  30
    0.000000
  0
VERTEX
  8
2
  62
0
  10
    189.000000
  20
    305.000000
  30
    0.000000
  0
VERTEX
  8
2
  62
0
  10
    204.000000
  20
    296.000000
  30
    0.000000
  0
VERTEX
  8
2
  62
0
  10
    216.000000
  20
    279.000000
  30
    0.000000
  0
VERTEX
  8
2
  62
0
  10
    220.000000
  20
    263.000000
  30
    0.000000
  0
VERTEX
  8
2
  62
0
  10
    217.000000
  20
    229.000000
  30
    0.000000
  0
VERTEX
  8
2
  62
0
  10
    209.000000
  20
    214.000000
  30
    0.000000
  0
VERTEX
  8
2
  62
0
  10
    188.000000
  20
    198.000000
  30
    0.000000
  0
VERTEX
  8
2
  62
0
  10
    161.000000
  20
    193.000000
  30
    0.000000
  0
VERTEX
  8
2
  62
0
  10
    137.000000
  20
    194.000000
  30
    0.000000
  0
VERTEX
  8
2
  62
0
  10
    137.000000
  20
    310.000000
  30
    0.000000
  0
SEQEND
  0
POLYLINE
  8
2
  62
0
  66
1
  0
VERTEX
  8
2
  62
0
  10
    269.000000
  20
    327.000000
  30
    0.000000
  0
VERTEX
  8
2
  62
0
  10
    289.000000
  20
    327.000000
  30
    0.000000
  0
VERTEX
  8
2
  62
0
  10
    289.000000
  20
    176.000000
  30
    0.000000
  0
VERTEX
  8
2
  62
0
  10
    269.000000
  20
    176.000000
  30
    0.000000
  0
VERTEX
  8
2
  62
0
  10
    269.000000
  20
    327.000000
  30
    0.000000
  0
SEQEND
  0
POLYLINE
  8
2
  62
0
  66
1
  0
VERTEX
  8
2
  62
0
  10
    439.000000
  20
    323.000000
  30
    0.000000
  0
VERTEX
  8
2
  62
0
  10
    440.000000
  20
    301.000000
  30
    0.000000
  0
VERTEX
  8
2
  62
0
  10
    407.000000
  20
    312.000000
  30
    0.000000
  0
VERTEX
  8
2
  62
0
  10
    381.000000
  20
    311.000000
  30
    0.000000
  0
VERTEX
  8
2
  62
0
  10
    362.000000
  20
    302.000000
  30
    0.000000
  0
VERTEX
  8
2
  62
0
  10
    352.000000
  20
    292.000000
  30
    0.000000
  0
VERTEX
  8
2
  62
0
  10
    344.000000
  20
    278.000000
  30
    0.000000
  0
VERTEX
  8
2
  62
0
  10
    340.000000
  20
    263.000000
  30
    0.000000
  0
VERTEX
  8
2
  62
0
  10
    340.000000
  20
    238.000000
  30
    0.000000
  0
VERTEX
  8
2
  62
0
  10
    350.000000
  20
    211.000000
  30
    0.000000
  0
VERTEX
  8
2
  62
0
  10
    364.000000
  20
    198.000000
  30
    0.000000
  0
VERTEX
  8
2
  62
0
  10
    386.000000
  20
    191.000000
  30
    0.000000
  0
VERTEX
  8
2
  62
0
  10
    409.000000
  20
    192.000000
  30
    0.000000
  0
VERTEX
  8
2
  62
0
  10
    423.000000
  20
    197.000000
  30
    0.000000
  0
VERTEX
  8
2
  62
0
  10
    423.000000
  20
    238.000000
  30
    0.000000
  0
VERTEX
  8
2
  62
0
  10
    390.000000
  20
    238.000000
  30
    0.000000
  0
VERTEX
  8
2
  62
0
  10
    390.000000
  20
    255.000000
  30
    0.000000
  0
VERTEX
  8
2
  62
0
  10
    443.000000
  20
    256.000000
  30
    0.000000
  0
VERTEX
  8
2
  62
0
  10
    443.000000
  20
    186.000000
  30
    0.000000
  0
VERTEX
  8
2
  62
0
  10
    426.000000
  20
    178.000000
  30
    0.000000
  0
VERTEX
  8
2
  62
0
  10
    399.000000
  20
    173.000000
  30
    0.000000
  0
VERTEX
  8
2
  62
0
  10
    372.000000
  20
    175.000000
  30
    0.000000
  0
VERTEX
  8
2
  62
0
  10
    350.000000
  20
    184.000000
  30
    0.000000
  0
VERTEX
  8
2
  62
0
  10
    329.000000
  20
    206.000000
  30
    0.000000
  0
VERTEX
  8
2
  62
0
  10
    319.000000
  20
    235.000000
  30
    0.000000
  0
VERTEX
  8
2
  62
0
  10
    319.000000
  20
    264.000000
  30
    0.000000
  0
VERTEX
  8
2
  62
0
  10
    329.000000
  20
    293.000000
  30
    0.000000
  0
VERTEX
  8
2
  62
0
  10
    346.000000
  20
    313.000000
  30
    0.000000
  0
VERTEX
  8
2
  62
0
  10
    372.000000
  20
    327.000000
  30
    0.000000
  0
VERTEX
  8
2
  62
0
  10
    410.000000
  20
    330.000000
  30
    0.000000
  0
VERTEX
  8
2
  62
0
  10
    439.000000
  20
    323.000000
  30
    0.000000
  0
SEQEND
  0
POLYLINE
  8
2
  62
0
  66
1
  0
VERTEX
  8
2
  62
0
  10
    477.000000
  20
    327.000000
  30
    0.000000
  0
VERTEX
  8
2
  62
0
  10
    497.000000
  20
    327.000000
  30
    0.000000
  0
VERTEX
  8
2
  62
0
  10
    497.000000
  20
    176.000000
  30
    0.000000
  0
VERTEX
  8
2
  62
0
  10
    477.000000
  20
    176.000000
  30
    0.000000
  0
VERTEX
  8
2
  62
0
  10
    477.000000
  20
    327.000000
  30
    0.000000
  0
SEQEND
  0
POLYLINE
  8
2
  62
0
  66
1
  0
VERTEX
  8
2
  62
0
  10
    616.000000
  20
    325.000000
  30
    0.000000
  0
VERTEX
  8
2
  62
0
  10
    616.000000
  20
    303.000000
  30
    0.000000
  0
VERTEX
  8
2
  62
0
  10
    593.000000
  20
    312.000000
  30
    0.000000
  0
VERTEX
  8
2
  62
0
  10
    567.000000
  20
    311.000000
  30
    0.000000
  0
VERTEX
  8
2
  62
0
  10
    553.000000
  20
    301.000000
  30
    0.000000
  0
VERTEX
  8
2
  62
0
  10
    551.000000
  20
    284.000000
  30
    0.000000
  0
VERTEX
  8
2
  62
0
  10
    560.000000
  20
    272.000000
  30
    0.000000
  0
VERTEX
  8
2
  62
0
  10
    597.000000
  20
    253.000000
  30
    0.000000
  0
VERTEX
  8
2
  62
0
  10
    616.000000
  20
    237.000000
  30
    0.000000
  0
VERTEX
  8
2
  62
0
  10
    623.000000
  20
    220.000000
  30
    0.000000
  0
VERTEX
  8
2
  62
0
  10
    622.000000
  20
    203.000000
  30
    0.000000
  0
VERTEX
  8
2
  62
0
  10
    617.000000
  20
    192.000000
  30
    0.000000
  0
VERTEX
  8
2
  62
0
  10
    603.000000
  20
    180.000000
  30
    0.000000
  0
VERTEX
  8
2
  62
0
  10
    584.000000
  20
    174.000000
  30
    0.000000
  0
VERTEX
  8
2
  62
0
  10
    554.000000
  20
    174.000000
  30
    0.000000
  0
VERTEX
  8
2
  62
0
  10
    530.000000
  20
    181.000000
  30
    0.000000
  0
VERTEX
  8
2
  62
0
  10
    529.000000
  20
    204.000000
  30
    0.000000
  0
VERTEX
  8
2
  62
0
  10
    548.000000
  20
    194.000000
  30
    0.000000
  0
VERTEX
  8
2
  62
0
  10
    581.000000
  20
    191.000000
  30
    0.000000
  0
VERTEX
  8
2
  62
0
  10
    597.000000
  20
    198.000000
  30
    0.000000
  0
VERTEX
  8
2
  62
0
  10
    602.000000
  20
    209.000000
  30
    0.000000
  0
VERTEX
  8
2
  62
0
  10
    601.000000
  20
    221.000000
  30
    0.000000
  0
VERTEX
  8
2
  62
0
  10
    592.000000
  20
    232.000000
  30
    0.000000
  0
VERTEX
  8
2
  62
0
  10
    555.000000
  20
    251.000000
  30
    0.000000
  0
VERTEX
  8
2
  62
0
  10
    535.000000
  20
    268.000000
  30
    0.000000
  0
VERTEX
  8
2
  62
0
  10
    530.000000
  20
    280.000000
  30
    0.000000
  0
VERTEX
  8
2
  62
0
  10
    530.000000
  20
    295.000000
  30
    0.000000
  0
VERTEX
  8
2
  62
0
  10
    535.000000
  20
    310.000000
  30
    0.000000
  0
VERTEX
  8
2
  62
0
  10
    550.000000
  20
    323.000000
  30
    0.000000
  0
VERTEX
  8
2
  62
0
  10
    567.000000
  20
    329.000000
  30
    0.000000
  0
VERTEX
  8
2
  62
0
  10
    596.000000
  20
    330.000000
  30
    0.000000
  0
VERTEX
  8
2
  62
0
  10
    616.000000
  20
    325.000000
  30
    0.000000
  0
SEQEND
  0
POLYLINE
  8
2
  62
0
  66
1
  0
VERTEX
  8
2
  62
0
  10
    651.000000
  20
    327.000000
  30
    0.000000
  0
VERTEX
  8
2
  62
0
  10
    671.000000
  20
    327.000000
  30
    0.000000
  0
VERTEX
  8
2
  62
0
  10
    671.000000
  20
    176.000000
  30
    0.000000
  0
VERTEX
  8
2
  62
0
  10
    651.000000
  20
    176.000000
  30
    0.000000
  0
VERTEX
  8
2
  62
0
  10
    651.000000
  20
    327.000000
  30
    0.000000
  0
SEQEND
  0
POLYLINE
  8
2
  62
0
  66
1
  0
VERTEX
  8
2
  62
0
  10
    710.000000
  20
    327.000000
  30
    0.000000
  0
VERTEX
  8
2
  62
0
  10
    738.000000
  20
    327.000000
  30
    0.000000
  0
VERTEX
  8
2
  62
0
  10
    788.000000
  20
    206.000000
  30
    0.000000
  0
VERTEX
  8
2
  62
0
  10
    841.000000
  20
    327.000000
  30
    0.000000
  0
VERTEX
  8
2
  62
0
  10
    867.000000
  20
    327.000000
  30
    0.000000
  0
VERTEX
  8
2
  62
0
  10
    867.000000
  20
    176.000000
  30
    0.000000
  0
VERTEX
  8
2
  62
0
  10
    847.000000
  20
    176.000000
  30
    0.000000
  0
VERTEX
  8
2
  62
0
  10
    848.000000
  20
    301.000000
  30
    0.000000
  0
VERTEX
  8
2
  62
0
  10
    795.000000
  20
    177.000000
  30
    0.000000
  0
VERTEX
  8
2
  62
0
  10
    783.000000
  20
    176.000000
  30
    0.000000
  0
VERTEX
  8
2
  62
0
  10
    735.000000
  20
    284.000000
  30
    0.000000
  0
VERTEX
  8
2
  62
0
  10
    730.000000
  20
    302.000000
  30
    0.000000
  0
VERTEX
  8
2
  62
0
  10
    730.000000
  20
    176.000000
  30
    0.000000
  0
VERTEX
  8
2
  62
0
  10
    710.000000
  20
    176.000000
  30
    0.000000
  0
VERTEX
  8
2
  62
0
  10
    710.000000
  20
    327.000000
  30
    0.000000
  0
SEQEND
  0
POLYLINE
  8
2
  62
0
  66
1
  0
VERTEX
  8
2
  62
0
  10
    0.000000
  20
    0.000000
  30
    0.000000
  0
VERTEX
  8
2
  62
0
  10
    0.000000
  20
    500.000000
  30
    0.000000
  0
VERTEX
  8
2
  62
0
  10
    1000.000000
  20
    500.000000
  30
    0.000000
  0
VERTEX
  8
2
  62
0
  10
    1000.000000
  20
    0.000000
  30
    0.000000
  0
VERTEX
  8
2
  62
0
  10
    0.000000
  20
    0.000000
  30
    0.000000
  0
SEQEND
  0
ENDSEC
  0
EOF
